<?xml version="1.0" encoding="utf-8"?>
<!-- Generator: Adobe Illustrator 19.1.1, SVG Export Plug-In . SVG Version: 6.00 Build 0)  -->
<svg version="1.1" id="Слой_1" xmlns="http://www.w3.org/2000/svg" xmlns:xlink="http://www.w3.org/1999/xlink" x="0px" y="0px"
	 viewBox="-172.1 551.6 250.8 146.2" style="enable-background:new -172.1 551.6 250.8 146.2;" xml:space="preserve">
<style type="text/css">
	.st0{fill:#F49E00;}
</style>
<g>
	<path class="st0" d="M12.6,632.2c-0.3-1.2,9.6-0.9,9.6-0.9l18.4,0.8l11.8,1.2l6.5,0.9l6.3,4v3.5l-9.3-2.4l-16.8-3.2H29l-9.5,1
		L12.6,632.2z"/>
	<polygon class="st0" points="57.8,610.3 65.7,612.5 70.9,616.4 68.7,622.3 58.5,617.3 	"/>
	<polygon class="st0" points="7,612 15.7,611.3 21.7,610.4 21.3,617.2 8.5,619.7 	"/>
	<polygon class="st0" points="-1.1,687.9 30,689.2 30,691.6 29.9,693.9 24.1,694.7 6.3,693.2 -0.1,693.6 	"/>
	<polygon class="st0" points="16.4,656.7 30.3,658.4 30.9,667 31.5,689.3 29.9,689.4 28.9,685 30,674.3 28.4,665.1 22.4,664.5 
		17.3,665.2 	"/>
	<polygon class="st0" points="-32.4,657.4 -18.4,657.5 -19.8,664 -22.7,664.7 -30.3,663.8 -31.8,668 	"/>
	<polygon class="st0" points="-139.4,635.4 -134.1,633 -129.6,632.7 -129.7,639.5 -136.9,640.4 	"/>
	<polygon class="st0" points="-132.2,654.5 -126,652.4 -115.6,651.4 -103.8,650.2 -90.7,649.9 -88.4,650.1 -87.9,654.1 -88.1,657.7 
		-94.6,657.2 -109.6,658.5 -113.3,658.1 -117.6,657.8 -120.1,659.8 -119.9,657.1 -122.2,655.6 -123.7,654.5 -126.3,655.7 
		-129.7,657.6 	"/>
	<path class="st0" d="M-93.9,607.8l-0.1-7.6l-9.5,0.8l-13.6,0.3l-12.1-0.5l-0.2,29l0.3,16.6l11.8-1l0.3-2.6l0.3-5.6l0.5-2.6l7.6,0.3
		l2.4,0.8l-0.2,7.7l0.1,1.3l12.3,0.6l0.8-3.5v-26.9L-93.9,607.8z M-114.3,629.9h-7l-0.8-2.3l-0.3-5.1l4.8,0.5l3,0.3l0.3,4.8V629.9z
		 M-122.6,612.2l0.2-2.1l5.4-0.5l2.3,1.2l-0.2,6.4l-0.5,1.2l-6.6-0.9L-122.6,612.2z M-100.5,628.2l-1.7,1.8l-6.2,0.3v-7.9l4.2,0.2
		l3.8-0.5L-100.5,628.2z M-99.9,615.6l-0.6,2h-6.7l-1.1-3.8v-4.1l8.3,0.9L-99.9,615.6L-99.9,615.6z"/>
	<path class="st0" d="M57.2,592.6L57,585l-9.5,0.8l-13.6,0.3l-12.1-0.5l-0.2,29l0.3,16.6l11.8-1l0.3-2.6l0.3-5.6l0.5-2.6l7.6,0.3
		l2.4,0.8l-0.2,7.7l0.1,1.3L57,630l0.8-3.5v-26.8L57.2,592.6z M36.8,614.7h-7l-0.9-2.3l-0.3-5.1l4.8,0.5l3,0.3l0.3,4.8L36.8,614.7
		L36.8,614.7z M28.5,597l0.2-2.1l5.4-0.5l2.3,1.2l-0.2,6.4l-0.5,1.2l-6.7-0.9L28.5,597z M50.6,613l-1.7,1.8l-6.2,0.3v-7.9l4.2,0.2
		l3.8-0.5L50.6,613z M51.2,600.5l-0.6,2h-6.7l-1.1-3.8v-4.1l8.3,0.9v5H51.2z"/>
	<polygon class="st0" points="-92.1,629.4 -86,629.9 -81.8,630.1 -84.4,635.6 -93,636.3 	"/>
	<path d="M-58.2,647.9c-11.8,3.4-23,8.5-33.3,15.2c-0.8,0.6,0,1.9,0.8,1.4c18.6-12.2,40.3-18.6,62.3-20.4c3.1-0.3,6.3-0.4,9.4-0.5
		c0-0.7,0-0.8,0-1.6C-32.3,642.4-45.5,644.2-58.2,647.9z"/>
	<path d="M74.6,665.9c-11.6-3.2-21.6-10-32.7-14.7c-8.2-3.5-17.1-5.5-25.9-6.8c0,0.5,0,1,0,1.6c8,1.2,15.9,3,23.4,5.9
		c11.9,4.6,22.4,12.2,34.8,15.6C75.2,667.7,75.6,666.2,74.6,665.9z"/>
	<path d="M19.9,645.6c3.7-8.2,15.2-8.4,18.7,0.1c0.2,0.5,0.9,0.8,1.3,0.3c6.5-7.9,19.4-2.6,17.9,7.7c-0.1,1,1.2,1.4,1.5,0.4
		c1.5-5.8,10.5-3.9,13.3-0.5c3.2,3.7,1.6,9.9-3.3,10.9c-1,0.2-0.6,1.7,0.4,1.5c6-1.3,8-9.1,4-13.5c-3.7-4.2-14.2-5.7-15.9,1.2
		c0.5,0.1,1,0.3,1.5,0.4c1.7-11.7-12.8-18.5-20.5-9.2l1.3,0.3c-3.9-9.6-17.2-10.1-21.5-0.5C18.1,645.7,19.4,646.5,19.9,645.6"/>
	<path d="M-53.2,623.3c-13.5-2.9-27.3-3.9-41-3.1c-0.1,0.6,1.7,0.8,1.3,1.5c13.1-0.7,26.3,0.3,39.2,3.1
		C-52.6,625-52.2,623.5-53.2,623.3z"/>
	<path d="M-154,636.8c-0.9,0.4-0.1,1.7,0.8,1.3c7.8-4,15.9-7.3,24.2-9.9c0-0.5-0.1-1-0.4-1.5C-137.9,629.3-146.1,632.7-154,636.8z"
		/>
	<path d="M-38.3,626.9c-2.3-4.6-7.8-7-12.7-4.9c-4.9,2.1-7.5,7.4-9.1,12.2c0.5-0.1,0.9-0.1,1.4-0.2c-2.3-3.9-6.1-7.2-10.1-3.4
		c-3.7,3.5-7.1,9.1-5.1,14.3c0.4-0.3,0.8-0.6,1.1-0.9c-5-3.3-12.3-2.2-15.3,3.3c-1.4,2.5-1.8,5.6-1.1,8.3c0.6,2.2,2.1,5,4.7,4.1
		c0.9-0.3,0.5-1.8-0.4-1.5c-2.7,0.8-3.2-4.8-3.1-6.2c0.2-2.2,1.1-4.3,2.6-5.9c3.2-3.2,8.2-3.2,11.8-0.9c0.5,0.3,1.4-0.2,1.1-0.9
		c-1.4-3.6,0.1-7,2.3-9.9c1.1-1.4,3.2-4.3,5.2-4.2c2.3,0,3.9,2.7,5,4.5c0.4,0.6,1.2,0.4,1.4-0.2c1.3-3.9,3.2-8.2,6.8-10.5
		c4.4-2.8,9.8-1,12.1,3.5C-39.1,628.6-37.8,627.8-38.3,626.9"/>
	<path d="M-61.6,648.7c-0.6-0.5-1.3-1.1-1.9-1.6c-0.2-1.4,0.2-2.5,1.1-3.3c0.8-1,2-1.9,3.2-2.2c2.7-0.8,5.3,0.1,6.7,2.5
		c0.5,0.9,1.7,0.1,1.3-0.8c-1.5-3.4,1.9-6.1,5.1-5.2c2.2,0.6,3.6,2.6,4.3,4.7c0.4,1.2,0.3,2.3,1.7,2.5c0.3,0,0.6,0,0.8-0.2
		c0.1-0.1,0.2-0.2,0.3-0.4c0.6-0.8-0.5-1.9-1.1-1.1c1-1.2-1.9-4.9-2.7-5.5c-1.6-1.4-3.7-2-5.7-1.6c-3.6,0.7-5.3,4.4-3.9,7.6
		c0.4-0.3,0.9-0.5,1.3-0.8c-2.5-4.2-7.9-4.6-11.5-1.5c-2.9,2.5-3.7,7.9,1.1,8.5C-60.7,650.4-60.7,648.8-61.6,648.7"/>
	<path d="M-166.3,687.7c-4.5-1.3-5.5-7-2.4-10.3c2.6-2.6,8.8-4.4,11.1-0.5c0.5,0.9,1.8,0.1,1.3-0.8c-0.8-1.6-1.3-3.2-1.3-5.1
		c0-0.7,0.1-1.5,0.3-2.2c0.8-3.1,2.8-3.1,5.9,0.1c0.1,1,1.7,1,1.5,0c-0.3-1.9-0.9-8.1,3-7.6c3.6,0.5,4,4.3,4,7.2h1.5
		c-0.6-4.5,7.9-9.6,9.6-3.5c0.9,3.2,0.1,6.6-1.4,9.5c-0.5,0.9,0.9,1.7,1.3,0.8c2-3.7,3.8-11.6-0.8-14.3c-4.2-2.4-10.8,3.1-10.2,7.5
		c0.1,1,1.6,1,1.5,0c0-3.5-1.1-8.7-5.6-8.7c-4.7,0-4.9,5.8-4.5,9.1h1.5c-0.4-3.3-3.7-5.7-6.8-3.7c-3.7,2.4-2.6,8.4-0.9,11.6
		c0.4-0.3,0.9-0.5,1.3-0.8c-2.9-5.1-10.9-3.1-14,0.8c-3.3,4.2-1.7,10.7,3.6,12.2C-165.7,689.5-165.3,688-166.3,687.7"/>
	<path d="M-138.6,661.6c-5.5-6.6,7-9.1,7.6-3c0.1,0.7,1,1.1,1.4,0.4c0.9-1.6,2.5-3.3,4.4-3.7c5.2-1,4,3.4,3,5.6
		c-0.3,0.7,0.8,1.4,1.3,0.8c0.8-1,1.6-2.2,2.8-2.9c2.5-1.5,5,0.7,5,3.3c0,2.7-1.4,5.1-3.4,6.9c0.4,0.3,0.9,0.5,1.3,0.8
		c0.1-0.3,0.2-0.6,0.3-0.8c0.3-1-1.2-1.4-1.5-0.4c-0.1,0.3-0.2,0.6-0.3,0.8c-0.2,0.8,0.7,1.3,1.3,0.8c2.9-2.7,5.3-7.7,2.9-11.5
		c-2.7-4.3-7.4-0.8-9.5,2c0.4,0.3,0.9,0.5,1.3,0.8c1-2.5,1.6-6.4-1.6-7.6c-3.4-1.3-7.1,1.8-8.7,4.5c0.5,0.1,1,0.3,1.4,0.4
		c-0.4-4.5-5-5.7-8.8-4.5c-4.7,1.5-4,5.5-1.4,8.6C-139.1,663.5-138,662.4-138.6,661.6"/>
	<path d="M-150.2,626.9c0.3,0.7,0.7,1.4,1.3,1.9c0,0,0,0,0,0c0.3-0.4,0.5-0.9,0.8-1.3C-148.8,627.3-149.5,627.1-150.2,626.9z"/>
	<path d="M-148.1,620.3c-2.3,1.4-3.1,4.3-2.1,6.7c0.7,0.1,1.4,0.3,2.1,0.6c-0.3,0.4-0.5,0.9-0.8,1.3c0.1,0,0.2,0.1,0.3,0.1
		c0.7,0.3,1.3-0.8,0.8-1.3c-1.8-1.6-1.7-4.8,0.5-6.1c2.7-1.6,5.6,0.8,6.4,3.3c0-0.9,0.1-1.8,0.3-2.6
		C-142.4,620-145.4,618.6-148.1,620.3z"/>
	<path d="M-161.6,638.4c0.2,1,1.7,0.6,1.5-0.4c-1.2-6.7,5.1-11.4,11.2-9.1c-0.6-0.5-1.1-1.2-1.3-1.9
		C-156.9,625.6-162.8,631.3-161.6,638.4z"/>
	<polygon points="-148.9,628.9 -148.9,628.9 -148.9,628.9 	"/>
	<path d="M-88,606.2c0-0.1,0-0.1,0.1-0.2C-87.9,606.1-88,606.1-88,606.2z"/>
	<path d="M-88.1,606.7C-88.1,606.7-88.1,606.7-88.1,606.7c0.1-0.2,0.1-0.3,0.1-0.5C-88,606.4-88.1,606.5-88.1,606.7z"/>
	<path d="M-140.9,625C-140.9,625-140.9,625-140.9,625C-140.9,624.9-140.9,624.9-140.9,625C-140.9,624.9-140.9,625-140.9,625z"/>
	<path d="M-76.8,613.7c0.8-3.2-0.3-8-2.1-9.6c-1.8-1.7-4.7-1.9-6.7-0.8c-0.2,0.8-0.3,1.5-0.5,2.3c1.4-2.4,5.8-1.5,7.1,0.7
		c0.7,1.1,1.4,5.5,0.5,7.7C-78,613.8-77.4,613.7-76.8,613.7z"/>
	<path d="M-87.9,606c0,0.1,0,0.1-0.1,0.2c0,0.2-0.1,0.3-0.1,0.5c0.5,0.1,1,0.1,1.5,0.2c0.1-0.5,0.2-1,0.4-1.3
		c0.2-0.7,0.4-1.5,0.5-2.3C-86.7,603.9-87.5,604.8-87.9,606z"/>
	<path d="M-78.6,614c-0.3,0.7-0.7,1.2-1.4,1.3c0.2,0.4,0.4,0.8,0.7,1.2c0.7-1.1,1.4-1.5,2.1-1.6c0.2-0.4,0.3-0.8,0.4-1.2
		C-77.4,613.7-78,613.8-78.6,614z"/>
	<path d="M-79.3,616.5c-0.3-0.4-0.5-0.8-0.7-1.2c0.7-0.1,1.2-0.6,1.4-1.3c-0.9,0.3-1.6,0.9-2.1,1.7c-0.3,0.5,0.1,1.2,0.7,1.2
		c1.3-0.1,2.2-0.9,2.8-2C-77.9,614.9-78.6,615.4-79.3,616.5z"/>
	<path d="M-71.1,620.4c-0.7-2.5-1.7-5.4-4.3-6.4c-0.5-0.2-0.9-0.2-1.4-0.3c-0.1,0.4-0.3,0.8-0.4,1.2c2.2-0.1,4.3,4.2,4.6,5.9
		C-72.3,621.8-70.9,621.4-71.1,620.4z"/>
	<path d="M-140.6,622.2c-0.1,0.9-0.2,1.8-0.3,2.6c0,0,0,0.1,0,0.1c0.5-0.1,1-0.1,1.5-0.2C-139.6,623.9-140.1,623-140.6,622.2z"/>
	<path d="M-130,605.7c-2.1,0.3-4.1,1.7-5.5,3.4c-2.9,3.8-4.5,8.5-5.1,13.2c0.6,0.8,1,1.6,1.2,2.5c-0.5,0.1-1,0.1-1.5,0.2
		c0,0.1,0,0.1,0.1,0.2c0.2,0.9,1.5,0.6,1.5-0.2c0.2-4.1,1.1-8,3-11.6c1.1-2.1,3.5-5.6,6.1-6.2C-130.3,606.6-130.2,606.1-130,605.7z"
		/>
	<path d="M-85.6,603.3c0.7-3.6,0.8-7.3-1.1-10.6c-1.7-3.1-4.8-5-8.4-4.7c-4.7,0.4-8.9,3.2-11.9,6.9c0.7,0,1.5,0,2.2,0
		c1.6-1.6,3.4-3,5.5-4c4.2-2,8.8-1.8,11.3,2.6c2.2,3.8,1.2,8.5,0.1,12.5C-87.5,604.8-86.7,603.9-85.6,603.3z"/>
	<path d="M-88.1,606.7c0,0.1,0,0.1,0,0.2c-0.1,0.9,1.3,1,1.5,0.2c0.2-0.5,0.3-1,0.4-1.5c-0.2,0.4-0.4,0.8-0.4,1.3
		C-87.1,606.8-87.6,606.8-88.1,606.7z"/>
	<path d="M-39.3,627.8c0.2-0.1,0.4-0.2,0.6-0.3c0.2,0.3,0.4,0.6,0.5,1c0.4-1.8,4.5,0,5.3,0.7c1.4,1.3,1.6,3,1.1,4.8
		c-0.2,0.7,0.6,1.2,1.1,0.9c5.3-2.7,7.8,3.7,6.4,7.8c-0.3,0.9,1.2,1.4,1.5,0.4c1.9-5.6-2.3-12.7-8.7-9.5c0.4,0.3,0.8,0.6,1.1,0.9
		c0.9-3-0.2-6.4-3.2-7.6c-1.5-0.6-5.6-0.9-6.1,1.3c-0.1,0.4,0.1,0.8,0.5,1l0.2,0.1c0.3,0.1,0.7-0.1,0.9-0.4c0,0,0-0.1,0.1-0.1
		C-37.6,627.7-38.9,626.9-39.3,627.8"/>
	<path d="M-18.9,632.6c-4.2-2-8.8-3.6-13.1-5.2c-0.9-0.3-1.3,1.2-0.4,1.5c4.3,1.6,8.8,3.2,13,5.2C-18.8,634.1-19.1,633.2-18.9,632.6
		z"/>
	<path d="M-18.8,633.1c5.8-4.2,12.2-7.1,18.8-9.6c6.4-2.3,13.6-5.5,20.5-5.6c1,0,1-1.6,0-1.5c-7,0.1-14.3,3.3-20.9,5.6
		c-6.8,2.5-13.3,5.5-19.2,9.7C-20.3,632.3-19.6,633.7-18.8,633.1"/>
	<path d="M-19.7,639.6c-0.4,11.9-0.4,23.9-0.1,35.8l1.6,0.5c-0.3-12.1-0.3-24.2,0.1-36.3C-18.1,639-19.6,639-19.7,639.6"/>
	<path d="M-19.5,639.6c12.2,1.2,24.5,0.9,36.6-0.8c-0.3-0.2-0.7-0.5-1-0.7c-2.3,22.9,2.6,23.3-0.3,46.2c-0.1,1,1.4,1,1.5,0
		c3-22.8-2-23.3,0.3-46.2c0.1-0.6-0.5-0.8-1-0.7c-12,1.7-24.1,2-36.2,0.8C-20.5,637.9-20.5,639.5-19.5,639.6"/>
	<path d="M-11.5,649.2c2.3-0.3,4.6-0.2,6.9,0.2c-0.2-0.2-0.4-0.5-0.6-0.7c0,2.6,0,5.1,0,7.7c0,1,1.5,1,1.5,0c0-2.6,0-5.1,0-7.7
		c0-0.3-0.2-0.7-0.6-0.7c-2.4-0.4-4.9-0.5-7.3-0.2C-12.5,647.7-12.5,649.3-11.5,649.2"/>
	<path d="M-12.6,650.4c0.1,1.9,0.3,3.8,0.4,5.7c0,0.4,0.3,0.8,0.8,0.8c2.2-0.1,4.4,0.1,6.5,0.6c1,0.2,1.4-1.3,0.4-1.5
		c-2.3-0.5-4.6-0.7-6.9-0.6c0.3,0.3,0.5,0.5,0.8,0.8c-0.1-1.9-0.3-3.8-0.4-5.7C-11.1,649.4-12.7,649.4-12.6,650.4"/>
	<path d="M-10.5,661.4c2.1,0.2,4.3,0.3,6.4,0.5c-0.3-0.3-0.5-0.5-0.8-0.8c0.1,2.5,0.1,5,0.1,7.5c0,1,1.5,1,1.5,0c0-2.5,0-5-0.1-7.5
		c0-0.4-0.3-0.7-0.8-0.8c-2.1-0.2-4.3-0.3-6.4-0.5C-11.5,659.8-11.5,661.4-10.5,661.4"/>
	<path d="M-12.2,662.5c0,2,0,4,0,6c0,0.4,0.4,0.8,0.8,0.8c2.4-0.1,4.7-0.2,7.1-0.4c1-0.1,1-1.6,0-1.5c-2.4,0.1-4.7,0.2-7.1,0.4
		c0.3,0.3,0.5,0.5,0.8,0.8c0-2,0-4,0-6C-10.7,661.5-12.2,661.5-12.2,662.5"/>
	<path d="M1.6,649.5c0,1.7,0,3.5,0.1,5.2c0,0.8,0.1,1.5,0.8,2c0.8,0.6,2,0.4,2.9,0.4c1.8,0,3.6,0,5.4,0c1,0,1-1.6,0-1.5h-3
		c-1,0-2.4,0.3-3.4,0c-1.4-0.4-1.2-1.6-1.2-2.8c0-1.1-0.1-2.2-0.1-3.3C3.1,648.5,1.6,648.5,1.6,649.5"/>
	<path d="M2.1,649.5c2.9-0.4,5.6,1.2,8.5,0.3c-0.3-0.2-0.7-0.5-1-0.7c0.1,2,0.1,4,0.1,6c0,1,1.5,1,1.5,0c0-2,0-4-0.1-6
		c0-0.5-0.5-0.9-1-0.7c-2.7,0.8-5.4-0.7-8.1-0.3C1.1,648.1,1.1,649.6,2.1,649.5"/>
	<path d="M1.1,661.5c0,1.2,0,2.4,0,3.6c0,0.6,0,1.2,0,1.8c0,0.3,0.2,1.5,0.1,1.6h1.1l-0.1-0.1v1.1c0,0,0-0.1,0.1-0.1
		c0.6-0.8-0.4-1.9-1.1-1.1c0,0,0,0.1-0.1,0.1c-0.3,0.3-0.3,0.8,0,1.1l0.1,0.1c0.3,0.3,0.8,0.3,1.1,0c0.7-0.7,0.4-2.1,0.4-3
		c0-1.7,0-3.4,0-5.1C2.7,660.5,1.2,660.5,1.1,661.5"/>
	<path d="M2.2,661.5c2.7,0.6,5.4,0.6,8.1-0.1c-0.3-0.2-0.7-0.5-1-0.7c-0.1,1.2-0.1,2.5-0.2,3.7c0,0.6,0.2,2.7-0.1,3
		c-0.2,0.3-3,0.2-3.4,0.2c-1.4,0.1-2.7,0.2-4.1,0.3c-1,0.1-1,1.6,0,1.5L7,669c0.9-0.1,2.3,0.2,3.1-0.5c0.7-0.6,0.5-1.8,0.5-2.5
		c0.1-1.8,0.2-3.6,0.3-5.4c0-0.5-0.5-0.9-1-0.7c-2.4,0.6-4.9,0.6-7.3,0.1C1.7,659.8,1.2,661.3,2.2,661.5"/>
	<path d="M-6.6,673.6c0.3,3,0.2,6-0.4,9l0.8,1c0.3,0,0.6-0.2,0.7-0.6c0.6-3.1,0.8-6.3,0.5-9.4C-5.2,672.7-6.7,672.6-6.6,673.6"/>
	<path d="M-5.6,673.9h4.5c1.1,0,3.3-0.4,4.1,0.4s0.6,3.1,0.6,4.3c0,1.6,0,3.1,0,4.7c0,1,1.5,1,1.5,0c0.1-2.1,0.1-4.1,0-6.2
		c-0.1-1.1,0.2-3.4-0.7-4.2c-0.8-0.8-2.6-0.4-3.6-0.4c-2.1,0-4.2,0-6.3,0C-6.6,672.4-6.6,673.9-5.6,673.9"/>
	<path d="M-21.8,639.8c0.7-0.5,1.5-0.5,2.2-0.1c0.9,0.5,1.6-0.8,0.8-1.3c-1.1-0.7-2.6-0.7-3.7,0.1C-23.4,639-22.6,640.4-21.8,639.8"
		/>
	<path d="M-21.6,638.8l4.6-4.5c0.7-0.7-0.4-1.8-1.1-1.1l-4.6,4.5C-23.4,638.4-22.4,639.5-21.6,638.8"/>
	<path d="M-18.8,634c7.2,0.6,14.4,0.7,21.6,0.4c3.3-0.1,6.9-0.9,10.2-0.7c2.7,0.2,4.2,3.2,6.4,4.7c0.1-0.5,0.1-0.9,0.2-1.4
		c-0.8,0.2-1.4,0-2-0.5c-0.8-0.6-1.9,0.5-1.1,1.1c1.1,0.9,2.1,1.1,3.5,0.9c0.7-0.1,0.7-1.1,0.2-1.4c-1.7-1.1-2.4-2.5-3.7-3.9
		c-0.6-0.7-0.8-0.9-1.7-1.1c-1.3-0.3-2.9,0.2-4.2,0.3c-2,0.2-4,0.3-6,0.4c-7.8,0.4-15.6,0.2-23.4-0.4C-19.8,632.4-19.8,634-18.8,634
		"/>
	<path d="M-17.7,640l2.9-4.9c0.5-0.9-0.8-1.6-1.3-0.8l-2.9,4.9C-19.6,640-18.2,640.8-17.7,640"/>
	<path d="M-13.9,636c-0.3,0.8-0.6,1.6-0.8,2.5c-0.3,0.9,1.2,1.4,1.5,0.4c0.3-0.8,0.6-1.6,0.8-2.5C-12.1,635.5-13.6,635.1-13.9,636"
		/>
	<path d="M-11,636.8c-0.3,1-0.6,1.9-0.8,2.9c-0.3,1,1.2,1.4,1.5,0.4s0.6-1.9,0.8-2.9C-9.2,636.3-10.7,635.9-11,636.8"/>
	<path d="M-7.3,635.6c-0.1,1-0.3,1.9-0.4,2.9c-0.1,0.4,0.1,0.8,0.5,1c0.4,0.1,0.9-0.1,1-0.5c0.1-1,0.3-1.9,0.4-2.9
		c0.1-0.4-0.1-0.8-0.5-1C-6.7,635-7.2,635.2-7.3,635.6"/>
	<path d="M-3.2,637.4c1,0,1-1.5,0-1.5S-4.2,637.4-3.2,637.4"/>
	<path d="M0.2,636.4c0.3,1,0.6,1.9,0.8,2.9c0.3,1,1.8,0.5,1.5-0.4c-0.3-1-0.6-1.9-0.8-2.9C1.4,635.1-0.1,635.5,0.2,636.4"/>
	<path d="M4,636.2c0.4,0.7,0.8,1.4,1.2,2.1c0.5,0.9,1.8,0.1,1.3-0.8c-0.4-0.7-0.8-1.4-1.2-2.1C4.8,634.6,3.4,635.3,4,636.2"/>
	<path d="M9,635.6c0.8,1,1.6,1.9,2.5,2.9c0.6,0.8,1.7-0.3,1.1-1.1l-2.5-2.9C9.5,633.7,8.4,634.8,9,635.6"/>
	<path d="M-168.7,645.6c4.9-3.1,10.1-5.7,15.5-7.8c0.9-0.3,0.5-1.8-0.4-1.5c-5.6,2.1-10.9,4.7-15.9,7.9
		C-170.3,644.8-169.5,646.2-168.7,645.6"/>
	<path d="M-116.9,665c1,0,1-1.5,0-1.5S-117.9,665-116.9,665"/>
	<path d="M-143,679.4c43.7-16.8,95.9-23.7,136.7,4.4c0.8,0.6,1.6-0.8,0.8-1.3c-30.8-21.2-70-23-105.4-14.8
		c-11.1,2.6-21.9,6.1-32.5,10.2C-144.3,678.3-143.9,679.8-143,679.4"/>
	<path d="M-130.1,601.2c-0.5,15.4-0.4,30.7,0.2,46.1c0.5,0,1-0.1,1.5-0.1c-0.1-0.3-0.1-0.6-0.2-0.9c-0.2-0.7-1.6-0.4-1.5,0.3
		c0.1,0.3,0.1,0.6,0.2,0.9c0.1,0.6,1.5,0.4,1.5-0.1c-0.6-15.4-0.6-30.8-0.1-46.2C-128.5,600.6-130.1,600.6-130.1,601.2"/>
	<path d="M-129.9,601.2c12.2,1.2,24.5,0.9,36.6-0.8c-0.3-0.2-0.7-0.5-1-0.7c-2.3,22.9,2.6,23.3-0.3,46.2c-0.1,1,1.4,1,1.5,0
		c3-22.8-2-23.3,0.3-46.2c0.1-0.6-0.5-0.8-1-0.7c-12,1.7-24.1,2-36.2,0.8C-130.9,599.5-130.9,601.1-129.9,601.2"/>
	<path d="M-121.9,610.8c2.3-0.3,4.6-0.2,6.9,0.2c-0.2-0.2-0.4-0.5-0.6-0.7c0,2.6,0,5.1,0,7.7c0,1,1.5,1,1.5,0c0-2.6,0-5.1,0-7.7
		c0-0.3-0.2-0.7-0.6-0.7c-2.4-0.4-4.9-0.5-7.3-0.2C-122.9,609.3-122.9,610.9-121.9,610.8"/>
	<path d="M-123,612c0.1,1.9,0.3,3.8,0.4,5.7c0,0.4,0.3,0.8,0.8,0.8c2.2-0.1,4.4,0.1,6.5,0.6c1,0.2,1.4-1.3,0.4-1.5
		c-2.3-0.5-4.6-0.7-6.9-0.6c0.3,0.3,0.5,0.5,0.8,0.8c-0.1-1.9-0.3-3.8-0.4-5.7C-121.5,611-123.1,611-123,612"/>
	<path d="M-121,623c2.1,0.2,4.3,0.3,6.4,0.5c-0.3-0.3-0.5-0.5-0.8-0.8c0.1,2.5,0.1,5,0.1,7.5c0,1,1.5,1,1.5,0c0-2.5,0-5-0.1-7.5
		c0-0.4-0.3-0.7-0.8-0.8c-2.1-0.2-4.3-0.3-6.4-0.5C-122,621.4-122,623-121,623"/>
	<path d="M-122.7,624.1c0,2,0,4,0,6c0,0.4,0.4,0.8,0.8,0.8c2.4-0.1,4.7-0.2,7.1-0.4c1-0.1,1-1.6,0-1.5c-2.4,0.1-4.7,0.2-7.1,0.4
		c0.3,0.3,0.5,0.5,0.8,0.8c0-2,0-4,0-6C-121.1,623.1-122.7,623.1-122.7,624.1"/>
	<path d="M-108.8,611.1c0,1.7,0,3.5,0.1,5.2c0,0.8,0.1,1.5,0.8,2c0.8,0.6,2,0.4,2.9,0.4c1.8,0,3.6,0,5.4,0c1,0,1-1.6,0-1.5h-3
		c-1,0-2.4,0.3-3.4,0c-1.4-0.4-1.2-1.6-1.2-2.8c0-1.1-0.1-2.2-0.1-3.3C-107.3,610.1-108.9,610.1-108.8,611.1"/>
	<path d="M-108.3,611.1c2.9-0.4,5.6,1.2,8.5,0.3c-0.3-0.2-0.7-0.5-1-0.7c0.1,2,0.1,4,0.1,6c0,1,1.5,1,1.5,0c0.1-2,0-4-0.1-6
		c0-0.5-0.5-0.9-1-0.7c-2.7,0.8-5.4-0.7-8.1-0.3C-109.3,609.7-109.3,611.2-108.3,611.1"/>
	<path d="M-109.3,623.1c0,1.2,0,2.4,0,3.6c0,0.6,0,1.2,0,1.8c0,0.3,0.2,1.5,0.1,1.6h1.1l-0.1-0.1v1.1c0,0,0-0.1,0.1-0.1
		c0.6-0.8-0.4-1.9-1.1-1.1c0,0,0,0.1-0.1,0.1c-0.3,0.3-0.3,0.8,0,1.1l0.1,0.1c0.3,0.3,0.8,0.3,1.1,0c0.7-0.7,0.4-2.1,0.4-3
		c0-1.7,0-3.4,0-5.1C-107.7,622.1-109.3,622.1-109.3,623.1"/>
	<path d="M-108.2,623.1c2.7,0.6,5.4,0.6,8.1-0.1c-0.3-0.2-0.7-0.5-1-0.7c-0.1,1.2-0.1,2.5-0.2,3.7c0,0.6,0.2,2.7-0.1,3
		c-0.2,0.3-3,0.2-3.4,0.2c-1.4,0.1-2.7,0.2-4.1,0.3c-1,0.1-1,1.6,0,1.5l5.5-0.4c0.9-0.1,2.3,0.2,3.1-0.5c0.7-0.6,0.5-1.8,0.5-2.5
		c0.1-1.8,0.2-3.6,0.3-5.4c0-0.5-0.5-0.9-1-0.7c-2.4,0.6-4.9,0.6-7.3,0.1C-108.8,621.4-109.2,622.9-108.2,623.1"/>
	<path d="M-117,635.2c0.3,3,0.2,6-0.4,9c-0.2,1,1.3,1.4,1.5,0.4c0.6-3.1,0.8-6.3,0.5-9.4C-115.6,634.3-117.1,634.2-117,635.2"/>
	<path d="M-116,635.5h4.5c1.1,0,3.3-0.4,4.1,0.4c0.8,0.8,0.6,3.1,0.6,4.3c0,1.6,0,3.1,0,4.7c0,1,1.5,1,1.5,0c0.1-2.1,0.1-4.1,0-6.2
		c-0.1-1.1,0.2-3.4-0.7-4.2c-0.8-0.8-2.6-0.4-3.6-0.4c-2.1,0-4.2,0-6.3,0C-117,634-117,635.5-116,635.5"/>
	<path d="M-132.2,601.4c0.7-0.5,1.5-0.5,2.2-0.1c0.9,0.5,1.6-0.8,0.8-1.3c-1.1-0.7-2.6-0.7-3.7,0.1
		C-133.8,600.6-133,602-132.2,601.4"/>
	<path d="M-132.1,600.4l4.6-4.5c0.7-0.7-0.4-1.8-1.1-1.1l-4.6,4.5C-133.9,600-132.8,601.1-132.1,600.4"/>
	<path d="M-129.2,595.6c7.2,0.6,14.4,0.7,21.6,0.4c3.3-0.1,6.9-0.9,10.2-0.7c2.7,0.2,4.2,3.2,6.4,4.7c0.1-0.5,0.1-0.9,0.2-1.4
		c-0.8,0.2-1.4,0-2-0.5c-0.8-0.6-1.9,0.5-1.1,1.1c1.1,0.9,2.1,1.1,3.5,0.9c0.7-0.1,0.7-1.1,0.2-1.4c-1.8-1.1-2.5-2.4-3.8-3.9
		c-0.6-0.7-0.8-0.9-1.7-1.1c-1.3-0.3-2.9,0.2-4.2,0.3c-2,0.2-4,0.3-6,0.4c-7.8,0.4-15.6,0.2-23.4-0.4
		C-130.2,594-130.2,595.6-129.2,595.6"/>
	<path d="M-128.2,601.6l2.9-4.9c0.5-0.9-0.8-1.6-1.3-0.8l-2.9,4.9C-130,601.6-128.7,602.4-128.2,601.6"/>
	<path d="M-124.3,597.6c-0.3,0.8-0.6,1.6-0.8,2.5c-0.3,0.9,1.2,1.4,1.5,0.4c0.3-0.8,0.6-1.6,0.8-2.5
		C-122.5,597.1-124,596.7-124.3,597.6"/>
	<path d="M-121.4,598.4c-0.3,1-0.6,1.9-0.8,2.9c-0.3,1,1.2,1.4,1.5,0.4c0.3-1,0.6-1.9,0.8-2.9C-119.7,597.9-121.2,597.5-121.4,598.4
		"/>
	<path d="M-117.7,597.2c-0.1,1-0.3,1.9-0.4,2.9c-0.1,0.4,0.1,0.8,0.5,1c0.4,0.1,0.9-0.1,1-0.5c0.1-1,0.3-1.9,0.4-2.9
		c0.1-0.4-0.1-0.8-0.5-1C-117.1,596.6-117.7,596.8-117.7,597.2"/>
	<path d="M-113.6,599c1,0,1-1.5,0-1.5S-114.6,599-113.6,599"/>
	<path d="M-110.2,598c0.3,1,0.6,1.9,0.8,2.9c0.3,1,1.8,0.5,1.5-0.4c-0.3-1-0.6-1.9-0.8-2.9C-109,596.7-110.5,597.1-110.2,598"/>
	<path d="M-106.5,597.8c0.4,0.7,0.8,1.4,1.2,2.1c0.5,0.9,1.8,0.1,1.3-0.8c-0.4-0.7-0.8-1.4-1.2-2.1
		C-105.6,596.2-107,596.9-106.5,597.8"/>
	<path d="M-101.4,597.2c0.8,1,1.6,1.9,2.5,2.9c0.6,0.8,1.7-0.3,1.1-1.1l-2.5-2.9C-101,595.3-102.1,596.4-101.4,597.2"/>
	<path d="M21,586.1c-0.5,15.4-0.4,30.7,0.2,46.1c0.5,0,1-0.1,1.5-0.1c-0.1-0.3-0.1-0.6-0.2-0.9c-0.2-0.7-1.6-0.4-1.5,0.3
		c0.1,0.3,0.1,0.6,0.2,0.9c0.1,0.6,1.5,0.4,1.5-0.1c-0.6-15.4-0.7-30.7-0.2-46.1C22.6,585.4,21,585.4,21,586.1"/>
	<path d="M21.2,586c12.2,1.2,24.5,0.9,36.6-0.8c-0.3-0.2-0.7-0.5-1-0.7c-2.3,22.9,2.6,23.3-0.3,46.2c-0.1,1,1.4,1,1.5,0
		c3-22.8-2-23.3,0.3-46.2c0.1-0.6-0.5-0.8-1-0.7c-12,1.7-24.1,2-36.2,0.8C20.2,584.4,20.2,585.9,21.2,586"/>
	<path d="M29.2,595.6c2.3-0.3,4.6-0.2,6.9,0.2c-0.2-0.2-0.4-0.5-0.6-0.7c0,2.6,0,5.1,0,7.7c0,1,1.5,1,1.5,0c0-2.6,0-5.1,0-7.7
		c0-0.3-0.2-0.7-0.6-0.7c-2.4-0.4-4.9-0.5-7.3-0.2C28.2,594.2,28.2,595.7,29.2,595.6"/>
	<path d="M28.1,596.8c0.1,1.9,0.3,3.8,0.4,5.7c0,0.4,0.3,0.8,0.8,0.8c2.2-0.1,4.4,0.1,6.5,0.6c1,0.2,1.4-1.3,0.4-1.5
		c-2.3-0.5-4.6-0.7-6.9-0.6c0.3,0.3,0.5,0.5,0.8,0.8c-0.1-1.9-0.3-3.8-0.4-5.7C29.6,595.8,28,595.8,28.1,596.8"/>
	<path d="M30.1,607.9c2.1,0.2,4.3,0.3,6.4,0.5c-0.3-0.3-0.5-0.5-0.8-0.8c0.1,2.5,0.1,5,0.1,7.5c0,1,1.5,1,1.5,0c0-2.5,0-5-0.1-7.5
		c0-0.4-0.3-0.7-0.8-0.8c-2.1-0.2-4.3-0.3-6.4-0.5C29.1,606.2,29.1,607.8,30.1,607.9"/>
	<path d="M28.4,608.9c0,2,0,4,0,6c0,0.4,0.4,0.8,0.8,0.8c2.4-0.1,4.7-0.2,7.1-0.4c1-0.1,1-1.6,0-1.5c-2.4,0.1-4.7,0.2-7.1,0.4
		c0.3,0.3,0.5,0.5,0.8,0.8c0-2,0-4,0-6C30,607.9,28.4,607.9,28.4,608.9"/>
	<path d="M42.2,595.9c0,1.7,0,3.5,0.1,5.2c0,0.8,0.1,1.5,0.8,2c0.8,0.6,2,0.4,2.9,0.4c1.8,0,3.6,0,5.4,0c1,0,1-1.6,0-1.5h-3
		c-1,0-2.4,0.3-3.4,0c-1.4-0.4-1.2-1.6-1.2-2.8c0-1.1-0.1-2.2-0.1-3.3C43.8,594.9,42.2,594.9,42.2,595.9"/>
	<path d="M42.8,595.9c2.9-0.4,5.6,1.2,8.5,0.3c-0.3-0.2-0.7-0.5-1-0.7c0.1,2,0.1,4,0.1,6c0,1,1.5,1,1.5,0c0.1-2,0-4-0.1-6
		c0-0.5-0.5-0.9-1-0.7c-2.7,0.8-5.4-0.7-8.1-0.3C41.8,594.5,41.8,596,42.8,595.9"/>
	<path d="M41.8,608c0,1.2,0,2.4,0,3.6c0,0.6,0,1.2,0,1.8c0,0.3,0.2,1.5,0.1,1.6H43l-0.1-0.1v1.1c0,0,0-0.1,0.1-0.1
		c0.6-0.8-0.4-1.9-1.1-1.1c0,0,0,0.1-0.1,0.1c-0.3,0.3-0.3,0.8,0,1.1l0.1,0.1c0.3,0.3,0.8,0.3,1.1,0c0.7-0.7,0.4-2.1,0.4-3
		c0-1.7,0-3.4,0-5.1C43.4,607,41.8,607,41.8,608"/>
	<path d="M42.9,608c2.7,0.6,5.4,0.6,8.1-0.1c-0.3-0.2-0.7-0.5-1-0.7c-0.1,1.2-0.1,2.5-0.2,3.7c0,0.6,0.2,2.7-0.1,3
		c-0.2,0.3-3,0.2-3.4,0.2c-1.4,0.1-2.7,0.2-4.1,0.3c-1,0.1-1,1.6,0,1.5l5.5-0.4c0.9-0.1,2.3,0.2,3.1-0.5c0.7-0.6,0.5-1.8,0.5-2.5
		c0.1-1.8,0.2-3.6,0.3-5.4c0-0.5-0.5-0.9-1-0.7c-2.4,0.6-4.9,0.6-7.3,0.1C42.3,606.3,41.9,607.7,42.9,608"/>
	<path d="M34,620.1c0.3,3,0.2,6-0.4,9c-0.2,1,1.3,1.4,1.5,0.4c0.6-3.1,0.8-6.3,0.5-9.4C35.5,619.1,33.9,619.1,34,620.1"/>
	<path d="M35.1,620.4h4.5c1.1,0,3.3-0.4,4.1,0.4s0.6,3.1,0.6,4.3c0,1.6,0,3.1,0,4.7c0,1,1.5,1,1.5,0c0.1-2.1,0.1-4.1,0-6.2
		c-0.1-1.1,0.2-3.4-0.7-4.2c-0.8-0.8-2.6-0.4-3.6-0.4c-2.1,0-4.2,0-6.3,0C34.1,618.8,34.1,620.4,35.1,620.4"/>
	<path d="M18.9,586.2c0.7-0.5,1.5-0.5,2.2-0.1c0.9,0.5,1.6-0.8,0.8-1.3c-1.1-0.7-2.6-0.7-3.7,0.1C17.3,585.4,18,586.8,18.9,586.2"/>
	<path d="M19,585.3l4.6-4.5c0.7-0.7-0.4-1.8-1.1-1.1l-4.6,4.5C17.2,584.9,18.3,586,19,585.3"/>
	<path d="M21.9,580.5c7.2,0.6,14.4,0.7,21.6,0.4c3.3-0.1,6.9-0.9,10.2-0.7c2.7,0.2,4.2,3.2,6.4,4.7c0.1-0.5,0.1-0.9,0.2-1.4
		c-0.8,0.2-1.4,0-2-0.5c-0.8-0.6-1.9,0.5-1.1,1.1c1.1,0.9,2.1,1.1,3.5,0.9c0.7-0.1,0.7-1.1,0.2-1.4c-1.7-1.1-2.4-2.5-3.7-3.9
		c-0.6-0.7-0.8-0.9-1.7-1.1c-1.3-0.3-2.9,0.2-4.2,0.3c-2,0.2-4,0.3-6,0.4c-7.8,0.4-15.6,0.2-23.4-0.4
		C20.9,578.8,20.9,580.4,21.9,580.5"/>
	<path d="M22.9,586.4l2.9-4.9c0.5-0.9-0.8-1.6-1.3-0.8l-2.9,4.9C21.1,586.5,22.4,587.2,22.9,586.4"/>
	<path d="M26.8,582.4c-0.3,0.8-0.6,1.6-0.8,2.5c-0.3,0.9,1.2,1.4,1.5,0.4c0.3-0.8,0.6-1.6,0.8-2.5C28.6,581.9,27.1,581.5,26.8,582.4
		"/>
	<path d="M29.6,583.3c-0.3,1-0.6,1.9-0.8,2.9c-0.3,1,1.2,1.4,1.5,0.4s0.6-1.9,0.8-2.9C31.4,582.7,29.9,582.3,29.6,583.3"/>
	<path d="M33.4,582c-0.1,1-0.3,1.9-0.4,2.9c-0.1,0.4,0.1,0.8,0.5,1c0.4,0.1,0.9-0.1,1-0.5c0.1-1,0.3-1.9,0.4-2.9
		c0.1-0.4-0.1-0.8-0.5-1C34,581.4,33.4,581.6,33.4,582"/>
	<path d="M37.4,583.8c1,0,1-1.5,0-1.5S36.4,583.8,37.4,583.8"/>
	<path d="M40.9,582.8c0.3,1,0.6,1.9,0.8,2.9c0.3,1,1.8,0.5,1.5-0.4c-0.3-1-0.6-1.9-0.8-2.9C42.1,581.5,40.6,581.9,40.9,582.8"/>
	<path d="M44.6,582.6c0.4,0.7,0.8,1.4,1.2,2.1c0.5,0.9,1.8,0.1,1.3-0.8c-0.4-0.7-0.8-1.4-1.2-2.1C45.4,581,44.1,581.8,44.6,582.6"/>
	<path d="M49.7,582c0.8,1,1.6,1.9,2.5,2.9c0.6,0.8,1.7-0.3,1.1-1.1l-2.5-2.9C50.1,580.1,49,581.2,49.7,582"/>
	<path d="M-112,658.8c7.7-1,15.5-1.2,23.3-0.5c0.9,0.1,0.9-1.3,0-1.3c-7.8-0.7-15.5-0.5-23.3,0.5
		C-112.8,657.6-112.8,658.9-112,658.8"/>
	<path d="M58.1,618.6c2.1,0.4,4.2,1.7,6.1,2.6c1.8,0.9,3.7,1.7,5.5,2.6c0.8,0.4,1.5-0.8,0.7-1.2c-2.1-1-4.2-2-6.3-3
		c-1.8-0.9-3.7-2-5.7-2.4C57.7,617.1,57.3,618.4,58.1,618.6"/>
	<path d="M-131.4,655c13.9-3.4,28.1-4.8,42.4-4.3c0.9,0,0.9-1.3,0-1.3c-14.4-0.6-28.7,0.9-42.7,4.3
		C-132.6,653.9-132.2,655.2-131.4,655"/>
	<path d="M-120.8,651.1c0.4,2.3,0.8,4.5,1.3,6.8c0.2,1,1.5,0.6,1.3-0.4c-0.4-2.3-0.8-4.5-1.3-6.8
		C-119.7,649.7-121,650.1-120.8,651.1"/>
	<path d="M-118.1,652.2c0.3,1.7,0.5,3.4,0.8,5.2c0.1,0.8,1.4,0.5,1.3-0.4c-0.3-1.7-0.5-3.4-0.8-5.2
		C-116.9,651-118.2,651.4-118.1,652.2"/>
	<path d="M-115.6,650c0.2,2.6,0.7,5.1,1.4,7.6c0.3,1,1.6,0.6,1.3-0.4c-0.7-2.3-1.2-4.7-1.4-7.2C-114.3,648.9-115.7,648.9-115.6,650"
		/>
	<path d="M-113,651.2c0.1,2.2,0.2,4.4,0.5,6.5c0.1,1,1.4,0.6,1.3-0.4c-0.2-2-0.4-4.1-0.4-6.1C-111.7,650.2-113,650.2-113,651.2"/>
	<path d="M-110.2,649c0.3,2.6,0.6,5.2,0.9,7.8c0.1,1,1.4,1,1.3,0c-0.3-2.6-0.6-5.2-0.9-7.8C-108.9,648-110.3,648-110.2,649"/>
	<path d="M-106.9,650.8c0.2,2,0.3,4,0.5,6c0.1,0.9,1.4,0.9,1.3,0c-0.2-2-0.3-4-0.5-6C-105.7,650-107,650-106.9,650.8"/>
	<path d="M-104.5,649.2c0,2.4,0.2,4.7,0.5,7.1c0.1,1.1,1.4,0.6,1.3-0.4c-0.3-2.2-0.4-4.4-0.5-6.6
		C-103.2,648.2-104.5,648.2-104.5,649.2"/>
	<path d="M-101.1,650.2c0.1,2,0.3,4,0.4,6.1c0.1,0.9,1.4,0.9,1.3,0c-0.1-2-0.3-4-0.4-6.1C-99.9,649.4-101.2,649.4-101.1,650.2"/>
	<path d="M-98.5,648.9c0.1,2.4,0.2,4.8,0.4,7.2c0.1,1.1,1.4,1.1,1.3,0c-0.1-2.4-0.2-4.8-0.4-7.2C-97.2,647.7-98.6,647.7-98.5,648.9"
		/>
	<path d="M-95.8,650.8c0.2,1.9,0.3,3.8,0.5,5.7c0.1,0.9,1.4,0.9,1.3,0c-0.2-1.9-0.3-3.8-0.5-5.7C-94.5,650-95.8,650-95.8,650.8"/>
	<path d="M-93,649.1c-0.1,2.4,0,4.8,0.3,7.2c0.2,1.1,1.4,0.7,1.3-0.5c-0.3-2.2-0.4-4.4-0.3-6.7C-91.6,647.9-92.9,647.9-93,649.1"/>
	<path d="M-91.2,650.7c0.5,2.3,0.9,4.6,1.4,6.9c0.2,0.8,1.5,0.5,1.3-0.4c-0.5-2.3-0.9-4.6-1.4-6.9
		C-90.1,649.5-91.4,649.9-91.2,650.7"/>
	<path d="M-139.1,635.4c3-1.3,6.2-2.2,9.5-2.7c0.8-0.1,0.5-1.4-0.4-1.3c-3.4,0.5-6.7,1.4-9.8,2.8
		C-140.6,634.6-139.9,635.7-139.1,635.4"/>
	<path d="M-140.5,635.9c0.4,1.8,0.9,3.6,1.3,5.4c0.2,0.8,1.5,0.5,1.3-0.4c-0.4-1.8-0.9-3.6-1.3-5.4
		C-139.4,634.7-140.7,635.1-140.5,635.9"/>
	<path d="M-138.2,641.9c2.5-1.1,5.1-1.7,7.9-1.8c0.9,0,0.9-1.4,0-1.3c-3,0.1-5.8,0.8-8.5,1.9C-139.7,641.1-139,642.3-138.2,641.9"/>
	<path d="M-139.5,635.3c0.4,1.8,0.8,3.6,1.2,5.4c0.2,0.8,1.5,0.5,1.3-0.4c-0.4-1.8-0.8-3.6-1.2-5.4
		C-138.4,634.1-139.6,634.5-139.5,635.3"/>
	<path d="M-137.4,633c0.4,2.3,0.8,4.5,1.1,6.8c0.2,1,1.5,0.6,1.3-0.4c-0.4-2.3-0.8-4.5-1.1-6.8C-136.3,631.5-137.6,631.9-137.4,633"
		/>
	<path d="M-134.7,633.6c0.2,2.1,0.5,4.2,1.1,6.2c0.2,0.8,1.5,0.5,1.3-0.4c-0.5-1.9-0.9-3.9-1-5.8
		C-133.5,632.8-134.8,632.8-134.7,633.6"/>
	<path d="M-132.5,631.8l0.6,7.4c0.1,1,1.4,1.1,1.3,0l-0.6-7.4C-131.2,630.7-132.5,630.7-132.5,631.8"/>
	<path d="M-91.7,629.6c2.9-0.2,5.8,0.1,8.6,0.9c0.8,0.2,1.2-1.1,0.4-1.3c-3-0.8-5.9-1.1-9-0.9C-92.6,628.3-92.6,629.6-91.7,629.6"/>
	<path d="M-92.2,636.8c2.8-0.6,5.7-1,8.6-1.1c0.9,0,0.9-1.4,0-1.3c-3,0.1-6,0.5-9,1.1C-93.4,635.7-93,637-92.2,636.8"/>
	<path d="M-92.1,629.4c0.2,1.8,0.5,3.6,0.7,5.4c0.1,0.8,1.4,0.9,1.3,0c-0.2-1.8-0.5-3.6-0.7-5.4C-90.9,628.5-92.2,628.5-92.1,629.4"
		/>
	<path d="M-89.3,627.5c-0.5,2.5-0.5,4.9-0.2,7.4c0.1,1,1.4,0.6,1.3-0.4c-0.3-2.2-0.2-4.4,0.2-6.6C-87.8,626.9-89.1,626.4-89.3,627.5
		"/>
	<path d="M-87.3,630c0.1,1.7,0,3.3-0.3,4.9c-0.2,0.8,1.1,1.2,1.3,0.4c0.3-1.8,0.5-3.5,0.3-5.3C-86,629.1-87.3,629.1-87.3,630"/>
	<path d="M-85.5,628.8c0.1,1.9,0.1,3.8-0.2,5.6c-0.2,1.1,1.1,1.6,1.3,0.5c0.3-2,0.4-4,0.3-6.1C-84.2,627.7-85.5,627.7-85.5,628.8"/>
	<path d="M-83.1,629.8l-1.1,4.8c-0.2,0.8,1.1,1.2,1.3,0.4l1.1-4.9C-81.6,629.3-82.9,628.9-83.1,629.8"/>
	<path d="M-84.5,635.9c0.3,2.4,0.7,4.8,1,7.2c0.1,0.8,1.4,0.5,1.3-0.4c-0.3-2.4-0.7-4.8-1-7.2C-83.4,634.7-84.7,635.1-84.5,635.9"/>
	<path d="M-83.2,630.7c0.7,4.2,1.3,8.3,1.6,12.5c0.1,0.9,1.4,0.9,1.3,0c-0.4-4.3-0.9-8.6-1.7-12.9C-82,629.5-83.3,629.9-83.2,630.7"
		/>
	<path d="M-140.1,642.3c0.4,2,0.8,4.1,1.1,6.1c0.2,0.9,1.6,5.5,1,6.2c0.3-0.1,0.6-0.2,0.9-0.2c0.1,0.1,0.1,0.2,0.2,0.3
		c-0.2,0.2-0.4,0.4-0.7,0.7h0.1c0.9,0,0.9-1.4,0-1.3h-0.1c-0.4,0-0.7,0.3-0.7,0.7c0,0.1,0,0.1,0,0.2c0,0.2,0.1,0.5,0.3,0.6
		c0,0,0.1,0,0.1,0.1c0.3,0.2,0.7,0.1,0.9-0.2c0.8-1.1-0.2-3.7-0.5-4.8c-0.5-2.8-1.1-5.6-1.6-8.5C-139,641.1-140.3,641.5-140.1,642.3
		"/>
	<path d="M-141.5,635.3c1.3,6.3,2.3,12.6,3.1,19c0.4-0.1,0.9-0.1,1.3-0.2l-0.2-1.1c-0.1-0.8-1.4-0.5-1.3,0.4
		c0.1,0.4,0.1,0.7,0.2,1.1c0.1,0.7,1.4,0.6,1.3-0.2c-0.8-6.5-1.9-12.9-3.1-19.3C-140.4,634.1-141.7,634.5-141.5,635.3"/>
	<path d="M-139.1,641.4c0.6,4.4,1.1,8.9,1.7,13.3c0.1,0.8,1.4,0.9,1.3,0c-0.6-4.4-1.1-8.9-1.7-13.3
		C-137.8,640.6-139.2,640.6-139.1,641.4"/>
	<path d="M-83.2,633.6c0.3,3,0.6,5.9,0.9,8.9c0.4-0.1,0.9-0.1,1.3-0.2c-0.5-2.7-1-5.5-1.5-8.2c-0.2-0.8-1.4-0.5-1.3,0.4
		c0.5,2.7,1,5.5,1.5,8.2c0.1,0.7,1.4,0.6,1.3-0.2c-0.3-3-0.6-5.9-0.9-8.9C-82,632.8-83.3,632.7-83.2,633.6"/>
	<path d="M-31.9,657.9c3.9-0.4,7.8-0.4,11.8,0c0.9,0.1,0.9-1.3,0-1.3c-3.9-0.4-7.8-0.4-11.8,0C-32.8,656.6-32.8,658-31.9,657.9"/>
	<path d="M-32.7,657.4l1.3,6.6c0.2,0.8,1.5,0.5,1.3-0.4c-0.4-2.2-0.9-4.4-1.3-6.6C-31.6,656.2-32.9,656.5-32.7,657.4"/>
	<path d="M-31.6,663.8c-0.2,2-0.4,4-0.6,6c-0.1,0.9,1.2,0.8,1.3,0c0.2-2,0.4-4,0.6-6C-30.2,663-31.5,663-31.6,663.8"/>
	<path d="M-33.1,658.1c0,3.6,0,7.2,0,10.9c0,0.9,1.3,0.9,1.3,0c0-3.6,0-7.2,0-10.9C-31.7,657.2-33.1,657.2-33.1,658.1"/>
	<path d="M-30.1,664.4c2.6,0.2,5.3,0.5,8,0.6c1,0.1,2.3,0.1,2.4-1.3c0-0.9-1.3-0.9-1.3,0c0-0.1-8.2-0.6-9-0.7
		C-30.9,663-30.9,664.3-30.1,664.4"/>
	<path d="M-30.9,656.5l0.7,6.4c0.1,1.1,1.4,0.6,1.3-0.5l-0.7-6.4C-29.7,654.9-31,655.4-30.9,656.5"/>
	<path d="M-28.7,657.8c0.2,1.8,0.3,3.6,0.5,5.4c0.1,0.9,1.4,0.9,1.3,0c-0.2-1.8-0.3-3.6-0.5-5.4C-27.4,656.9-28.8,656.9-28.7,657.8"
		/>
	<path d="M-26.6,655.8c0.1,2.6,0.3,5.2,0.4,7.8c0.1,1.2,1.4,1.2,1.3,0c-0.1-2.6-0.3-5.2-0.4-7.8C-25.4,654.7-26.7,654.7-26.6,655.8"
		/>
	<path d="M-23.8,657.8c-0.1,1.9-0.1,3.8,0.2,5.8c0.1,0.8,1.4,0.9,1.3,0c-0.2-1.9-0.3-3.8-0.2-5.8C-22.4,656.9-23.8,656.9-23.8,657.8
		"/>
	<path d="M17,657.4c4,0.4,8,0.8,12,1.2c0.9,0.1,0.8-1.3,0-1.3c-4-0.4-8-0.8-12-1.2C16.1,656,16.1,657.3,17,657.4"/>
	<path d="M17.3,665.2c3.4-0.2,6.8-0.3,10.3-0.1c0.9,0,0.9-1.3,0-1.3c-3.4-0.1-6.9-0.1-10.3,0.1C16.4,664,16.4,665.3,17.3,665.2"/>
	<path d="M28.3,658.1c-0.2,2.1-0.3,4.2-0.5,6.3c-0.1,0.9,1.3,0.9,1.3,0c0.2-2.1,0.3-4.2,0.5-6.3C29.7,657.2,28.4,657.2,28.3,658.1"
		/>
	<path d="M18.2,655.4c-0.1,2.6-0.2,5.3-0.4,7.9c-0.1,1.1,1.3,1.1,1.3,0c0.1-2.6,0.2-5.3,0.4-7.9C19.6,654.3,18.2,654.3,18.2,655.4"
		/>
	<path d="M20.2,657.9v5.6c0,0.9,1.3,0.9,1.3,0v-5.6C21.6,657,20.2,657,20.2,657.9"/>
	<path d="M22.7,656.5c0.1,2.3,0,4.7-0.3,7c-0.2,1.3,1.1,1.9,1.3,0.6c0.3-2.5,0.4-5,0.4-7.5C24,655.1,22.6,655.1,22.7,656.5"/>
	<path d="M24.5,658.4c-0.1,1.8-0.1,3.6-0.2,5.4c0,0.9,1.3,0.9,1.3,0c0.1-1.8,0.1-3.6,0.2-5.4C25.9,657.5,24.5,657.5,24.5,658.4"/>
	<path d="M27,656.8c-0.3,2.1-0.5,4.1-0.8,6.2c-0.1,1.1,1.2,1.6,1.3,0.5c0.3-2.1,0.5-4.1,0.8-6.2C28.4,656.2,27.1,655.7,27,656.8"/>
	<path d="M29,658.4c0.8,10.6,1.3,21.3,1.4,31.9c0.4-0.1,0.9-0.1,1.3-0.2c-0.1-0.3-0.2-0.5-0.2-0.8c-0.2-0.8-1.5-0.5-1.3,0.4
		c0.1,0.3,0.2,0.5,0.2,0.8c0.2,0.7,1.3,0.6,1.3-0.2c-0.1-10.7-0.6-21.3-1.4-31.9C30.3,657.5,28.9,657.5,29,658.4"/>
	<path d="M27.7,664.9c1.3,8.9,1.6,17.8,1,26.7c-0.1,0.9,1.3,0.9,1.3,0c0.7-9.1,0.3-18.1-1-27.1C28.8,663.7,27.5,664,27.7,664.9"/>
	<path d="M-2.3,688.7c5.4,0.1,10.7,0.2,16.1,0.3c2.6,0.1,5.2,0.1,7.8,0.2c1.4,0,2.8,0.1,4.1,0.1c0.7,0,1.4,0,2.1,0
		c1,0.3,1.3,0.2,0.9-0.3c0.3-0.2,0.5-0.3,0.8-0.5c-0.1,0-0.1,0-0.2,0c-0.8-0.1-1.2,1.2-0.4,1.3c0.1,0,0.1,0,0.2,0
		c0.4,0.1,0.7-0.1,0.8-0.5c0-0.1,0.1-0.2,0.1-0.3c0.1-0.3-0.1-0.6-0.3-0.8c-1.3-1-4-0.4-5.6-0.4c-2.9-0.1-5.9-0.1-8.8-0.2
		c-5.9-0.1-11.8-0.3-17.6-0.4C-3.2,687.4-3.2,688.7-2.3,688.7"/>
	<path d="M-2.7,694.8c10.9-0.5,21.8-0.5,32.6,0.1c0.9,0,0.9-1.3,0-1.3C19,693,8.2,692.9-2.7,693.5C-3.5,693.5-3.5,694.9-2.7,694.8"
		/>
	<path d="M30.2,688.4c-0.2,1.2-0.6,2.3-0.7,3.5c-0.1,0.4-0.1,0.8-0.1,1.2c0,0.2,0,0.3-0.1,0.5c0,0.1-0.1,0.5,0,0.2
		c0.4,0.1,0.9,0.1,1.3,0.2c0-0.1,0-0.2,0-0.2c0.1-0.9-1.3-0.8-1.3,0c0,0.1,0,0.2,0,0.2c-0.1,0.8,1.1,0.8,1.3,0.2
		c0.2-0.5,0.1-1.3,0.2-1.9c0.1-1.2,0.5-2.3,0.7-3.5C31.7,687.9,30.4,687.5,30.2,688.4"/>
	<path d="M-1.8,688.6c0,1.8,0.1,3.5,0.4,5.3c0.1,0.8,1.4,0.5,1.3-0.4c-0.3-1.6-0.4-3.3-0.3-4.9C-0.5,687.7-1.8,687.7-1.8,688.6"/>
	<path d="M0.2,688.9c0.1,1.6,0.3,3.2,0.4,4.8c0.1,0.9,1.4,0.9,1.3,0c-0.1-1.6-0.3-3.2-0.4-4.8C1.5,688,0.2,688,0.2,688.9"/>
	<path d="M3.6,687.5v6.1c0,1.1,1.3,1.1,1.3,0v-6.1C5,686.4,3.6,686.4,3.6,687.5"/>
	<path d="M6.3,689.2v3.9c0,0.9,1.3,0.9,1.3,0v-3.9C7.7,688.3,6.3,688.3,6.3,689.2"/>
	<path d="M9.1,687.3l-0.2,5.6c0,1.1,1.3,1.1,1.3,0l0.2-5.6C10.5,686.3,9.1,686.3,9.1,687.3"/>
	<path d="M11.2,689c0.3,1.5,0.4,3.1,0.3,4.7c-0.1,0.9,1.3,0.9,1.3,0c0.1-1.7,0-3.3-0.3-5C12.3,687.9,11,688.2,11.2,689"/>
	<path d="M14.2,687.7c0,1.8-0.1,3.6-0.1,5.3c0,1.3,1.3,1.3,1.3,0c0-1.8,0.1-3.6,0.1-5.3C15.6,686.5,14.2,686.5,14.2,687.7"/>
	<path d="M17,689c-0.3,1.2-0.4,2.5-0.4,3.8c0,0.9,1.3,0.9,1.3,0c0-1.2,0.1-2.3,0.4-3.4C18.5,688.5,17.2,688.2,17,689"/>
	<path d="M20,687.9c-0.1,1.4-0.3,2.8-0.4,4.2c-0.1,0.6,0.1,1.1,0.5,1.3c0.3,0.1,0.8-0.2,0.8-0.7c0.1-1.4,0.3-2.8,0.4-4.2
		c0.1-0.6-0.1-1.1-0.5-1.3C20.5,687,20,687.4,20,687.9"/>
	<path d="M22.4,689.5c-0.1,1.1-0.1,2.2-0.2,3.3c-0.1,0.9,1.3,0.9,1.3,0c0.1-1.1,0.1-2.2,0.2-3.3C23.8,688.6,22.4,688.6,22.4,689.5"
		/>
	<path d="M25.5,687c-0.4,2.1-0.5,4.2-0.2,6.3c0.2,1.4,1.4,0.8,1.3-0.6c-0.2-1.8-0.1-3.5,0.2-5.2C27.1,686.2,25.8,685.7,25.5,687"/>
	<path d="M28,689.9c-0.2,1.3-0.4,2.6-0.5,3.9c-0.1,0.8,1.2,1.2,1.3,0.4c0.2-1.3,0.4-2.6,0.5-3.9C29.4,689.4,28.1,689,28,689.9"/>
	<path d="M-6.8,683.1c1.5,1.5,2.8,3.1,3.8,5c0.4,0.7,1.6,0.1,1.2-0.7c-1.1-1.9-2.5-3.7-4.1-5.2C-6.5,681.5-7.4,682.5-6.8,683.1"/>
	<path d="M6.6,612.1c0.7,2.3,1.1,4.7,1.3,7.1c0.1,0.9,1.4,0.9,1.3,0c-0.2-2.5-0.6-5-1.3-7.4C7.7,610.9,6.4,611.2,6.6,612.1"/>
	<path d="M7.8,612.3c4-0.9,8.1-1.2,12.2-1c0.9,0,0.9-1.3,0-1.3c-4.2-0.2-8.4,0.1-12.5,1C6.6,611.2,7,612.5,7.8,612.3"/>
	<path d="M8.7,610.3c0,2.6,0.2,5.1,0.7,7.6c0.2,1.1,1.5,0.6,1.3-0.5c-0.5-2.3-0.7-4.7-0.7-7.1C10.1,609.2,8.8,609.2,8.7,610.3"/>
	<path d="M10.8,611.3c0.2,2.1,0.5,4.2,0.7,6.3c0.1,0.8,1.4,0.9,1.3,0c-0.2-2.1-0.5-4.2-0.7-6.3C12.1,610.4,10.7,610.4,10.8,611.3"/>
	<path d="M13,610c0.2,2.3,0.3,4.7,0.4,7c0.1,1.2,1.4,1.2,1.3,0c-0.1-2.3-0.3-4.7-0.5-7C14.2,608.8,12.9,608.7,13,610"/>
	<path d="M15.7,611.6c0,1.9,0.2,3.8,0.5,5.6c0.1,0.8,1.4,0.5,1.3-0.4c-0.3-1.8-0.4-3.5-0.5-5.3C17,610.7,15.7,610.7,15.7,611.6"/>
	<path d="M17.8,610.1c0.1,2.3,0.3,4.5,0.4,6.8c0.1,1.1,1.4,1.1,1.3,0c-0.1-2.3-0.3-4.5-0.4-6.8C19.1,609,17.8,609,17.8,610.1"/>
	<path d="M58.2,611.1c1.8,0.6,3.6,1.3,5.4,2c1.3,0.5,5.7,1.6,6.1,3.1c0.2,0.8,1.5,0.5,1.3-0.4c-0.5-1.8-2.6-2.2-4.1-2.9
		c-2.7-1.2-5.5-2.2-8.3-3.2C57.8,609.5,57.4,610.8,58.2,611.1"/>
	<path d="M59.5,609.9c-0.4,2.3-0.9,4.6-1.3,6.9c-0.2,1.1,1.1,1.5,1.3,0.5c0.4-2.3,0.9-4.6,1.3-6.9C61,609.3,59.7,608.9,59.5,609.9"
		/>
	<path d="M61.4,612.6c-0.4,1.6-0.7,3.2-1.1,4.8c-0.2,0.8,1.1,1.2,1.3,0.4l1.1-4.8C62.9,612.1,61.6,611.8,61.4,612.6"/>
	<path d="M63.5,611.7l-1.4,6.9c-0.2,1.1,1.1,1.6,1.3,0.5c0.5-2.3,0.9-4.6,1.4-6.9C65,611,63.7,610.6,63.5,611.7"/>
	<path d="M65.5,613.4c-0.7,2-1.3,4.1-1.6,6.3c-0.2,1,1.1,1.4,1.3,0.4c0.4-2.2,0.9-4.3,1.6-6.3C67.1,612.9,65.9,612.5,65.5,613.4"/>
	<path d="M68.3,612.9c-0.8,2.3-1.4,4.8-1.7,7.4c-0.2,1.3,1.1,1.9,1.3,0.6c0.3-2.4,0.9-4.7,1.6-6.9C69.8,612.8,68.7,611.7,68.3,612.9
		"/>
	<path d="M70.1,615.8c-0.8,1.9-1.7,3.8-2.5,5.7c-0.3,0.8,0.8,1.5,1.2,0.7c0.8-1.9,1.7-3.8,2.5-5.7C71.6,615.7,70.5,615,70.1,615.8"
		/>
	<path d="M19.1,637.5c15.8-1.3,31.6,0.6,46.7,5.5c0.8,0.3,1.2-1,0.4-1.3c-15.2-4.9-31.2-6.8-47.1-5.6
		C18.3,636.2,18.2,637.5,19.1,637.5"/>
	<path d="M7.8,619.1c0.1,4.5,0.7,8.8,1.8,13.2c0.2,0.8,1.5,0.5,1.3-0.4c-1-4.2-1.6-8.5-1.7-12.8C9.1,618.3,7.8,618.3,7.8,619.1"/>
	<path d="M5.7,612.4c1.5,6.7,2.5,13.4,2.8,20.3c0,0.7,1.1,0.9,1.3,0.2c0.1-0.3,0.1-0.5,0.2-0.8c0.2-0.8-1.1-1.2-1.3-0.4
		c-0.1,0.3-0.1,0.5-0.2,0.8c0.4,0.1,0.9,0.1,1.3,0.2c-0.4-6.9-1.3-13.8-2.9-20.6C6.8,611.2,5.5,611.5,5.7,612.4"/>
	<path d="M70.6,616.4c-2.9,8.2-4.7,16.7-5.4,25.4h1.3c0-0.3,0-0.6-0.1-0.9c-0.1-0.9-1.4-0.9-1.3,0c0,0.3,0,0.6,0.1,0.9
		c0.1,0.9,1.3,0.9,1.3,0c0.7-8.6,2.5-16.9,5.4-25C72.2,615.9,70.9,615.6,70.6,616.4"/>
	<path d="M68.3,621.4c-2,6.4-3.5,13-4.7,19.6c-0.2,0.8,1,1.2,1.3,0.4c0.1-0.2,0.2-0.4,0.2-0.6c0.3-0.8-1-1.2-1.3-0.4
		c-0.1,0.2-0.2,0.4-0.2,0.6c0.4,0.1,0.9,0.2,1.3,0.4c1.2-6.6,2.7-13.2,4.7-19.6C69.8,621,68.5,620.6,68.3,621.4"/>
	<path d="M65.3,636.5c-0.3,1.4-0.6,2.8-1,4.2c-0.2,0.8,1.1,1.2,1.3,0.4c0.3-1.4,0.6-2.8,1-4.2C66.8,636,65.5,635.6,65.3,636.5"/>
	<path d="M11.1,632.6c4.7-1.4,9.8-0.9,14.6-0.8c4.6,0.1,9.2,0.1,13.8,0.3c8.4,0.4,17.8,1.6,25,6.3c0.7,0.5,1.4-0.7,0.7-1.2
		c-7.2-4.7-16.4-6-24.7-6.5c-4.9-0.3-9.8-0.3-14.7-0.4c-5-0.1-10.2-0.6-15,0.9C9.9,631.6,10.2,632.9,11.1,632.6"/>
	<path d="M16.3,630.2c0,1.9,0.2,3.7,0.5,5.5c0.2,1.1,1.5,0.6,1.3-0.5c-0.3-1.7-0.5-3.3-0.5-5.1C17.6,629.1,16.3,629.1,16.3,630.2"/>
	<path d="M18.4,631.5v4.2c0,0.9,1.3,0.9,1.3,0v-4.2C19.8,630.6,18.4,630.6,18.4,631.5"/>
	<path d="M21.3,631.1v5.5c0,1,1.5,1,1.5,0v-5.5C22.8,630.1,21.3,630.1,21.3,631.1"/>
	<path d="M23.3,630.3v5.5c0,1.1,1.3,1.1,1.3,0v-5.5C24.6,629.1,23.3,629.1,23.3,630.3"/>
	<path d="M26,631.8c-0.1,1.5-0.2,3-0.2,4.5c0,0.9,1.3,0.9,1.3,0c0.1-1.5,0.2-3,0.2-4.5C27.4,630.9,26,630.9,26,631.8"/>
	<path d="M28.4,630.4v4.7c0,1.3,1.3,1.3,1.3,0v-4.7C29.7,629.1,28.4,629.1,28.4,630.4"/>
	<path d="M30.3,631.9c-0.3,1.2-0.4,2.5-0.3,3.8c0.1,0.9,1.4,0.9,1.3,0c-0.1-1.2,0-2.3,0.3-3.4C31.8,631.5,30.5,631.1,30.3,631.9"/>
	<path d="M32.6,630.1c-0.2,1.8-0.1,3.6,0.2,5.3c0.2,1.3,1.5,0.7,1.3-0.5c-0.2-1.6-0.3-3.2-0.1-4.8C34.1,628.8,32.8,628.8,32.6,630.1
		"/>
	<path d="M35.8,631.6c-0.4,1.3-0.5,2.7-0.3,4.1c0.1,0.8,1.4,0.9,1.3,0c-0.2-1.3-0.1-2.5,0.2-3.7C37.3,631.2,36,630.8,35.8,631.6"/>
	<path d="M43.2,630.8c-0.5,1.7-0.6,3.5-0.5,5.3c0.1,1.2,1.4,1.2,1.3,0c-0.1-1.7,0-3.2,0.5-4.8C44.8,630.2,43.5,629.7,43.2,630.8"/>
	<path d="M48.3,631.5c-0.1,1.9-0.3,3.8-0.4,5.6c-0.1,1.3,1.2,1.3,1.3,0c0.1-1.9,0.3-3.8,0.4-5.6C49.8,630.2,48.4,630.2,48.3,631.5"
		/>
	<path d="M53.8,632.6c-0.5,1.9-0.7,3.8-0.9,5.8c-0.1,1.2,1.3,1.2,1.3,0c0.1-1.8,0.4-3.6,0.8-5.3C55.4,632,54.1,631.5,53.8,632.6"/>
	<path d="M55.9,635c-0.4,1.2-0.6,2.4-0.6,3.7c0,1,1.3,1,1.3,0c0-1.1,0.2-2.2,0.5-3.3C57.5,634.5,56.2,634.1,55.9,635"/>
	<path d="M62.9,635.6c-0.7,1.5-1.1,3.3-1.1,5.2c0,1.3,1.3,1.3,1.3,0c0-1.5,0.3-2.9,0.9-4.1C64.6,635.6,63.4,634.6,62.9,635.6"/>
	<path d="M69.3,623.7c3,0.8,5.7,2.1,8.2,4c0.7,0.5,1.6-0.4,0.9-0.9c-2.6-2.1-5.5-3.5-8.8-4.4C68.9,622.2,68.5,623.5,69.3,623.7"/>
	<path d="M-22,656c-0.1,2.4-0.1,4.7,0.2,7.1c0.1,1,1.4,1.1,1.3,0c-0.2-2.4-0.3-4.7-0.2-7.1C-20.6,654.9-22,654.9-22,656"/>
	<path d="M38.3,630.8c-0.1,1.6-0.3,3.2-0.4,4.8c-0.1,1.2,1.2,1.2,1.3,0c0.1-1.6,0.3-3.2,0.4-4.8C39.7,629.5,38.4,629.6,38.3,630.8"
		/>
	<path d="M51,633.5c-0.1,1.3-0.3,2.7-0.4,4c-0.1,1,1.2,1,1.3,0c0.1-1.3,0.3-2.7,0.4-4C52.4,632.4,51.1,632.5,51,633.5"/>
	<path d="M40.7,631.9c-0.1,1.3-0.3,2.7-0.4,4c-0.1,1,1.2,1,1.3,0c0.1-1.3,0.3-2.7,0.4-4C42.2,630.8,40.8,630.8,40.7,631.9"/>
	<path d="M45.7,632.7c-0.1,1.3-0.3,2.7-0.4,4c-0.1,1,1.2,1,1.3,0c0.1-1.3,0.3-2.7,0.4-4C47.1,631.6,45.8,631.6,45.7,632.7"/>
	<path d="M57.9,633.9c-0.1,1.8-0.3,3.5-0.4,5.3c-0.1,1.3,1.2,1.2,1.3,0c0.1-1.8,0.3-3.5,0.4-5.3C59.4,632.7,58,632.7,57.9,633.9"/>
	<path d="M60.2,636.3c-0.1,1.3-0.3,2.7-0.4,4c-0.1,1,1.2,1,1.3,0c0.1-1.3,0.3-2.7,0.4-4C61.7,635.3,60.3,635.3,60.2,636.3"/>
	<path d="M-84.4,573.9c0.7,0,1,0.8,1,2.1c0,1.3-0.3,2.1-1,2.1c-0.6,0-1-0.8-1-2.1C-85.5,574.6-85,573.9-84.4,573.9 M-84.4,573.3
		c-1,0-1.8,0.9-1.8,2.6s0.7,2.6,1.7,2.6c1.1,0,1.8-1,1.8-2.7C-82.7,574.3-83.3,573.3-84.4,573.3z M-88.4,573.9c0.7,0,1,0.8,1,2.1
		c0,1.3-0.3,2.1-1,2.1c-0.6,0-1-0.8-1-2.1C-89.5,574.6-89,573.9-88.4,573.9z M-88.4,573.3c-1,0-1.8,0.9-1.8,2.6s0.7,2.6,1.7,2.6
		c1.1,0,1.8-1,1.8-2.7C-86.7,574.3-87.3,573.3-88.4,573.3z M-94.1,578.2c0.3,0.2,0.8,0.3,1.3,0.3c1.2,0,1.9-0.7,1.9-1.5
		c0-0.7-0.5-1.2-1.1-1.3l0,0c0.6-0.2,0.9-0.7,0.9-1.2c0-0.6-0.5-1.2-1.5-1.2c-0.5,0-1.1,0.2-1.3,0.4l0.2,0.5c0.2-0.2,0.6-0.3,1-0.3
		c0.6,0,0.9,0.4,0.9,0.8c0,0.6-0.6,0.9-1.1,0.9h-0.4v0.5h0.3c0.7,0,1.3,0.3,1.3,1c0,0.4-0.3,1-1.1,1c-0.5,0-0.9-0.2-1.1-0.3
		L-94.1,578.2z M-99.3,576.6L-99.3,576.6l1.2-1.7c0.1-0.2,0.3-0.5,0.4-0.8l0,0c0,0.3,0,0.5,0,0.8v1.7H-99.3z M-97,578.5v-1.4h0.7
		v-0.5H-97v-3.2h-0.7l-2.3,3.3v0.5h2.4v1.4L-97,578.5L-97,578.5z M-102.1,577.4v-0.5h-4v0.5H-102.1z M-102.1,575.9v-0.5h-4v0.5
		H-102.1z M-110.3,578.5h0.7v-5.1h-0.6l-1.1,0.6l0.1,0.5l0.9-0.5l0,0C-110.3,574-110.3,578.5-110.3,578.5z M-112.5,578.5v-0.6h-2.3
		l0,0l0.4-0.4c1.1-1,1.8-1.8,1.8-2.7c0-0.7-0.5-1.5-1.6-1.5c-0.6,0-1.1,0.2-1.4,0.5l0.2,0.5c0.2-0.2,0.6-0.4,1.1-0.4
		c0.8,0,1,0.5,1,1c0,0.8-0.6,1.4-1.9,2.7l-0.5,0.5v0.4H-112.5z M-116.9,578.6c0.3,0,0.5-0.2,0.5-0.5s-0.2-0.5-0.5-0.5
		c-0.3,0-0.5,0.2-0.5,0.5C-117.3,578.4-117.1,578.6-116.9,578.6z M-116.9,575.8c0.3,0,0.5-0.2,0.5-0.5s-0.2-0.5-0.5-0.5
		c-0.3,0-0.5,0.2-0.5,0.5C-117.3,575.6-117.1,575.8-116.9,575.8z M-122.6,576.6L-122.6,576.6l1.2-1.7c0.1-0.2,0.3-0.5,0.4-0.8l0,0
		c0,0.3,0,0.5,0,0.8v1.7H-122.6z M-120.3,578.5v-1.4h0.7v-0.5h-0.7v-3.2h-0.7l-2.3,3.2v0.5h2.4v1.4H-120.3z M-126.6,576.6
		L-126.6,576.6l1.2-1.7c0.1-0.2,0.3-0.5,0.4-0.8l0,0c0,0.3,0,0.5,0,0.8v1.7H-126.6z M-124.3,578.5v-1.4h0.7v-0.5h-0.7v-3.2h-0.7
		l-2.3,3.2v0.5h2.4v1.4H-124.3z M-131,573.4v0.6h2.5l0,0l-2.2,4.5h0.7l2.2-4.6v-0.5H-131z M-133.4,573.9c0.7,0,1,0.8,1,2.1
		c0,1.3-0.3,2.1-1,2.1c-0.6,0-1-0.8-1-2.1C-134.5,574.6-134,573.9-133.4,573.9z M-133.4,573.3c-1,0-1.8,0.9-1.8,2.6s0.7,2.6,1.7,2.6
		c1.1,0,1.8-1,1.8-2.7C-131.7,574.3-132.3,573.3-133.4,573.3z M-138.6,576.6L-138.6,576.6l1.2-1.7c0.1-0.2,0.3-0.5,0.4-0.8l0,0
		c0,0.3,0,0.5,0,0.8v1.7H-138.6z M-136.3,578.5v-1.4h0.7v-0.5h-0.7v-3.2h-0.7l-2.3,3.2v0.5h2.3v1.4H-136.3z M-141.4,573.9
		c0.7,0,1,0.8,1,2.1c0,1.3-0.3,2.1-1,2.1c-0.6,0-1-0.8-1-2.1C-142.5,574.6-142.1,573.9-141.4,573.9z M-141.4,573.3
		c-1,0-1.8,0.9-1.8,2.6s0.7,2.6,1.7,2.6c1.1,0,1.8-1,1.8-2.7C-139.7,574.3-140.3,573.3-141.4,573.3z M-147,573.4v0.6h2.5l0,0
		l-2.2,4.5h0.7l2.2-4.6v-0.5H-147z M-149.5,573.9c0.7,0,1,0.8,1,2.1c0,1.3-0.3,2.1-1,2.1c-0.6,0-1-0.8-1-2.1
		C-150.5,574.6-150.1,573.9-149.5,573.9z M-149.4,573.3c-1,0-1.8,0.9-1.8,2.6s0.7,2.6,1.7,2.6c1.1,0,1.8-1,1.8-2.7
		C-147.8,574.3-148.4,573.3-149.4,573.3z M-152.2,578.6c0.3,0,0.5-0.2,0.5-0.5s-0.2-0.5-0.5-0.5c-0.3,0-0.5,0.2-0.5,0.5
		S-152.5,578.6-152.2,578.6z M-152.2,575.8c0.3,0,0.5-0.2,0.5-0.5s-0.2-0.5-0.5-0.5c-0.3,0-0.5,0.2-0.5,0.5
		S-152.5,575.8-152.2,575.8z M-159.1,573.9c0.7,0,1,0.8,1,2.1c0,1.3-0.3,2.1-1,2.1c-0.6,0-1-0.8-1-2.1
		C-160.2,574.6-159.7,573.9-159.1,573.9z M-159.1,573.3c-1,0-1.8,0.9-1.8,2.6s0.7,2.6,1.7,2.6c1.1,0,1.8-1,1.8-2.7
		C-157.4,574.3-158,573.3-159.1,573.3z M-161.9,578.6c0.3,0,0.5-0.2,0.5-0.5s-0.2-0.5-0.5-0.5c-0.3,0-0.5,0.2-0.5,0.5
		C-162.3,578.4-162.1,578.6-161.9,578.6z M-161.9,575.8c0.3,0,0.5-0.2,0.5-0.5s-0.2-0.5-0.5-0.5c-0.3,0-0.5,0.2-0.5,0.5
		C-162.3,575.6-162.1,575.8-161.9,575.8z M-80.4,578.5h0.6l0.1-1.8c0-0.4,0-0.9,0.1-1.4l0,0c0.1,0.4,0.3,0.9,0.4,1.3l0.7,1.9h0.5
		l0.7-1.9c0.2-0.6,0.3-0.9,0.4-1.2l0,0c0,0.5,0,0.9,0.1,1.4l0.1,1.8h0.7l-0.3-3.8h-0.9l-0.6,1.6c-0.1,0.4-0.4,1-0.4,1.3l0,0
		c-0.1-0.3-0.3-0.8-0.3-1l-0.7-1.9H-80L-80.4,578.5z M-155.3,578.5h0.7v-5.1h-0.6l-1.1,0.6l0.1,0.5l0.9-0.5l0,0V578.5z
		 M-166.4,578.2c0.2,0.2,0.7,0.4,1.3,0.4c1.2,0,1.9-0.7,1.9-1.5c0-0.7-0.5-1.2-1.1-1.3l0,0c0.6-0.2,0.9-0.7,0.9-1.2
		c0-0.6-0.5-1.2-1.5-1.2c-0.5,0-1.1,0.2-1.3,0.4l0.2,0.4c0.2-0.2,0.6-0.3,1-0.3c0.6,0,0.9,0.4,0.9,0.8c0,0.6-0.6,0.9-1.1,0.9h-0.5
		v0.5h0.4c0.7,0,1.3,0.3,1.3,1c0,0.4-0.3,1-1.1,1c-0.5,0-0.9-0.2-1.1-0.3L-166.4,578.2z M-168.7,578.1c-0.7,0-1.1-0.6-1.1-1.5
		c0-0.1,0-0.2,0.1-0.3c0.2-0.4,0.6-0.6,1-0.6c0.6,0,1,0.4,1,1.2S-168.1,578.1-168.7,578.1z M-167.5,573.3c-0.1,0-0.3,0-0.5,0
		c-0.6,0.1-1.2,0.3-1.6,0.8c-0.5,0.5-0.9,1.3-0.9,2.3c0,1.3,0.7,2.2,1.8,2.2c1.1,0,1.7-0.9,1.7-1.8c0-1-0.6-1.6-1.5-1.6
		c-0.6,0-1,0.3-1.2,0.6l0,0c0.1-0.8,0.7-1.6,1.8-1.8c0.2,0,0.4,0,0.5,0L-167.5,573.3L-167.5,573.3z M-96.1,569.1h0.6l0.1-1.8
		c0-0.4,0-0.9,0.1-1.4l0,0c0.1,0.4,0.3,0.9,0.4,1.3l0.7,1.9h0.5l0.7-1.9c0.2-0.6,0.3-0.9,0.4-1.2l0,0c0,0.5,0,0.9,0.1,1.4l0.1,1.8
		h0.7l-0.3-3.9h-0.9l-0.6,1.6c-0.1,0.4-0.4,1-0.4,1.3l0,0c-0.1-0.3-0.3-0.8-0.3-1l-0.7-1.9h-0.8L-96.1,569.1z M-98.5,565.8
		c0.8,0,1.1,0.8,1.1,1.5c0,0.9-0.5,1.5-1.1,1.5c-0.7,0-1.1-0.6-1.1-1.5C-99.7,566.5-99.3,565.8-98.5,565.8z M-98.5,565.2
		c-1,0-1.9,0.7-1.9,2c0,1.2,0.8,1.9,1.8,1.9c0.9,0,1.9-0.6,1.9-2C-96.7,566-97.4,565.2-98.5,565.2z M-103.9,566.9c0-0.1,0-0.2,0-0.3
		c0.1-0.5,0.6-0.9,1-0.9c0.7,0,1.1,0.6,1.1,1.4c0,0.9-0.4,1.5-1.1,1.5c-0.5,0-0.9-0.3-1-0.8c0-0.1,0-0.2,0-0.3V566.9z M-104.6,570.7
		h0.7v-2.1l0,0c0.2,0.4,0.7,0.6,1.2,0.6c0.9,0,1.7-0.7,1.7-2c0-1.1-0.7-1.9-1.6-1.9c-0.6,0-1.1,0.3-1.3,0.7l0,0v-0.6h-0.6
		c0,0.4,0,0.8,0,1.2L-104.6,570.7L-104.6,570.7z M-108.1,566.9c0.1-0.5,0.4-1.1,1.1-1.1c0.8,0,1,0.7,1,1.1H-108.1z M-105.4,567.3
		c0-0.1,0-0.2,0-0.3c0-0.7-0.3-1.8-1.6-1.8c-1.1,0-1.8,0.9-1.8,2c0,1.1,0.7,1.9,1.9,1.9c0.6,0,1-0.1,1.3-0.2l-0.1-0.5
		c-0.3,0.1-0.6,0.2-1,0.2c-0.7,0-1.3-0.4-1.3-1.3H-105.4z M-113.7,569.1h0.6l0.1-1.8c0-0.4,0-0.9,0.1-1.4l0,0
		c0.1,0.4,0.3,0.9,0.4,1.3l0.7,1.9h0.5l0.7-1.9c0.2-0.6,0.3-0.9,0.4-1.2l0,0c0,0.5,0,0.9,0.1,1.4l0.1,1.8h0.7l-0.3-3.8h-0.9
		l-0.6,1.6c-0.1,0.4-0.4,1-0.4,1.3l0,0c-0.1-0.3-0.3-0.8-0.3-1l-0.7-1.9h-0.8L-113.7,569.1z M-116.2,565.8c0.8,0,1.1,0.8,1.1,1.5
		c0,0.9-0.5,1.5-1.1,1.5c-0.7,0-1.1-0.6-1.1-1.5C-117.3,566.5-117,565.8-116.2,565.8z M-116.2,565.2c-1,0-1.9,0.7-1.9,2
		c0,1.2,0.8,1.9,1.8,1.9c0.9,0,1.9-0.6,1.9-2C-114.3,566-115.1,565.2-116.2,565.2z M-122.1,565.3v3.8h0.7v-1.7h1.8v1.7h0.7v-3.8
		h-0.7v1.5h-1.8v-1.5H-122.1z M-125,569.2c0.3,0,0.5-0.2,0.5-0.5c0-0.3-0.2-0.5-0.5-0.5c-0.3,0-0.5,0.2-0.5,0.5
		C-125.5,569-125.3,569.2-125,569.2z M-128.4,565.8h1.2v2.8h-1.7c0.1-0.2,0.2-0.4,0.3-0.7c0.1-0.4,0.2-0.9,0.2-1.4V565.8z
		 M-129,565.3v1c0,0.5-0.1,1-0.2,1.5c-0.1,0.3-0.2,0.5-0.4,0.8h-0.4v1.7h0.5v-1.2h2.6v1.2h0.5v-1.7h-0.4v-3.3H-129z M-131.2,567.8
		c0,0.1,0,0.1,0,0.2c-0.1,0.3-0.4,0.6-0.9,0.6c-0.4,0-0.6-0.2-0.6-0.7c0-0.7,0.9-0.9,1.6-0.9L-131.2,567.8L-131.2,567.8z
		 M-130.5,569.1c0-0.3-0.1-0.6-0.1-0.9v-1.4c0-0.8-0.3-1.5-1.4-1.5c-0.5,0-0.9,0.1-1.2,0.3l0.2,0.5c0.3-0.2,0.6-0.3,1-0.3
		c0.8,0,0.9,0.6,0.9,0.9v0.1c-1.5,0-2.3,0.5-2.3,1.4c0,0.5,0.4,1.1,1.2,1.1c0.5,0,0.9-0.3,1.2-0.6l0,0l0.1,0.5L-130.5,569.1
		L-130.5,569.1z M-137,565.3v3.8h0.7v-1.7h0.1c0.6,0,1,0.3,1.3,0.9c0.1,0.3,0.3,0.6,0.4,0.8h0.7c-0.2-0.3-0.3-0.7-0.4-0.9
		c-0.3-0.7-0.7-1.1-1.3-1.1l1.6-1.7h-0.8l-1.4,1.6h-0.2v-1.6L-137,565.3L-137,565.3z M-139.6,568.5c-0.2,0.1-0.5,0.2-0.8,0.2
		c-0.8,0-1.3-0.5-1.3-1.4c0-0.8,0.5-1.4,1.3-1.4c0.4,0,0.6,0.1,0.8,0.2l0.2-0.5c-0.2-0.1-0.5-0.2-1-0.2c-1.2,0-2,0.8-2,2
		s0.7,1.9,1.9,1.9c0.5,0,0.9-0.1,1.1-0.2L-139.6,568.5z M-147.6,565.3v3.8h0.7v-1.7h0.1c0.6,0,1,0.3,1.3,0.9
		c0.1,0.3,0.3,0.6,0.4,0.8h0.7c-0.2-0.3-0.3-0.7-0.4-0.9c-0.3-0.7-0.7-1.1-1.3-1.1l1.6-1.7h-0.8l-1.4,1.6h-0.2v-1.6L-147.6,565.3
		L-147.6,565.3z M-150.3,565.8c0.8,0,1.1,0.8,1.1,1.5c0,0.9-0.5,1.5-1.1,1.5c-0.7,0-1.1-0.6-1.1-1.5
		C-151.5,566.5-151.1,565.8-150.3,565.8z M-150.3,565.2c-1,0-1.9,0.7-1.9,2c0,1.2,0.8,1.9,1.8,1.9c0.9,0,1.9-0.6,1.9-2
		C-148.5,566-149.2,565.2-150.3,565.2z M-155.4,565.3v0.5h1.2v3.2h0.7v-3.2h1.2v-0.5H-155.4z M-156,568.5c-0.2,0.1-0.5,0.2-0.8,0.2
		c-0.8,0-1.3-0.5-1.3-1.4c0-0.8,0.5-1.4,1.3-1.4c0.4,0,0.6,0.1,0.8,0.2l0.2-0.5c-0.2-0.1-0.5-0.2-1-0.2c-1.2,0-2,0.8-2,2
		s0.7,1.9,1.9,1.9c0.5,0,0.9-0.1,1.1-0.2L-156,568.5z M-160.4,567.8c0,0.1,0,0.1,0,0.2c-0.1,0.3-0.4,0.6-0.9,0.6
		c-0.4,0-0.6-0.2-0.6-0.7c0-0.7,0.9-0.9,1.6-0.9v0.8H-160.4z M-159.6,569.1c0-0.3-0.1-0.6-0.1-0.9v-1.4c0-0.8-0.3-1.5-1.4-1.5
		c-0.5,0-0.9,0.1-1.2,0.3l0.2,0.5c0.3-0.2,0.6-0.3,1-0.3c0.8,0,0.9,0.6,0.9,0.9v0.1c-1.5,0-2.3,0.5-2.3,1.4c0,0.5,0.4,1.1,1.2,1.1
		c0.5,0,0.9-0.3,1.2-0.6l0,0l0.1,0.5L-159.6,569.1L-159.6,569.1z M-166.4,565.3v1.3c0,0.9,0.5,1.2,1.2,1.2c0.4,0,0.8-0.1,1-0.3l0,0
		v1.5h0.7v-3.8h-0.7v1.8c-0.2,0.2-0.5,0.3-0.8,0.3c-0.6,0-0.8-0.3-0.8-0.8v-1.2C-165.8,565.3-166.4,565.3-166.4,565.3z
		 M-170.7,563.8l1.7,3.6c0.1,0.1,0.1,0.2,0,0.3c-0.1,0.4-0.5,0.9-1,0.9c-0.1,0-0.2,0-0.3,0l-0.1,0.6c0.1,0,0.2,0,0.4,0
		c0.5,0,0.9-0.2,1.2-0.6c0.4-0.5,0.7-1.3,1-2l1.1-2.7h-0.7l-0.8,2.2c-0.1,0.4-0.2,0.7-0.3,1l0,0c-0.1-0.3-0.3-0.6-0.4-0.9l-1-2.2
		h-0.8V563.8z"/>
	<path d="M-47,696.6v-0.5h-4v0.5H-47z M-47,695.1v-0.5h-4v0.5H-47z M-55.8,697.7v-0.6h-2.3l0,0l0.4-0.4c1.1-1,1.8-1.8,1.8-2.7
		c0-0.7-0.5-1.5-1.6-1.5c-0.6,0-1.1,0.2-1.4,0.5l0.2,0.5c0.2-0.2,0.6-0.4,1.1-0.4c0.8,0,1,0.5,1,1c0,0.8-0.6,1.4-1.9,2.7l-0.5,0.5
		v0.4H-55.8z M-60.1,697.8c0.3,0,0.5-0.2,0.5-0.5s-0.2-0.5-0.5-0.5s-0.5,0.2-0.5,0.5S-60.4,697.8-60.1,697.8z M-60.1,695
		c0.3,0,0.5-0.2,0.5-0.5c0-0.3-0.2-0.5-0.5-0.5s-0.5,0.2-0.5,0.5C-60.6,694.8-60.4,695-60.1,695z M-93.8,697.8
		c0.3,0,0.5-0.2,0.5-0.5s-0.2-0.5-0.5-0.5s-0.5,0.2-0.5,0.5S-94.1,697.8-93.8,697.8z M-93.8,695c0.3,0,0.5-0.2,0.5-0.5
		c0-0.3-0.2-0.5-0.5-0.5s-0.5,0.2-0.5,0.5C-94.3,694.8-94.1,695-93.8,695z M-100.7,693.1c0.7,0,1,0.8,1,2.1c0,1.3-0.3,2.1-1,2.1
		c-0.6,0-1-0.8-1-2.1C-101.8,693.8-101.3,693.1-100.7,693.1z M-100.7,692.5c-1,0-1.8,0.9-1.8,2.6s0.7,2.6,1.7,2.6
		c1.1,0,1.8-1,1.8-2.7C-99,693.5-99.6,692.5-100.7,692.5z M-103.5,697.8c0.3,0,0.5-0.2,0.5-0.5s-0.2-0.5-0.5-0.5s-0.5,0.2-0.5,0.5
		C-103.9,697.6-103.8,697.8-103.5,697.8z M-103.5,695c0.3,0,0.5-0.2,0.5-0.5c0-0.3-0.2-0.5-0.5-0.5s-0.5,0.2-0.5,0.5
		C-103.9,694.8-103.8,695-103.5,695z M-25.4,697.7h0.6l0.1-1.8c0-0.4,0-0.9,0.1-1.4l0,0c0.1,0.4,0.3,0.9,0.4,1.3l0.7,1.9h0.5
		l0.7-1.9c0.2-0.6,0.3-0.9,0.4-1.2l0,0c0,0.5,0,0.9,0.1,1.4l0.1,1.8h0.7l-0.3-3.8h-0.9l-0.6,1.6c-0.1,0.4-0.4,1-0.4,1.3l0,0
		c-0.1-0.3-0.3-0.8-0.3-1l-0.7-1.9H-25L-25.4,697.7z M-29.4,693.1c0.7,0,1,0.8,1,2.1c0,1.3-0.3,2.1-1,2.1c-0.6,0-1-0.8-1-2.1
		C-30.4,693.8-30,693.1-29.4,693.1z M-29.3,692.5c-1,0-1.8,0.9-1.8,2.6s0.7,2.6,1.7,2.6c1.1,0,1.8-1,1.8-2.7
		C-27.6,693.5-28.2,692.5-29.3,692.5z M-31.8,697.7v-0.6h-2.3l0,0l0.4-0.4c1.1-1,1.8-1.8,1.8-2.7c0-0.7-0.5-1.5-1.6-1.5
		c-0.6,0-1.1,0.2-1.4,0.5l0.2,0.5c0.2-0.2,0.6-0.4,1.1-0.4c0.8,0,1,0.5,1,1c0,0.8-0.6,1.4-1.9,2.7l-0.5,0.5v0.4H-31.8z M-37.4,693
		c0.6,0,0.9,0.4,0.9,0.8c0,0.5-0.3,0.8-0.8,0.9c-0.6-0.2-1-0.4-1-0.9C-38.2,693.4-37.9,693-37.4,693z M-37.4,697.3c-0.6,0-1-0.5-1-1
		s0.3-0.9,0.9-1c0.7,0.2,1.1,0.5,1.1,1.1C-36.4,696.9-36.8,697.3-37.4,697.3z M-37.4,697.8c1,0,1.7-0.6,1.7-1.5c0-0.6-0.4-1.1-1-1.3
		l0,0c0.6-0.3,0.8-0.8,0.8-1.2c0-0.6-0.5-1.3-1.5-1.3c-0.9,0-1.6,0.5-1.6,1.4c0,0.4,0.2,0.9,0.8,1.1l0,0c-0.6,0.3-1,0.7-1,1.4
		C-39.1,697.2-38.5,697.8-37.4,697.8z M-44.7,697.4c0.3,0.2,0.8,0.3,1.3,0.3c1.2,0,1.9-0.7,1.9-1.5c0-0.7-0.5-1.2-1.1-1.3l0,0
		c0.6-0.2,0.9-0.7,0.9-1.2c0-0.6-0.5-1.2-1.5-1.2c-0.5,0-1.1,0.2-1.3,0.4l0.2,0.5c0.2-0.2,0.6-0.3,1-0.3c0.6,0,0.9,0.4,0.9,0.8
		c0,0.6-0.6,0.9-1.1,0.9H-44v0.5h0.4c0.7,0,1.3,0.3,1.3,1c0,0.4-0.3,1-1.1,1c-0.5,0-0.9-0.2-1.1-0.3L-44.7,697.4z M-51.8,697.7v-0.6
		h-2.3l0,0l0.4-0.4c1.1-1,1.8-1.8,1.8-2.7c0-0.7-0.5-1.5-1.6-1.5c-0.6,0-1.1,0.2-1.4,0.5l0.2,0.5c0.2-0.2,0.6-0.4,1.1-0.4
		c0.8,0,1,0.5,1,1c0,0.8-0.6,1.4-1.9,2.7l-0.5,0.5v0.4H-51.8z M-61.4,697.7v-0.6h-2.3l0,0l0.4-0.4c1.1-1,1.8-1.8,1.8-2.7
		c0-0.7-0.5-1.5-1.6-1.5c-0.6,0-1.1,0.2-1.4,0.5l0.2,0.5c0.2-0.2,0.6-0.4,1.1-0.4c0.8,0,1,0.5,1,1c0,0.8-0.6,1.4-1.9,2.7l-0.5,0.5
		v0.4H-61.4z M-67,697.3c-0.7,0-1.1-0.6-1.1-1.5c0-0.1,0-0.2,0.1-0.3c0.2-0.4,0.6-0.6,1-0.6c0.6,0,1,0.4,1,1.2
		C-66,696.8-66.4,697.3-67,697.3z M-65.8,692.5c-0.1,0-0.3,0-0.5,0c-0.6,0.1-1.2,0.3-1.6,0.8c-0.5,0.5-0.9,1.3-0.9,2.3
		c0,1.3,0.7,2.2,1.8,2.2c1.1,0,1.7-0.9,1.7-1.8c0-1-0.6-1.6-1.5-1.6c-0.6,0-1,0.3-1.2,0.6l0,0c0.1-0.8,0.7-1.6,1.8-1.8
		c0.2,0,0.4,0,0.5,0v-0.7H-65.8z M-69.7,692.6h-2.4l-0.3,2.4c0.2,0,0.4-0.1,0.7-0.1c1,0,1.5,0.5,1.5,1.1c0,0.7-0.6,1.1-1.2,1.1
		c-0.5,0-0.9-0.2-1.1-0.3l-0.2,0.5c0.2,0.2,0.7,0.3,1.3,0.3c1.1,0,1.9-0.7,1.9-1.7c0-0.6-0.3-1.1-0.7-1.3c-0.3-0.2-0.7-0.3-1.1-0.3
		c-0.2,0-0.3,0-0.4,0l0.2-1.3h1.9v-0.4H-69.7z M-76.2,695.8L-76.2,695.8l1.2-1.7c0.1-0.2,0.3-0.5,0.4-0.8l0,0c0,0.3,0,0.5,0,0.8v1.7
		H-76.2z M-73.9,697.7v-1.4h0.7v-0.5h-0.7v-3.2h-0.7l-2.3,3.2v0.5h2.4v1.4L-73.9,697.7L-73.9,697.7z M-77.7,692.6h-2.4l-0.3,2.4
		c0.2,0,0.4-0.1,0.7-0.1c1,0,1.5,0.5,1.5,1.1c0,0.7-0.6,1.1-1.2,1.1c-0.5,0-0.9-0.2-1.1-0.3l-0.2,0.5c0.2,0.2,0.7,0.3,1.3,0.3
		c1.1,0,1.9-0.7,1.9-1.7c0-0.6-0.3-1.1-0.7-1.3c-0.3-0.2-0.7-0.3-1.1-0.3c-0.2,0-0.3,0-0.4,0l0.2-1.3h1.9v-0.4H-77.7z M-83.1,693.1
		c0.7,0,1,0.8,1,2.1c0,1.3-0.3,2.1-1,2.1c-0.6,0-1-0.8-1-2.1C-84.1,693.8-83.7,693.1-83.1,693.1z M-83,692.5c-1,0-1.8,0.9-1.8,2.6
		s0.7,2.6,1.7,2.6c1.1,0,1.8-1,1.8-2.7C-81.3,693.5-82,692.5-83,692.5z M-88.6,692.6v0.6h2.5l0,0l-2.2,4.5h0.7l2.2-4.6v-0.5H-88.6z
		 M-91.1,693.1c0.7,0,1,0.8,1,2.1c0,1.3-0.3,2.1-1,2.1c-0.6,0-1-0.8-1-2.1C-92.1,693.8-91.7,693.1-91.1,693.1z M-91,692.5
		c-1,0-1.8,0.9-1.8,2.6s0.7,2.6,1.7,2.6c1.1,0,1.8-1,1.8-2.7C-89.4,693.5-90,692.5-91,692.5z M-96.7,697.3c-0.7,0-1.1-0.6-1.1-1.5
		c0-0.1,0-0.2,0.1-0.3c0.2-0.4,0.6-0.6,1-0.6c0.6,0,1,0.4,1,1.2C-95.7,696.8-96.1,697.3-96.7,697.3z M-95.5,692.5
		c-0.1,0-0.3,0-0.5,0c-0.6,0.1-1.2,0.3-1.6,0.8c-0.5,0.5-0.9,1.3-0.9,2.3c0,1.3,0.7,2.2,1.8,2.2c1.1,0,1.7-0.9,1.7-1.8
		c0-1-0.6-1.6-1.5-1.6c-0.6,0-1,0.3-1.2,0.6l0,0c0.1-0.8,0.7-1.6,1.8-1.8c0.2,0,0.4,0,0.5,0v-0.7H-95.5z M-108,697.4
		c0.3,0.2,0.8,0.3,1.3,0.3c1.2,0,1.9-0.7,1.9-1.5c0-0.7-0.5-1.2-1.1-1.3l0,0c0.6-0.2,0.9-0.7,0.9-1.2c0-0.6-0.5-1.2-1.5-1.2
		c-0.5,0-1.1,0.2-1.3,0.4l0.2,0.5c0.2-0.2,0.6-0.3,1-0.3c0.6,0,0.9,0.4,0.9,0.8c0,0.6-0.6,0.9-1.1,0.9h-0.4v0.5h0.4
		c0.7,0,1.3,0.3,1.3,1c0,0.4-0.3,1-1.1,1c-0.5,0-0.9-0.2-1.1-0.3L-108,697.4z M-110.3,697.3c-0.7,0-1.1-0.6-1.1-1.5
		c0-0.1,0-0.2,0.1-0.3c0.2-0.4,0.6-0.6,1-0.6c0.6,0,1,0.4,1,1.2C-109.3,696.8-109.7,697.3-110.3,697.3z M-109.1,692.5
		c-0.1,0-0.3,0-0.5,0c-0.6,0.1-1.2,0.3-1.6,0.8c-0.5,0.5-0.9,1.3-0.9,2.3c0,1.3,0.7,2.2,1.8,2.2s1.7-0.9,1.7-1.8
		c0-1-0.6-1.6-1.5-1.6c-0.6,0-1,0.3-1.2,0.6l0,0c0.1-0.8,0.7-1.6,1.8-1.8c0.2,0,0.4,0,0.5,0L-109.1,692.5L-109.1,692.5z
		 M-37.7,688.3h0.6l0.1-1.8c0-0.4,0-0.9,0.1-1.4l0,0c0.1,0.4,0.3,0.9,0.4,1.3l0.7,1.9h0.5l0.7-1.9c0.2-0.6,0.3-0.9,0.4-1.2l0,0
		c0,0.5,0,0.9,0.1,1.4l0.1,1.8h0.7l-0.3-3.8h-0.9l-0.6,1.6c-0.1,0.4-0.4,1-0.4,1.3l0,0c-0.1-0.3-0.3-0.8-0.3-1l-0.7-1.9h-0.8
		L-37.7,688.3z M-40.1,684.9c0.8,0,1.1,0.8,1.1,1.5c0,0.9-0.5,1.5-1.1,1.5c-0.7,0-1.1-0.6-1.1-1.5C-41.3,685.7-41,684.9-40.1,684.9z
		 M-40.1,684.4c-1,0-1.9,0.7-1.9,2c0,1.2,0.8,1.9,1.8,1.9c0.9,0,1.9-0.6,1.9-2C-38.3,685.2-39,684.4-40.1,684.4z M-45.5,686.1
		c0-0.1,0-0.2,0-0.3c0.1-0.5,0.6-0.9,1-0.9c0.7,0,1.1,0.6,1.1,1.4c0,0.9-0.4,1.5-1.1,1.5c-0.5,0-0.9-0.3-1-0.8c0-0.1,0-0.2,0-0.3
		C-45.5,686.7-45.5,686.1-45.5,686.1z M-46.2,689.9h0.7v-2.1l0,0c0.2,0.4,0.7,0.6,1.2,0.6c0.9,0,1.7-0.7,1.7-2
		c0-1.1-0.7-1.9-1.6-1.9c-0.6,0-1.1,0.3-1.3,0.7l0,0v-0.6h-0.6c0,0.4,0,0.8,0,1.2L-46.2,689.9L-46.2,689.9z M-49.7,686
		c0.1-0.5,0.4-1.1,1.1-1.1c0.8,0,1,0.7,1,1.1H-49.7z M-47.1,686.5c0-0.1,0-0.2,0-0.3c0-0.7-0.3-1.8-1.6-1.8c-1.1,0-1.8,0.9-1.8,2
		c0,1.1,0.7,1.9,1.9,1.9c0.6,0,1-0.1,1.3-0.2l-0.1-0.5c-0.3,0.1-0.6,0.2-1,0.2c-0.7,0-1.3-0.4-1.3-1.3L-47.1,686.5L-47.1,686.5z
		 M-55.3,688.3h0.6l0.1-1.8c0-0.4,0-0.9,0.1-1.4l0,0c0.1,0.4,0.3,0.9,0.4,1.3l0.7,1.9h0.5l0.7-1.9c0.2-0.6,0.3-0.9,0.4-1.2l0,0
		c0,0.5,0,0.9,0.1,1.4l0.1,1.8h0.7l-0.3-3.8h-0.9l-0.6,1.6c-0.1,0.4-0.4,1-0.4,1.3l0,0c-0.1-0.3-0.3-0.8-0.3-1l-0.7-1.9h-0.8
		L-55.3,688.3z M-57.8,684.9c0.8,0,1.1,0.8,1.1,1.5c0,0.9-0.5,1.5-1.1,1.5c-0.7,0-1.1-0.6-1.1-1.5C-59,685.7-58.6,684.9-57.8,684.9z
		 M-57.8,684.4c-1,0-1.9,0.7-1.9,2c0,1.2,0.8,1.9,1.8,1.9c0.9,0,1.9-0.6,1.9-2C-56,685.2-56.7,684.4-57.8,684.4z M-63.7,684.5v3.8
		h0.7v-1.7h1.8v1.7h0.7v-3.8h-0.7v1.5H-63v-1.5H-63.7z M-66.6,688.4c0.3,0,0.5-0.2,0.5-0.5c0-0.3-0.2-0.5-0.5-0.5s-0.5,0.2-0.5,0.5
		C-67.1,688.2-66.9,688.4-66.6,688.4z M-70.1,685h1.2v2.7h-1.7c0.1-0.2,0.2-0.4,0.3-0.7c0.1-0.4,0.2-0.9,0.2-1.4V685z M-70.7,684.5
		v1c0,0.5-0.1,1-0.2,1.5c-0.1,0.3-0.2,0.5-0.4,0.8h-0.3v1.7h0.5v-1.2h2.6v1.2h0.5v-1.7h-0.4v-3.3H-70.7z M-72.8,687
		c0,0.1,0,0.1,0,0.2c-0.1,0.3-0.4,0.6-0.9,0.6c-0.4,0-0.6-0.2-0.6-0.7c0-0.7,0.9-0.9,1.6-0.9L-72.8,687L-72.8,687z M-72.1,688.3
		c0-0.3-0.1-0.6-0.1-0.9V686c0-0.8-0.3-1.5-1.4-1.5c-0.5,0-0.9,0.1-1.2,0.3l0.2,0.5c0.3-0.2,0.6-0.3,1-0.3c0.8,0,0.9,0.6,0.9,0.9
		v0.1c-1.5,0-2.3,0.5-2.3,1.4c0,0.5,0.4,1.1,1.2,1.1c0.5,0,0.9-0.3,1.2-0.6l0,0l0.1,0.5L-72.1,688.3L-72.1,688.3z M-78.7,684.5v3.8
		h0.7v-1.7h0.1c0.6,0,1,0.3,1.3,0.9c0.1,0.3,0.3,0.6,0.4,0.8h0.7c-0.2-0.3-0.3-0.7-0.4-0.9c-0.3-0.7-0.7-1.1-1.3-1.1l1.6-1.7h-0.8
		l-1.4,1.6H-78v-1.6L-78.7,684.5L-78.7,684.5z M-81.2,687.6c-0.2,0.1-0.5,0.2-0.8,0.2c-0.8,0-1.3-0.5-1.3-1.4c0-0.8,0.5-1.4,1.3-1.4
		c0.4,0,0.6,0.1,0.8,0.2l0.2-0.5c-0.2-0.1-0.5-0.2-1-0.2c-1.2,0-2,0.8-2,2s0.7,1.9,1.9,1.9c0.5,0,0.9-0.1,1.1-0.2L-81.2,687.6z
		 M-89.2,684.5v3.8h0.7v-1.7h0.1c0.6,0,1,0.3,1.3,0.9c0.1,0.3,0.3,0.6,0.4,0.8h0.7c-0.2-0.3-0.3-0.7-0.4-0.9
		c-0.3-0.7-0.7-1.1-1.3-1.1l1.6-1.7H-87l-1.4,1.6h-0.2v-1.6L-89.2,684.5L-89.2,684.5z M-91.9,684.9c0.8,0,1.1,0.8,1.1,1.5
		c0,0.9-0.5,1.5-1.1,1.5c-0.7,0-1.1-0.6-1.1-1.5C-93.1,685.7-92.7,684.9-91.9,684.9z M-91.9,684.4c-1,0-1.9,0.7-1.9,2
		c0,1.2,0.8,1.9,1.8,1.9c0.9,0,1.9-0.6,1.9-2C-90.1,685.2-90.8,684.4-91.9,684.4z M-97.1,684.5v0.5h1.2v3.2h0.7V685h1.2v-0.5H-97.1z
		 M-97.6,687.6c-0.2,0.1-0.5,0.2-0.8,0.2c-0.8,0-1.3-0.5-1.3-1.4c0-0.8,0.5-1.4,1.3-1.4c0.4,0,0.6,0.1,0.8,0.2l0.2-0.5
		c-0.2-0.1-0.5-0.2-1-0.2c-1.2,0-2,0.8-2,2s0.7,1.9,1.9,1.9c0.5,0,0.9-0.1,1.1-0.2L-97.6,687.6z M-102,687c0,0.1,0,0.1,0,0.2
		c-0.1,0.3-0.4,0.6-0.9,0.6c-0.4,0-0.6-0.2-0.6-0.7c0-0.7,0.9-0.9,1.6-0.9L-102,687L-102,687z M-101.3,688.3c0-0.3-0.1-0.6-0.1-0.9
		V686c0-0.8-0.3-1.5-1.4-1.5c-0.5,0-0.9,0.1-1.2,0.3l0.2,0.5c0.3-0.2,0.6-0.3,1-0.3c0.8,0,0.9,0.6,0.9,0.9v0.1
		c-1.5,0-2.3,0.5-2.3,1.4c0,0.5,0.4,1.1,1.2,1.1c0.5,0,0.9-0.3,1.2-0.6l0,0l0.1,0.5L-101.3,688.3L-101.3,688.3z M-108.1,684.5v1.3
		c0,0.9,0.5,1.2,1.2,1.2c0.4,0,0.8-0.1,1-0.3l0,0v1.5h0.7v-3.8h-0.7v1.8c-0.2,0.2-0.5,0.3-0.8,0.3c-0.6,0-0.8-0.3-0.8-0.8v-1.2
		H-108.1z M-112.4,683l1.8,3.5c0.1,0.1,0.1,0.2,0,0.3c-0.2,0.4-0.5,0.9-1,0.9c-0.1,0-0.2,0-0.3,0l-0.1,0.6c0.1,0,0.2,0,0.4,0
		c0.5,0,0.9-0.2,1.2-0.6c0.4-0.5,0.7-1.3,1-2l1.1-2.7h-0.7l-0.8,2.2c-0.1,0.4-0.2,0.7-0.3,1l0,0c-0.1-0.3-0.3-0.6-0.4-0.9l-1-2.2
		L-112.4,683L-112.4,683z"/>
	<path d="M12.4,565.2v-0.5h-4v0.5H12.4z M12.4,563.6v-0.5h-4v0.5H12.4z M2,566.3v-0.6h-2.3l0,0l0.4-0.4c1.1-1,1.8-1.8,1.8-2.7
		c0-0.7-0.5-1.5-1.6-1.5c-0.6,0-1.1,0.2-1.4,0.5l0.2,0.5c0.2-0.2,0.6-0.4,1.1-0.4c0.8,0,1,0.5,1,1c0,0.8-0.6,1.4-1.9,2.7l-0.5,0.5
		v0.4H2z M-2.4,566.4c0.3,0,0.5-0.2,0.5-0.5s-0.2-0.5-0.5-0.5s-0.5,0.2-0.5,0.5C-2.8,566.1-2.7,566.4-2.4,566.4z M-2.4,563.6
		c0.3,0,0.5-0.2,0.5-0.5s-0.2-0.5-0.5-0.5s-0.5,0.2-0.5,0.5C-2.8,563.4-2.7,563.6-2.4,563.6z M-31,561.6c0.7,0,1,0.8,1,2.1
		c0,1.3-0.3,2.1-1,2.1c-0.6,0-1-0.8-1-2.1C-32,562.4-31.6,561.6-31,561.6z M-30.9,561.1c-1,0-1.8,0.9-1.8,2.6c0,1.7,0.7,2.6,1.7,2.6
		c1.1,0,1.8-1,1.8-2.7C-29.3,562.1-29.9,561.1-30.9,561.1z M-33.7,566.4c0.3,0,0.5-0.2,0.5-0.5s-0.2-0.5-0.5-0.5s-0.5,0.2-0.5,0.5
		C-34.2,566.1-34,566.4-33.7,566.4z M-33.7,563.6c0.3,0,0.5-0.2,0.5-0.5s-0.2-0.5-0.5-0.5s-0.5,0.2-0.5,0.5S-34,563.6-33.7,563.6z
		 M-40.6,561.6c0.7,0,1,0.8,1,2.1c0,1.3-0.3,2.1-1,2.1c-0.6,0-1-0.8-1-2.1C-41.7,562.4-41.2,561.6-40.6,561.6z M-40.6,561.1
		c-1,0-1.8,0.9-1.8,2.6c0,1.7,0.7,2.6,1.7,2.6c1.1,0,1.8-1,1.8-2.7C-38.9,562.1-39.5,561.1-40.6,561.1z M-43.4,566.4
		c0.3,0,0.5-0.2,0.5-0.5s-0.2-0.5-0.5-0.5s-0.5,0.2-0.5,0.5C-43.8,566.1-43.6,566.4-43.4,566.4z M-43.4,563.6c0.3,0,0.5-0.2,0.5-0.5
		s-0.2-0.5-0.5-0.5s-0.5,0.2-0.5,0.5C-43.8,563.4-43.6,563.6-43.4,563.6z M34.1,566.3h0.6l0.1-1.8c0-0.4,0-0.9,0.1-1.4l0,0
		c0.1,0.4,0.3,0.9,0.4,1.3l0.7,1.9h0.5l0.7-1.9c0.2-0.6,0.3-0.9,0.4-1.2l0,0c0,0.5,0,0.9,0.1,1.4l0.1,1.8h0.7l-0.3-3.8h-0.9
		l-0.6,1.6c-0.1,0.4-0.4,1-0.4,1.3l0,0c-0.1-0.3-0.3-0.8-0.3-1l-0.7-1.9h-0.8L34.1,566.3z M30.1,561.6c0.7,0,1,0.8,1,2.1
		c0,1.3-0.3,2.1-1,2.1c-0.6,0-1-0.8-1-2.1C29,562.4,29.5,561.6,30.1,561.6z M30.1,561.1c-1,0-1.8,0.9-1.8,2.6c0,1.7,0.7,2.6,1.7,2.6
		c1.1,0,1.8-1,1.8-2.7C31.8,562.1,31.2,561.1,30.1,561.1z M26.1,561.6c0.7,0,1,0.8,1,2.1c0,1.3-0.3,2.1-1,2.1c-0.6,0-1-0.8-1-2.1
		C25,562.4,25.5,561.6,26.1,561.6z M26.1,561.1c-1,0-1.8,0.9-1.8,2.6c0,1.7,0.7,2.6,1.7,2.6c1.1,0,1.8-1,1.8-2.7
		C27.8,562.1,27.2,561.1,26.1,561.1z M20.5,561.2v0.6H23l0,0l-2.2,4.5h0.7l2.2-4.6v-0.5H20.5z M14.7,566c0.3,0.2,0.8,0.3,1.3,0.3
		c1.2,0,1.9-0.7,1.9-1.5c0-0.7-0.5-1.2-1.1-1.3l0,0c0.6-0.2,0.9-0.7,0.9-1.2c0-0.6-0.5-1.2-1.5-1.2c-0.5,0-1.1,0.2-1.3,0.4l0.2,0.5
		c0.2-0.2,0.6-0.3,1-0.3c0.6,0,0.9,0.4,0.9,0.8c0,0.6-0.6,0.9-1.1,0.9h-0.4v0.5h0.4c0.7,0,1.3,0.3,1.3,1c0,0.4-0.3,1-1.1,1
		c-0.5,0-0.9-0.2-1.1-0.3L14.7,566z M2.7,566c0.3,0.2,0.8,0.3,1.3,0.3c1.2,0,1.9-0.7,1.9-1.5c0-0.7-0.5-1.2-1.1-1.3l0,0
		c0.6-0.2,0.9-0.7,0.9-1.2c0-0.6-0.5-1.2-1.5-1.2c-0.5,0-1.1,0.2-1.3,0.4l0.2,0.5c0.2-0.2,0.6-0.3,1-0.3c0.6,0,0.9,0.4,0.9,0.8
		c0,0.6-0.6,0.9-1.1,0.9H3.5v0.5h0.4c0.7,0,1.3,0.3,1.3,1c0,0.4-0.3,1-1.1,1c-0.5,0-0.9-0.2-1.1-0.3L2.7,566z M-6.9,561.6
		c0.7,0,1,0.8,1,2.1c0,1.3-0.3,2.1-1,2.1c-0.6,0-1-0.8-1-2.1C-7.9,562.4-7.5,561.6-6.9,561.6z M-6.9,561.1c-1,0-1.8,0.9-1.8,2.6
		c0,1.7,0.7,2.6,1.7,2.6c1.1,0,1.8-1,1.8-2.7C-5.2,562.1-5.8,561.1-6.9,561.1z M-10.9,561.6c0.7,0,1,0.7,1,1.5c0,0.1,0,0.2-0.1,0.3
		c-0.2,0.3-0.5,0.5-1,0.5c-0.6,0-1-0.4-1-1.1C-11.9,562.1-11.5,561.6-10.9,561.6z M-12.2,566.3c0.2,0,0.4,0,0.6,0
		c0.5-0.1,1.1-0.3,1.5-0.7c0.5-0.5,0.9-1.3,0.9-2.4c0-1.3-0.6-2.1-1.7-2.1c-1,0-1.7,0.8-1.7,1.8c0,0.9,0.6,1.6,1.5,1.6
		c0.5,0,0.9-0.2,1.2-0.5l0,0c-0.1,0.6-0.3,1-0.7,1.4c-0.3,0.3-0.7,0.4-1.1,0.5c-0.2,0-0.4,0-0.6,0v0.4H-12.2z M-16.5,561.2v0.6h2.5
		l0,0l-2.2,4.5h0.7l2.2-4.6v-0.5H-16.5z M-17.6,561.2H-20l-0.3,2.4c0.2,0,0.4-0.1,0.7-0.1c1,0,1.5,0.5,1.5,1.1
		c0,0.7-0.6,1.1-1.2,1.1c-0.5,0-0.9-0.2-1.1-0.3l-0.2,0.5c0.2,0.2,0.7,0.3,1.3,0.3c1.1,0,1.9-0.7,1.9-1.7c0-0.6-0.3-1.1-0.7-1.3
		c-0.3-0.2-0.7-0.3-1.1-0.3c-0.2,0-0.3,0-0.4,0l0.2-1.3h1.9L-17.6,561.2L-17.6,561.2z M-21.6,561.2H-24l-0.3,2.4
		c0.2,0,0.4-0.1,0.7-0.1c1,0,1.5,0.5,1.5,1.1c0,0.7-0.6,1.1-1.2,1.1c-0.5,0-0.9-0.2-1.1-0.3l-0.2,0.5c0.2,0.2,0.7,0.3,1.3,0.3
		c1.1,0,1.9-0.7,1.9-1.7c0-0.6-0.3-1.1-0.7-1.3c-0.3-0.2-0.7-0.3-1.1-0.3c-0.2,0-0.3,0-0.4,0l0.2-1.3h1.9L-21.6,561.2L-21.6,561.2z
		 M-27,561.6c0.6,0,0.9,0.4,0.9,0.8c0,0.5-0.3,0.8-0.8,0.9c-0.6-0.2-1-0.4-1-0.9C-27.8,562-27.5,561.6-27,561.6z M-27,565.9
		c-0.6,0-1-0.5-1-1s0.3-0.9,0.9-1c0.7,0.2,1.1,0.5,1.1,1.1C-25.9,565.5-26.3,565.9-27,565.9z M-27,566.4c1,0,1.7-0.6,1.7-1.5
		c0-0.6-0.4-1.1-1-1.3l0,0c0.6-0.3,0.8-0.8,0.8-1.2c0-0.6-0.5-1.3-1.5-1.3c-0.9,0-1.6,0.5-1.6,1.4c0,0.4,0.2,0.9,0.8,1.1l0,0
		c-0.6,0.3-1,0.7-1,1.4C-28.7,565.7-28,566.4-27,566.4z M-36.8,566.3h0.7v-5.1h-0.6l-1.1,0.6l0.1,0.5l0.9-0.5l0,0L-36.8,566.3
		L-36.8,566.3z M-47.9,566c0.3,0.2,0.8,0.3,1.3,0.3c1.2,0,1.9-0.7,1.9-1.5c0-0.7-0.5-1.2-1.1-1.3l0,0c0.6-0.2,0.9-0.7,0.9-1.2
		c0-0.6-0.5-1.2-1.5-1.2c-0.5,0-1.1,0.2-1.3,0.4l0.2,0.5c0.2-0.2,0.6-0.3,1-0.3c0.6,0,0.9,0.4,0.9,0.8c0,0.6-0.6,0.9-1.1,0.9h-0.4
		v0.5h0.4c0.7,0,1.3,0.3,1.3,1c0,0.4-0.3,1-1.1,1c-0.5,0-0.9-0.2-1.1-0.3L-47.9,566z M-50.2,565.8c-0.7,0-1.1-0.6-1.1-1.5
		c0-0.1,0-0.2,0.1-0.3c0.2-0.4,0.6-0.6,1-0.6c0.6,0,1,0.4,1,1.2S-49.6,565.8-50.2,565.8z M-49,561.1c-0.1,0-0.3,0-0.5,0
		c-0.6,0.1-1.2,0.3-1.6,0.8c-0.5,0.5-0.9,1.3-0.9,2.3c0,1.3,0.7,2.2,1.8,2.2c1.1,0,1.7-0.9,1.7-1.8c0-1-0.6-1.6-1.5-1.6
		c-0.6,0-1,0.3-1.2,0.6l0,0c0.1-0.8,0.7-1.6,1.8-1.8c0.2,0,0.4,0,0.5,0v-0.7H-49z M22.4,556.9H23l0.1-1.8c0-0.4,0-0.9,0.1-1.4l0,0
		c0.1,0.4,0.3,0.9,0.4,1.3l0.7,1.9h0.5l0.7-1.9c0.2-0.6,0.3-0.9,0.4-1.2l0,0c0,0.5,0,0.9,0.1,1.4l0.1,1.8h0.7l-0.3-3.8h-0.9
		l-0.6,1.6c-0.1,0.4-0.4,1-0.4,1.3l0,0c-0.1-0.3-0.3-0.8-0.3-1l-0.7-1.9h-0.8L22.4,556.9z M20,553.5c0.8,0,1.1,0.8,1.1,1.5
		c0,0.9-0.5,1.5-1.1,1.5c-0.7,0-1.1-0.6-1.1-1.5C18.8,554.3,19.2,553.5,20,553.5z M20,553c-1,0-1.9,0.7-1.9,2c0,1.2,0.8,1.9,1.8,1.9
		c0.9,0,1.9-0.6,1.9-2C21.8,553.8,21.1,553,20,553z M14.6,554.7c0-0.1,0-0.2,0-0.3c0.1-0.5,0.6-0.9,1-0.9c0.7,0,1.1,0.6,1.1,1.4
		c0,0.9-0.4,1.5-1.1,1.5c-0.5,0-0.9-0.3-1-0.8c0-0.1,0-0.2,0-0.3V554.7z M13.9,558.4h0.7v-2l0,0c0.2,0.4,0.7,0.6,1.2,0.6
		c0.9,0,1.7-0.7,1.7-2c0-1.1-0.7-1.9-1.6-1.9c-0.6,0-1.1,0.3-1.3,0.7l0,0v-0.6H14c0,0.4,0,0.8,0,1.2L13.9,558.4L13.9,558.4z
		 M10.4,554.6c0.1-0.5,0.4-1.1,1.1-1.1c0.8,0,1,0.7,1,1.1H10.4z M13.1,555.1c0-0.1,0-0.2,0-0.3c0-0.7-0.3-1.8-1.6-1.8
		c-1.1,0-1.8,0.9-1.8,2c0,1.1,0.7,1.9,1.9,1.9c0.6,0,1-0.1,1.3-0.2l-0.1-0.5c-0.3,0.1-0.6,0.2-1,0.2c-0.7,0-1.3-0.4-1.3-1.3
		C10.5,555.1,13.1,555.1,13.1,555.1z M4.8,556.9h0.6l0.1-1.8c0-0.4,0-0.9,0.1-1.4l0,0c0.1,0.4,0.3,0.9,0.4,1.3l0.7,1.9h0.5l0.7-1.9
		c0.2-0.6,0.3-0.9,0.4-1.2l0,0c0,0.5,0,0.9,0.1,1.4l0.1,1.8h0.7l-0.3-3.8H8l-0.6,1.6c-0.1,0.4-0.4,1-0.4,1.3l0,0
		c-0.1-0.3-0.3-0.8-0.3-1L6,553.2H5.2L4.8,556.9z M2.3,553.5c0.8,0,1.1,0.8,1.1,1.5c0,0.9-0.5,1.5-1.1,1.5c-0.7,0-1.1-0.6-1.1-1.5
		C1.2,554.3,1.5,553.5,2.3,553.5z M2.3,553c-1,0-1.9,0.7-1.9,2c0,1.2,0.8,1.9,1.8,1.9c0.9,0,1.9-0.6,1.9-2
		C4.2,553.8,3.4,553,2.3,553z M-3.6,553.1v3.8h0.7v-1.7h1.8v1.7h0.7v-3.8h-0.7v1.5h-1.8v-1.5H-3.6z M-6.5,557c0.3,0,0.5-0.2,0.5-0.5
		c0-0.3-0.2-0.5-0.5-0.5s-0.5,0.2-0.5,0.5C-7,556.7-6.8,557-6.5,557z M-9.9,553.6h1.2v2.7h-1.7c0.1-0.2,0.2-0.4,0.3-0.7
		c0.1-0.4,0.2-0.9,0.2-1.4V553.6z M-10.6,553.1v1c0,0.5-0.1,1-0.2,1.5c-0.1,0.3-0.2,0.5-0.4,0.8h-0.3v1.7h0.5v-1.2h2.6v1.2h0.5v-1.7
		h-0.4v-3.3H-10.6z M-12.7,555.6c0,0.1,0,0.1,0,0.2c-0.1,0.3-0.4,0.6-0.9,0.6c-0.4,0-0.6-0.2-0.6-0.7c0-0.7,0.9-0.9,1.6-0.9v0.8
		H-12.7z M-12,556.9c0-0.3-0.1-0.6-0.1-0.9v-1.5c0-0.8-0.3-1.5-1.4-1.5c-0.5,0-0.9,0.1-1.2,0.3l0.2,0.5c0.3-0.2,0.6-0.3,1-0.3
		c0.8,0,0.9,0.6,0.9,0.9v0.1c-1.5,0-2.3,0.5-2.3,1.4c0,0.5,0.4,1.1,1.2,1.1c0.5,0,0.9-0.3,1.2-0.6l0,0l0.1,0.5H-12z M-18.6,553.1
		v3.8h0.7v-1.7h0.1c0.6,0,1,0.3,1.3,0.9c0.1,0.3,0.3,0.6,0.4,0.8h0.7c-0.2-0.3-0.3-0.7-0.4-0.9c-0.3-0.7-0.7-1.1-1.3-1.1l1.6-1.7
		h-0.8l-1.4,1.6h-0.2v-1.7H-18.6z M-21.1,556.2c-0.2,0.1-0.5,0.2-0.8,0.2c-0.8,0-1.3-0.5-1.3-1.4c0-0.8,0.5-1.4,1.3-1.4
		c0.4,0,0.6,0.1,0.8,0.2l0.2-0.5c-0.2-0.1-0.5-0.2-1-0.2c-1.2,0-2,0.8-2,2s0.7,1.9,1.9,1.9c0.5,0,0.9-0.1,1.1-0.2L-21.1,556.2z
		 M-29.1,553.1v3.8h0.7v-1.7h0.1c0.6,0,1,0.3,1.3,0.9c0.1,0.3,0.3,0.6,0.4,0.8h0.7c-0.2-0.3-0.3-0.7-0.4-0.9
		c-0.3-0.7-0.7-1.1-1.3-1.1l1.6-1.7h-0.8l-1.4,1.6h-0.2v-1.7H-29.1z M-31.8,553.5c0.8,0,1.1,0.8,1.1,1.5c0,0.9-0.5,1.5-1.1,1.5
		c-0.7,0-1.1-0.6-1.1-1.5C-33,554.3-32.6,553.5-31.8,553.5z M-31.8,553c-1,0-1.9,0.7-1.9,2c0,1.2,0.8,1.9,1.8,1.9
		c0.9,0,1.9-0.6,1.9-2C-30,553.8-30.7,553-31.8,553z M-36.9,553.1v0.5h1.2v3.2h0.7v-3.2h1.2v-0.5H-36.9z M-37.5,556.2
		c-0.2,0.1-0.5,0.2-0.8,0.2c-0.8,0-1.3-0.5-1.3-1.4c0-0.8,0.5-1.4,1.3-1.4c0.4,0,0.6,0.1,0.8,0.2l0.2-0.5c-0.2-0.1-0.5-0.2-1-0.2
		c-1.2,0-2,0.8-2,2s0.7,1.9,1.9,1.9c0.5,0,0.9-0.1,1.1-0.2L-37.5,556.2z M-41.9,555.6c0,0.1,0,0.1,0,0.2c-0.1,0.3-0.4,0.6-0.9,0.6
		c-0.4,0-0.6-0.2-0.6-0.7c0-0.7,0.9-0.9,1.6-0.9v0.8H-41.9z M-41.1,556.9c0-0.3-0.1-0.6-0.1-0.9v-1.5c0-0.8-0.3-1.5-1.4-1.5
		c-0.5,0-0.9,0.1-1.2,0.3l0.2,0.5c0.3-0.2,0.6-0.3,1-0.3c0.8,0,0.9,0.6,0.9,0.9v0.1c-1.5,0-2.3,0.5-2.3,1.4c0,0.5,0.4,1.1,1.2,1.1
		c0.5,0,0.9-0.3,1.2-0.6l0,0l0.1,0.5H-41.1z M-47.9,553.1v1.3c0,0.9,0.5,1.2,1.2,1.2c0.4,0,0.8-0.1,1-0.3l0,0v1.5h0.7v-3.7h-0.7v1.8
		c-0.2,0.2-0.5,0.3-0.8,0.3c-0.6,0-0.8-0.3-0.8-0.8v-1.3H-47.9z M-52.2,551.6l1.8,3.5c0.1,0.1,0.1,0.2,0,0.3c-0.2,0.4-0.5,0.9-1,0.9
		c-0.1,0-0.2,0-0.3,0l-0.1,0.6c0.1,0,0.2,0,0.4,0c0.5,0,0.9-0.2,1.2-0.6c0.4-0.5,0.7-1.3,1-2l1.1-2.7h-0.7l-0.8,2.2
		c-0.1,0.4-0.2,0.7-0.3,1l0,0c-0.1-0.3-0.3-0.6-0.4-0.9l-1-2.2L-52.2,551.6L-52.2,551.6z"/>
</g>
</svg>
