<?xml version="1.0" encoding="utf-8"?>
<!-- Generator: Adobe Illustrator 19.1.1, SVG Export Plug-In . SVG Version: 6.00 Build 0)  -->
<svg version="1.1" id="Слой_1" xmlns="http://www.w3.org/2000/svg" xmlns:xlink="http://www.w3.org/1999/xlink" x="0px" y="0px"
	 viewBox="-214 545.5 166 162.4" style="enable-background:new -214 545.5 166 162.4;" xml:space="preserve">
<style type="text/css">
	.st0{fill:#F49E00;}
	.st1{fill:#131F22;}
	.st2{fill:#FFFFFF;}
	.st3{fill:none;stroke:#000000;stroke-width:1.1339;stroke-miterlimit:22.9256;}
</style>
<g>
	<polygon class="st0" points="-58.8,574 -65.4,569.6 -71.9,577.8 -65.6,581 	"/>
	<polygon class="st0" points="-91.5,555.4 -97.5,554.5 -101.4,561.1 -95.7,563.5 -94.6,558.7 	"/>
	<polygon class="st0" points="-187.5,644.8 -192.4,662.2 -193.7,666.1 -183.4,667.9 -177.9,652.9 -176.9,649.2 -183.9,647.4 	"/>
	<polygon class="st0" points="-143.3,654.7 -147.4,674.9 -144.8,676.7 -136,679.8 -132.9,658.6 	"/>
</g>
<path class="st1" d="M-193.9,617c-0.8-0.4-2,9-2.1,10c-0.4,2.5-0.8,4.9-1.3,7.4c-1.1,5.6-2.4,11.2-4,16.7
	c-3.2,11.2-7.3,22-12.4,32.5c-0.6,1.2,1.2,2.2,1.8,1c5.5-11.5,10.1-23.5,13.4-35.9c1.7-6.2,3-12.6,4.1-19c0.5-2.8,0.9-5.6,1.2-8.4
	c0.2-1.8,0.8-3.3-0.3-4.8c-0.2-0.3-0.7-0.4-1-0.3c-0.6,0.3-0.9,0.5-1.1,1.2c-0.1,0.4,0,1,0.5,1.2c0.1,0,0.1,0.1,0.2,0.1
	C-193.8,619.3-192.7,617.5-193.9,617"/>
<path class="st1" d="M-212.8,685.1c15-6.2,30,1.6,43.3,8.4c6.1,3.1,12.2,6.1,18.8,7.9c7.1,2,14.4,2.9,21.7,3.8c1.3,0.2,1.3-1.9,0-2
	c-8.3-1-16.7-2.1-24.7-4.8c-7.4-2.5-14.2-6.4-21.1-9.9c-11.8-5.9-25.5-10.7-38.5-5.4C-214.5,683.7-214,685.6-212.8,685.1"/>
<path class="st1" d="M-195.3,617.1c3.4,4.7,8.8,6.2,14.4,6.6c9.1,0.7,18.3-0.3,27.4-0.1c15.9,0.3,34.2,4.2,42.3,19.6
	c0.6,1.2,2.4,0.1,1.8-1c-6.4-12.2-19.8-18.1-32.9-19.8c-8.7-1.1-17.4-0.7-26.1-0.5c-7.8,0.2-19.8,1.7-25.1-5.7
	C-194.3,615-196.1,616-195.3,617.1"/>
<path class="st1" d="M-111.5,641.8c-0.7,10.2-1.4,20.5-2.3,30.7c-0.4,4.8-0.8,9.7-1.3,14.5c-0.3,2.7-0.5,5.4-0.8,8.1
	c-0.2,1.6,0.2,7-0.9,8h1.4c-0.1-0.1-0.2-0.2-0.2-0.2v1.4c0.1-0.1,0.1-0.1,0.2-0.2c0.8-1-0.6-2.5-1.4-1.4c-0.1,0.1-0.1,0.1-0.2,0.2
	c-0.3,0.4-0.4,1,0,1.4c0.1,0.1,0.2,0.2,0.2,0.2c0.4,0.4,1,0.4,1.4,0c0.7-0.6,0.6-1.3,0.8-2.2c0.5-2.9,0.6-5.9,0.9-8.9
	c0.6-5.6,1.1-11.3,1.6-17c1-11.6,1.9-23.2,2.6-34.8C-109.4,640.5-111.4,640.5-111.5,641.8"/>
<path class="st1" d="M-129,705.6c4.4,0.2,8.7,3.9,13.2,1.6c2.8-1.5,3.8-5.3,1.4-7.6c-1-0.9-2.4,0.5-1.4,1.4c1.8,1.7,0.2,4.2-1.8,4.7
	c-1.5,0.4-3.2,0-4.6-0.4c-2.3-0.7-4.3-1.6-6.7-1.8C-130.3,703.5-130.3,705.5-129,705.6"/>
<path class="st1" d="M-112.3,702.5c0.1-4.8,5.2-6.9,9.3-6.2c3.2,0.6,6,2.4,8.6,4.2c1.1,0.7,2.1-1,1-1.8c-4-2.7-9-5.6-14.1-4.3
	c-3.9,1-6.8,4.1-6.9,8.1C-114.3,703.8-112.3,703.8-112.3,702.5"/>
<path class="st1" d="M-93.6,699.4c-4.1-19.7-5.7-39.8-4.6-59.8c0.1-1.3-2-1.3-2,0c-1,20.3,0.6,40.5,4.7,60.4
	C-95.3,701.3-93.3,700.7-93.6,699.4"/>
<path class="st1" d="M-92.7,698.7c-1.6-5,4.2-7.3,8.1-6.8c2.1,0.3,5.1,2.1,7.1,1.4c0.4-0.2,0.8-0.5,0.8-1c0-0.7-0.2-1-0.8-1.4
	c-0.3-0.2-0.8-0.2-1,0c-0.1,0-0.1,0.1-0.2,0.1c-1.1,0.7-0.1,2.5,1,1.8c-0.4-0.2-0.7-0.3-1.1-0.5c0.3-0.3,0.5-0.7,0.8-1
	c-0.9,0.4-2.9-0.7-3.9-1c-1.2-0.3-2.5-0.5-3.7-0.6c-1.9-0.1-3.9,0.2-5.5,1.2c-2.9,1.7-4.6,5-3.6,8.4
	C-94.3,700.5-92.3,700-92.7,698.7"/>
<path class="st1" d="M-78.7,690.2c0.6-2-1.7-4.8-2.5-6.5c-1.1-2.4-2.1-4.9-2.9-7.5c-1.4-4.4-2.5-8.9-3.3-13.5
	c-1.6-9.6-1.9-19.4-1.9-29.1c0-1.3-2-1.3-2,0c0,11.3,0.4,22.7,2.7,33.8c1.1,5.1,2.5,10,4.5,14.8c1.1,2.7,2.8,9.3,6.2,9.6
	c0.4,0,0.9-0.4,1-0.8c0-0.1,0.1-0.2,0.1-0.3C-76.4,689.5-78.3,688.9-78.7,690.2"/>
<path class="st1" d="M-110.2,642.2c1,1.3,2,2.5,3,3.8c0.5,0.6,1.5,0.2,1.7-0.5c0.9-2.6,1.8-5.3,2.7-7.9c-0.6,0.1-1.2,0.2-1.9,0.2
	c1.1,2.3,3.9,3.1,6.1,2c1.2-0.6,0.1-2.4-1-1.8c-1.3,0.7-2.7,0-3.3-1.2c-0.4-0.8-1.6-0.5-1.9,0.2c-0.9,2.6-1.8,5.3-2.7,7.9l1.7-0.5
	c-1-1.3-2-2.5-3-3.8C-109.6,639.7-111.1,641.2-110.2,642.2"/>
<path class="st1" d="M-97.4,640.7c0-3.3,0-6.5,0.1-9.8c-0.3,0.3-0.5,0.7-0.8,1c1.1-0.5,1.8,3.4,2.2,4.1c0.6,0.9,1.4,1.4,2.5,1.3
	c0.7-0.1,1.1-0.6,1-1.3c-0.3-1.7,0.3-3.1,1.6-4.2l-1.7-0.5l0.3,2.4c0.2,1.3,2.2,0.7,2-0.5c-0.1-0.8-0.2-1.6-0.3-2.4
	c-0.1-0.8-1.2-0.9-1.7-0.5c-1.9,1.6-2.6,3.8-2.1,6.2c0.3-0.4,0.7-0.9,1-1.3c-1.2,0.1-1.6-3.5-2.3-4.3c-0.7-1-1.8-1.5-3-1.1
	c-0.4,0.2-0.7,0.5-0.8,1c0,3.3,0,6.5-0.1,9.8C-99.5,642-97.4,642-97.4,640.7"/>
<path class="st1" d="M-107.4,643.5c-0.7,7.5-1,15-0.7,22.6c0.1,3.6,0.4,7.3,0.7,10.9c0.2,1.8-0.1,4.1,1.2,5.5c0.2,0.2,0.7,0.4,1,0.3
	l0.4-0.2c0.6-0.2,0.8-0.7,0.7-1.3c0-0.1,0-0.3-0.1-0.4c-0.2-1.3-2.2-0.7-2,0.5c0,0.1,0,0.3,0.1,0.4c0.2-0.4,0.5-0.8,0.7-1.3
	c0.8-0.3-0.4-8.1-0.5-9.1c-0.2-3.1-0.3-6.2-0.4-9.4c-0.1-6.2,0.2-12.5,0.8-18.7C-105.2,642.2-107.2,642.2-107.4,643.5"/>
<path class="st1" d="M-94.1,635.3c-1.8,16-0.7,32.2,3.4,47.8c0.3,1.3,2.3,0.7,2-0.5c-4-15.5-5.2-31.4-3.3-47.2
	C-91.9,634-94,634-94.1,635.3"/>
<path class="st1" d="M-193,617.8c5.9,1.4,12,1,17.5-1.5c2.6-1.1,4.9-2.7,7-4.6c1.6-1.5,3-3.2,5.4-3.3c2.6-0.2,5.8,1.2,8,2.4
	c1.2,0.6,2.2-1.2,1-1.8c-2.8-1.5-5.9-2.6-9.1-2.7c-2.8-0.1-4,1.2-5.9,3.1c-6.1,6.1-15,8.4-23.4,6.4
	C-193.7,615.5-194.3,617.5-193,617.8"/>
<path class="st1" d="M-148.9,611.5c10.3,2.4,20.5,5.3,30.6,8.6c9.6,3.2,19.3,6.7,26.8,13.7c1,0.9,2.4-0.5,1.4-1.4
	c-7-6.6-15.8-10.3-24.8-13.3c-11-3.7-22.2-6.9-33.5-9.5C-149.7,609.2-150.2,611.2-148.9,611.5"/>
<path class="st1" d="M-162.6,622.6c0.7-1.4,1.2-3.1,2-4.5c1-1.7,1.1-2,3.2-2.1c2.7-0.1,5.8,0.9,8.5,1.4c5,1,9.9,2.3,14.7,3.9
	c5.2,1.7,10.3,3.7,15.3,6c1.9,0.9,4.9,1.8,6.5,3.3c1.3,0.2,1.7,0.8,1.1,2c0,0.9-0.2,1.8-0.8,2.6c-0.5,1.3-1.3,2.6-1.9,3.9
	c-0.6,1.2,1.2,2.2,1.8,1c1.2-2.5,5.2-7.3,2.9-10c-1.4-1.7-5.3-2.9-7.3-3.9c-2.5-1.2-5-2.3-7.5-3.4c-11.5-4.7-23.6-7.8-36-9.3
	c-0.3,0-0.8,0.2-0.9,0.5c-1.1,2.5-2.3,4.9-3.4,7.4C-165,622.8-163.2,623.8-162.6,622.6"/>
<path class="st1" d="M-155.5,612.9c-0.6,1.2-0.4,2.5,0.5,3.5c0.9,1,2.3-0.5,1.4-1.4c-0.3-0.3-0.3-0.7-0.2-1c0.2-0.5,0.1-1.1-0.4-1.4
	C-154.5,612.3-155.3,612.4-155.5,612.9"/>
<path class="st1" d="M-153.8,614.1c1.3-1.6,10.9,2.2,12.6,2.7c4.3,1.2,8.6,2.4,12.8,3.6c8.4,2.4,18,4.1,25,9.6v-1.5
	c-3.4,4.4-5.5,9.2-6.3,14.7c-0.2,1.3,1.8,1.8,2,0.5c0.7-5.1,2.6-9.7,5.7-13.8c0.3-0.4,0.5-1.1,0-1.4c-7.7-6-18.2-7.9-27.4-10.5
	c-5.5-1.6-11.1-3.1-16.6-4.6c-2.5-0.7-7.3-3.2-9.3-0.7C-156.1,613.6-154.7,615.1-153.8,614.1"/>
<path class="st1" d="M-189.5,645.1c-0.8,6.5-2.4,12.8-5.1,18.9c-0.5,1.2,1.2,2.2,1.8,1c2.8-6.4,4.5-13,5.3-19.9
	C-187.3,643.8-189.4,643.8-189.5,645.1"/>
<path class="st1" d="M-188.9,645.2c1.4,1.3,2.9,2.2,4.6,2.9c1.6,0.6,4.6,0.3,5.8,1.5c0.9,1,2.3-0.5,1.4-1.4c-1-1.1-2.4-1.2-3.8-1.4
	c-2.5-0.3-4.7-1.2-6.6-3C-188.4,642.8-189.9,644.3-188.9,645.2"/>
<path class="st1" d="M-178.2,648.1c-1.9,6.5-3.9,12.9-5.8,19.4c-0.4,1.3,1.6,1.8,2,0.5c1.9-6.5,3.9-12.9,5.8-19.4
	C-175.8,647.4-177.8,646.9-178.2,648.1"/>
<path class="st1" d="M-194,666.7c3.5-0.5,6.9,0.2,10,1.8c1.2,0.6,2.2-1.1,1-1.8c-3.6-2-7.5-2.6-11.6-2.1
	C-195.9,664.9-195.3,666.9-194,666.7"/>
<path class="st1" d="M-189.6,656.7c1.3-0.5,2.9,0.6,4.1,1.1c1.2,0.5,2.4,1,3.6,1.5s2.2-1.3,1-1.8c-1.8-0.8-3.6-1.5-5.4-2.3
	c-1.3-0.5-2.5-1.1-3.9-0.6C-191.4,655.2-190.9,657.2-189.6,656.7"/>
<path class="st1" d="M-145.2,654.7c-0.3,4.1-0.8,8.2-1.6,12.2c-0.6,2.6-2.1,5.8-1.9,8.4c0,0.5,0.4,1,1,1c0.1,0,0.2,0,0.3,0
	c0.4,0,0.9-0.3,1-0.8c0-0.1,0-0.1,0-0.2c0.2-1.3-1.8-1.8-2-0.5c0.2-0.2,0.5-0.4,0.7-0.5c0.3,0.3,0.7,0.7,1,1
	c-0.1-1.9,1.1-4.5,1.5-6.4c0.3-1.5,0.7-3.1,0.9-4.6c0.5-3.2,0.9-6.4,1.1-9.6C-143.1,653.4-145.1,653.4-145.2,654.7"/>
<path class="st1" d="M-143.9,656.1c0.6-0.1,2,0.9,2.5,1.1c0.8,0.3,1.5,0.6,2.3,0.8c1.7,0.5,3.5,0.7,5.4,0.7c1.3,0,1.3-2,0-2
	c-2.3,0-4.6-0.4-6.8-1.3c-1.3-0.6-2.5-1.6-4-1.3C-145.7,654.4-145.1,656.4-143.9,656.1"/>
<path class="st1" d="M-134,657.9c-1.5,6.9-2.8,13.9-4,20.9h2c-0.1-0.2-0.1-0.5-0.2-0.7c-0.3-1.3-2.2-0.7-2,0.5
	c0.1,0.2,0.1,0.5,0.2,0.7c0.2,1,1.8,1,2,0c1.1-7,2.4-14,4-20.9C-131.7,657.2-133.7,656.6-134,657.9"/>
<path class="st1" d="M-148.5,677.9c2.5-1,4.4,0.6,6.6,1.5c1.6,0.7,3.3,1,5,1.1c1.3,0.1,1.3-2,0-2c-2.7-0.2-4.6-1.3-7-2.3
	c-1.7-0.7-3.4-1-5.1-0.3C-150.2,676.4-149.7,678.3-148.5,677.9"/>
<path class="st1" d="M-145.6,666.9c3.3,0.7,6.6,1.6,9.8,2.6c1.3,0.4,1.8-1.6,0.5-2c-3.2-1-6.5-1.8-9.8-2.6
	C-146.3,664.6-146.9,666.6-145.6,666.9"/>
<path class="st1" d="M-106.6,627c1.3,0,1.3-2,0-2C-107.9,624.9-107.9,627-106.6,627"/>
<path class="st1" d="M-90.2,632.3c9.7-18.9,24-34.9,41.7-46.7c1.1-0.7,0.1-2.5-1-1.8c-17.9,12-32.5,28.3-42.4,47.5
	C-92.6,632.4-90.8,633.5-90.2,632.3"/>
<path class="st1" d="M-160.5,607.2c2.3-3.7,4.7-7.3,7.2-10.9c0.8-1.1-1-2.1-1.8-1c-2.5,3.5-5.3,7.2-7.6,10.9
	C-163.4,607.3-161.2,608.3-160.5,607.2"/>
<path class="st1" d="M-98.9,562.9c8.2,5.4,16.6,10.4,25.3,14.9c3.6,1.8,7.2,3.7,10.9,5.2c1.8,0.7,3.6,1.3,5.4,1.6
	c2,0.3,4.8-0.3,6.4,1c1,0.8,2.5-0.6,1.4-1.4c-2.5-2.1-5.9-1.1-8.9-1.8c-4.7-1.1-9.2-3.7-13.6-5.9c-8.9-4.6-17.6-9.7-26-15.3
	C-98.9,560.4-100,562.2-98.9,562.9"/>
<path class="st1" d="M-70.3,577.7c2.1-2.8,4.2-5.5,6.4-8.3h-1.8c1.5,3,4.2,4.7,7.5,5c-0.2-0.6-0.3-1.3-0.5-1.9
	c-2.8,1.5-5,3.7-6.6,6.5c-0.6,1.2,1.1,2.2,1.8,1c1.4-2.5,3.3-4.4,5.9-5.8c1-0.5,0.4-1.8-0.5-1.9c-2.6-0.2-4.6-1.6-5.7-4
	c-0.4-0.8-1.3-0.5-1.8,0c-2.1,2.8-4.2,5.5-6.4,8.3C-72.9,577.7-71.1,578.8-70.3,577.7"/>
<path class="st1" d="M-92.6,556.4c-1.4,1.8-2.9,3.7-4.3,5.5c-0.8,1,0.6,2.5,1.4,1.4c1.4-1.8,2.9-3.7,4.3-5.5
	C-90.3,556.8-91.7,555.3-92.6,556.4"/>
<path class="st1" d="M-95.9,555.2c1.3,0.4,2.4,1.3,3.1,2.5c0.7,1.1,2.5,0.1,1.8-1c-1-1.6-2.5-2.8-4.3-3.4
	C-96.6,552.8-97.1,554.8-95.9,555.2"/>
<path class="st1" d="M-96.5,553.6c-1.2,1.3-2.5,2.6-3.7,3.9c-0.9,1,0.5,2.4,1.4,1.4c1.2-1.3,2.5-2.6,3.7-3.9
	C-94.1,554.1-95.6,552.6-96.5,553.6"/>
<path class="st1" d="M-97.8,561.2c-4.3-2.6-13.8-11.1-16.8-15.2c-0.5-0.6-1.3-0.7-1.8,0c-2.9,4-34.6,46.6-38.7,49.3
	c-1.1,0.7,0.7,1.7,1.8,1c4.5-2.9,35.7-45,38.7-49.3h-1.8c3.2,4.4,12.6,12.8,17.2,15.6C-98,563.4-96.7,561.9-97.8,561.2"/>
<g>
	<path class="st2" d="M-164.8,635.1c8.6-17,11.7-38.4,12.1-62.2c15,4.2,29,5.8,41.5,3.7c-6,18.5-6.9,42.3-10.4,63.5
		C-133.9,635.6-148.5,630.6-164.8,635.1z"/>
	<path class="st3" d="M-164.8,635.1c8.6-17,11.7-38.4,12.1-62.2c15,4.2,29,5.8,41.5,3.7c-6,18.5-6.9,42.3-10.4,63.5
		C-133.9,635.6-148.5,630.6-164.8,635.1z"/>
</g>
<g>
	<path class="st2" d="M-182.9,623.9c8.6-17,11.7-38.4,12.1-62.2c15,4.2,29,5.8,41.5,3.7c-6,18.5-6.9,42.3-10.4,63.5
		C-152,624.4-166.5,619.4-182.9,623.9z"/>
	<path class="st3" d="M-182.9,623.9c8.6-17,11.7-38.4,12.1-62.2c15,4.2,29,5.8,41.5,3.7c-6,18.5-6.9,42.3-10.4,63.5
		C-152,624.4-166.5,619.4-182.9,623.9z"/>
	<path class="st3" d="M-165.8,570.5c8.7,1.2,18.6,0.5,27.3,1.7"/>
	<path class="st3" d="M-166.4,577.1c8.7,1.2,19.2,3.8,27.3,1.7"/>
	<path class="st3" d="M-166.4,583.1c8.7,1.2,19.2,3.8,27.3,1.7"/>
	<path class="st3" d="M-165.7,590.4c8.7,1.2,17.3,1.1,25.1,1.5"/>
	<path class="st3" d="M-168.1,601.8c8.7,1.2,19.2,3.8,27.3,1.7"/>
	<path class="st3" d="M-169.7,607.2c8.7,1.2,19.2,3.8,27.3,1.7"/>
</g>
<g>
	<path class="st2" d="M-170.3,640.2c8.6-17,11.7-38.4,12.1-62.2c15,4.2,29,5.8,41.5,3.7c-6,18.5-6.9,42.3-10.4,63.5
		C-139.4,640.7-154,635.8-170.3,640.2z"/>
	<path class="st3" d="M-170.3,640.2c8.6-17,11.7-38.4,12.1-62.2c15,4.2,29,5.8,41.5,3.7c-6,18.5-6.9,42.3-10.4,63.5
		C-139.4,640.7-154,635.8-170.3,640.2z"/>
	<path class="st3" d="M-153.3,586.8c8.7,1.2,18.6,0.5,27.3,1.7"/>
	<path class="st3" d="M-153.8,593.4c8.7,1.2,19.2,3.8,27.3,1.7"/>
	<path class="st3" d="M-153.9,599.4c8.7,1.2,19.2,3.8,27.3,1.7"/>
	<path class="st3" d="M-153.1,606.7c8.7,1.2,17.3,1.1,25.1,1.5"/>
</g>
<g>
	<path class="st0" d="M-158.1,623.1c0.3,1.8,0.7,3.7,1.1,5.5c0.1,0.3,0.6,0.2,0.5-0.1c-0.4-1.8-0.8-3.7-1.1-5.5
		C-157.7,622.8-158.2,622.8-158.1,623.1"/>
	<path class="st0" d="M-157.7,623.5c1.1-0.4,2.3-0.5,3.5-0.7c1.1-0.2,2.2-0.5,3.3-0.7c2.3-0.5,4.5-1.1,6.8-1.6
		c2.2-0.6,4.4-1,6.7-1.3c2.3-0.3,4.5-0.9,6.8-1.2c0.3,0,0.3-0.5,0-0.5c-0.1,0-0.1,0-0.2,0c-0.3,0-0.4,0.5-0.1,0.5c0.1,0,0.1,0,0.2,0
		c0-0.2,0-0.3,0-0.5c-2.3,0.3-4.5,0.9-6.8,1.2c-2.4,0.3-4.7,0.7-7.1,1.4c-2.3,0.6-4.5,1.1-6.8,1.6c-2.2,0.5-4.4,0.7-6.5,1.4
		C-158.2,623.2-158,623.6-157.7,623.5"/>
	<path class="st0" d="M-156.7,629c8.4-2.4,16.9-4.2,25.4-5.7c0.3-0.1,0.2-0.5-0.1-0.5c-8.6,1.4-17.1,3.3-25.4,5.7
		C-157,628.6-157,629.1-156.7,629"/>
	<path class="st0" d="M-130.9,617.7c0.3,1.7,0.7,3.4,1.2,5c0.1-0.1,0.1-0.2,0.2-0.3c-0.4,0-0.8,0.1-1.2,0.3
		c-0.3,0.1-0.1,0.6,0.2,0.4c0.3-0.2,0.7-0.3,1-0.3c0.2,0,0.2-0.2,0.2-0.3c-0.5-1.6-0.9-3.2-1.2-4.9
		C-130.4,617.3-130.9,617.4-130.9,617.7"/>
	<path class="st0" d="M-132.4,620.9c0,0.2,0.1,0.3,0.2,0.4c0.1,0.1,0.2,0.1,0.3,0.1s0.2-0.1,0.3-0.2c0.1-0.1,0.1-0.3,0-0.4
		c0-0.2-0.1-0.3-0.2-0.4c-0.1-0.1-0.2-0.1-0.4-0.1c-0.1,0-0.2,0.1-0.3,0.2C-132.5,620.6-132.5,620.7-132.4,620.9 M-132.8,621
		c0-0.2,0-0.3,0-0.4c0-0.1,0.1-0.2,0.1-0.3c0.1-0.1,0.1-0.1,0.2-0.2c0.1-0.1,0.2-0.1,0.3-0.1c0.2,0,0.4,0,0.6,0.1
		c0.2,0.1,0.3,0.3,0.3,0.6c0.1,0.3,0,0.5-0.1,0.7c-0.1,0.2-0.3,0.3-0.5,0.3s-0.4,0-0.6-0.1C-132.6,621.4-132.7,621.3-132.8,621z
		 M-134.2,622.1l-0.3-1.6l0.3-0.1l0.1,0.6l0.6-0.1l-0.1-0.6l0.3-0.1l0.3,1.6l-0.3,0.1l-0.1-0.7l-0.6,0.1l0.1,0.7L-134.2,622.1z
		 M-135.1,621.6l-0.3-0.6l-0.1,0.6H-135.1z M-134.3,622.1l-0.4,0.1l-0.2-0.3l-0.6,0.1l-0.1,0.4l-0.4,0l0.3-1.7l0.3-0.1L-134.3,622.1
		z M-137.1,621.9l0.1,0.4l0.3-0.1c0.1,0,0.2,0,0.2-0.1c0,0,0.1,0,0.1-0.1v-0.1c0,0,0-0.1-0.1-0.1c0,0-0.1,0-0.1-0.1c0,0-0.1,0-0.3,0
		L-137.1,621.9z M-137.2,621.3l0.1,0.4h0.2c0.1,0,0.2,0,0.2-0.1c0.1,0,0.1,0,0.1-0.1v-0.1c0,0,0-0.1-0.1-0.1h-0.1
		C-136.8,621.3-136.9,621.3-137.2,621.3L-137.2,621.3z M-137.6,621.1l0.6-0.1c0.1,0,0.2,0,0.3,0c0.1,0,0.1,0,0.2,0
		c0.1,0,0.1,0.1,0.1,0.1s0.1,0.1,0.1,0.2s0,0.1,0,0.2c0,0.1-0.1,0.1-0.1,0.2c0.1,0,0.2,0,0.3,0.1s0.1,0.1,0.1,0.2c0,0.1,0,0.1,0,0.2
		c0,0.1-0.1,0.1-0.1,0.2c-0.1,0.1-0.2,0.1-0.3,0.1c-0.1,0-0.2,0-0.4,0.1l-0.5,0.1L-137.6,621.1z M-139,622.2c0,0.2,0.1,0.3,0.2,0.4
		c0.1,0.1,0.2,0.1,0.3,0.1c0.1,0,0.2-0.1,0.3-0.2c0.1-0.1,0.1-0.3,0-0.4c0-0.2-0.1-0.3-0.2-0.4c-0.1-0.1-0.2-0.1-0.4-0.1
		c-0.1,0-0.2,0.1-0.3,0.2C-139,621.9-139,622-139,622.2z M-139.3,622.3c0-0.2,0-0.3,0-0.4c0-0.1,0.1-0.2,0.1-0.3
		c0.1-0.1,0.1-0.1,0.2-0.2c0.1-0.1,0.2-0.1,0.3-0.1c0.2,0,0.4,0,0.6,0.1c0.2,0.1,0.3,0.3,0.3,0.6c0.1,0.3,0,0.5-0.1,0.7
		c-0.1,0.2-0.3,0.3-0.5,0.3s-0.4,0-0.6-0.1C-139.1,622.7-139.2,622.5-139.3,622.3z M-140.5,621.9l0.1,0.5h0.2c0.1,0,0.2-0.1,0.3-0.1
		l0.1-0.1v-0.1c0-0.1,0-0.1-0.1-0.1h-0.1c0,0-0.1,0-0.2,0L-140.5,621.9z M-140.5,623.3l-0.3-1.6l0.5-0.1c0.2,0,0.3-0.1,0.4-0.1
		c0.1,0,0.2,0,0.3,0.1c0.1,0.1,0.1,0.2,0.2,0.3c0,0.1,0,0.2,0,0.3c0,0.1-0.1,0.1-0.1,0.2c0,0-0.1,0.1-0.2,0.1
		c-0.1,0-0.2,0.1-0.3,0.1h-0.2l0.1,0.6L-140.5,623.3z M-142.5,622l0.3-0.1l0.2,1.1l0.4-1.2l0.3-0.1l0.3,1.6l-0.2,0.2l-0.2-1.1
		l-0.4,1.2l-0.3,0.1L-142.5,622z M-143.6,622.5l0.1,0.5h0.2c0.1,0,0.2-0.1,0.3-0.1l0.1-0.1v-0.1c0-0.1,0-0.1-0.1-0.1h-0.1
		c0,0-0.1,0-0.2,0L-143.6,622.5z M-143.7,624l-0.3-1.7l0.5-0.1c0.2,0,0.3-0.1,0.4-0.1c0.1,0,0.2,0,0.3,0.1c0.1,0.1,0.1,0.2,0.2,0.3
		c0,0.1,0,0.2,0,0.3c0,0.1-0.1,0.1-0.1,0.2c0,0-0.1,0.1-0.2,0.1c-0.1,0-0.2,0.1-0.3,0.1h-0.2l0.1,0.6L-143.7,624z M-144.7,624.2
		l-0.3-1.3l-0.5,0.1l-0.1-0.3l1.3-0.2l0.1,0.3l-0.5,0.1l0.3,1.3H-144.7z M-145.7,623.7h0.3c0,0.2-0.1,0.3-0.2,0.4
		c-0.1,0.1-0.2,0.2-0.4,0.2c-0.2,0-0.4,0-0.6-0.1c-0.2-0.1-0.3-0.3-0.3-0.6c-0.1-0.3,0-0.5,0.1-0.7c0.1-0.2,0.3-0.3,0.5-0.3
		s0.4,0,0.5,0.1c0.1,0.1,0.2,0.1,0.2,0.3l-0.3,0.1c0-0.1-0.1-0.1-0.2-0.2c-0.1,0-0.1,0-0.2,0c-0.1,0-0.2,0.1-0.3,0.2
		c-0.1,0.1-0.1,0.2,0,0.4c0,0.2,0.1,0.3,0.2,0.4c0.1,0.1,0.2,0.1,0.3,0.1s0.2-0.1,0.2-0.1C-145.7,624-145.7,623.9-145.7,623.7z
		 M-148.5,623.2l0.3-0.1l0.2,1.1l0.4-1.2l0.3-0.1l0.3,1.6l-0.3,0.1l-0.2-1.1l-0.4,1.2l-0.3,0.1L-148.5,623.2z M-149.8,623.5l1.1-0.2
		l0.1,0.3l-0.8,0.1l0.3,1.3l-0.3,0.1L-149.8,623.5z M-151,625.4l-0.3-1.6l1.2-0.2l0.1,0.3l-0.9,0.2l0.1,0.4l0.8-0.2l0,0.2l-0.8,0.2
		l0.1,0.4l0.9-0.2l0.1,0.3L-151,625.4z M-152.4,624.3l0.1,0.5h0.2c0.1,0,0.2-0.1,0.3-0.1l0.1-0.1v-0.1c0-0.1,0-0.1-0.1-0.1h-0.1
		c0,0-0.1,0-0.2,0L-152.4,624.3z M-152.5,625.7l-0.3-1.6l0.5-0.1c0.2,0,0.3-0.1,0.4-0.1c0.1,0,0.2,0,0.3,0.1
		c0.1,0.1,0.1,0.2,0.2,0.3c0,0.1,0,0.2,0,0.3c0,0.1-0.1,0.1-0.1,0.2c0,0-0.1,0.1-0.2,0.1c-0.1,0-0.2,0.1-0.3,0.1h-0.2l0.1,0.6
		L-152.5,625.7z M-153.4,625.2l-0.3-0.6l-0.1,0.6H-153.4z M-152.7,625.7l-0.3,0.1l-0.2-0.3l-0.6,0.1l-0.2,0.4l-0.3,0.1l0.3-1.7
		l0.3-0.1L-152.7,625.7z M-155.6,625.1h-0.3c0-0.3,0.2-0.4,0.5-0.5c0.2,0,0.3,0,0.5,0c0.1,0.1,0.2,0.2,0.2,0.3c0,0.1,0,0.2,0,0.2
		c0,0.1-0.1,0.1-0.2,0.2c0.1,0,0.2,0.1,0.3,0.1c0.1,0.1,0.1,0.1,0.1,0.2c0,0.1,0,0.3-0.1,0.4c-0.1,0.1-0.2,0.2-0.4,0.2
		c-0.2,0-0.3,0-0.4,0c-0.1,0-0.2-0.1-0.3-0.3l0.3-0.2c0,0.1,0.1,0.1,0.2,0.2c0.1,0,0.1,0,0.2,0c0.1,0,0.2-0.1,0.2-0.1
		c0-0.1,0.1-0.1,0-0.2c0-0.1,0-0.1-0.1-0.1c-0.1,0-0.1,0-0.3,0h-0.1v-0.2l0,0c0.1,0,0.2-0.1,0.2-0.1c0-0.1,0.1-0.1,0-0.2
		c0-0.1,0-0.1-0.1-0.1c-0.1,0-0.1,0-0.2,0C-155.5,624.8-155.5,624.9-155.6,625.1z"/>
</g>
</svg>
