<svg id="Слой_1" xmlns="http://www.w3.org/2000/svg" viewBox="-214 545.5 166 162.4"><style>.st0{fill:#F49E00;} .st1{fill:#131F22;} .st2{fill:#FFFFFF;} .st3{fill:none;stroke:#000000;stroke-width:1.1339;stroke-miterlimit:22.9256;}</style><path class="st0" d="M-58.8 574l-6.6-4.4-6.5 8.2 6.3 3.2zM-91.5 555.4l-6-.9-3.9 6.6 5.7 2.4 1.1-4.8zM-187.5 644.8l-4.9 17.4-1.3 3.9 10.3 1.8 5.5-15 1-3.7-7-1.8zM-143.3 654.7l-4.1 20.2 2.6 1.8 8.8 3.1 3.1-21.2z"/><path class="st1" d="M-193.9 617c-.8-.4-2 9-2.1 10-.4 2.5-.8 4.9-1.3 7.4-1.1 5.6-2.4 11.2-4 16.7-3.2 11.2-7.3 22-12.4 32.5-.6 1.2 1.2 2.2 1.8 1 5.5-11.5 10.1-23.5 13.4-35.9 1.7-6.2 3-12.6 4.1-19 .5-2.8.9-5.6 1.2-8.4.2-1.8.8-3.3-.3-4.8-.2-.3-.7-.4-1-.3-.6.3-.9.5-1.1 1.2-.1.4 0 1 .5 1.2.1 0 .1.1.2.1 1.1.6 2.2-1.2 1-1.7"/><path class="st1" d="M-212.8 685.1c15-6.2 30 1.6 43.3 8.4 6.1 3.1 12.2 6.1 18.8 7.9 7.1 2 14.4 2.9 21.7 3.8 1.3.2 1.3-1.9 0-2-8.3-1-16.7-2.1-24.7-4.8-7.4-2.5-14.2-6.4-21.1-9.9-11.8-5.9-25.5-10.7-38.5-5.4-1.2.6-.7 2.5.5 2M-195.3 617.1c3.4 4.7 8.8 6.2 14.4 6.6 9.1.7 18.3-.3 27.4-.1 15.9.3 34.2 4.2 42.3 19.6.6 1.2 2.4.1 1.8-1-6.4-12.2-19.8-18.1-32.9-19.8-8.7-1.1-17.4-.7-26.1-.5-7.8.2-19.8 1.7-25.1-5.7-.8-1.2-2.6-.2-1.8.9"/><path class="st1" d="M-111.5 641.8c-.7 10.2-1.4 20.5-2.3 30.7-.4 4.8-.8 9.7-1.3 14.5-.3 2.7-.5 5.4-.8 8.1-.2 1.6.2 7-.9 8h1.4l-.2-.2v1.4l.2-.2c.8-1-.6-2.5-1.4-1.4l-.2.2c-.3.4-.4 1 0 1.4l.2.2c.4.4 1 .4 1.4 0 .7-.6.6-1.3.8-2.2.5-2.9.6-5.9.9-8.9.6-5.6 1.1-11.3 1.6-17 1-11.6 1.9-23.2 2.6-34.8.1-1.1-1.9-1.1-2 .2"/><path class="st1" d="M-129 705.6c4.4.2 8.7 3.9 13.2 1.6 2.8-1.5 3.8-5.3 1.4-7.6-1-.9-2.4.5-1.4 1.4 1.8 1.7.2 4.2-1.8 4.7-1.5.4-3.2 0-4.6-.4-2.3-.7-4.3-1.6-6.7-1.8-1.4 0-1.4 2-.1 2.1"/><path class="st1" d="M-112.3 702.5c.1-4.8 5.2-6.9 9.3-6.2 3.2.6 6 2.4 8.6 4.2 1.1.7 2.1-1 1-1.8-4-2.7-9-5.6-14.1-4.3-3.9 1-6.8 4.1-6.9 8.1.1 1.3 2.1 1.3 2.1 0"/><path class="st1" d="M-93.6 699.4c-4.1-19.7-5.7-39.8-4.6-59.8.1-1.3-2-1.3-2 0-1 20.3.6 40.5 4.7 60.4.2 1.3 2.2.7 1.9-.6"/><path class="st1" d="M-92.7 698.7c-1.6-5 4.2-7.3 8.1-6.8 2.1.3 5.1 2.1 7.1 1.4.4-.2.8-.5.8-1 0-.7-.2-1-.8-1.4-.3-.2-.8-.2-1 0-.1 0-.1.1-.2.1-1.1.7-.1 2.5 1 1.8-.4-.2-.7-.3-1.1-.5.3-.3.5-.7.8-1-.9.4-2.9-.7-3.9-1-1.2-.3-2.5-.5-3.7-.6-1.9-.1-3.9.2-5.5 1.2-2.9 1.7-4.6 5-3.6 8.4.4 1.2 2.4.7 2-.6"/><path class="st1" d="M-78.7 690.2c.6-2-1.7-4.8-2.5-6.5-1.1-2.4-2.1-4.9-2.9-7.5-1.4-4.4-2.5-8.9-3.3-13.5-1.6-9.6-1.9-19.4-1.9-29.1 0-1.3-2-1.3-2 0 0 11.3.4 22.7 2.7 33.8 1.1 5.1 2.5 10 4.5 14.8 1.1 2.7 2.8 9.3 6.2 9.6.4 0 .9-.4 1-.8 0-.1.1-.2.1-.3.4-1.2-1.5-1.8-1.9-.5M-110.2 642.2c1 1.3 2 2.5 3 3.8.5.6 1.5.2 1.7-.5.9-2.6 1.8-5.3 2.7-7.9-.6.1-1.2.2-1.9.2 1.1 2.3 3.9 3.1 6.1 2 1.2-.6.1-2.4-1-1.8-1.3.7-2.7 0-3.3-1.2-.4-.8-1.6-.5-1.9.2-.9 2.6-1.8 5.3-2.7 7.9l1.7-.5c-1-1.3-2-2.5-3-3.8-.8-.9-2.3.6-1.4 1.6"/><path class="st1" d="M-97.4 640.7c0-3.3 0-6.5.1-9.8-.3.3-.5.7-.8 1 1.1-.5 1.8 3.4 2.2 4.1.6.9 1.4 1.4 2.5 1.3.7-.1 1.1-.6 1-1.3-.3-1.7.3-3.1 1.6-4.2l-1.7-.5.3 2.4c.2 1.3 2.2.7 2-.5l-.3-2.4c-.1-.8-1.2-.9-1.7-.5-1.9 1.6-2.6 3.8-2.1 6.2.3-.4.7-.9 1-1.3-1.2.1-1.6-3.5-2.3-4.3-.7-1-1.8-1.5-3-1.1-.4.2-.7.5-.8 1 0 3.3 0 6.5-.1 9.8 0 1.4 2.1 1.4 2.1.1M-107.4 643.5c-.7 7.5-1 15-.7 22.6.1 3.6.4 7.3.7 10.9.2 1.8-.1 4.1 1.2 5.5.2.2.7.4 1 .3l.4-.2c.6-.2.8-.7.7-1.3 0-.1 0-.3-.1-.4-.2-1.3-2.2-.7-2 .5 0 .1 0 .3.1.4.2-.4.5-.8.7-1.3.8-.3-.4-8.1-.5-9.1-.2-3.1-.3-6.2-.4-9.4-.1-6.2.2-12.5.8-18.7.3-1.1-1.7-1.1-1.9.2"/><path class="st1" d="M-94.1 635.3c-1.8 16-.7 32.2 3.4 47.8.3 1.3 2.3.7 2-.5-4-15.5-5.2-31.4-3.3-47.2.1-1.4-2-1.4-2.1-.1M-193 617.8c5.9 1.4 12 1 17.5-1.5 2.6-1.1 4.9-2.7 7-4.6 1.6-1.5 3-3.2 5.4-3.3 2.6-.2 5.8 1.2 8 2.4 1.2.6 2.2-1.2 1-1.8-2.8-1.5-5.9-2.6-9.1-2.7-2.8-.1-4 1.2-5.9 3.1-6.1 6.1-15 8.4-23.4 6.4-1.2-.3-1.8 1.7-.5 2M-148.9 611.5c10.3 2.4 20.5 5.3 30.6 8.6 9.6 3.2 19.3 6.7 26.8 13.7 1 .9 2.4-.5 1.4-1.4-7-6.6-15.8-10.3-24.8-13.3-11-3.7-22.2-6.9-33.5-9.5-1.3-.4-1.8 1.6-.5 1.9M-162.6 622.6c.7-1.4 1.2-3.1 2-4.5 1-1.7 1.1-2 3.2-2.1 2.7-.1 5.8.9 8.5 1.4 5 1 9.9 2.3 14.7 3.9 5.2 1.7 10.3 3.7 15.3 6 1.9.9 4.9 1.8 6.5 3.3 1.3.2 1.7.8 1.1 2 0 .9-.2 1.8-.8 2.6-.5 1.3-1.3 2.6-1.9 3.9-.6 1.2 1.2 2.2 1.8 1 1.2-2.5 5.2-7.3 2.9-10-1.4-1.7-5.3-2.9-7.3-3.9-2.5-1.2-5-2.3-7.5-3.4-11.5-4.7-23.6-7.8-36-9.3-.3 0-.8.2-.9.5-1.1 2.5-2.3 4.9-3.4 7.4-.6 1.4 1.2 2.4 1.8 1.2"/><path class="st1" d="M-155.5 612.9c-.6 1.2-.4 2.5.5 3.5s2.3-.5 1.4-1.4c-.3-.3-.3-.7-.2-1 .2-.5.1-1.1-.4-1.4-.3-.3-1.1-.2-1.3.3"/><path class="st1" d="M-153.8 614.1c1.3-1.6 10.9 2.2 12.6 2.7 4.3 1.2 8.6 2.4 12.8 3.6 8.4 2.4 18 4.1 25 9.6v-1.5c-3.4 4.4-5.5 9.2-6.3 14.7-.2 1.3 1.8 1.8 2 .5.7-5.1 2.6-9.7 5.7-13.8.3-.4.5-1.1 0-1.4-7.7-6-18.2-7.9-27.4-10.5-5.5-1.6-11.1-3.1-16.6-4.6-2.5-.7-7.3-3.2-9.3-.7-.8.9.6 2.4 1.5 1.4M-189.5 645.1c-.8 6.5-2.4 12.8-5.1 18.9-.5 1.2 1.2 2.2 1.8 1 2.8-6.4 4.5-13 5.3-19.9.2-1.3-1.9-1.3-2 0"/><path class="st1" d="M-188.9 645.2c1.4 1.3 2.9 2.2 4.6 2.9 1.6.6 4.6.3 5.8 1.5.9 1 2.3-.5 1.4-1.4-1-1.1-2.4-1.2-3.8-1.4-2.5-.3-4.7-1.2-6.6-3-.9-1-2.4.5-1.4 1.4"/><path class="st1" d="M-178.2 648.1c-1.9 6.5-3.9 12.9-5.8 19.4-.4 1.3 1.6 1.8 2 .5 1.9-6.5 3.9-12.9 5.8-19.4.4-1.2-1.6-1.7-2-.5"/><path class="st1" d="M-194 666.7c3.5-.5 6.9.2 10 1.8 1.2.6 2.2-1.1 1-1.8-3.6-2-7.5-2.6-11.6-2.1-1.3.3-.7 2.3.6 2.1M-189.6 656.7c1.3-.5 2.9.6 4.1 1.1l3.6 1.5s2.2-1.3 1-1.8c-1.8-.8-3.6-1.5-5.4-2.3-1.3-.5-2.5-1.1-3.9-.6-1.2.6-.7 2.6.6 2.1M-145.2 654.7c-.3 4.1-.8 8.2-1.6 12.2-.6 2.6-2.1 5.8-1.9 8.4 0 .5.4 1 1 1h.3c.4 0 .9-.3 1-.8v-.2c.2-1.3-1.8-1.8-2-.5.2-.2.5-.4.7-.5l1 1c-.1-1.9 1.1-4.5 1.5-6.4.3-1.5.7-3.1.9-4.6.5-3.2.9-6.4 1.1-9.6.1-1.3-1.9-1.3-2 0"/><path class="st1" d="M-143.9 656.1c.6-.1 2 .9 2.5 1.1.8.3 1.5.6 2.3.8 1.7.5 3.5.7 5.4.7 1.3 0 1.3-2 0-2-2.3 0-4.6-.4-6.8-1.3-1.3-.6-2.5-1.6-4-1.3-1.2.3-.6 2.3.6 2"/><path class="st1" d="M-134 657.9c-1.5 6.9-2.8 13.9-4 20.9h2c-.1-.2-.1-.5-.2-.7-.3-1.3-2.2-.7-2 .5.1.2.1.5.2.7.2 1 1.8 1 2 0 1.1-7 2.4-14 4-20.9.3-1.2-1.7-1.8-2-.5"/><path class="st1" d="M-148.5 677.9c2.5-1 4.4.6 6.6 1.5 1.6.7 3.3 1 5 1.1 1.3.1 1.3-2 0-2-2.7-.2-4.6-1.3-7-2.3-1.7-.7-3.4-1-5.1-.3-1.2.5-.7 2.4.5 2M-145.6 666.9c3.3.7 6.6 1.6 9.8 2.6 1.3.4 1.8-1.6.5-2-3.2-1-6.5-1.8-9.8-2.6-1.2-.3-1.8 1.7-.5 2M-106.6 627c1.3 0 1.3-2 0-2-1.3-.1-1.3 2 0 2M-90.2 632.3c9.7-18.9 24-34.9 41.7-46.7 1.1-.7.1-2.5-1-1.8-17.9 12-32.5 28.3-42.4 47.5-.7 1.1 1.1 2.2 1.7 1M-160.5 607.2c2.3-3.7 4.7-7.3 7.2-10.9.8-1.1-1-2.1-1.8-1-2.5 3.5-5.3 7.2-7.6 10.9-.7 1.1 1.5 2.1 2.2 1"/><path class="st1" d="M-98.9 562.9c8.2 5.4 16.6 10.4 25.3 14.9 3.6 1.8 7.2 3.7 10.9 5.2 1.8.7 3.6 1.3 5.4 1.6 2 .3 4.8-.3 6.4 1 1 .8 2.5-.6 1.4-1.4-2.5-2.1-5.9-1.1-8.9-1.8-4.7-1.1-9.2-3.7-13.6-5.9-8.9-4.6-17.6-9.7-26-15.3-.9-.8-2 1-.9 1.7"/><path class="st1" d="M-70.3 577.7c2.1-2.8 4.2-5.5 6.4-8.3h-1.8c1.5 3 4.2 4.7 7.5 5-.2-.6-.3-1.3-.5-1.9-2.8 1.5-5 3.7-6.6 6.5-.6 1.2 1.1 2.2 1.8 1 1.4-2.5 3.3-4.4 5.9-5.8 1-.5.4-1.8-.5-1.9-2.6-.2-4.6-1.6-5.7-4-.4-.8-1.3-.5-1.8 0-2.1 2.8-4.2 5.5-6.4 8.3-.9 1.1.9 2.2 1.7 1.1M-92.6 556.4c-1.4 1.8-2.9 3.7-4.3 5.5-.8 1 .6 2.5 1.4 1.4 1.4-1.8 2.9-3.7 4.3-5.5.9-1-.5-2.5-1.4-1.4"/><path class="st1" d="M-95.9 555.2c1.3.4 2.4 1.3 3.1 2.5.7 1.1 2.5.1 1.8-1-1-1.6-2.5-2.8-4.3-3.4-1.3-.5-1.8 1.5-.6 1.9"/><path class="st1" d="M-96.5 553.6c-1.2 1.3-2.5 2.6-3.7 3.9-.9 1 .5 2.4 1.4 1.4 1.2-1.3 2.5-2.6 3.7-3.9 1-.9-.5-2.4-1.4-1.4"/><path class="st1" d="M-97.8 561.2c-4.3-2.6-13.8-11.1-16.8-15.2-.5-.6-1.3-.7-1.8 0-2.9 4-34.6 46.6-38.7 49.3-1.1.7.7 1.7 1.8 1 4.5-2.9 35.7-45 38.7-49.3h-1.8c3.2 4.4 12.6 12.8 17.2 15.6 1.2.8 2.5-.7 1.4-1.4"/><path class="st2" d="M-164.8 635.1c8.6-17 11.7-38.4 12.1-62.2 15 4.2 29 5.8 41.5 3.7-6 18.5-6.9 42.3-10.4 63.5-12.3-4.5-26.9-9.5-43.2-5z"/><path class="st3" d="M-164.8 635.1c8.6-17 11.7-38.4 12.1-62.2 15 4.2 29 5.8 41.5 3.7-6 18.5-6.9 42.3-10.4 63.5-12.3-4.5-26.9-9.5-43.2-5z"/><g><path class="st2" d="M-182.9 623.9c8.6-17 11.7-38.4 12.1-62.2 15 4.2 29 5.8 41.5 3.7-6 18.5-6.9 42.3-10.4 63.5-12.3-4.5-26.8-9.5-43.2-5z"/><path class="st3" d="M-182.9 623.9c8.6-17 11.7-38.4 12.1-62.2 15 4.2 29 5.8 41.5 3.7-6 18.5-6.9 42.3-10.4 63.5-12.3-4.5-26.8-9.5-43.2-5zM-165.8 570.5c8.7 1.2 18.6.5 27.3 1.7M-166.4 577.1c8.7 1.2 19.2 3.8 27.3 1.7M-166.4 583.1c8.7 1.2 19.2 3.8 27.3 1.7M-165.7 590.4c8.7 1.2 17.3 1.1 25.1 1.5M-168.1 601.8c8.7 1.2 19.2 3.8 27.3 1.7M-169.7 607.2c8.7 1.2 19.2 3.8 27.3 1.7"/></g><g><path class="st2" d="M-170.3 640.2c8.6-17 11.7-38.4 12.1-62.2 15 4.2 29 5.8 41.5 3.7-6 18.5-6.9 42.3-10.4 63.5-12.3-4.5-26.9-9.4-43.2-5z"/><path class="st3" d="M-170.3 640.2c8.6-17 11.7-38.4 12.1-62.2 15 4.2 29 5.8 41.5 3.7-6 18.5-6.9 42.3-10.4 63.5-12.3-4.5-26.9-9.4-43.2-5zM-153.3 586.8c8.7 1.2 18.6.5 27.3 1.7M-153.8 593.4c8.7 1.2 19.2 3.8 27.3 1.7M-153.9 599.4c8.7 1.2 19.2 3.8 27.3 1.7M-153.1 606.7c8.7 1.2 17.3 1.1 25.1 1.5"/></g><g><path class="st0" d="M-158.1 623.1c.3 1.8.7 3.7 1.1 5.5.1.3.6.2.5-.1-.4-1.8-.8-3.7-1.1-5.5-.1-.2-.6-.2-.5.1"/><path class="st0" d="M-157.7 623.5c1.1-.4 2.3-.5 3.5-.7 1.1-.2 2.2-.5 3.3-.7 2.3-.5 4.5-1.1 6.8-1.6 2.2-.6 4.4-1 6.7-1.3 2.3-.3 4.5-.9 6.8-1.2.3 0 .3-.5 0-.5h-.2c-.3 0-.4.5-.1.5h.2v-.5c-2.3.3-4.5.9-6.8 1.2-2.4.3-4.7.7-7.1 1.4-2.3.6-4.5 1.1-6.8 1.6-2.2.5-4.4.7-6.5 1.4-.3.1-.1.5.2.4M-156.7 629c8.4-2.4 16.9-4.2 25.4-5.7.3-.1.2-.5-.1-.5-8.6 1.4-17.1 3.3-25.4 5.7-.2.1-.2.6.1.5"/><path class="st0" d="M-130.9 617.7c.3 1.7.7 3.4 1.2 5 .1-.1.1-.2.2-.3-.4 0-.8.1-1.2.3-.3.1-.1.6.2.4.3-.2.7-.3 1-.3.2 0 .2-.2.2-.3-.5-1.6-.9-3.2-1.2-4.9.1-.3-.4-.2-.4.1M-132.4 620.9c0 .2.1.3.2.4.1.1.2.1.3.1s.2-.1.3-.2c.1-.1.1-.3 0-.4 0-.2-.1-.3-.2-.4-.1-.1-.2-.1-.4-.1-.1 0-.2.1-.3.2 0 .1 0 .2.1.4m-.4.1v-.4c0-.1.1-.2.1-.3l.2-.2c.1-.1.2-.1.3-.1.2 0 .4 0 .6.1.2.1.3.3.3.6.1.3 0 .5-.1.7-.1.2-.3.3-.5.3s-.4 0-.6-.1c-.1-.2-.2-.3-.3-.6zm-1.4 1.1l-.3-1.6.3-.1.1.6.6-.1-.1-.6.3-.1.3 1.6-.3.1-.1-.7-.6.1.1.7-.3.1zm-.9-.5l-.3-.6-.1.6h.4zm.8.5l-.4.1-.2-.3-.6.1-.1.4h-.4l.3-1.7.3-.1 1.1 1.5zm-2.8-.2l.1.4.3-.1c.1 0 .2 0 .2-.1 0 0 .1 0 .1-.1v-.1s0-.1-.1-.1c0 0-.1 0-.1-.1h-.3l-.2.2zm-.1-.6l.1.4h.2c.1 0 .2 0 .2-.1.1 0 .1 0 .1-.1v-.1s0-.1-.1-.1h-.1-.4zm-.4-.2l.6-.1h.5c.1 0 .1.1.1.1s.1.1.1.2v.2c0 .1-.1.1-.1.2.1 0 .2 0 .3.1s.1.1.1.2v.2c0 .1-.1.1-.1.2-.1.1-.2.1-.3.1-.1 0-.2 0-.4.1l-.5.1-.3-1.6zm-1.4 1.1c0 .2.1.3.2.4.1.1.2.1.3.1.1 0 .2-.1.3-.2.1-.1.1-.3 0-.4 0-.2-.1-.3-.2-.4-.1-.1-.2-.1-.4-.1-.1 0-.2.1-.3.2.1.1.1.2.1.4zm-.3.1v-.4c0-.1.1-.2.1-.3l.2-.2c.1-.1.2-.1.3-.1.2 0 .4 0 .6.1.2.1.3.3.3.6.1.3 0 .5-.1.7-.1.2-.3.3-.5.3s-.4 0-.6-.1l-.3-.6zm-1.2-.4l.1.5h.2c.1 0 .2-.1.3-.1l.1-.1v-.1c0-.1 0-.1-.1-.1h-.1-.2l-.3-.1zm0 1.4l-.3-1.6.5-.1c.2 0 .3-.1.4-.1.1 0 .2 0 .3.1.1.1.1.2.2.3v.3c0 .1-.1.1-.1.2 0 0-.1.1-.2.1s-.2.1-.3.1h-.2l.1.6-.4.1zm-2-1.3l.3-.1.2 1.1.4-1.2.3-.1.3 1.6-.2.2-.2-1.1-.4 1.2-.3.1-.4-1.7zm-1.1.5l.1.5h.2c.1 0 .2-.1.3-.1l.1-.1v-.1c0-.1 0-.1-.1-.1h-.1-.2l-.3-.1zm-.1 1.5l-.3-1.7.5-.1c.2 0 .3-.1.4-.1.1 0 .2 0 .3.1.1.1.1.2.2.3v.3c0 .1-.1.1-.1.2 0 0-.1.1-.2.1s-.2.1-.3.1h-.2l.1.6-.4.2zm-1 .2l-.3-1.3-.5.1-.1-.3 1.3-.2.1.3-.5.1.3 1.3h-.3zm-1-.5h.3c0 .2-.1.3-.2.4-.1.1-.2.2-.4.2s-.4 0-.6-.1c-.2-.1-.3-.3-.3-.6-.1-.3 0-.5.1-.7.1-.2.3-.3.5-.3s.4 0 .5.1c.1.1.2.1.2.3l-.3.1c0-.1-.1-.1-.2-.2h-.2c-.1 0-.2.1-.3.2-.1.1-.1.2 0 .4 0 .2.1.3.2.4.1.1.2.1.3.1s.2-.1.2-.1c.2.1.2 0 .2-.2zm-2.8-.5l.3-.1.2 1.1.4-1.2.3-.1.3 1.6-.3.1-.2-1.1-.4 1.2-.3.1-.3-1.6zm-1.3.3l1.1-.2.1.3-.8.1.3 1.3-.3.1-.4-1.6zm-1.2 1.9l-.3-1.6 1.2-.2.1.3-.9.2.1.4.8-.2v.2l-.8.2.1.4.9-.2.1.3-1.3.2zm-1.4-1.1l.1.5h.2c.1 0 .2-.1.3-.1l.1-.1v-.1c0-.1 0-.1-.1-.1h-.1-.2l-.3-.1zm-.1 1.4l-.3-1.6.5-.1c.2 0 .3-.1.4-.1.1 0 .2 0 .3.1.1.1.1.2.2.3v.3c0 .1-.1.1-.1.2 0 0-.1.1-.2.1s-.2.1-.3.1h-.2l.1.6-.4.1zm-.9-.5l-.3-.6-.1.6h.4zm.7.5l-.3.1-.2-.3-.6.1-.2.4-.3.1.3-1.7.3-.1 1 1.4zm-2.9-.6h-.3c0-.3.2-.4.5-.5h.5c.1.1.2.2.2.3v.2c0 .1-.1.1-.2.2.1 0 .2.1.3.1.1.1.1.1.1.2s0 .3-.1.4c-.1.1-.2.2-.4.2h-.4c-.1 0-.2-.1-.3-.3l.3-.2c0 .1.1.1.2.2h.2c.1 0 .2-.1.2-.1 0-.1.1-.1 0-.2 0-.1 0-.1-.1-.1h-.4v-.2c.1 0 .2-.1.2-.1 0-.1.1-.1 0-.2 0-.1 0-.1-.1-.1h-.2c-.1-.1-.1 0-.2.2z"/></g></svg>