<?xml version="1.0" encoding="utf-8"?>
<!-- Generator: Adobe Illustrator 19.1.1, SVG Export Plug-In . SVG Version: 6.00 Build 0)  -->
<svg version="1.1" id="Слой_1" xmlns="http://www.w3.org/2000/svg" xmlns:xlink="http://www.w3.org/1999/xlink" x="0px" y="0px"
	 viewBox="-215 591.4 163.8 159.4" style="enable-background:new -215 591.4 163.8 159.4;" xml:space="preserve">
<style type="text/css">
	.st0{fill:none;stroke:#000000;stroke-width:2.126;stroke-miterlimit:22.9256;}
	.st1{fill:#FFFFFF;}
	.st2{fill:#F49E00;}
</style>
<path d="M-174.6,657.8c-0.1,0-0.2,0.1-0.3,0.1l0.7,1.8C-174.3,659.1-174.4,658.4-174.6,657.8z"/>
<path d="M-180.1,637.2c-1.1,0.4-2.2,0.9-3.4,1.3l0.8,2c1.1-0.4,2.2-0.9,3.2-1.3C-179.7,638.5-179.9,637.9-180.1,637.2z"/>
<path d="M-176.6,649.2c-0.2-0.7-0.4-1.4-0.5-2.1c-1,0.4-2,0.8-3,1.2l0.8,2C-178.4,649.9-177.5,649.5-176.6,649.2z"/>
<g>
	<path class="st0" d="M-186.7,619.2c-12.3,4.4-22.1,10.5-26.7,18.6c20.1,4.8,33.7,30.7,38.5,85.3
		C-165.6,683.6-174.8,648.7-186.7,619.2z"/>
	<path d="M-174.5,745.5l-0.1-1.3c-0.1-1.6-0.2-3.2-0.2-4.8l-0.1-1l1-0.1c12.5-1.2,23.5-2,33.9-2.2l13.2-0.3l-13,2.4
		c-7.4,1.4-15,3-22.3,4.6c-3.8,0.8-7.5,1.6-11.3,2.4L-174.5,745.5z M-172.6,740.3c0,0.9,0.1,1.7,0.1,2.6c3.3-0.7,6.7-1.4,10-2.2
		c3-0.6,6-1.3,9.1-2C-159.5,739.1-165.8,739.6-172.6,740.3z"/>
</g>
<path d="M-69.9,749.5l-2.2-1.1c-32.6-15.5-89.1-9.4-107.6-7.4l-1.7,0.2l0.6-1.6c18.5-50.9,4.5-94.9-11.6-131.2l-0.7-1.5l1.6,0
	c41.5,0.2,75.4-4.7,103.5-14.9l1.6-0.6l-0.2,1.7c-6.5,49.8-1.3,100.1,15.9,154L-69.9,749.5z M-133.6,736c20.5,0,43.2,2.1,60.2,9.5
	c-16.5-52.7-21.6-102.2-15.4-151c-27.4,9.7-60.2,14.5-100,14.5c-0.3,0-0.7,0-1,0c15.8,36.1,29.1,79.5,11.5,129.7
	C-168.9,737.7-152.2,736-133.6,736z"/>
<path class="st1" d="M-171,749c10.3-58.1,6.4-100-3.5-134.9c41.5,5.8,78.6-1.3,112.1-18.8c-6.1,51-7.7,101.4,9.5,149.6
	C-97.2,730.6-136.2,733.4-171,749z"/>
<path d="M-172.4,750.8l0.4-2c9.1-51.3,8-94-3.5-134.4l-0.4-1.6l1.6,0.2c39.6,5.5,77.1-0.8,111.5-18.7l1.8-0.9l-0.2,2
	c-5.4,45.4-8.6,98.7,9.4,149.1l0.7,2l-2.1-0.7c-41.8-13.5-81.3-12.1-117.3,4.1L-172.4,750.8z M-173,615.4
	c11,39.8,12.1,81.8,3.4,131.9c35.5-15.4,74.2-16.7,115-4c-17.1-49.5-14.3-101.5-9.1-146.1C-97.5,614.3-134.2,620.5-173,615.4z"/>
<path class="st0" d="M-157.8,631c28.4,3.5,54.2,0.9,78-6.9"/>
<path class="st0" d="M-157.6,639.7c28.4,4.6,53.1,3.7,76.9-4.7"/>
<path class="st0" d="M-156,648.7c23.8,2.8,48.8,1.7,75.2-3.2"/>
<path class="st0" d="M-154.7,666.1c23.4,1.3,45.9,0.5,72-2.7"/>
<path class="st0" d="M-154.2,676.2c10.5,0.6,21.7,2.2,32.3,2c12.9-0.3,25.4-2.9,39.7-4.6"/>
<path class="st0" d="M-150.8,685.1c10.5,0.6,21.7,2.2,32.3,2c12.9-0.3,21.4-2.2,35.8-3.9"/>
<path class="st0" d="M-151.1,702.8c9.8,1.5,18.1,1.6,25.9,0.1"/>
<path class="st0" d="M-151.2,710.7c8.3,1.2,15.5,1.5,22.2,0.6"/>
<g>
	<path class="st2" d="M-144.6,711.3c0.7,4.6,1.5,9.2,2.4,13.8c0.1,0.8,1.4,0.6,1.2-0.1c-0.9-4.6-1.7-9.2-2.4-13.8
		C-143.5,710.4-144.7,710.5-144.6,711.3"/>
	<path class="st2" d="M-143.7,712.3c2.8-0.8,5.8-1.1,8.7-1.5c2.8-0.4,5.5-1,8.3-1.5c5.7-1.1,11.4-2.3,17.1-3.6
		c5.6-1.3,11.1-2.1,16.8-2.6c5.7-0.6,11.4-2,17.1-2.5c0.7-0.1,0.7-1.1,0-1.2c-0.1,0-0.3,0-0.4-0.1c-0.8-0.1-1,1.1-0.2,1.2
		c0.1,0,0.3,0,0.4,0.1c0-0.4,0-0.8,0-1.2c-5.7,0.5-11.4,1.9-17.1,2.5c-6,0.6-11.8,1.5-17.7,2.8c-5.7,1.3-11.4,2.4-17.1,3.6
		c-5.4,1.1-11.1,1.4-16.4,2.9C-144.9,711.4-144.4,712.5-143.7,712.3"/>
	<path class="st2" d="M-141.4,726.1c21-5.2,42.3-9.3,63.8-12.3c0.8-0.1,0.6-1.3-0.1-1.2c-21.5,2.9-42.8,7-63.8,12.3
		C-142.3,725.1-142.2,726.3-141.4,726.1"/>
	<path class="st2" d="M-76.3,699.8c0.6,4.2,1.6,8.4,2.7,12.5c0.2-0.3,0.3-0.6,0.5-0.8c-1.1,0-1.9,0.2-2.9,0.7
		c-0.7,0.3-0.3,1.5,0.5,1.1s1.6-0.6,2.6-0.6c0.4,0,0.6-0.5,0.5-0.8c-1.2-4-2-8.1-2.7-12.2C-75.2,698.9-76.4,699-76.3,699.8"/>
	<path class="st2" d="M-80.5,707.7c0.1,0.5,0.2,0.8,0.5,1c0.3,0.2,0.5,0.3,0.9,0.2c0.3-0.1,0.6-0.2,0.7-0.5c0.2-0.3,0.2-0.6,0.1-1.1
		c-0.1-0.5-0.2-0.8-0.5-1c-0.2-0.2-0.5-0.3-0.9-0.2c-0.3,0.1-0.6,0.2-0.8,0.5C-80.5,706.8-80.5,707.2-80.5,707.7 M-81.3,707.8
		c-0.1-0.4-0.1-0.8,0-1.1c0.1-0.2,0.2-0.4,0.3-0.6c0.1-0.2,0.3-0.3,0.5-0.5c0.2-0.1,0.5-0.2,0.8-0.3c0.6-0.1,1.1,0,1.5,0.3
		c0.4,0.3,0.7,0.8,0.8,1.5c0.1,0.7,0,1.2-0.3,1.6s-0.7,0.7-1.3,0.8c-0.6,0.1-1.1,0-1.5-0.3C-80.9,709-81.2,708.5-81.3,707.8z
		 M-84.9,710.5l-0.7-4l0.8-0.1l0.3,1.6l1.6-0.3l-0.3-1.6l0.8-0.1l0.7,4l-0.8,0.1l-0.3-1.8l-1.6,0.3l0.3,1.8L-84.9,710.5z
		 M-87.1,709.2l-0.8-1.4l-0.3,1.6L-87.1,709.2z M-85.3,710.5l-0.9,0.1l-0.5-0.9l-1.6,0.3l-0.2,1l-0.9,0.1l0.9-4.3l0.9-0.1
		L-85.3,710.5z M-92.2,709.9l0.2,1.1l0.8-0.1c0.3,0,0.5-0.1,0.6-0.1s0.2-0.1,0.3-0.2c0.1-0.1,0.1-0.2,0.1-0.4c0-0.1-0.1-0.2-0.1-0.3
		c-0.1-0.1-0.2-0.1-0.3-0.1c-0.1,0-0.4,0-0.7,0.1H-92.2z M-92.5,708.3l0.2,0.9l0.5-0.1c0.3-0.1,0.5-0.1,0.6-0.1s0.2-0.1,0.3-0.2
		c0.1-0.1,0.1-0.2,0.1-0.3c0-0.1-0.1-0.2-0.2-0.3s-0.2-0.1-0.3-0.1c-0.1,0-0.3,0-0.7,0.1L-92.5,708.3z M-93.4,707.7l1.6-0.3
		c0.3-0.1,0.6-0.1,0.7-0.1c0.2,0,0.3,0,0.5,0.1c0.1,0.1,0.3,0.2,0.4,0.3c0.1,0.1,0.2,0.3,0.2,0.5c0,0.2,0,0.4-0.1,0.5
		c-0.1,0.2-0.2,0.3-0.4,0.4c0.3,0,0.5,0.1,0.6,0.3c0.2,0.2,0.3,0.3,0.3,0.6c0,0.2,0,0.4,0,0.6c-0.1,0.2-0.2,0.3-0.3,0.5
		c-0.1,0.1-0.3,0.2-0.5,0.3c-0.1,0-0.5,0.1-1,0.2l-1.4,0.2L-93.4,707.7z M-96.8,710.4c0.1,0.5,0.2,0.8,0.5,1
		c0.3,0.2,0.5,0.3,0.9,0.2c0.3-0.1,0.6-0.2,0.7-0.5c0.2-0.3,0.2-0.6,0.1-1.1s-0.2-0.8-0.5-1c-0.2-0.2-0.5-0.3-0.9-0.2
		c-0.3,0.1-0.6,0.2-0.8,0.5C-96.8,709.5-96.9,709.9-96.8,710.4z M-97.6,710.5c-0.1-0.4-0.1-0.8,0-1.1c0.1-0.2,0.2-0.4,0.3-0.6
		c0.1-0.2,0.3-0.3,0.5-0.5c0.2-0.1,0.5-0.2,0.8-0.3c0.6-0.1,1.1,0,1.5,0.3c0.4,0.3,0.7,0.8,0.8,1.5c0.1,0.7,0,1.2-0.3,1.6
		c-0.3,0.4-0.7,0.7-1.3,0.8c-0.6,0.1-1.1,0-1.5-0.3C-97.3,711.6-97.5,711.2-97.6,710.5z M-100.6,709.6l0.2,1.2l0.4-0.1
		c0.3-0.1,0.5-0.1,0.6-0.2s0.2-0.1,0.2-0.2c0-0.1,0.1-0.2,0-0.3c0-0.1-0.1-0.3-0.2-0.3c-0.1-0.1-0.2-0.1-0.4-0.1
		c-0.1,0-0.3,0-0.6,0.1L-100.6,709.6z M-100.8,713.1l-0.7-4l1.3-0.2c0.5-0.1,0.8-0.1,1-0.1s0.5,0.1,0.6,0.3c0.2,0.2,0.3,0.4,0.4,0.7
		c0,0.2,0,0.5,0,0.6c-0.1,0.2-0.2,0.3-0.3,0.5c-0.1,0.1-0.3,0.2-0.4,0.3c-0.2,0.1-0.5,0.1-0.8,0.2l-0.5,0.1l0.3,1.5L-100.8,713.1z
		 M-105.6,709.7l0.8-0.1l0.4,2.7l1.2-3l0.8-0.1l0.7,4l-0.8,0.1l-0.4-2.6l-1.2,2.9l-0.8,0.1L-105.6,709.7z M-108.4,710.9l0.2,1.2
		l0.4-0.1c0.3-0.1,0.5-0.1,0.6-0.2c0.1-0.1,0.2-0.1,0.2-0.2c0-0.1,0.1-0.2,0-0.3c0-0.1-0.1-0.3-0.2-0.3c-0.1-0.1-0.2-0.1-0.4-0.1
		c-0.1,0-0.3,0-0.6,0.1L-108.4,710.9z M-108.7,714.4l-0.7-4l1.3-0.2c0.5-0.1,0.8-0.1,1-0.1s0.5,0.1,0.6,0.3c0.2,0.2,0.3,0.4,0.4,0.7
		c0,0.2,0,0.5,0,0.6c-0.1,0.2-0.2,0.3-0.3,0.5c-0.1,0.1-0.3,0.2-0.4,0.3c-0.2,0.1-0.5,0.1-0.8,0.2l-0.5,0.1l0.3,1.5L-108.7,714.4z
		 M-111.2,714.8l-0.6-3.4l-1.2,0.2l-0.1-0.7l3.2-0.5l0.1,0.7l-1.2,0.2l0.6,3.4L-111.2,714.8z M-113.7,713.7l0.8,0.1
		c0,0.5-0.2,0.8-0.4,1.1c-0.2,0.3-0.6,0.4-1,0.5c-0.5,0.1-1,0-1.4-0.3s-0.7-0.8-0.8-1.4c-0.1-0.7,0-1.2,0.3-1.7
		c0.3-0.4,0.7-0.7,1.3-0.8c0.5-0.1,0.9,0,1.3,0.2c0.2,0.1,0.4,0.4,0.5,0.7l-0.8,0.3c-0.1-0.2-0.2-0.3-0.4-0.4
		c-0.2-0.1-0.4-0.1-0.6-0.1c-0.3,0-0.5,0.2-0.7,0.4s-0.2,0.6-0.1,1.1s0.2,0.9,0.5,1c0.2,0.2,0.5,0.3,0.8,0.2c0.2,0,0.4-0.1,0.5-0.3
		C-113.8,714.2-113.7,714-113.7,713.7z M-120.8,712.2l0.8-0.1l0.4,2.7l1.2-3l0.8-0.1l0.7,4l-0.8,0.1l-0.4-2.6l-1.2,2.9l-0.8,0.1
		L-120.8,712.2z M-123.9,712.7l2.7-0.5l0.1,0.7l-1.9,0.3l0.6,3.4l-0.8,0.1L-123.9,712.7z M-127.1,717.4l-0.7-4l3-0.5l0.1,0.7
		l-2.2,0.4l0.1,0.9l2-0.3l0.1,0.7l-2,0.3l0.2,1.1l2.3-0.4l0.1,0.7L-127.1,717.4z M-130.6,714.5l0.2,1.2l0.4-0.1
		c0.3-0.1,0.5-0.1,0.6-0.2c0.1-0.1,0.2-0.1,0.2-0.2s0.1-0.2,0-0.3c0-0.1-0.1-0.3-0.2-0.3c-0.1-0.1-0.2-0.1-0.4-0.1
		c-0.1,0-0.3,0-0.6,0.1L-130.6,714.5z M-130.9,718l-0.7-4l1.3-0.2c0.5-0.1,0.8-0.1,1-0.1s0.5,0.1,0.6,0.3c0.2,0.2,0.3,0.4,0.4,0.8
		c0,0.2,0,0.5,0,0.6c-0.1,0.2-0.2,0.3-0.3,0.5c-0.1,0.1-0.3,0.2-0.4,0.3c-0.2,0.1-0.5,0.1-0.8,0.2l-0.5,0.1l0.3,1.5H-130.9z
		 M-133.1,716.8l-0.8-1.4l-0.3,1.6L-133.1,716.8z M-131.3,718.1l-0.9,0.1l-0.5-0.9l-1.6,0.3l-0.2,1l-0.9,0.1l0.9-4.3l0.9-0.1
		L-131.3,718.1z M-138.4,716.3l-0.8-0.1c0.1-0.7,0.5-1.1,1.3-1.2c0.5-0.1,0.9,0,1.1,0.1c0.3,0.2,0.4,0.4,0.5,0.7
		c0,0.2,0,0.4-0.1,0.6c-0.1,0.2-0.2,0.3-0.4,0.5c0.3,0,0.5,0.1,0.7,0.3c0.2,0.1,0.3,0.3,0.3,0.6c0.1,0.4,0,0.7-0.2,0.9
		c-0.2,0.3-0.6,0.4-1.1,0.5c-0.4,0.1-0.8,0.1-1,0c-0.3-0.1-0.5-0.3-0.7-0.7l0.7-0.4c0.1,0.2,0.2,0.4,0.4,0.4c0.1,0.1,0.3,0.1,0.5,0
		c0.3,0,0.4-0.1,0.5-0.3c0.1-0.1,0.1-0.3,0.1-0.4c0-0.2-0.1-0.3-0.3-0.4c-0.1-0.1-0.4-0.1-0.6-0.1h-0.2l-0.1-0.6h0.1
		c0.2,0,0.4-0.1,0.5-0.3c0.1-0.1,0.2-0.3,0.1-0.5c0-0.1-0.1-0.3-0.2-0.3c-0.1-0.1-0.3-0.1-0.5-0.1
		C-138.1,715.7-138.3,715.9-138.4,716.3z"/>
</g>
</svg>
