<svg id="Слой_1" xmlns="http://www.w3.org/2000/svg" viewBox="-215 591.4 163.8 159.4"><style>.st0{fill:none;stroke:#000000;stroke-width:2.126;stroke-miterlimit:22.9256;} .st1{fill:#FFFFFF;} .st2{fill:#F49E00;}</style><path d="M-174.6 657.8c-.1 0-.2.1-.3.1l.7 1.8c-.1-.6-.2-1.3-.4-1.9zM-180.1 637.2c-1.1.4-2.2.9-3.4 1.3l.8 2c1.1-.4 2.2-.9 3.2-1.3-.2-.7-.4-1.3-.6-2zM-176.6 649.2c-.2-.7-.4-1.4-.5-2.1l-3 1.2.8 2c.9-.4 1.8-.8 2.7-1.1z"/><path class="st0" d="M-186.7 619.2c-12.3 4.4-22.1 10.5-26.7 18.6 20.1 4.8 33.7 30.7 38.5 85.3 9.3-39.5.1-74.4-11.8-103.9z"/><path d="M-174.5 745.5l-.1-1.3c-.1-1.6-.2-3.2-.2-4.8l-.1-1 1-.1c12.5-1.2 23.5-2 33.9-2.2l13.2-.3-13 2.4c-7.4 1.4-15 3-22.3 4.6-3.8.8-7.5 1.6-11.3 2.4l-1.1.3zm1.9-5.2c0 .9.1 1.7.1 2.6 3.3-.7 6.7-1.4 10-2.2 3-.6 6-1.3 9.1-2-6.1.4-12.4.9-19.2 1.6z"/><path d="M-69.9 749.5l-2.2-1.1c-32.6-15.5-89.1-9.4-107.6-7.4l-1.7.2.6-1.6c18.5-50.9 4.5-94.9-11.6-131.2l-.7-1.5h1.6c41.5.2 75.4-4.7 103.5-14.9l1.6-.6-.2 1.7c-6.5 49.8-1.3 100.1 15.9 154l.8 2.4zm-63.7-13.5c20.5 0 43.2 2.1 60.2 9.5-16.5-52.7-21.6-102.2-15.4-151-27.4 9.7-60.2 14.5-100 14.5h-1c15.8 36.1 29.1 79.5 11.5 129.7 9.4-1 26.1-2.7 44.7-2.7z"/><path class="st1" d="M-171 749c10.3-58.1 6.4-100-3.5-134.9 41.5 5.8 78.6-1.3 112.1-18.8-6.1 51-7.7 101.4 9.5 149.6-44.3-14.3-83.3-11.5-118.1 4.1z"/><path d="M-172.4 750.8l.4-2c9.1-51.3 8-94-3.5-134.4l-.4-1.6 1.6.2c39.6 5.5 77.1-.8 111.5-18.7l1.8-.9-.2 2c-5.4 45.4-8.6 98.7 9.4 149.1l.7 2-2.1-.7c-41.8-13.5-81.3-12.1-117.3 4.1l-1.9.9zm-.6-135.4c11 39.8 12.1 81.8 3.4 131.9 35.5-15.4 74.2-16.7 115-4-17.1-49.5-14.3-101.5-9.1-146.1-33.8 17.1-70.5 23.3-109.3 18.2z"/><path class="st0" d="M-157.8 631c28.4 3.5 54.2.9 78-6.9M-157.6 639.7c28.4 4.6 53.1 3.7 76.9-4.7M-156 648.7c23.8 2.8 48.8 1.7 75.2-3.2M-154.7 666.1c23.4 1.3 45.9.5 72-2.7M-154.2 676.2c10.5.6 21.7 2.2 32.3 2 12.9-.3 25.4-2.9 39.7-4.6M-150.8 685.1c10.5.6 21.7 2.2 32.3 2 12.9-.3 21.4-2.2 35.8-3.9M-151.1 702.8c9.8 1.5 18.1 1.6 25.9.1M-151.2 710.7c8.3 1.2 15.5 1.5 22.2.6"/>

<g><path class="st2" d="M-144.6 711.3c.7 4.6 1.5 9.2 2.4 13.8.1.8 1.4.6 1.2-.1-.9-4.6-1.7-9.2-2.4-13.8-.1-.8-1.3-.7-1.2.1"/><path class="st2" d="M-143.7 712.3c2.8-.8 5.8-1.1 8.7-1.5 2.8-.4 5.5-1 8.3-1.5 5.7-1.1 11.4-2.3 17.1-3.6 5.6-1.3 11.1-2.1 16.8-2.6 5.7-.6 11.4-2 17.1-2.5.7-.1.7-1.1 0-1.2-.1 0-.3 0-.4-.1-.8-.1-1 1.1-.2 1.2.1 0 .3 0 .4.1v-1.2c-5.7.5-11.4 1.9-17.1 2.5-6 .6-11.8 1.5-17.7 2.8-5.7 1.3-11.4 2.4-17.1 3.6-5.4 1.1-11.1 1.4-16.4 2.9-.7.2-.2 1.3.5 1.1M-141.4 726.1c21-5.2 42.3-9.3 63.8-12.3.8-.1.6-1.3-.1-1.2-21.5 2.9-42.8 7-63.8 12.3-.8.2-.7 1.4.1 1.2"/><path class="st2" d="M-76.3 699.8c.6 4.2 1.6 8.4 2.7 12.5.2-.3.3-.6.5-.8-1.1 0-1.9.2-2.9.7-.7.3-.3 1.5.5 1.1s1.6-.6 2.6-.6c.4 0 .6-.5.5-.8-1.2-4-2-8.1-2.7-12.2-.1-.8-1.3-.7-1.2.1M-80.5 707.7c.1.5.2.8.5 1 .3.2.5.3.9.2.3-.1.6-.2.7-.5.2-.3.2-.6.1-1.1-.1-.5-.2-.8-.5-1-.2-.2-.5-.3-.9-.2-.3.1-.6.2-.8.5v1.1m-.8.1c-.1-.4-.1-.8 0-1.1l.3-.6c.1-.2.3-.3.5-.5.2-.1.5-.2.8-.3.6-.1 1.1 0 1.5.3.4.3.7.8.8 1.5.1.7 0 1.2-.3 1.6s-.7.7-1.3.8c-.6.1-1.1 0-1.5-.3-.4-.2-.7-.7-.8-1.4zm-3.6 2.7l-.7-4 .8-.1.3 1.6 1.6-.3-.3-1.6.8-.1.7 4-.8.1-.3-1.8-1.6.3.3 1.8-.8.1zm-2.2-1.3l-.8-1.4-.3 1.6 1.1-.2zm1.8 1.3l-.9.1-.5-.9-1.6.3-.2 1-.9.1.9-4.3.9-.1 2.3 3.8zm-6.9-.6l.2 1.1.8-.1c.3 0 .5-.1.6-.1s.2-.1.3-.2c.1-.1.1-.2.1-.4 0-.1-.1-.2-.1-.3-.1-.1-.2-.1-.3-.1-.1 0-.4 0-.7.1h-.9zm-.3-1.6l.2.9.5-.1c.3-.1.5-.1.6-.1s.2-.1.3-.2c.1-.1.1-.2.1-.3 0-.1-.1-.2-.2-.3s-.2-.1-.3-.1c-.1 0-.3 0-.7.1l-.5.1zm-.9-.6l1.6-.3c.3-.1.6-.1.7-.1.2 0 .3 0 .5.1.1.1.3.2.4.3.1.1.2.3.2.5s0 .4-.1.5c-.1.2-.2.3-.4.4.3 0 .5.1.6.3.2.2.3.3.3.6v.6c-.1.2-.2.3-.3.5-.1.1-.3.2-.5.3-.1 0-.5.1-1 .2l-1.4.2-.6-4.1zm-3.4 2.7c.1.5.2.8.5 1 .3.2.5.3.9.2.3-.1.6-.2.7-.5.2-.3.2-.6.1-1.1s-.2-.8-.5-1c-.2-.2-.5-.3-.9-.2-.3.1-.6.2-.8.5 0 .2-.1.6 0 1.1zm-.8.1c-.1-.4-.1-.8 0-1.1l.3-.6c.1-.2.3-.3.5-.5.2-.1.5-.2.8-.3.6-.1 1.1 0 1.5.3.4.3.7.8.8 1.5.1.7 0 1.2-.3 1.6-.3.4-.7.7-1.3.8-.6.1-1.1 0-1.5-.3-.5-.3-.7-.7-.8-1.4zm-3-.9l.2 1.2.4-.1c.3-.1.5-.1.6-.2s.2-.1.2-.2.1-.2 0-.3c0-.1-.1-.3-.2-.3-.1-.1-.2-.1-.4-.1-.1 0-.3 0-.6.1l-.2-.1zm-.2 3.5l-.7-4 1.3-.2c.5-.1.8-.1 1-.1s.5.1.6.3c.2.2.3.4.4.7v.6c-.1.2-.2.3-.3.5-.1.1-.3.2-.4.3-.2.1-.5.1-.8.2l-.5.1.3 1.5-.9.1zm-4.8-3.4l.8-.1.4 2.7 1.2-3 .8-.1.7 4-.8.1-.4-2.6-1.2 2.9-.8.1-.7-4zm-2.8 1.2l.2 1.2.4-.1c.3-.1.5-.1.6-.2.1-.1.2-.1.2-.2s.1-.2 0-.3c0-.1-.1-.3-.2-.3-.1-.1-.2-.1-.4-.1-.1 0-.3 0-.6.1l-.2-.1zm-.3 3.5l-.7-4 1.3-.2c.5-.1.8-.1 1-.1s.5.1.6.3c.2.2.3.4.4.7v.6c-.1.2-.2.3-.3.5-.1.1-.3.2-.4.3-.2.1-.5.1-.8.2l-.5.1.3 1.5-.9.1zm-2.5.4l-.6-3.4-1.2.2-.1-.7 3.2-.5.1.7-1.2.2.6 3.4-.8.1zm-2.5-1.1l.8.1c0 .5-.2.8-.4 1.1-.2.3-.6.4-1 .5-.5.1-1 0-1.4-.3s-.7-.8-.8-1.4c-.1-.7 0-1.2.3-1.7.3-.4.7-.7 1.3-.8.5-.1.9 0 1.3.2.2.1.4.4.5.7l-.8.3c-.1-.2-.2-.3-.4-.4-.2-.1-.4-.1-.6-.1-.3 0-.5.2-.7.4s-.2.6-.1 1.1.2.9.5 1c.2.2.5.3.8.2.2 0 .4-.1.5-.3.1-.1.2-.3.2-.6zm-7.1-1.5l.8-.1.4 2.7 1.2-3 .8-.1.7 4-.8.1-.4-2.6-1.2 2.9-.8.1-.7-4zm-3.1.5l2.7-.5.1.7-1.9.3.6 3.4-.8.1-.7-4zm-3.2 4.7l-.7-4 3-.5.1.7-2.2.4.1.9 2-.3.1.7-2 .3.2 1.1 2.3-.4.1.7-3 .4zm-3.5-2.9l.2 1.2.4-.1c.3-.1.5-.1.6-.2.1-.1.2-.1.2-.2s.1-.2 0-.3c0-.1-.1-.3-.2-.3-.1-.1-.2-.1-.4-.1-.1 0-.3 0-.6.1l-.2-.1zm-.3 3.5l-.7-4 1.3-.2c.5-.1.8-.1 1-.1s.5.1.6.3c.2.2.3.4.4.8v.6c-.1.2-.2.3-.3.5-.1.1-.3.2-.4.3-.2.1-.5.1-.8.2l-.5.1.3 1.5h-.9zm-2.2-1.2l-.8-1.4-.3 1.6 1.1-.2zm1.8 1.3l-.9.1-.5-.9-1.6.3-.2 1-.9.1.9-4.3.9-.1 2.3 3.8zm-7.1-1.8l-.8-.1c.1-.7.5-1.1 1.3-1.2.5-.1.9 0 1.1.1.3.2.4.4.5.7 0 .2 0 .4-.1.6-.1.2-.2.3-.4.5.3 0 .5.1.7.3.2.1.3.3.3.6.1.4 0 .7-.2.9-.2.3-.6.4-1.1.5-.4.1-.8.1-1 0-.3-.1-.5-.3-.7-.7l.7-.4c.1.2.2.4.4.4.1.1.3.1.5 0 .3 0 .4-.1.5-.3.1-.1.1-.3.1-.4 0-.2-.1-.3-.3-.4-.1-.1-.4-.1-.6-.1h-.2l-.1-.6h.1c.2 0 .4-.1.5-.3.1-.1.2-.3.1-.5 0-.1-.1-.3-.2-.3-.1-.1-.3-.1-.5-.1-.3.2-.5.4-.6.8z"/></g></svg>