<?xml version="1.0" encoding="utf-8"?>
<!-- Generator: Adobe Illustrator 19.1.1, SVG Export Plug-In . SVG Version: 6.00 Build 0)  -->
<svg version="1.1" id="Слой_1" xmlns="http://www.w3.org/2000/svg" xmlns:xlink="http://www.w3.org/1999/xlink" x="0px" y="0px"
	 viewBox="-172.1 557.9 249.4 162.3" style="enable-background:new -172.1 557.9 249.4 162.3;" xml:space="preserve">
<style type="text/css">
	.st0{fill:#F49E00;}
	.st1{fill:none;stroke:#000000;stroke-width:0.5669;stroke-miterlimit:22.9256;}
</style>
<g>
	<polygon class="st0" points="-116.6,616.3 -113.4,614.7 -110.6,614.6 -110.7,618.7 -115.1,619.3 	"/>
	<path class="st0" d="M-87.2,625.1l-7.6,0.2l-7.2,0.8l-6.4,0.6l-3.8,1.2l1.5,2l2.1-1.2l1.6-0.8l0.9,0.7l1.4,1l-0.1,1.6l1.5-1.2
		l2.7,0.1l2.3,0.3l9.1-0.8l2.2,0.2C-87.1,627.9-88.8,626.9-87.2,625.1z"/>
	<path class="st0" d="M-88.7,599.3l-0.1-4.6l-5.8,0.5l-8.4,0.1l-7.4-0.3l-0.1,17.8l0.2,10.2l7.2-0.6l0.2-1.6l0.2-3.4l0.3-1.6
		l4.6,0.2l1.5,0.5l-0.1,4.7v0.8l7.6,0.3l0.5-2.1v-16.5L-88.7,599.3z M-101.2,612.8h-4.3l-0.5-1.4l-0.2-3.2l3,0.3l1.9,0.2l0.2,3
		L-101.2,612.8L-101.2,612.8z M-106.3,602l0.1-1.3l3.3-0.3l1.4,0.7l-0.1,3.9l-0.3,0.7l-4.1-0.5L-106.3,602z M-92.8,611.8l-1,1.1
		l-3.8,0.2v-4.8l2.6,0.1l2.3-0.3L-92.8,611.8z M-92.4,604.1l-0.4,1.2h-4.1l-0.6-2.3v-2.5l5.1,0.6V604.1z"/>
	<polygon class="st0" points="-87.6,612.5 -83.9,612.8 -81.3,613 -82.9,616.4 -88.2,616.8 	"/>
	<polygon class="st0" points="-75.9,659.2 -56,660 -56.1,661.6 -56.1,663 -59.8,663.5 -71.1,662.6 -75.2,662.9 	"/>
	<polygon class="st0" points="-64.7,639.3 -55.8,640.4 -55.5,645.9 -55.1,660.1 -56.1,660.2 -56.7,657.4 -56.1,650.6 -57,644.7 
		-60.9,644.3 -64.1,644.8 	"/>
	<polygon class="st0" points="-95.8,639.8 -86.9,639.8 -87.8,644 -89.6,644.5 -94.5,643.9 -95.4,646.6 	"/>
	<path class="st0" d="M-108.4,685.7c0.7,4.7,1.6,9.4,2.5,14.1c0.2,0.8,1.4,0.6,1.2-0.1c-0.9-4.7-1.7-9.4-2.5-14.1
		C-107.3,684.8-108.5,684.9-108.4,685.7"/>
	<path class="st0" d="M-107.5,686.7c2.9-0.8,5.9-1.1,8.9-1.5c2.8-0.4,5.6-1,8.5-1.6c5.8-1.1,11.6-2.3,17.4-3.7
		c5.7-1.3,11.4-2.1,17.1-2.7c5.9-0.6,11.6-2.1,17.5-2.6c0.7-0.1,0.7-1.1,0-1.2c-0.1,0-0.3,0-0.4-0.1c-0.8-0.1-1,1.1-0.2,1.2
		c0.1,0,0.3,0,0.4,0.1c0-0.4,0-0.8,0-1.2c-5.9,0.5-11.6,2-17.5,2.6c-6.1,0.6-12.1,1.5-18.1,2.9c-5.8,1.3-11.6,2.5-17.4,3.6
		c-5.5,1.1-11.3,1.4-16.7,3C-108.7,685.8-108.2,686.9-107.5,686.7"/>
	<path class="st0" d="M-105.1,700.8c21.5-5.4,43.2-9.5,65.2-12.5c0.8-0.1,0.6-1.3-0.1-1.2c-21.9,3-43.7,7.2-65.2,12.5
		C-106.1,699.8-105.9,701-105.1,700.8"/>
	<path class="st0" d="M-38.6,674c0.6,4.3,1.6,8.6,2.8,12.8c0.2-0.3,0.3-0.6,0.5-0.8c-1.1,0-2,0.2-3,0.7c-0.7,0.4-0.3,1.5,0.5,1.2
		c0.9-0.4,1.7-0.6,2.6-0.6c0.4,0,0.6-0.5,0.5-0.8c-1.2-4.1-2.1-8.3-2.7-12.5C-37.5,673-38.7,673.2-38.6,674"/>
	<path class="st0" d="M-42.9,682c0.1,0.5,0.2,0.8,0.5,1s0.6,0.3,0.9,0.2c0.3-0.1,0.6-0.2,0.8-0.5s0.2-0.7,0.1-1.1
		c-0.1-0.5-0.2-0.8-0.5-1c-0.2-0.2-0.5-0.3-0.9-0.2c-0.3,0.1-0.6,0.2-0.8,0.5C-42.9,681.2-42.9,681.5-42.9,682 M-43.7,682.2
		c-0.1-0.4-0.1-0.8,0-1.1c0.1-0.2,0.2-0.4,0.3-0.6s0.3-0.3,0.5-0.5s0.5-0.3,0.9-0.3c0.6-0.1,1.1,0,1.6,0.3c0.4,0.3,0.7,0.8,0.8,1.5
		s0,1.2-0.3,1.7c-0.3,0.4-0.8,0.7-1.4,0.8c-0.6,0.1-1.1,0-1.6-0.3C-43.3,683.3-43.6,682.8-43.7,682.2z M-47.4,684.9l-0.7-4.1
		l0.8-0.1l0.3,1.6l1.6-0.3l-0.3-1.6l0.8-0.1l0.7,4.1l-0.8,0.1l-0.3-1.8l-1.6,0.3l0.3,1.8L-47.4,684.9z M-49.6,683.6l-0.8-1.4
		l-0.3,1.6L-49.6,683.6z M-47.8,684.9l-0.9,0.1l-0.5-0.9l-1.7,0.3l-0.2,1l-0.9,0.1l0.9-4.4l0.9-0.1L-47.8,684.9z M-54.9,684.2
		l0.2,1.1l0.8-0.1c0.3,0,0.5-0.1,0.6-0.1s0.2-0.1,0.3-0.2c0.1-0.1,0.1-0.2,0.1-0.4c0-0.1-0.1-0.2-0.1-0.3c-0.1-0.1-0.2-0.1-0.3-0.1
		c-0.1,0-0.4,0-0.8,0.1H-54.9z M-55.2,682.6l0.2,1l0.5-0.1c0.3-0.1,0.5-0.1,0.6-0.1s0.2-0.1,0.3-0.2c0.1-0.1,0.1-0.2,0.1-0.3
		c0-0.1-0.1-0.2-0.2-0.3c-0.1-0.1-0.2-0.1-0.3-0.1c-0.1,0-0.3,0-0.7,0.1H-55.2z M-56.1,682.1l1.7-0.3c0.3-0.1,0.6-0.1,0.7-0.1
		c0.2,0,0.3,0,0.5,0.1c0.1,0.1,0.3,0.2,0.4,0.3c0.1,0.1,0.2,0.3,0.2,0.5c0,0.2,0,0.4-0.1,0.6s-0.2,0.3-0.4,0.4
		c0.3,0,0.5,0.1,0.6,0.3c0.2,0.2,0.3,0.4,0.3,0.6s0,0.4,0,0.6c-0.1,0.2-0.2,0.4-0.3,0.5c-0.1,0.1-0.3,0.2-0.5,0.3
		c-0.1,0-0.5,0.1-1,0.2l-1.4,0.2L-56.1,682.1z M-59.6,684.7c0.1,0.5,0.2,0.8,0.5,1s0.6,0.3,0.9,0.2c0.3-0.1,0.6-0.2,0.8-0.5
		c0.2-0.3,0.2-0.7,0.1-1.1c-0.1-0.5-0.2-0.8-0.5-1c-0.2-0.2-0.5-0.3-0.9-0.2c-0.3,0.1-0.6,0.2-0.8,0.5
		C-59.6,683.9-59.6,684.3-59.6,684.7z M-60.4,684.9c-0.1-0.4-0.1-0.8,0-1.1c0.1-0.2,0.2-0.4,0.3-0.6c0.1-0.2,0.3-0.3,0.5-0.5
		s0.5-0.3,0.9-0.3c0.6-0.1,1.1,0,1.6,0.3c0.4,0.3,0.7,0.8,0.8,1.5c0.1,0.7,0,1.2-0.3,1.7c-0.3,0.4-0.8,0.7-1.4,0.8s-1.1,0-1.6-0.3
		C-60,686.1-60.3,685.6-60.4,684.9z M-63.4,684l0.2,1.2l0.5-0.1c0.3-0.1,0.5-0.1,0.6-0.2c0.1-0.1,0.2-0.1,0.2-0.2s0.1-0.2,0-0.3
		c0-0.2-0.1-0.3-0.2-0.4c-0.1-0.1-0.2-0.1-0.4-0.1c-0.1,0-0.3,0-0.6,0.1H-63.4z M-63.7,687.6l-0.7-4.1l1.3-0.2
		c0.5-0.1,0.8-0.1,1-0.1s0.5,0.1,0.7,0.3c0.2,0.2,0.3,0.4,0.4,0.8c0,0.3,0,0.5,0,0.7c-0.1,0.2-0.2,0.3-0.3,0.5
		c-0.1,0.1-0.3,0.2-0.4,0.3c-0.2,0.1-0.5,0.1-0.9,0.2l-0.5,0.1l0.3,1.6L-63.7,687.6z M-68.5,684.1l0.8-0.1l0.5,2.8l1.2-3l0.8-0.1
		l0.7,4.1l-0.8,0.1l-0.4-2.7l-1.2,3l-0.8,0.1L-68.5,684.1z M-71.4,685.3l0.2,1.2l0.5-0.1c0.3-0.1,0.5-0.1,0.6-0.2
		c0.1-0.1,0.2-0.1,0.2-0.2s0.1-0.2,0-0.3c0-0.2-0.1-0.3-0.2-0.4c-0.1-0.1-0.2-0.1-0.4-0.1c-0.1,0-0.3,0-0.6,0.1H-71.4z M-71.7,688.9
		l-0.7-4.1l1.3-0.2c0.5-0.1,0.8-0.1,1-0.1s0.5,0.1,0.7,0.3c0.2,0.2,0.3,0.4,0.4,0.8c0,0.3,0,0.5,0,0.7c-0.1,0.2-0.2,0.3-0.3,0.5
		c-0.1,0.1-0.3,0.2-0.4,0.3c-0.2,0.1-0.5,0.1-0.9,0.2l-0.5,0.1l0.3,1.6L-71.7,688.9z M-74.3,689.3l-0.6-3.4l-1.2,0.2l-0.1-0.7
		l3.3-0.5l0.1,0.7l-1.2,0.2l0.6,3.4L-74.3,689.3z M-76.8,688.2l0.8,0.1c0,0.5-0.2,0.8-0.5,1.1s-0.6,0.4-1,0.5c-0.5,0.1-1,0-1.4-0.3
		c-0.4-0.3-0.7-0.8-0.8-1.5c-0.1-0.7,0-1.3,0.3-1.7c0.3-0.4,0.7-0.7,1.3-0.8c0.5-0.1,0.9,0,1.3,0.2c0.2,0.1,0.4,0.4,0.5,0.7
		l-0.8,0.3c-0.1-0.2-0.2-0.4-0.4-0.5c-0.2-0.1-0.4-0.1-0.6-0.1c-0.3,0.1-0.5,0.2-0.7,0.5s-0.2,0.6-0.1,1.1s0.2,0.9,0.5,1.1
		c0.2,0.2,0.5,0.3,0.8,0.2c0.2,0,0.4-0.1,0.5-0.3C-76.9,688.7-76.9,688.5-76.8,688.2z M-84,686.7l0.8-0.1l0.5,2.8l1.2-3l0.8-0.1
		l0.7,4.1l-0.8,0.1l-0.4-2.7l-1.2,3l-0.8,0.1L-84,686.7z M-87.3,687.2l2.8-0.5l0.1,0.7l-2,0.3l0.6,3.4l-0.8,0.1L-87.3,687.2z
		 M-90.5,692l-0.7-4.1l3.1-0.5l0.1,0.6l-2.2,0.4l0.2,0.9l2-0.3l0.1,0.7L-90,690l0.2,1.1l2.3-0.4l0.1,0.7L-90.5,692z M-94.1,689
		l0.2,1.2l0.5-0.1c0.3-0.1,0.5-0.1,0.6-0.2c0.1-0.1,0.2-0.1,0.2-0.2c0-0.1,0.1-0.2,0-0.3c0-0.2-0.1-0.3-0.2-0.4s-0.2-0.1-0.4-0.1
		c-0.1,0-0.3,0-0.6,0.1H-94.1z M-94.3,692.6l-0.7-4.1l1.3-0.2c0.5-0.1,0.8-0.1,1-0.1s0.5,0.1,0.7,0.3s0.3,0.4,0.4,0.8
		c0,0.3,0,0.5,0,0.7c-0.1,0.2-0.2,0.3-0.3,0.5c-0.1,0.1-0.3,0.2-0.4,0.3c-0.2,0.1-0.5,0.1-0.9,0.2l-0.5,0.1l0.3,1.6L-94.3,692.6z
		 M-96.6,691.3l-0.8-1.4l-0.3,1.6L-96.6,691.3z M-94.8,692.7l-0.9,0.1l-0.5-0.9l-1.7,0.3l-0.2,1l-0.9,0.1l1-4.3l0.9-0.1L-94.8,692.7
		z M-102,690.8l-0.8-0.1c0.1-0.7,0.5-1.1,1.3-1.3c0.5-0.1,0.9,0,1.1,0.1c0.3,0.2,0.4,0.4,0.5,0.7c0,0.2,0,0.4-0.1,0.6
		s-0.2,0.3-0.4,0.5c0.3,0,0.5,0.1,0.7,0.3c0.2,0.1,0.3,0.4,0.3,0.6c0.1,0.4,0,0.7-0.3,0.9c-0.2,0.3-0.6,0.4-1.1,0.5
		c-0.4,0.1-0.8,0.1-1.1,0c-0.3-0.1-0.5-0.3-0.7-0.7l0.7-0.4c0.1,0.2,0.3,0.4,0.4,0.4c0.1,0.1,0.3,0.1,0.5,0c0.3,0,0.4-0.1,0.5-0.3
		c0.1-0.1,0.1-0.3,0.1-0.4c0-0.2-0.1-0.3-0.3-0.4c-0.2-0.1-0.4-0.1-0.6-0.1h-0.2l-0.1-0.6h0.1c0.3,0,0.4-0.1,0.6-0.3
		c0.1-0.1,0.2-0.3,0.1-0.5c0-0.2-0.1-0.3-0.2-0.4c-0.1-0.1-0.3-0.1-0.5-0.1C-101.8,690.2-102,690.4-102,690.8z"/>
	<path class="st0" d="M12.2,695c0.2-6.6,1.2-14,2.5-18.2c-0.8-1.5,5.4,2.3,5.8,1.8c5-8,9.2-23,4.3-34c3.2,1,8,0.9,13.6,0.2
		c-1.6,4.4,5.2,3.8,8.7,8.4c0.5,0.7,1,1.5,1.3,2.5c1.7,6,0.3,10.2-1.5,15.9c-2.8,9.1-10.8,20.5-5.7,29.5C31.6,699,22.4,690,12.2,695
		"/>
	<path d="M-142.7,582.8c8.6,43.9,9.5,89.1,2.5,133.3c-0.2,1.2,1.6,1.6,1.8,0.5c7-44.5,6.2-90-2.5-134.3
		C-141.1,581.1-142.9,581.6-142.7,582.8"/>
	<path d="M-143.2,583.1c38.7,5,78.4-2,113.1-19.9c1-0.5,0.1-2.1-0.9-1.6c-34.5,17.7-73.8,24.6-112.2,19.6
		C-144.4,581.1-144.4,582.9-143.2,583.1"/>
	<path d="M-141.2,720.1c17.7-10.4,38.1-14.3,58.4-14.9c10.8-0.3,21.7,0.3,32.4,1.3c5.3,0.4,10.6,0.9,15.8,1.5
		c4.9,0.5,10.1,1.2,13.5,5.2c0.8,0.9,2.1-0.4,1.3-1.3c-5.7-6.7-16.9-6-24.8-6.7c-12.2-1.1-24.5-2-36.8-1.8
		c-21.1,0.4-42.4,4.3-60.7,15.1C-143.2,719.1-142.3,720.7-141.2,720.1"/>
	<path d="M-24.2,703.6c1.1,3.1,2.3,6.2,3.4,9.2c0.4,1.1,2.2,0.6,1.8-0.5c-1.1-3.1-2.3-6.2-3.4-9.2C-22.8,702-24.6,702.5-24.2,703.6"
		/>
	<path d="M-155.4,575c35.5,2.4,71.2-2.8,104.5-15.2c-0.4-0.4-0.8-0.8-1.1-1.1c-1.8,4.4-2.9,8.9-3.4,13.6c-0.1,1.2,1.7,1.2,1.8,0
		c0.5-4.6,1.6-8.9,3.4-13.2c0.3-0.6-0.5-1.4-1.1-1.1c-33.2,12.4-68.7,17.6-104.1,15.2C-156.5,573.1-156.5,575-155.4,575"/>
	<path d="M-156.5,574.8c16.4,41.4,29.7,88.2,12,131.5c-0.2,0.6,0.3,1.2,0.9,1.2c2.2,0,3.8,0.7,5.2,2.5c0.7,0.9,2.3,0,1.6-0.9
		c-1.7-2.3-3.9-3.4-6.7-3.5c0.3,0.4,0.6,0.8,0.9,1.2c17.7-43.5,4.5-90.8-12-132.4C-155.1,573.3-156.9,573.7-156.5,574.8"/>
	<path d="M-154.5,583.7c-6.7,4.3-12.5,9.6-17.4,15.9c-0.4,0.5,0,1.2,0.5,1.3c12,3,19.6,13.6,24.7,24.2c6,12.4,9.1,26.1,9.5,39.8
		c0,1.2,1.9,1.2,1.8,0c-0.4-14.5-3.8-28.9-10.3-41.9c-5.2-10.5-13.1-20.8-25.1-23.8c0.2,0.4,0.4,0.9,0.5,1.3
		c4.7-6,10.3-11.1,16.7-15.2C-152.6,584.7-153.5,583.1-154.5,583.7"/>
	<path d="M-36.7,641.3c1.6,21.3,5.6,42.3,11.9,62.6c0.3,1.1,2.1,0.6,1.8-0.5c-6.3-20.2-10.2-41-11.9-62.1
		C-34.9,640.1-36.8,640.1-36.7,641.3"/>
	<path d="M-37.1,636.9c-0.2,1.8,0,3.6,0.4,5.4c0.2,1.2,2,0.7,1.8-0.5c-0.4-1.6-0.4-3.2-0.3-4.9C-35.1,635.7-36.9,635.8-37.1,636.9"
		/>
	<path d="M-36.3,617.9c-0.2-18,1.5-35.9,4.9-53.6c0.2-1.2-1.5-1.6-1.8-0.5c-3.5,17.8-5.2,35.9-5,54.1
		C-38.1,619.1-36.2,619.1-36.3,617.9"/>
	<line class="st1" x1="-118.5" y1="675.2" x2="-80.4" y2="670.8"/>
	<line class="st1" x1="-118" y1="683.1" x2="-79.9" y2="678.8"/>
	<path d="M-110.8,611c-5.1,1.6-10,3.6-14.7,6.1c-0.6,0.2-0.2,1.1,0.4,0.8c4.6-2.4,9.5-4.4,14.4-5.9"/>
	<path d="M-88.5,607.8c8.2-0.5,16.4,0.1,24.5,1.8c0.6,0.1,0.8-0.8,0.3-0.9c-8.2-1.8-16.6-2.4-24.9-1.9"/>
	<path d="M-67.1,615.4c-0.2-0.3-0.4-0.6-0.6-0.9c-0.1,0.3-0.2,0.6-0.3,1C-67.7,615.5-67.4,615.4-67.1,615.4z"/>
	<path d="M-54.6,611c-1.4-2.8-4.8-4.3-7.8-3c-2.7,1.2-4.2,3.9-5.3,6.5c0.2,0.3,0.4,0.6,0.6,0.9c-0.3,0-0.6,0.1-0.9,0.1
		c0.1-0.3,0.2-0.6,0.3-1c-1.4-2-3.5-3.3-5.6-1.2c-2,2-3.9,4.9-3.4,7.7c0.3,0.1,0.7,0.3,1,0.5c-0.2,0.1-0.5,0.3-0.7,0.5
		c-0.1-0.3-0.2-0.7-0.3-1c-3-1.3-6.7-0.4-8.4,2.5c-0.2,0.4-0.4,0.8-0.5,1.2c0.2,0.1,0.5,0.2,0.9,0.2c0.3-0.8,0.7-1.5,1.3-2.1
		c1.9-1.9,5-2,7.3-0.5c0.3,0.2,0.8-0.1,0.7-0.5c-0.9-2.2,0.1-4.3,1.4-6.1c0.7-0.9,2-2.6,3.2-2.6c1.4,0,2.4,1.7,3,2.7
		c0.2,0.4,0.7,0.3,0.9-0.1c0.8-2.4,2-5,4.2-6.4c2.7-1.7,6-0.6,7.4,2.2C-55.2,612.1-54.3,611.6-54.6,611z"/>
	<path d="M-75.7,621.5c-0.3-0.2-0.7-0.4-1-0.5c0.1,0.3,0.2,0.7,0.3,1C-76.2,621.8-75.9,621.6-75.7,621.5z"/>
	<path d="M-129.4,640.5c0.7,0.2,1.3,0.6,1.6,1.3c0.3,0.5,1.1,0.1,0.8-0.5c-0.5-1-0.8-2-0.8-3.1c0-0.5,0-0.9,0.2-1.3
		c0.5-1.9,1.7-1.9,3.6,0.1c0.1,0.6,1,0.6,0.9,0c-0.2-1.2-0.5-5,1.8-4.6c2.2,0.3,2.5,2.6,2.5,4.4h0.9c-0.3-2.8,4.9-5.9,5.9-2.1
		c0.5,2,0.1,4.1-0.9,5.8c-0.3,0.5,0.5,1,0.8,0.5c1.2-2.2,2.3-7.1-0.5-8.8c-2.5-1.5-6.6,1.9-6.3,4.6c0.1,0.6,1,0.6,0.9,0
		c0-2.1-0.7-5.3-3.4-5.3c-2.9,0-3,3.5-2.8,5.6h1.2c-0.3-2-2.3-3.5-4.2-2.3c-2.3,1.5-1.6,5.1-0.6,7.1c0.3-0.2,0.5-0.3,0.8-0.5
		c-0.6-1-1.5-1.6-2.5-1.8L-129.4,640.5z"/>
	<path d="M-116.1,632.3c-3.4-4,4.3-5.6,4.6-1.8c0,0.4,0.6,0.7,0.9,0.2c0.6-1,1.5-2,2.7-2.2c3.2-0.6,2.4,2.1,1.9,3.5
		c-0.2,0.4,0.5,0.8,0.8,0.5c0.5-0.6,1-1.3,1.7-1.8c1.5-0.9,3.1,0.5,3.1,2c0,1.7-0.9,3.1-2.1,4.2c0.3,0.2,0.5,0.3,0.8,0.5
		c0.1-0.2,0.1-0.3,0.2-0.5c0.2-0.6-0.7-0.8-0.9-0.3c-0.1,0.2-0.1,0.3-0.2,0.5c-0.1,0.5,0.5,0.8,0.8,0.5c1.8-1.6,3.2-4.7,1.8-7
		c-1.7-2.6-4.5-0.5-5.8,1.2c0.3,0.2,0.5,0.3,0.8,0.5c0.6-1.6,1-3.9-1-4.7c-2.1-0.8-4.4,1.1-5.3,2.7c0.3,0.1,0.6,0.2,0.9,0.2
		c-0.3-2.7-3.1-3.5-5.4-2.8c-2.9,0.9-2.5,3.4-0.8,5.3C-116.4,633.5-115.8,632.8-116.1,632.3"/>
	<path d="M-95.4,591.4c1-1,2.1-1.8,3.4-2.4c2.6-1.2,5.4-1.1,6.9,1.6c1.2,2.1,0.9,4.5,0.3,6.8c0.3-0.4,0.6-0.7,1-0.9
		c0.5-2.2,0.6-4.6-0.6-6.6c-1.1-1.9-2.9-3.1-5.1-2.9c-3,0.3-5.6,2.1-7.4,4.4"/>
	<path d="M-110.7,597.7c-1.3,0.1-2.7,1-3.6,2.1c-1.8,2.3-2.7,5.2-3.1,8.1c0.4,0.5,0.6,1,0.7,1.5c-0.3,0-0.5,0.1-0.8,0.1
		c0,0.1,0.1,0.2,0.1,0.3c0.1,0.5,0.9,0.4,0.9-0.1c0.1-2.5,0.7-4.9,1.8-7.1c0.7-1.3,2.1-3.4,3.7-3.8c0-0.2,0-0.5,0-1c0,0.5,0,0.7,0,1
		"/>
	<path d="M-117.4,607.9c-0.1,0.5-0.1,1-0.1,1.4c0,0.1,0.1,0.1,0.1,0.2c0.3,0,0.5-0.1,0.8-0.1C-116.8,608.9-117.1,608.4-117.4,607.9z
		"/>
	<path d="M-122.1,606.7c-1.4,0.8-1.9,2.7-1.3,4.1c0.4,0.1,0.9,0.2,1.3,0.4c-0.2,0.3-0.3,0.5-0.5,0.8c-0.4-0.3-0.6-0.7-0.8-1.2
		c-3.8-0.7-7.1,2.2-7,6.1l0.1,1.1c0.3,0.6,1.1,0.4,1-0.2c-0.7-4.2,3.3-7.1,7.1-5.5c0.4,0.2,0.8-0.5,0.5-0.8c-1.1-1-1-3,0.3-3.8
		c1.5-0.9,3.2,0.3,3.8,1.7c0-0.5,0.1-1,0.1-1.4C-118.5,606.5-120.4,605.7-122.1,606.7z"/>
	<path d="M-117.6,609.6c0,0,0.1,0,0.1,0c0-0.1-0.1-0.1-0.1-0.2C-117.6,609.4-117.6,609.5-117.6,609.6z"/>
	<path d="M-122.1,611.2c-0.4-0.2-0.9-0.3-1.3-0.4c0.2,0.4,0.4,0.9,0.8,1.2C-122.4,611.7-122.3,611.5-122.1,611.2z"/>
	<path d="M-79.9,604.6c-0.1-0.2-0.3-0.5-0.4-0.7c0.5,0,0.8-0.4,1-1c-0.6,0.2-1,0.6-1.4,1.2c-0.2,0.3,0,0.7,0.4,0.7
		c0.8-0.1,1.3-0.5,1.6-1.1C-79.1,603.6-79.5,603.9-79.9,604.6z"/>
	<path d="M-79.3,602.9c-0.2,0.6-0.5,0.9-1,1c0.1,0.2,0.3,0.5,0.4,0.7c0.4-0.7,0.8-0.9,1.2-0.9c0.1-0.3,0.2-0.5,0.3-0.9
		C-78.7,602.7-79,602.8-79.3,602.9z"/>
	<path d="M-74.9,606.9c-0.4-1.5-1-3.3-2.6-3.9c-0.3-0.1-0.6-0.2-0.8-0.2c-0.1,0.3-0.2,0.6-0.3,0.9c1.3-0.1,2.6,2.6,2.9,3.5
		C-75.6,607.8-74.7,607.5-74.9,606.9z"/>
	<path d="M-84.8,597.4c-0.2,0.3-0.4,0.7-0.5,1.2c-0.1,0.5,0.7,0.6,0.9,0.2c-0.3,0-0.5-0.1-0.8-0.1
		C-85.1,598.2-84.9,597.8-84.8,597.4z"/>
	<path d="M-78.3,602.8c0.5-2-0.2-4.9-1.3-5.9c-1.2-1.1-3-1.1-4.2-0.4c-0.2,0.8-0.4,1.5-0.6,2.2c0,0,0,0.1,0,0.1c0,0,0.1,0,0.1,0
		c0.3-2.4,3.7-1.9,4.6-0.4c0.4,0.6,0.8,3.1,0.4,4.5C-79,602.8-78.7,602.7-78.3,602.8z"/>
	<path d="M-83.8,596.4c-0.4,0.2-0.7,0.5-1,0.9c-0.1,0.4-0.2,0.9-0.4,1.3c0.3,0,0.5,0.1,0.8,0.1c0,0,0-0.1,0-0.1
		C-84.2,597.9-84,597.2-83.8,596.4z"/>
	<path d="M-55.3,611.6c0.1-0.1,0.3-0.1,0.4-0.2c0.1,0.2,0.2,0.4,0.3,0.6c0.3-1.1,2.8,0,3.2,0.4c0.8,0.8,1,1.8,0.7,3
		c-0.1,0.4,0.3,0.7,0.7,0.5c2.6-1.3,4.2,1,4.2,3.3l1,0.3c0.2-3.1-2.2-6.1-5.6-4.4c0.2,0.2,0.5,0.4,0.7,0.5c0.6-1.8-0.1-3.9-2-4.7
		c-0.9-0.4-3.4-0.6-3.7,0.8c-0.1,0.3,0.1,0.5,0.3,0.6h0.1c0.2,0.1,0.5,0,0.5-0.2V612C-54.2,611.5-55,611-55.3,611.6"/>
	<path d="M-130,619.9c1.6-0.8,3.3-1.5,4.9-2.2c0.6-0.2,0.3-1.1-0.3-0.9c-1.6,0.6-3.2,1.3-4.8,2.1l0.1,0.8L-130,619.9z"/>
	<path d="M-102.8,634.4c0.6,0,0.6-0.9,0-0.9C-103.5,633.4-103.5,634.4-102.8,634.4"/>
	<path d="M-99.2,636.1c-6.8,1.6-13.4,3.7-19.9,6.2c-0.5,0.2-0.3,1.1,0.3,0.9c10.1-3.9,20.9-6.9,31.8-8.2c0-0.3,0-0.7,0-1
		C-91.1,634.4-95.2,635.1-99.2,636.1z"/>
	<path d="M-64.8,634.8c6.6,0.8,13.1,2.5,19.3,5.3v-1c-6.1-2.7-12.7-4.3-19.3-5.2"/>
	<path d="M-110.9,595.3c-0.3,9.4-0.3,18.8,0.1,28.2c0.3,0,0.6-0.1,0.9-0.1c0-0.2-0.1-0.4-0.1-0.5c-0.1-0.4-1-0.2-0.9,0.2
		c0,0.2,0.1,0.4,0.1,0.5c0.1,0.4,0.9,0.3,0.9-0.1c-0.4-9.4-0.4-18.8-0.1-28.2C-110,594.9-110.9,594.9-110.9,595.3"/>
	<path d="M-110.8,595.2c7.5,0.8,15,0.6,22.4-0.5c-0.2-0.2-0.4-0.3-0.6-0.5c-1.4,14,1.6,14.3-0.2,28.3c-0.1,0.6,0.9,0.6,0.9,0
		c1.8-14-1.2-14.3,0.2-28.3c0-0.3-0.3-0.5-0.6-0.5c-7.3,1.2-14.7,1.3-22.1,0.6C-111.4,594.2-111.4,595.2-110.8,595.2"/>
	<path d="M-105.9,601.1c1.4-0.2,2.8-0.1,4.2,0.1c-0.1-0.2-0.2-0.3-0.3-0.5c0,1.6,0,3.1,0,4.7c0,0.6,0.9,0.6,0.9,0c0-1.6,0-3.1,0-4.7
		c0-0.2-0.1-0.4-0.3-0.5c-1.5-0.3-3-0.3-4.5-0.1C-106.5,600.2-106.5,601.2-105.9,601.1"/>
	<path d="M-106.6,601.9c0.1,1.2,0.2,2.3,0.3,3.5c0,0.2,0.2,0.5,0.5,0.5c1.3-0.1,2.7,0.1,4,0.4c0.6,0.1,0.8-0.8,0.3-0.9
		c-1.4-0.3-2.8-0.5-4.2-0.4c0.2,0.2,0.3,0.3,0.5,0.5c-0.1-1.2-0.2-2.3-0.3-3.5C-105.7,601.3-106.6,601.3-106.6,601.9"/>
	<path d="M-105.3,608.7c1.3,0.1,2.6,0.2,3.9,0.3c-0.2-0.2-0.3-0.3-0.5-0.5c0.1,1.5,0.1,3.1,0,4.6c0,0.6,0.9,0.6,0.9,0
		c0-1.5,0-3.1,0-4.6c0-0.3-0.2-0.5-0.5-0.5c-1.3-0.1-2.6-0.2-3.9-0.3C-105.9,607.7-105.9,608.6-105.3,608.7"/>
	<path d="M-106.4,609.3c0,1.2,0,2.5,0,3.7c0,0.2,0.2,0.5,0.5,0.5c1.5-0.1,2.9-0.1,4.4-0.2c0.6,0,0.6-1,0-0.9
		c-1.5,0.1-2.9,0.1-4.4,0.2c0.2,0.2,0.3,0.3,0.5,0.5c0-1.2,0-2.5,0-3.7C-105.4,608.7-106.4,608.7-106.4,609.3"/>
	<path d="M-97.9,601.3c0,1.1,0,2.1,0.1,3.2c0,0.5,0.1,0.9,0.5,1.2c0.5,0.4,1.2,0.2,1.8,0.2c1.1,0,2.2,0,3.3,0c0.6,0,0.6-1,0-0.9
		h-1.9c-0.6,0-1.5,0.2-2.1,0c-0.9-0.2-0.7-1-0.7-1.7c0-0.7,0-1.3,0-2C-97,600.7-97.9,600.7-97.9,601.3"/>
	<path d="M-97.6,601.3c1.8-0.2,3.5,0.7,5.2,0.2c-0.2-0.2-0.4-0.3-0.6-0.5c0.1,1.2,0.1,2.5,0,3.7c0,0.6,0.9,0.6,0.9,0
		c0-1.2,0-2.5,0-3.7c0-0.3-0.3-0.6-0.6-0.5c-1.6,0.5-3.3-0.4-5-0.2C-98.2,600.4-98.2,601.4-97.6,601.3"/>
	<path d="M-98.2,608.7c0,0.7,0,1.5,0,2.2c0,0.4,0,0.7,0,1.1c0,0.2,0.1,0.9,0,1h0.7c0,0,0,0-0.1-0.1v0.7c0,0,0,0,0-0.1
		c0.4-0.5-0.3-1.1-0.7-0.7c0,0,0,0,0,0.1c-0.2,0.2-0.2,0.5,0,0.7c0,0,0,0,0.1,0.1c0.2,0.2,0.5,0.2,0.7,0c0.4-0.4,0.2-1.3,0.2-1.8
		c0-1,0-2.1,0-3.1C-97.2,608.1-98.2,608.1-98.2,608.7"/>
	<path d="M-97.5,608.7c1.7,0.4,3.3,0.3,5-0.1c-0.2-0.2-0.4-0.3-0.6-0.5c0,0.8-0.1,1.5-0.1,2.3c0,0.4,0.1,1.6-0.1,1.9
		c-0.1,0.2-1.8,0.1-2.1,0.1c-0.8,0.1-1.7,0.1-2.5,0.2c-0.6,0-0.6,1,0,0.9l3.4-0.2c0.5,0,1.4,0.1,1.9-0.3c0.4-0.4,0.3-1.1,0.3-1.6
		c0.1-1.1,0.1-2.2,0.2-3.3c0-0.3-0.3-0.5-0.6-0.5c-1.5,0.4-3,0.4-4.5,0.1C-97.9,607.7-98.1,608.6-97.5,608.7"/>
	<path d="M-102.9,616.1c0.2,1.9,0.1,3.7-0.3,5.5c-0.1,0.6,0.8,0.9,0.9,0.3c0.4-1.9,0.5-3.8,0.3-5.8
		C-102,615.5-103,615.5-102.9,616.1"/>
	<path d="M-102.3,616.3h2.7c0.7,0,2-0.2,2.5,0.2c0.5,0.5,0.3,1.9,0.4,2.6c0,1,0,1.9,0,2.9c0,0.6,0.9,0.6,0.9,0c0-1.3,0-2.5,0-3.8
		c0-0.7,0.1-2.1-0.4-2.6s-1.6-0.2-2.2-0.2c-1.3,0-2.6,0-3.9,0C-102.9,615.4-102.9,616.3-102.3,616.3"/>
	<path d="M-112.2,595.4c0.4-0.3,0.9-0.3,1.3-0.1c0.5,0.3,1-0.5,0.5-0.8c-0.7-0.4-1.6-0.4-2.3,0.1
		C-113.2,594.9-112.7,595.7-112.2,595.4"/>
	<path d="M-112.1,594.8l2.8-2.8c0.4-0.4-0.2-1.1-0.7-0.7l-2.8,2.8C-113.2,594.6-112.6,595.2-112.1,594.8"/>
	<path d="M-110.4,591.8c4.4,0.3,8.8,0.4,13.2,0.3c2-0.1,4.2-0.5,6.2-0.4c1.6,0.1,2.6,2,3.9,2.9c0-0.3,0.1-0.6,0.1-0.9
		c-0.5,0.1-0.9,0-1.2-0.3c-0.5-0.4-1.1,0.3-0.7,0.7c0.7,0.5,1.3,0.7,2.1,0.6c0.4-0.1,0.4-0.7,0.1-0.9c-1-0.7-1.4-1.5-2.2-2.4
		c-0.4-0.4-0.5-0.5-1.1-0.7c-0.8-0.2-1.8,0.1-2.6,0.2c-1.2,0.1-2.4,0.2-3.7,0.2c-4.8,0.2-9.6,0.2-14.3-0.2
		C-111,590.9-111,591.8-110.4,591.8"/>
	<path d="M-109.7,595.5l1.8-3c0.3-0.5-0.5-1-0.8-0.5l-1.8,3C-110.9,595.5-110.1,596-109.7,595.5"/>
	<path d="M-107.4,593.1c-0.2,0.5-0.3,1-0.5,1.5c-0.2,0.6,0.7,0.8,0.9,0.3c0.2-0.5,0.3-1,0.5-1.5
		C-106.3,592.7-107.2,592.5-107.4,593.1"/>
	<path d="M-105.6,593.6c-0.2,0.6-0.3,1.2-0.5,1.8c-0.2,0.6,0.7,0.8,0.9,0.3c0.2-0.6,0.3-1.2,0.5-1.8
		C-104.5,593.2-105.4,593-105.6,593.6"/>
	<path d="M-103.3,592.8c-0.1,0.6-0.2,1.2-0.3,1.8c0,0.3,0.1,0.5,0.3,0.6c0.2,0.1,0.5-0.1,0.6-0.3c0.1-0.6,0.2-1.2,0.3-1.8
		c0-0.3-0.1-0.5-0.3-0.6C-103,592.4-103.3,592.6-103.3,592.8"/>
	<path d="M-100.8,593.9c0.6,0,0.6-0.9,0-0.9S-101.4,593.9-100.8,593.9"/>
	<path d="M-98.7,593.3c0.2,0.6,0.3,1.2,0.5,1.8c0.2,0.6,1.1,0.3,0.9-0.3c-0.2-0.6-0.3-1.2-0.5-1.8C-98,592.5-98.9,592.7-98.7,593.3"
		/>
	<path d="M-96.4,593.2c0.3,0.4,0.5,0.8,0.8,1.3s1.1,0,0.8-0.5c-0.3-0.4-0.5-0.8-0.8-1.3S-96.8,592.7-96.4,593.2"/>
	<path d="M-93.3,592.8c0.5,0.6,1,1.2,1.5,1.8c0.4,0.5,1.1-0.2,0.7-0.7l-1.5-1.8C-93.1,591.6-93.7,592.3-93.3,592.8"/>
	<path d="M-99.8,629.8c-0.5,0-0.5,0.8,0,0.8c4.2-0.5,8.5-0.7,12.8-0.4c0-0.3,0-0.5,0-0.8C-91.3,629.1-95.5,629.2-99.8,629.8z"/>
	<path d="M-111.7,628.2c8.5-2.1,17.2-3,26-2.6c0.5,0,0.5-0.8,0-0.8c-8.8-0.3-17.6,0.5-26.2,2.6
		C-112.4,627.6-112.2,628.4-111.7,628.2"/>
	<path d="M-104.9,626.5c0.3,1.2,0.5,2.3,0.8,3.5c0.1,0.5,0.9,0.3,0.8-0.2c-0.3-1.2-0.5-2.3-0.8-3.5
		C-104.2,625.8-105,626-104.9,626.5"/>
	<path d="M-103.6,626.5c0.2,1.1,0.3,2.1,0.5,3.2c0.1,0.5,0.9,0.3,0.8-0.2c-0.2-1.1-0.3-2.1-0.5-3.2
		C-102.8,625.8-103.6,626-103.6,626.5"/>
	<path d="M-102,626.1c0.1,1.3,0.4,2.6,0.9,3.8c0.2,0.5,1,0.3,0.8-0.2c-0.4-1.2-0.7-2.4-0.8-3.6C-101.3,625.5-102.1,625.5-102,626.1"
		/>
	<path d="M-100.4,625.9c0,1.2,0.1,2.3,0.3,3.5c0.1,0.5,0.9,0.3,0.8-0.2c-0.1-1.1-0.2-2.2-0.3-3.2
		C-99.6,625.3-100.4,625.3-100.4,625.9"/>
	<path d="M-98.7,625.3c0.2,1.4,0.4,2.7,0.5,4.1c0.1,0.5,0.9,0.5,0.8,0c-0.2-1.4-0.4-2.7-0.5-4.1C-97.9,624.8-98.8,624.8-98.7,625.3"
		/>
	<path d="M-96.7,625.7c0.1,1.2,0.2,2.5,0.3,3.7c0,0.5,0.9,0.5,0.8,0c-0.1-1.2-0.2-2.5-0.3-3.7C-96,625.2-96.8,625.2-96.7,625.7"/>
	<path d="M-95.2,625.7c0,1.2,0.1,2.3,0.3,3.5c0.1,0.5,0.9,0.3,0.8-0.2c-0.2-1.1-0.3-2.2-0.3-3.2C-94.4,625.2-95.2,625.2-95.2,625.7"
		/>
	<path d="M-93.2,625.3c0.1,1.2,0.2,2.5,0.2,3.7c0,0.5,0.9,0.5,0.8,0c-0.1-1.2-0.2-2.5-0.2-3.7C-92.4,624.8-93.2,624.8-93.2,625.3"/>
	<path d="M-91.6,625.7c0.1,1.1,0.2,2.2,0.2,3.3c0,0.5,0.9,0.5,0.8,0c-0.1-1.1-0.2-2.2-0.2-3.3C-90.8,625.2-91.6,625.2-91.6,625.7"/>
	<path d="M-89.9,625.7c0.1,1.2,0.2,2.3,0.3,3.5c0,0.5,0.9,0.5,0.8,0c-0.1-1.2-0.2-2.3-0.3-3.5C-89.1,625.2-89.9,625.2-89.9,625.7"/>
	<path d="M-88.2,625.9c-0.1,1.1,0,2.2,0.2,3.3c0.1,0.5,0.9,0.3,0.8-0.2c-0.2-1-0.2-2-0.2-3C-87.3,625.3-88.1,625.3-88.2,625.9"/>
	<path d="M-116.5,616.2c1.9-0.8,3.8-1.3,5.8-1.6c0.5-0.1,0.3-0.9-0.2-0.8c-2.1,0.3-4.1,0.9-6,1.7
		C-117.4,615.7-116.9,616.4-116.5,616.2"/>
	<path d="M-117.3,616.5c0.3,1.1,0.5,2.2,0.8,3.3c0.1,0.5,0.9,0.3,0.8-0.2c-0.3-1.1-0.5-2.2-0.8-3.3
		C-116.6,615.8-117.4,616-117.3,616.5"/>
	<path d="M-115.9,620.2c1.5-0.7,3.1-1,4.8-1.1c0.5,0,0.5-0.8,0-0.8c-1.8,0.1-3.6,0.5-5.2,1.2C-116.8,619.7-116.4,620.4-115.9,620.2"
		/>
	<path d="M-116.7,616.2c0.3,1.1,0.5,2.2,0.8,3.3c0.1,0.5,0.9,0.3,0.8-0.2c-0.3-1.1-0.5-2.2-0.8-3.3
		C-116,615.4-116.8,615.6-116.7,616.2"/>
	<path d="M-115.4,615.6c0.2,1.1,0.5,2.2,0.7,3.3c0.1,0.5,0.9,0.3,0.8-0.2c-0.2-1.1-0.5-2.2-0.7-3.3
		C-114.7,614.9-115.5,615.1-115.4,615.6"/>
	<path d="M-113.8,615.1c0.1,1.3,0.3,2.6,0.7,3.8c0.1,0.5,0.9,0.3,0.8-0.2c-0.3-1.2-0.5-2.4-0.6-3.6
		C-113,614.6-113.8,614.6-113.8,615.1"/>
	<path d="M-112.4,614.9l0.4,3.7c0.1,0.5,0.9,0.5,0.8,0l-0.4-3.7C-111.6,614.4-112.4,614.4-112.4,614.9"/>
	<path d="M-87.4,612.7c1.8-0.1,3.6,0.1,5.3,0.5c0.5,0.1,0.7-0.7,0.2-0.8c-1.8-0.5-3.6-0.7-5.5-0.6
		C-87.9,611.9-87.9,612.7-87.4,612.7"/>
	<path d="M-87.7,617.1c1.7-0.4,3.5-0.6,5.3-0.7c0.5,0,0.5-0.8,0-0.8c-1.9,0.1-3.7,0.3-5.5,0.7C-88.4,616.4-88.2,617.2-87.7,617.1"/>
	<path d="M-87.6,612.5c0.1,1.1,0.3,2.2,0.4,3.3c0.1,0.5,0.9,0.5,0.8,0c-0.1-1.1-0.3-2.2-0.4-3.3C-86.9,612-87.7,612-87.6,612.5"/>
	<path d="M-85.9,612.3c-0.3,1.2-0.3,2.5-0.1,3.7c0.1,0.5,0.9,0.3,0.8-0.2c-0.2-1.1-0.1-2.2,0.1-3.3C-85,612-85.8,611.7-85.9,612.3"
		/>
	<path d="M-84.7,612.9c0.1,1,0,2-0.2,3c-0.1,0.5,0.7,0.7,0.8,0.2c0.2-1.1,0.3-2.2,0.2-3.3C-83.9,612.4-84.7,612.4-84.7,612.9"/>
	<path d="M-83.6,613.5c0.1,0.9,0,1.8-0.1,2.7c-0.1,0.5,0.7,0.7,0.8,0.2c0.2-1,0.3-1.9,0.2-2.9C-82.8,612.9-83.6,612.9-83.6,613.5"/>
	<path d="M-82.1,612.8l-0.7,3c-0.1,0.5,0.7,0.7,0.8,0.2l0.7-3C-81.2,612.5-82,612.3-82.1,612.8"/>
	<path d="M-83,616.5c0.2,1.5,0.4,3,0.6,4.4c0.1,0.5,0.9,0.3,0.8-0.2c-0.2-1.5-0.4-3-0.6-4.4C-82.3,615.8-83.1,616-83,616.5"/>
	<path d="M-82.1,613.4c0.4,2.5,0.8,5.1,1,7.7c0,0.5,0.9,0.5,0.8,0c-0.2-2.7-0.6-5.3-1-7.9C-81.4,612.6-82.2,612.9-82.1,613.4"/>
	<path d="M-117.1,620.5c0.2,1.2,0.5,2.5,0.7,3.7c0.1,0.6,1,3.3,0.6,3.8c0.2,0,0.4-0.1,0.6-0.1c0,0.1,0.1,0.1,0.1,0.2
		c-0.1,0.1-0.3,0.3-0.4,0.4c0,0,0,0,0.1,0c0.5,0,0.5-0.8,0-0.8c0,0,0,0-0.1,0c-0.2,0-0.4,0.2-0.4,0.4v0.1c0,0.1,0.1,0.3,0.2,0.4h0.1
		c0.2,0.1,0.4,0,0.6-0.1c0.5-0.7-0.2-2.2-0.3-3c-0.3-1.7-0.6-3.5-1-5.2C-116.4,619.7-117.2,620-117.1,620.5"/>
	<path d="M-117.9,616.2c0.8,3.9,1.4,7.7,1.9,11.6c0.3,0,0.5-0.1,0.8-0.1l-0.1-0.7c-0.1-0.5-0.9-0.3-0.8,0.2c0,0.2,0.1,0.4,0.1,0.7
		c0.1,0.5,0.9,0.4,0.8-0.1c-0.5-4-1.1-7.9-1.9-11.9C-117.2,615.5-118,615.7-117.9,616.2"/>
	<path d="M-116.4,619.9c0.3,2.7,0.7,5.4,1,8.2c0.1,0.5,0.9,0.5,0.8,0c-0.3-2.7-0.7-5.4-1-8.2C-115.7,619.4-116.5,619.4-116.4,619.9"
		/>
	<path d="M-82.2,615.1c0.2,1.8,0.4,3.6,0.5,5.4c0.3,0,0.5-0.1,0.8-0.1c-0.3-1.7-0.6-3.4-0.9-5c-0.1-0.5-0.9-0.3-0.8,0.2
		c0.3,1.7,0.6,3.4,0.9,5c0.1,0.4,0.8,0.4,0.8-0.1c-0.2-1.8-0.3-3.6-0.5-5.4C-81.4,614.6-82.3,614.6-82.2,615.1"/>
	<path d="M-87.7,628.5c-0.2,7.6-0.3,15.2-0.1,22.8l1,0.3c-0.2-7.7-0.2-15.4,0.1-23.1C-86.7,628.1-87.7,628.1-87.7,628.5"/>
	<path d="M-87.6,628.4c7.8,0.8,15.6,0.6,23.3-0.5c-0.2-0.2-0.4-0.3-0.6-0.5c-1.5,14.6,1.7,14.9-0.2,29.4c-0.1,0.6,0.9,0.6,1,0
		c1.9-14.5-1.3-14.8,0.2-29.4c0-0.4-0.3-0.5-0.6-0.5c-7.6,1.1-15.4,1.3-23.1,0.5C-88.2,627.4-88.2,628.4-87.6,628.4"/>
	<path d="M-82.5,634.5c1.5-0.2,2.9-0.1,4.4,0.1c-0.1-0.2-0.2-0.3-0.4-0.5c0,1.6,0,3.3,0,4.9c0,0.6,1,0.6,1,0c0-1.6,0-3.3,0-4.9
		c0-0.2-0.2-0.4-0.4-0.5c-1.6-0.3-3.1-0.3-4.7-0.2C-83.1,633.6-83.1,634.6-82.5,634.5"/>
	<path d="M-83.2,635.3c0.1,1.2,0.2,2.4,0.3,3.6c0,0.3,0.2,0.5,0.5,0.5c1.4-0.1,2.8,0.1,4.1,0.4c0.6,0.1,0.9-0.8,0.3-1
		c-1.5-0.3-2.9-0.5-4.4-0.4c0.2,0.2,0.3,0.3,0.5,0.5c-0.1-1.2-0.2-2.4-0.3-3.6C-82.2,634.7-83.2,634.7-83.2,635.3"/>
	<path d="M-81.9,642.4c1.4,0.1,2.7,0.2,4.1,0.3c-0.2-0.2-0.3-0.3-0.5-0.5c0.1,1.6,0.1,3.2,0,4.8c0,0.6,1,0.6,1,0c0-1.6,0-3.2,0-4.8
		c0-0.3-0.2-0.5-0.5-0.5c-1.4-0.1-2.7-0.2-4.1-0.3C-82.5,641.3-82.5,642.3-81.9,642.4"/>
	<path d="M-83,643c0,1.3,0,2.6,0,3.8c0,0.3,0.2,0.5,0.5,0.5c1.5-0.1,3-0.2,4.5-0.2c0.6,0,0.6-1,0-1c-1.5,0.1-3,0.2-4.5,0.2
		c0.2,0.2,0.3,0.3,0.5,0.5c0-1.3,0-2.6,0-3.8C-82,642.4-83,642.4-83,643"/>
	<path d="M-74.1,634.7c0,1.1,0,2.2,0.1,3.3c0,0.5,0.1,1,0.5,1.3c0.5,0.4,1.3,0.2,1.9,0.2c1.1,0,2.3,0,3.4,0c0.6,0,0.6-1,0-1h-1.9
		c-0.6,0-1.6,0.2-2.1,0c-0.9-0.2-0.7-1-0.8-1.8c0-0.7,0-1.4,0-2.1C-73.2,634.1-74.2,634.1-74.1,634.7"/>
	<path d="M-73.8,634.7c1.8-0.2,3.6,0.7,5.4,0.2c-0.2-0.2-0.4-0.3-0.6-0.5c0.1,1.3,0.1,2.6,0,3.9c0,0.6,1,0.6,1,0c0-1.3,0-2.6,0-3.9
		c0-0.3-0.3-0.6-0.6-0.5c-1.7,0.5-3.4-0.4-5.2-0.2C-74.4,633.8-74.4,634.8-73.8,634.7"/>
	<path d="M-74.4,642.4c0,0.8,0,1.5,0,2.3c0,0.4,0,0.8,0,1.2c0,0.2,0.1,0.9,0,1h0.7c0,0,0,0-0.1-0.1v0.7c0,0,0,0,0-0.1
		c0.4-0.5-0.3-1.2-0.7-0.7c0,0,0,0,0,0.1c-0.2,0.2-0.2,0.5,0,0.7c0,0,0,0,0.1,0.1c0.2,0.2,0.5,0.2,0.7,0c0.4-0.5,0.2-1.3,0.2-1.9
		c0-1.1,0-2.2,0-3.3C-73.4,641.8-74.4,641.8-74.4,642.4"/>
	<path d="M-73.7,642.4c1.7,0.4,3.5,0.4,5.2-0.1c-0.2-0.2-0.4-0.3-0.6-0.5c0,0.8-0.1,1.6-0.1,2.4c0,0.4,0.1,1.7-0.1,1.9
		c-0.1,0.2-1.9,0.1-2.2,0.1c-0.9,0.1-1.7,0.1-2.6,0.2c-0.6,0-0.6,1,0,1l3.5-0.2c0.6,0,1.5,0.1,2-0.3c0.4-0.4,0.3-1.1,0.3-1.6
		c0.1-1.2,0.1-2.3,0.2-3.5c0-0.3-0.3-0.5-0.6-0.5c-1.6,0.4-3.1,0.4-4.7,0.1C-74.1,641.3-74.4,642.3-73.7,642.4"/>
	<path d="M-79.4,650.1c0.2,1.9,0.1,3.8-0.3,5.8l0.5,0.6c0.2,0,0.4-0.1,0.4-0.4c0.4-2,0.5-4,0.3-6C-78.4,649.5-79.4,649.5-79.4,650.1
		"/>
	<path d="M-78.7,650.3h2.8c0.7,0,2.1-0.3,2.6,0.2s0.4,2,0.4,2.7c0,1,0,2,0,3c0,0.6,1,0.6,1,0c0-1.3,0-2.6,0-4c0-0.7,0.2-2.1-0.4-2.7
		c-0.5-0.5-1.7-0.2-2.3-0.2c-1.3,0-2.7,0-4,0C-79.3,649.3-79.3,650.3-78.7,650.3"/>
	<path d="M-89,628.6c0.4-0.3,0.9-0.3,1.4-0.1c0.5,0.3,1-0.5,0.5-0.9c-0.7-0.4-1.7-0.4-2.4,0.1C-90.1,628.1-89.6,628.9-89,628.6"/>
	<path d="M-88.9,628l2.9-2.9c0.5-0.4-0.2-1.1-0.7-0.7l-2.9,2.9C-90.1,627.7-89.4,628.4-88.9,628"/>
	<path d="M-87.1,624.9c4.6,0.4,9.2,0.5,13.8,0.3c2.1-0.1,4.4-0.6,6.5-0.4c1.7,0.1,2.7,2.1,4.1,3c0-0.3,0.1-0.6,0.1-0.9
		c-0.5,0.1-0.9,0-1.3-0.3c-0.5-0.4-1.2,0.3-0.7,0.7c0.7,0.6,1.3,0.7,2.2,0.6c0.5-0.1,0.4-0.7,0.1-0.9c-1.1-0.7-1.5-1.6-2.3-2.5
		c-0.4-0.4-0.5-0.6-1.1-0.7c-0.8-0.2-1.8,0.1-2.7,0.2c-1.3,0.1-2.5,0.2-3.8,0.3c-5,0.3-9.9,0.2-14.9-0.2
		C-87.8,623.9-87.8,624.9-87.1,624.9"/>
	<path d="M-86.5,628.7l1.9-3.1c0.3-0.5-0.5-1-0.9-0.5l-1.9,3.1C-87.6,628.7-86.8,629.2-86.5,628.7"/>
	<path d="M-84,626.2c-0.2,0.5-0.4,1.1-0.5,1.6c-0.2,0.6,0.8,0.9,1,0.3c0.2-0.5,0.4-1.1,0.5-1.6C-82.9,625.8-83.8,625.6-84,626.2"/>
	<path d="M-82.2,626.7c-0.2,0.6-0.4,1.2-0.5,1.8c-0.2,0.6,0.8,0.9,1,0.3c0.2-0.6,0.4-1.2,0.5-1.8C-81,626.3-82,626.1-82.2,626.7"/>
	<path d="M-79.8,625.9c-0.1,0.6-0.2,1.2-0.3,1.8c0,0.3,0.1,0.5,0.3,0.6c0.2,0.1,0.6-0.1,0.6-0.3c0.1-0.6,0.2-1.2,0.3-1.8
		c0-0.3-0.1-0.5-0.3-0.6C-79.4,625.5-79.8,625.6-79.8,625.9"/>
	<path d="M-77.2,627.1c0.6,0,0.6-1,0-1C-77.8,626.1-77.8,627.1-77.2,627.1"/>
	<path d="M-75,626.4c0.2,0.6,0.4,1.2,0.5,1.8c0.2,0.6,1.1,0.3,1-0.3c-0.2-0.6-0.4-1.2-0.5-1.8C-74.2,625.6-75.2,625.8-75,626.4"/>
	<path d="M-72.6,626.3c0.3,0.4,0.5,0.9,0.8,1.3c0.3,0.5,1.2,0,0.9-0.5c-0.3-0.4-0.5-0.9-0.8-1.3C-72.1,625.2-73,625.7-72.6,626.3"/>
	<path d="M-69.4,625.9c0.5,0.6,1,1.2,1.6,1.8c0.4,0.5,1.1-0.2,0.7-0.7l-1.6-1.8C-69.1,624.7-69.8,625.4-69.4,625.9"/>
	<path d="M-129.3,644.9c17.5-1.5,35.1,1.4,50.2,11.8c0.5,0.4,1-0.5,0.5-0.9c-14.9-10.3-33-13.4-50.7-12V644.9z"/>
	<path d="M-95.5,640.1c2.5-0.2,5-0.2,7.5,0c0.5,0.1,0.5-0.8,0-0.9c-2.5-0.2-5-0.2-7.5,0C-96,639.3-96,640.2-95.5,640.1"/>
	<path d="M-96,639.8l0.8,4.2c0.1,0.5,0.9,0.3,0.8-0.2c-0.3-1.4-0.6-2.8-0.8-4.2C-95.3,639-96.1,639.2-96,639.8"/>
	<path d="M-95.3,643.9c-0.1,1.3-0.3,2.6-0.4,3.8c-0.1,0.5,0.8,0.5,0.9,0c0.1-1.3,0.3-2.6,0.4-3.8C-94.4,643.3-95.2,643.3-95.3,643.9
		"/>
	<path d="M-96.2,640.2c0,2.3,0,4.6,0,6.9c0,0.5,0.8,0.5,0.9,0c0-2.3,0-4.6,0-6.9C-95.4,639.7-96.2,639.7-96.2,640.2"/>
	<path d="M-94.3,644.2c1.7,0.1,3.4,0.3,5.1,0.4c0.7,0,1.5,0,1.5-0.8c0-0.5-0.8-0.5-0.9,0c0,0-5.2-0.4-5.7-0.4
		C-94.9,643.3-94.9,644.2-94.3,644.2"/>
	<path d="M-94.8,640.3l0.4,3.1c0.1,0.5,0.9,0.3,0.8-0.2l-0.4-3.1C-94.1,639.6-94.9,639.8-94.8,640.3"/>
	<path d="M-93.4,640c0.1,1.2,0.2,2.3,0.3,3.5c0,0.5,0.9,0.5,0.9,0c-0.1-1.2-0.2-2.3-0.3-3.5C-92.6,639.5-93.5,639.5-93.4,640"/>
	<path d="M-92.1,640.2c0.1,1.2,0.2,2.4,0.2,3.7c0,0.5,0.9,0.5,0.9,0c-0.1-1.2-0.2-2.4-0.2-3.7C-91.3,639.7-92.2,639.7-92.1,640.2"/>
	<path d="M-90.3,640.4c-0.1,1.2-0.1,2.4,0.1,3.7c0.1,0.5,0.9,0.5,0.9,0c-0.2-1.2-0.2-2.4-0.1-3.7C-89.4,639.9-90.3,639.9-90.3,640.4
		"/>
	<path d="M-64.3,639.8c2.6,0.3,5.1,0.5,7.7,0.8c0.5,0.1,0.5-0.8,0-0.9c-2.6-0.3-5.1-0.5-7.7-0.8C-64.9,638.9-64.9,639.7-64.3,639.8"
		/>
	<path d="M-64.1,644.8c2.2-0.1,4.4-0.2,6.5-0.1c0.5,0,0.5-0.8,0-0.9c-2.2-0.1-4.4-0.1-6.5,0.1C-64.7,644-64.7,644.8-64.1,644.8"/>
	<path d="M-57.1,640.2c-0.1,1.3-0.2,2.7-0.3,4c0,0.5,0.8,0.5,0.9,0c0.1-1.3,0.2-2.7,0.3-4C-56.2,639.7-57.1,639.7-57.1,640.2"/>
	<path d="M-63.6,639.6c-0.1,1.3-0.2,2.7-0.2,4c0,0.5,0.8,0.5,0.9,0c0.1-1.3,0.2-2.7,0.2-4C-62.7,639.1-63.5,639.1-63.6,639.6"/>
	<path d="M-62.6,640.4v3.3c0,0.5,0.9,0.5,0.9,0v-3.3C-61.8,639.9-62.6,639.9-62.6,640.4"/>
	<path d="M-61.1,640.4c0,0.9,0,1.9-0.2,2.8c-0.1,0.5,0.7,0.8,0.8,0.2c0.2-1,0.3-2,0.2-3C-60.3,639.9-61.1,639.9-61.1,640.4"/>
	<path d="M-59.6,640.4c0,1.2-0.1,2.3-0.1,3.5c0,0.5,0.8,0.5,0.9,0c0-1.2,0.1-2.3,0.1-3.5C-58.7,639.9-59.5,639.9-59.6,640.4"/>
	<path d="M-58,640.5c-0.2,1-0.3,2-0.5,3.1c-0.1,0.5,0.7,0.8,0.8,0.2c0.2-1,0.3-2,0.5-3.1C-57.1,640.2-57.9,640-58,640.5"/>
	<path d="M-56.7,640.4c0.5,6.8,0.8,13.5,0.9,20.3c0.3,0,0.6-0.1,0.8-0.1c0-0.2-0.1-0.3-0.1-0.5c-0.1-0.5-1-0.3-0.8,0.2
		c0,0.2,0.1,0.3,0.1,0.5c0.1,0.5,0.8,0.4,0.8-0.1c-0.1-6.8-0.4-13.6-0.9-20.3C-55.9,639.9-56.7,639.9-56.7,640.4"/>
	<path d="M-57.5,644.5c0.8,5.6,1,11.3,0.6,17c0,0.5,0.8,0.5,0.9,0c0.4-5.8,0.2-11.5-0.7-17.2C-56.8,643.8-57.6,644-57.5,644.5"/>
	<path d="M-76.6,659.8c3.4,0.1,6.8,0.1,10.2,0.2c1.7,0,3.3,0.1,5,0.1c0.9,0,1.8,0,2.6,0.1c0.4,0,0.9,0,1.3,0
		c0.6,0.2,0.8,0.1,0.5-0.2c0.2-0.1,0.3-0.2,0.5-0.3h-0.1c-0.5-0.1-0.8,0.7-0.2,0.8h0.1c0.2,0,0.4-0.1,0.5-0.3c0-0.1,0-0.1,0.1-0.2
		c0.1-0.2-0.1-0.4-0.2-0.5c-0.8-0.6-2.6-0.2-3.5-0.3c-1.9,0-3.7-0.1-5.6-0.1c-3.7-0.1-7.5-0.2-11.2-0.2
		C-77.2,658.9-77.2,659.8-76.6,659.8"/>
	<path d="M-76.8,663.6c6.9-0.3,13.9-0.3,20.8,0.1c0.5,0,0.5-0.8,0-0.9c-6.9-0.4-13.9-0.4-20.8-0.1
		C-77.4,662.8-77.4,663.7-76.8,663.6"/>
	<path d="M-55.9,659.5c-0.2,0.7-0.4,1.5-0.5,2.2c0,0.3-0.1,0.5-0.1,0.8c0,0.1,0,0.2,0,0.3c0,0.1-0.1,0.3,0,0.1
		c0.3,0,0.6,0.1,0.8,0.1c0-0.1,0-0.1,0-0.2c0.1-0.5-0.8-0.5-0.9,0c0,0.1,0,0.1,0,0.2c0,0.5,0.7,0.5,0.8,0.1c0.1-0.4,0.1-0.8,0.1-1.2
		c0.1-0.8,0.3-1.5,0.5-2.2C-55,659.2-55.8,659-55.9,659.5"/>
	<path d="M-76.3,659.7c0,1.1,0.1,2.3,0.2,3.4c0.1,0.5,0.9,0.3,0.8-0.2c-0.2-1-0.2-2.1-0.2-3.2C-75.4,659.1-76.3,659.1-76.3,659.7"/>
	<path d="M-75,659.8c0.1,1,0.2,2.1,0.2,3.1c0,0.5,0.9,0.5,0.9,0c-0.1-1-0.2-2.1-0.2-3.1C-74.2,659.3-75,659.3-75,659.8"/>
	<path d="M-72.8,659.8v3.1c0,0.5,0.9,0.5,0.9,0v-3.1C-72,659.3-72.8,659.3-72.8,659.8"/>
	<path d="M-71.1,660v2.5c0,0.5,0.9,0.5,0.9,0V660C-70.3,659.5-71.1,659.5-71.1,660"/>
	<path d="M-69.4,659.7l-0.1,2.9c0,0.5,0.8,0.5,0.9,0l0.1-2.9C-68.5,659.1-69.3,659.1-69.4,659.7"/>
	<path d="M-68,660c0.2,1,0.2,2,0.2,3c0,0.5,0.8,0.5,0.9,0c0.1-1.1,0-2.1-0.2-3.2C-67.3,659.2-68.1,659.4-68,660"/>
	<path d="M-66.1,660.4c0,0.8,0,1.5-0.1,2.3c0,0.5,0.8,0.5,0.9,0c0-0.8,0-1.5,0.1-2.3C-65.2,659.9-66.1,659.9-66.1,660.4"/>
	<path d="M-64.3,660.3c-0.2,0.8-0.3,1.6-0.3,2.4c0,0.5,0.9,0.5,0.9,0c0-0.7,0.1-1.5,0.2-2.2C-63.4,660-64.2,659.8-64.3,660.3"/>
	<path d="M-62.4,660.5c-0.1,0.6-0.2,1.1-0.2,1.7c0,0.2,0.1,0.5,0.3,0.5c0.2,0.1,0.5-0.1,0.5-0.3c0.1-0.6,0.2-1.1,0.2-1.7
		c0-0.2-0.1-0.5-0.3-0.5C-62.1,660.1-62.4,660.3-62.4,660.5"/>
	<path d="M-60.9,660.2c0,0.7-0.1,1.4-0.1,2.1c0,0.5,0.8,0.5,0.9,0c0-0.7,0.1-1.4,0.1-2.1C-60,659.7-60.9,659.7-60.9,660.2"/>
	<path d="M-58.9,659.9c-0.3,0.8-0.3,1.7-0.2,2.5c0.1,0.5,0.9,0.3,0.8-0.2c-0.1-0.7-0.1-1.4,0.2-2.1
		C-57.9,659.7-58.7,659.4-58.9,659.9"/>
	<path d="M-57.3,660.5c-0.1,0.8-0.2,1.7-0.3,2.5c-0.1,0.5,0.7,0.8,0.8,0.2c0.1-0.8,0.2-1.7,0.3-2.5
		C-56.4,660.2-57.2,659.9-57.3,660.5"/>
	<path d="M-79.5,656.1c1,0.9,1.8,2,2.4,3.2c0.3,0.5,1,0,0.7-0.4c-0.7-1.2-1.6-2.3-2.6-3.3C-79.3,655.2-79.9,655.8-79.5,656.1"/>
	<path d="M22,645.5c1.5,0.3,2.4,1.2,2.6,2.8c0.1,0.4,0.3,0.7,0.4,1.1c0.5,1.4,0.7,2.8,0.8,4.2c0.2,2.6,0,5.3-0.5,7.9
		c-1,5.3-3.2,10.3-4.9,15.4c-0.9,2.5-1.6,5.1-2.1,7.7c-0.5,2.4-1,5.1-2.5,7.1c-2.9,3.5-2-4.1-1.8-5.5c0.4-3,0.9-6,1.5-9
		c0.2-1.2-1.6-1.5-1.8-0.4c-0.4,2.3-5.1,20.2,0.9,18.1c2.4-0.9,3.8-3.7,4.6-6c1.6-4.9,2.5-9.9,4.2-14.8c2.8-7.7,5.9-16,3.7-24.3
		c-0.5-1.9-1.8-6.4-4.4-6.6c-1.8-0.2-2.8,1.3-2.4,2.9C20.5,647.2,22.3,646.6,22,645.5"/>
	<path d="M22.5,644.8c4.7,2.9,10.4,3.2,15.4,0.8c1-0.5,0.5-2.2-0.6-1.7c-4.6,2.2-9.6,2-14-0.7C22.3,642.5,21.5,644.2,22.5,644.8"/>
	<path d="M13.4,695.7c6.4-1.5,12.6,0.3,18.5,2.6c2.3,0.9,5.5,2.9,7.9,3c0.8,0.1,1,0.3,1.8-0.2c0.4-0.2,0.5-0.9,0.3-1.3
		c-0.1-0.1-0.1-0.2-0.2-0.3c-0.3-0.4-0.9-0.6-1.3-0.3c-0.1,0-0.1,0.1-0.2,0.1c-0.9,0.7,0.1,2.2,1,1.5c0.1,0,0.1-0.1,0.2-0.1
		l-1.3-0.3c0.1,0.1,0.1,0.2,0.2,0.3l0.3-1.3c-1,0.6-6.6-2.5-7.9-3c-2.2-0.9-4.5-1.7-6.8-2.3c-4.4-1.2-8.7-1.5-13.2-0.4
		C11.6,694.2,12.2,695.9,13.4,695.7"/>
	<path d="M38.8,646.2c0.2-6.7,8-5.6,11.6-2.6c2,1.7,3.4,3.2,6.3,3.1c3.1-0.1,5.9-1.7,9-2c3.9-0.3,7.6,0.7,10.2,3.7
		c0.8,0.9,2-0.5,1.2-1.4c-2.6-2.9-6.1-4.1-9.9-4.2c-1.9,0-3.7,0.3-5.5,0.8c-1.5,0.4-3,1.1-4.5,1.2c-3,0.2-3.9-1.3-5.9-2.9
		c-5-4.1-14-3.3-14.2,4.5C36.9,647.5,38.8,647.4,38.8,646.2"/>
	<path d="M36.5,647.1c1.6,2.3,4,2.9,6.4,4.1c4.9,2.4,5.2,8,4.7,12.8c-0.9,8.5-5.4,16-7.7,24.1c-1.6,5.5-1.7,12,2.3,16.5
		c4.8,5.3,12.6,4.2,18.8,3c1.1-0.2,1-2.1-0.1-1.8c-7.6,1.5-17.4,2.2-19.8-7.2c-2-8,3.1-16.3,5.6-23.6c2-5.7,3.8-12.2,2.5-18.3
		c-0.5-2.2-1.4-4.3-3.1-5.7c-2.5-2.1-6.1-2.2-8.1-4.9C37.3,645.1,35.8,646.1,36.5,647.1"/>
	<path d="M22.4,690c5.9,0.2,11.4,2.2,16.1,5.8c0.9,0.7,2.1-0.6,1.2-1.4c-5.1-4-11-6.1-17.4-6.3C21.1,688.1,21.2,689.9,22.4,690"/>
	<path d="M28.9,686c3.8,0.3,7.2,1.6,10.2,4c0.9,0.7,2.1-0.6,1.2-1.4c-3.2-2.6-6.9-4.1-11.1-4.5C28,684.1,27.7,685.9,28.9,686"/>
	<path d="M35.5,681.7c2.6,0,5,1.1,6.5,3.2c0.7,0.9,2.2-0.1,1.5-1c-2-2.6-4.9-4-8.2-4C34.2,679.8,34.3,681.7,35.5,681.7"/>
	<path d="M-37,636.8c-0.2,1.8,0,3.6,0.4,5.4c0.2,1.2,2,0.7,1.8-0.5c-0.4-1.6-0.4-3.2-0.3-4.9C-35.1,635.6-36.9,635.6-37,636.8"/>
	<path d="M-54.2,616.4h0.2c-0.2,0.7-0.3,1.6-0.7,2.3c-0.1,0.8-0.6,1.2-1.5,1.2c-0.2,0-0.4,0-0.6,0c-1.6,0.1-3.7-0.5-5.1-1.3
		c-1-0.6-1.4-1.7-0.5-2.6c0.7-0.7,1.8-0.8,2.7-0.7c1.6,0.2,3.1,0.8,4.7,1.2C-54.7,616.6-54.4,616.5-54.2,616.4 M-8.7,667.3
		c0.2,0.5,1,0.7,1.5,0.9c0.6,0.3,1.2,0.7,1.8,1c1.3,0.7,2.7,1.4,4,2.1c2.7,1.4,18.6,6,21.3,7.4c1,0.5,1.9-1,0.9-1.5
		c-2.4-1.3-11.8-4.1-18.2-6.3c-4.3-1.5-7.4-4-11.1-5.3c-0.6-0.2-1.4-0.3-1.7,0.4c-1.8,0.6-3.7,0.9-5.6,0.4c-2.3-0.6-4-2.6-5.7-4.2
		c-3.6-3.4-7.2-6.8-10.8-10.1c-0.8-0.8-2.1,0.5-1.3,1.3c4.3,4,8.5,8.1,12.8,12c1.6,1.4,3.2,2.6,5.4,3
		C-13.2,668.6-10.9,668.1-8.7,667.3z M-5.2,621c3.2,7.5,8.7,13.6,14.5,19.2c1.5,1.5,9.8,8.4,16.2,10.6c0.8,0.8,0.8-1.2,0-1.9
		c-7.7-4.1-13.3-8.3-14.7-9.8c-4.3-4.1-8.4-8.5-11.6-13.5c-1.7-2.8-2.7-5.6-4.4-8.5c-0.8-1.5-1.7-2.9-2.6-4.3
		c-1.7-2.5-3.5-4.9-5.4-7.3c0-0.2-0.2-0.4-0.4-0.5c-2.8-2-6.7-2.2-10-2.4c-4-0.3-8-0.2-12.1,0.2c-1.1,0.1-1.1,1.9,0,1.8
		c3.6-0.4,7.1-0.5,10.7-0.3c3.2,0.2,7.2,0.2,10,2l0.1,0.1c2.4,2.8,4.6,5.8,6.5,9c0.9,1.4,1.7,2.9,2.5,4.4
		C-5.6,620-5.4,620.5-5.2,621z M-23.4,617.6c-1,0.5-1.9,1-2.9,1.4c0.4-2.7,1.4-5.2,3-7.5c0.7-0.9-0.9-1.8-1.5-0.9
		c-1.9,2.7-3,5.7-3.3,9c-0.2,0.1-0.4,0.1-0.6,0.2c-0.6-3.8-0.4-7.6,0.5-11.3c0.3-1.1-1.4-1.6-1.7-0.5c-0.5,2.2-0.8,4.5-0.9,6.7h-4.6
		c-1.1,0-1.1,1.8,0,1.8h4.6c0,1.2,0.2,2.4,0.4,3.6c-3.4,0.6-6.9,0.3-10.3-0.8c-5.2-1.7-9.9-4.6-15.5-5.1c-2.1-0.7-4.5-1.3-6.4-0.2
		c-1,0.5-1.7,1.5-2,2.5c-0.1,0.1-0.2,0.2-0.2,0.4c-1,5,2.6,8.9,6.9,11c5.5,2.6,11.5,4.3,17.2,6.3c0.1,0.1,0.3,0.1,0.4,0
		c3.3,1.6,6.8,3.2,9.4,5.8c2.7,2.6,4.3,6.1,6.8,8.9c4.5,5,10.5,8.6,17,10.3c1.1,0.3,1.6-1.4,0.5-1.7c-6.8-1.8-12.9-5.7-17.3-11.1
		c-2.3-2.8-3.8-6.1-6.6-8.4c-2.7-2.3-5.9-3.9-9.1-5.4c-0.2-0.1-0.4-0.1-0.5-0.1c0,0-0.1,0-0.1-0.1c-4.8-1.7-9.6-3.3-14.3-5.1
		c-3.5-1.3-7.8-3.7-8.6-7.5c1.8,1.3,4.5,1.7,6.4,1.7c1,0,2.3,0.1,3-0.8c0.9-1,1.1-2.8,1.5-4.1c4.5,1.3,8.7,3.8,13.4,4.9
		c5.6,1.3,11.5,0.3,16.4-2.5C-21.5,618.6-22.4,617.1-23.4,617.6z"/>
</g>
</svg>
