<?xml version="1.0" encoding="utf-8"?>
<!-- Generator: Adobe Illustrator 19.1.1, SVG Export Plug-In . SVG Version: 6.00 Build 0)  -->
<svg version="1.1" id="Слой_1" xmlns="http://www.w3.org/2000/svg" xmlns:xlink="http://www.w3.org/1999/xlink" x="0px" y="0px"
	 viewBox="-172.9 595.3 248.3 172.7" style="enable-background:new -172.9 595.3 248.3 172.7;" xml:space="preserve">
<style type="text/css">
	.st0{fill:#F39600;}
	.st1{fill:#00040B;}
</style>
<polygon class="st0" points="-96.2,655.2 -94.8,658.1 -93.4,660.3 -93.7,663.5 -95.3,667.8 -89.2,670.2 -88.8,661.2 -85.6,657.3 
	-87.4,652.5 -89.8,650.9 -93.7,652.4 "/>
<polygon class="st0" points="-106.4,665.7 -103.9,666.9 -102,664.8 -65.1,682 -68.7,693.1 -74.6,693.2 -80.9,694.4 -81.7,696.7 
	-84.6,697.3 -83.9,700.8 -83.6,702.8 -82.7,704.5 -83.3,706.5 -79.5,709 -76.8,711.6 -83,727.9 -86.9,733.7 -98.2,727.4 
	-122.5,717.4 -125.2,716.5 -119.4,702.8 -112.1,685.9 -110,677.2 "/>
<polygon class="st0" points="-21.1,627.6 -19.3,626.4 -21.1,619.3 -15.3,615.5 -4.5,611.6 3.1,610.3 9.2,610.7 11.1,611.2 
	9.2,605.7 4.1,599.4 1.7,598.8 -3.5,596 -7.8,596.2 -9.8,598 -14.6,599.9 -19.3,604.6 -21.4,611.6 -22.6,618.2 -23.4,622.1 
	-23.4,624.6 -22.1,627.2 "/>
<polygon class="st0" points="10.9,621 13.3,618.9 15.9,616.1 15.4,614.2 11.1,611.2 9.8,615.2 9.7,619.5 "/>
<polygon class="st0" points="-33.2,681.3 -23.8,677.2 -22.6,679.2 -12.3,673.4 -3.9,670.3 -4.4,668.2 4.6,665.1 26.1,715.8 
	-1.1,727.9 -10.8,733.7 -18.7,718.6 -20.9,710.5 -16.5,707.6 -14.6,705.8 -14.7,704.4 -13.9,702.5 -13.9,700.5 -12.7,698.6 
	-13.9,697.1 -17.2,696.6 -16,695.3 -18.2,693.9 -25.8,693.1 -29,693.9 "/>
<path class="st1" d="M-20.9,626.9c-3.6-1.1-1.8-5.3,0.1-6.9c1.6-1.4,3.7-2.4,5.5-3.4c4.1-2.1,8.4-3.8,12.8-4.8
	c4.2-0.9,9.3-1.5,13.4,0.1c1.7,0.7,5.3,2.5,3.5,5.2c-0.3,0.5-1.2,0.9-1.7,1.2c-1,0.7-1.8,1.2-2.5,2.2c-0.6,0.8,0.7,1.5,1.3,0.8
	c1.3-1.7,4.1-2.2,4.9-4.4c0.7-2.1-0.8-3.9-2.4-5c-5-3.6-12.4-2.6-17.9-1.3c-6,1.4-13.3,4.1-18,8.3c-2.9,2.5-4,8,0.6,9.4
	C-20.3,628.6-19.9,627.1-20.9,626.9"/>
<path class="st1" d="M-22,620.6c0.2-4.8,1-9.9,3-14.3c2.1-4.7,5.8-6.5,10.5-7.9c-0.3-0.3-0.6-0.6-0.9-0.9c0,0.1-0.1,0.1-0.1,0.2
	c-0.8,0.5-0.1,1.8,0.8,1.3c0.5-0.3,0.6-0.5,0.8-1.1c0.2-0.5-0.4-1.1-0.9-0.9c-4.7,1.4-8.7,3.2-11,7.7c-2.5,4.8-3.4,10.5-3.7,15.9
	C-23.5,621.6-22,621.6-22,620.6"/>
<path class="st1" d="M-11.9,598.1c1-1.5,3.8,0.5,4.7,1.3c1.2,1,2,2.3,2.5,3.7c0.3,0.9,1.8,0.5,1.4-0.4c-0.8-2.4-2.4-4.4-4.6-5.6
	c-1.7-0.9-4-1.6-5.3,0.3C-13.8,598.1-12.5,598.9-11.9,598.1"/>
<path class="st1" d="M-10.8,597.3c2.4-0.3,4.9-0.8,7.3-0.5c4,0.4,5.4,3.4,6.4,6.9c0.3,0.9,1.7,0.5,1.5-0.4c-0.8-3-2-6-5-7.3
	c-3.1-1.3-6.9-0.5-10.2-0.1C-11.8,595.9-11.8,597.4-10.8,597.3"/>
<path class="st1" d="M2.2,599.6c4.6,1,7,7,7.9,11c0.2,0.9,1.7,0.5,1.5-0.4c-1-4.6-3.8-11-8.9-12.1C1.6,597.9,1.2,599.3,2.2,599.6"/>
<path class="st1" d="M10.1,612.3c-2.6,5,0,10.4-0.5,15.7c-0.3,3.4,1.4,8.6-2.9,9.8c-3.3,0.9-7.1,0.3-10.4-0.2
	c-0.9-0.2-1.4,1.3-0.4,1.5c4.1,0.7,12.9,2.4,15.1-2.8c0.6-1.5,0.2-3,0.1-4.5c-0.2-1.9,0.2-3.8,0.2-5.7c0-4.4-2.1-8.7,0.2-12.9
	C11.8,612.2,10.5,611.4,10.1,612.3"/>
<path class="st1" d="M5.7,615.9L5.7,615.9c-0.1,0.2-0.1,0.5-0.2,0.8l0.1-0.1c-0.3,0-0.6,0.1-0.9,0.1c-0.3-0.2,0.1,1.5,0.1,1.4
	c0.2,0.6,0.4,1.2,0.6,1.7c0.3,0.7,1.5,2.3,1.2,3c-0.4,1-2.4,0.6-3,1.9c-0.4,0.9,0.9,1.6,1.3,0.8c0.4-0.8,2-0.7,2.7-1.2
	c0.6-0.5,0.8-1.2,0.6-1.9c-0.2-1.4-1.3-2.7-1.8-4.1c-0.3-0.8-0.1-2.4-0.9-2.9c-0.3-0.2-0.7-0.1-0.9,0.1l-0.1,0.1
	c-0.3,0.2-0.3,0.6-0.1,0.9v0.1C4.8,617.6,6.1,616.8,5.7,615.9"/>
<path class="st1" d="M-1.7,617c0,0.5,0,1.1,0,1.6c0.5-0.1,1-0.1,1.5-0.2c-0.1-0.4-0.2-0.8-0.4-1.2c-0.1-0.3-0.4-0.6-0.7-0.6
	c-1.9,0.2-3.5,1-5,2.2c-0.7,0.6,0.3,1.7,1.1,1.1c1.1-0.9,2.5-1.6,3.9-1.7c-0.2-0.2-0.5-0.4-0.7-0.6c0.1,0.4,0.2,0.8,0.4,1.2
	c0.2,0.8,1.5,0.7,1.5-0.2c0-0.5,0-1.1,0-1.6C-0.2,616-1.7,616-1.7,617"/>
<path class="st1" d="M6,617.9c0.4-0.3,0.8-0.5,1.3-0.7c0.2-0.1,0.4-0.1,0.7-0.1c0.1,0,0.2,0,0.4,0c0.4,0.1,0.4-0.2,0.1-0.7
	c0.2-0.1,0.4-0.1,0.5-0.2H8.9c-1,0-1,1.5,0,1.5c0.5,0,0.9-0.4,1-0.9c0.1-0.6-0.4-1.1-1-1.2c-1.2-0.2-2.7,0.3-3.7,1
	C4.5,617.2,5.3,618.5,6,617.9"/>
<path class="st1" d="M7.4,617.2C7.2,617.3,7.4,617.2,7.4,617.2C7.3,617.2,7.6,617.2,7.4,617.2h0.1C7.5,617.2,7.5,617.2,7.4,617.2
	c0.1,0,0.2,0,0.1,0H7.4c0.1,0,0-0.1,0-0.1c0.1,0.1,0,0.1,0,0c0-0.1,0,0.1,0,0C7.4,617.2,7.4,617.2,7.4,617.2s0,0.1-0.1,0.1
	C7.2,617.3,7.2,617.3,7.4,617.2c-0.1,0.1-0.1,0.1-0.2,0.1c0.2,0-0.1,0,0,0C7.2,617.3,7.2,617.3,7.4,617.2
	C7.2,617.3,7.2,617.3,7.4,617.2C7.3,617.3,7.3,617.3,7.4,617.2C7.3,617.3,7.3,617.2,7.4,617.2C7.5,617.4,7.4,617.4,7.4,617.2
	C7.5,617.5,7.4,617.1,7.4,617.2C7.3,617.3,7.3,617.3,7.4,617.2c-0.2,0.3-0.1,0.8,0.3,1c0.3,0.2,0.9,0.1,1-0.3
	c0.3-0.7,0.1-1.4-0.6-1.9c-0.6-0.4-1.4-0.4-1.8,0.1c-1.1,1.2,0.5,3.1,1.9,2.3C9,618,8.2,616.7,7.4,617.2"/>
<path class="st1" d="M-2.4,619c0.1,0.1,0.2,0.2,0.3,0.3c0.7,0.7,1.7-0.4,1.1-1.1l-0.3-0.3C-2,617.3-3.1,618.4-2.4,619"/>
<path class="st1" d="M-1.6,630c2.9,2.3,5.4-2.8,8.4-0.3c0.7,0.6,1.8-0.4,1.1-1.1c-1.1-0.9-2.3-1.4-3.7-1.2c-1.3,0.2-3.6,2.4-4.7,1.5
	C-1.3,628.4-2.4,629.4-1.6,630"/>
<path class="st1" d="M8.3,629.3l0.3-0.3c0.7-0.7-0.4-1.7-1.1-1.1c-0.1,0.1-0.2,0.2-0.3,0.3C6.6,628.9,7.6,630,8.3,629.3"/>
<path class="st1" d="M-13.5,615.5c-0.2,3.2-0.5,6.4-0.7,9.6c-0.1,1,1.4,1,1.5,0c0.2-3.2,0.5-6.4,0.7-9.6
	C-11.9,614.5-13.4,614.5-13.5,615.5"/>
<path class="st1" d="M-15.3,625.7c0.2-1.3-1.3-2.1-2.5-1.8c-1.3,0.3-2.2,1.6-2.4,2.8c-0.8,3.9,3.1,5.9,6.1,7.2
	c0.9,0.4,1.3-1.1,0.4-1.5c-1.6-0.7-3.7-1.4-4.6-3c-0.3-0.6-0.5-1.2-0.5-1.9c0-0.4,0.1-0.8,0.3-1.2c0.1-0.2,0.2-0.4,0.4-0.5
	c0.3-0.4,0.7-0.5,1.3-0.1C-16.9,626.7-15.4,626.7-15.3,625.7"/>
<path class="st1" d="M-21.3,619.9c0.4,1.8,0.8,3.6,1.2,5.4c0.2,0.9,1.7,0.5,1.5-0.4c-0.4-1.8-0.8-3.6-1.2-5.4
	C-20.1,618.6-21.5,619-21.3,619.9"/>
<path class="st1" d="M-19.4,618.7c0.5,1.8,0.8,3.6,0.9,5.5c0,1,1.5,1,1.5,0c-0.1-2-0.4-4-0.9-5.9C-18.2,617.4-19.6,617.8-19.4,618.7
	"/>
<path class="st1" d="M-17,617.6c0.1,2.2,0.3,4.4,0.4,6.6c0.1,1,1.6,1,1.5,0c-0.1-2.2-0.3-4.4-0.4-6.6
	C-15.6,616.6-17.1,616.6-17,617.6"/>
<path class="st1" d="M-17.2,632.2c1.9,5.5,2.2,11.1,1,16.8c-0.2,0.9,1.2,1.3,1.5,0.4c1.3-5.9,1-11.8-1-17.6
	C-16.1,630.9-17.5,631.3-17.2,632.2"/>
<path class="st1" d="M6,639.2c0.3,1.3,0.6,2.6,0.9,3.9c0.2,0.9,1.7,0.5,1.5-0.4c-0.3-1.3-0.6-2.6-0.9-3.9
	C7.3,637.8,5.8,638.2,6,639.2"/>
<path class="st1" d="M-16.7,643.9c-4,3.1-5.3,7.2-6.1,12.1c0,0.2,0,0.6,0.2,0.7c1.7,1.4,3.2,2.9,4.4,4.8c0.4,0.6,1.5,0.4,1.4-0.4
	c-0.2-2.6,0-5.2,0.8-7.7c0.5-1.5,0.9-3.9,1.4-1.1c0.2,1.1,0.1,2.3,0.2,3.4c0.2,1.7,0.7,3.3,1.6,4.8c0.6,1,4,4.4,3.7,5.2
	c0.3-0.1,0.7-0.2,1-0.3c-0.1,0-0.1-0.1-0.2-0.1c0.1,0.3,0.2,0.7,0.3,1c0,0,0-0.1,0.1-0.1c0.5-0.9-0.8-1.6-1.3-0.8c0,0,0,0.1-0.1,0.1
	c-0.2,0.3-0.1,0.8,0.3,1c0.1,0,0.1,0.1,0.2,0.1c0.3,0.2,0.8,0.1,1-0.3c0.9-1.9-1.9-4.3-2.9-5.7c-1.7-2.4-2.1-4.7-2.3-7.5
	c-0.1-1,0.2-2.8-0.4-3.7c-0.9-1.3-2.1-0.7-2.8,0.5c-2,3-2.2,7.7-2,11.1c0.5-0.1,0.9-0.3,1.4-0.4c-0.7-1-1.3-1.9-2.1-2.8
	c-1.4-1.5-2.3-1.8-1.8-4c0.8-3.7,2.3-6.6,5.3-9C-14.8,644.3-15.9,643.3-16.7,643.9"/>
<path class="st1" d="M-16.7,645.4c-0.3,1.8,0.2,3.5,1.6,4.7c0.7,0.7,1.8-0.4,1.1-1.1c-0.9-0.8-1.4-2-1.2-3.3
	C-15.1,644.8-16.5,644.4-16.7,645.4"/>
<path class="st1" d="M7,642.1c-0.9,3.1-3.8,4.6-6.6,5.8c-2.2,1-5.4,1.4-7.3,2.8c-1.3,1-1.3,2.5-1.5,4c-0.3,3.2-0.6,6.3-0.9,9.5
	c-0.1,1,1.4,1,1.5,0c0.3-3,0.1-6.5,0.9-9.5c0.6-2.4,1.8-3.2,4-4c1-0.4,2-0.7,3-1.2c3.5-1.5,7.2-3.2,8.3-7.1
	C8.7,641.5,7.3,641.1,7,642.1"/>
<path class="st1" d="M-6.1,653.3c0.4-1.4,0.8,0.3,1,0.9c0.2,0.6,0.5,1.1,0.7,1.7c0.5,1.3,1.1,2.6,1.6,3.9c0.4,0.9,1.8,0.5,1.5-0.4
	c-0.6-1.5-1.2-3-1.8-4.5c-0.4-1-0.7-2.5-1.4-3.3c-1.2-1.5-2.6,0-2.9,1.3C-7.8,653.8-6.4,654.2-6.1,653.3"/>
<path class="st1" d="M-1.5,660.7c2.3-2.4,4.9-4.4,7.4-6.5c2.6-2.1,5.3-4.4,8.6-5.2c0.9-0.2,0.5-1.7-0.4-1.5
	c-2.9,0.7-5.4,2.5-7.7,4.3c-3.1,2.5-6.3,4.9-9,7.7C-3.3,660.3-2.2,661.4-1.5,660.7"/>
<path class="st1" d="M7.4,641.8c2.1,0,2.7,3,3.6,4.5c0.8,1.3,1.9,2.4,3.5,2.4c1,0,1-1.5,0-1.5c-2.1-0.1-2.7-3-3.6-4.5
	c-0.8-1.3-1.9-2.4-3.5-2.4C6.5,640.2,6.5,641.7,7.4,641.8"/>
<path class="st1" d="M-23.7,655.6c-3.2,3.3-8,4.5-10.7,8.3c-2.4,3.4-3.2,7.8-4.3,11.7c-3,10.5-5.8,21-7.2,31.9
	c-0.5,3.3-2,7.8,1.4,9.9c1,0.6,2.1,0.8,3,1.6c0.7,0.6,1.3,1.4,1.8,2.2c0.9,1.2,1.7,2.5,2.8,3.4c6.4,5.3,9.1-5.4,10-9.5
	c0.2-0.9-1.2-1.3-1.5-0.4c-0.6,2.9-1.3,9.6-5.3,9.7c-2.8,0-4.3-3.6-5.9-5.4c-0.8-0.9-1.6-1.6-2.6-2.2c-1.1-0.7-0.9-0.3-2-1.5
	c-1.2-1.3-1-1.6-0.8-3.1c0.4-4.7,1.2-9.4,2.2-14.1c1.7-8.3,4-16.6,6.3-24.7c1.1-4,2.1-8.1,5.6-10.8c2.7-2.1,5.8-3.3,8.2-5.8
	C-22,655.9-23,654.9-23.7,655.6"/>
<path class="st1" d="M-28.7,714c-1.9,0.2-3.8-0.3-5.1-1.7c-2-2-1.8-4.5-1.2-7.1c0.9-4.4,2.4-8.3,6.5-10.7c0.8-0.5,0.1-1.8-0.8-1.3
	c-5.1,3-7.5,9.1-7.6,14.9c-0.1,4.4,4,7.8,8.3,7.3C-27.7,715.4-27.7,713.9-28.7,714"/>
<path class="st1" d="M-33.6,698.4c-0.7-1-1.4-2-2.1-3c-0.6-0.8-1.9,0-1.3,0.8c0.7,1,1.4,2,2.1,3C-34.4,700-33.1,699.2-33.6,698.4"/>
<path class="st1" d="M-36.3,703.8c-1.3-0.7-2.7-1.3-4.2-1.7c-0.9-0.3-1.3,1.2-0.4,1.5c1.3,0.4,2.6,0.9,3.8,1.6
	C-36.2,705.5-35.5,704.2-36.3,703.8"/>
<path class="st1" d="M-31.1,725c0.9-2-0.4-3.6-2.1-4.6c-0.3-0.2-1.3-0.9-1.6-0.9c0,0,1,0.7,1.2,0.8c1,0.4,2,0.4,3.1,0.2
	c0.4-0.1,0.6-0.6,0.5-0.9c-0.3-1.4-0.9-2.5-1.8-3.5c-0.7-0.7-1.7,0.4-1.1,1.1c0.8,0.8,1.2,1.7,1.4,2.8l0.5-0.9c-1,0.2-1.9,0-2.8-0.6
	c-0.5-0.3-0.9-0.7-1.4-0.7c-0.7-0.1-1.4,0.3-1.7,1c-0.8,2.7,5.7,2.7,4.4,5.5C-32.8,725.1-31.5,725.9-31.1,725"/>
<path class="st1" d="M-28.4,694.5c2-0.4,4-0.5,6-0.4c1.1,0.1,2.2,0.2,3.3,0.4c0.3,0.1,0.6,0.1,0.9,0.2c0.9,0,1.3,0.4,1.1,1.2
	c-1,0-1,1.5,0,1.5c2.5,0.1,2.3-2.9,0.4-3.8c-3.5-1.7-8.4-1.2-12-0.5C-29.8,693.2-29.4,694.7-28.4,694.5"/>
<path class="st1" d="M-27,698.7c2.8-0.4,5.6-0.7,8.4-0.8c0.9,0,2.4-0.2,3.3-0.1c1.2-0.3,1.6,0.1,1.3,1.5c-0.4,0.3-0.9,0.5-1.4,0.7
	c-2.5,1.3-5.3,2.1-8.1,2.4c-1.1,0.1-2.4-0.1-3.3,0.7c-0.2,0.2-0.3,0.7-0.1,0.9c0.1,0.1,0.1,0.2,0.2,0.3c0.2,0.3,0.7,0.5,1,0.3
	c0.1,0,0.1-0.1,0.2-0.1c0.8-0.5,0.1-1.8-0.8-1.3c-0.1,0-0.1,0.1-0.2,0.1c0.3,0.1,0.7,0.2,1,0.3c1.3,1.8,7.9-0.9,9.3-1.5
	c1.5-0.6,5-1.9,4.4-4.2c-0.5-1.9-3.3-1.5-4.7-1.5c-3.7,0-7.4,0.4-11,0.9C-28.3,697.4-27.9,698.8-27,698.7"/>
<path class="st1" d="M-14.5,701c0.7,2-3.7,4-5.2,4.7c-2.2,1-4.5,1.6-6.8,1.9c-1,0.1-1,1.6,0,1.5c3.3-0.4,6.5-1.3,9.5-3
	c1.9-1.1,4.9-2.8,4-5.4C-13.4,699.7-14.8,700.1-14.5,701"/>
<path class="st1" d="M-15.4,705.2c1.6,1-2.9,3.1-3.1,3.2l-3.4,1.8c-2.5,1.3-5.1,3.1-7.8,3.6c-1,0.2-0.5,1.6,0.4,1.5
	c2.5-0.4,4.6-1.8,6.8-3s4.6-2.3,6.8-3.6c1.7-1,3.6-3.2,1.2-4.8C-15.4,703.3-16.2,704.6-15.4,705.2"/>
<path class="st1" d="M-33.9,681.5c1.4,4,2.8,7.9,4.2,11.9c0.3,0.9,1.8,0.5,1.5-0.4c-1.4-4-2.8-7.9-4.2-11.9
	C-32.8,680.2-34.2,680.6-33.9,681.5"/>
<path class="st1" d="M-33.1,682c3-1.6,6.2-3,9.5-4.1c0.9-0.3,0.5-1.8-0.4-1.5c-3.4,1.1-6.7,2.5-9.8,4.2
	C-34.7,681.1-34,682.4-33.1,682"/>
<path class="st1" d="M-22.2,679.9c6-3.5,12.3-6.5,18.8-8.9c0.9-0.3,0.5-1.8-0.4-1.5c-6.6,2.5-13,5.5-19.1,9
	C-23.8,679.1-23.1,680.4-22.2,679.9"/>
<path class="st1" d="M-4,668.9c2.7-1.2,5.5-2.3,8.3-3.2c0.9-0.3,0.5-1.7-0.4-1.4c-2.9,1-5.8,2.1-8.6,3.3C-5.6,668-4.9,669.3-4,668.9
	"/>
<path class="st1" d="M-2.9,669.5c-1-2.3-2.9-3.3-5.3-3.4c-1.8-0.1-3.1-0.3-4.7-0.8c-1.2-0.4-2.3-0.6-3.6-0.3
	c-2.7,0.7-3.3,2.6-4.2,4.9c-0.8,2.1-2.3,2.1-3.2,3.7c-0.8,1.4-0.4,3.5-0.3,5c0,1,1.5,1,1.5,0c-0.1-1.5-0.5-3.5,0.6-4.7
	c0.6-0.6,1.4-0.7,1.9-1.4c1.1-1.5,0.8-3.6,2.1-5c1.9-2,3.8-1,5.7,0c0.4,0.2,0.7,0.5,1.2,0.6c0.9,0.2,1.5-0.3,2.4-0.4
	c2.1-0.4,3.7,0.6,4.6,2.5C-3.8,671.2-2.5,670.4-2.9,669.5"/>
<path class="st1" d="M-16.4,670.6c0.3-0.8,1.3-1.3,2.1-0.8c0.9,0.4,1.6-0.8,0.8-1.3c-1.5-0.8-3.5-0.2-4.1,1.4
	C-18.1,670.7-16.8,671.5-16.4,670.6"/>
<path class="st1" d="M4,665.4c3.6,8.4,7.2,16.8,10.8,25.2c1.7,4,3.5,8,5.2,12c0.9,2.2,1.9,4.4,2.8,6.6c0.5,1.1,0.9,2.1,1.4,3.2
	c0.2,0.4,0.3,0.7,0.5,1.1c0.3,1.1,0.9,1.8,2.1,2.3c-0.3,0.3-0.5,0.5-0.8,0.8h0.1c1-0.1,1-1.6,0-1.5H26c-0.4,0-0.8,0.3-0.8,0.8
	c0,0.1,0,0.1,0,0.2c0,0.4,0.2,0.6,0.6,0.7c0.1,0,0.1,0,0.2,0.1c0.3,0.1,0.7-0.1,0.8-0.3c0.5-1,0-1.6-0.4-2.6
	c-0.9-2.1-1.8-4.3-2.8-6.4c-2-4.7-4.1-9.5-6.1-14.2c-4.1-9.5-8.2-19-12.2-28.5C4.9,663.8,3.6,664.6,4,665.4"/>
<path class="st1" d="M-21.6,711.8c2.2,7.9,5.6,15.4,10.2,22.2c0.2,0.3,0.7,0.5,1,0.3c5.2-4,11.4-6.3,17.3-8.9l20.2-8.9
	c0.9-0.4,0.1-1.7-0.8-1.3c-6.7,3-13.5,5.9-20.2,8.9c-5.9,2.6-12.2,4.9-17.3,8.9c0.3,0.1,0.7,0.2,1,0.3c-4.5-6.7-7.9-14-10.1-21.8
	C-20.4,710.5-21.9,710.9-21.6,711.8"/>
<path class="st1" d="M-31.8,725.1c0.1,1.6,0.2,3.2,1.4,4.4c1.1,1.2,3.9,3,5.3,3.4c0.9,0.2,1,0.2,1.8-0.3c1.6-1.1,2-2.6,4.2-3
	l4.9-0.2c0.1,1,1.6,1,1.5,0c-0.3-2.8-6.9-1.4-8.5-0.7c-0.7,0.3-1.3,0.7-1.8,1.2c-0.1,0.1-1.3,1.8-1.3,1.8c-0.4,0.1-2.9-1.7-3.3-2
	c-1.9-1.3-2.5-2.1-2.7-4.5C-30.4,724.1-31.9,724.1-31.8,725.1"/>
<path class="st1" d="M-27.1,732.5c0.5,5.6,0.7,11.1,0.4,16.7c-0.1,2.9-0.4,5.7-0.8,8.5c-0.3,2.1-0.2,5.2-1.2,7.1
	c0.3-0.1,0.7-0.2,1-0.3c-0.1,0-0.1-0.1-0.2-0.1c0.1,0.3,0.2,0.7,0.3,1c0,0,0-0.1,0.1-0.1c0.6-0.8-0.7-1.5-1.3-0.8c0,0,0,0.1-0.1,0.1
	c-0.2,0.3,0,0.8,0.3,1c0.1,0,0.1,0.1,0.2,0.1c0.3,0.2,0.8,0.1,1-0.3c0.9-1.8,0.9-4.5,1.2-6.5c0.4-2.7,0.7-5.5,0.9-8.2
	c0.4-6.2,0.3-12.3-0.3-18.5C-25.7,731.6-27.2,731.6-27.1,732.5"/>
<path class="st1" d="M13.9,648.6c10.5,1.4,20.6,5.7,28.8,12.5c4.3,3.6,8.1,7.8,12.1,11.8c3.9,4,7.9,7.9,11.4,12.2
	c3.6,4.5,8.3,10.3,7.6,16.4c-0.6,5.1-3.8,10.1-6.7,14.3c-2.8,4.2-6.3,8.1-10.6,10.9c-3.7,2.4-8.4,3-11.7,5.8
	c-0.7,0.6,0.3,1.7,1.1,1.1c3.2-2.7,7.9-3.3,11.4-5.6c3.3-2.1,6.1-4.8,8.5-7.9c4.5-5.6,10.4-13.9,9.5-21.5c-0.5-4.1-3-7.8-5.4-11
	c-2.6-3.7-5.7-7.1-8.8-10.4c-6.5-6.8-13-14.2-20.7-19.8c-7.9-5.7-17-9.1-26.6-10.4C13,647,13,648.5,13.9,648.6"/>
<path class="st1" d="M29.7,653.9c-1.1,3.9-2.1,8-1.9,12.1c0.1,1.9,0.7,3.5,1.3,5.3c0.9,2.7,0.6,4.5-0.3,7.2c-0.2,0.5,0.3,1,0.7,1
	c1.9,0,4.1,0.1,4.5,2.3c0.2,1.1-0.1,2,0.4,3.1c1,2.2,4.1,3.3,4.3,5.9c0.1,1,1.6,1,1.5,0c-0.1-1.3-0.6-2.2-1.4-3.2
	c-0.6-0.7-1.3-1.2-1.9-1.8c-1.2-1.3-1.2-2.3-1.4-4c-0.4-3.2-3.1-3.9-6-3.8c0.2,0.3,0.5,0.6,0.7,1c0.5-1.6,1.1-3.2,1-4.9
	c-0.1-1.8-1-3.3-1.5-5c-1.4-4.8,0-9.9,1.3-14.6C31.4,653.3,30,652.9,29.7,653.9"/>
<path class="st1" d="M39.3,691.4l6.3,3.9c1.6,1,3.4,2.5,5.1,3.1c3.3,1.2,4.3-2.1,6.8-3.5c0.5-0.3,4.1-1.5,1.8-0.3
	c-0.2,0.1-1.4,0.4-1.6,0.6c-0.4,0.4-0.7,0.7-0.7,1.3c0,0.7,0.6,1.2,1.2,1.3c0.4,0.1,0.9-0.1,1.3-0.2c2.6-0.7,3.6-1.7,6.4,0.7
	c-0.7-0.6-1.8,0.4-1.1,1.1c0.1,0.1,0.2,0.1,0.2,0.2c0.2,0.2,0.6,0.3,0.9,0.1c0.1-0.1,0.2-0.1,0.3-0.2c0.2-0.1,0.4-0.4,0.4-0.6
	c-0.4-3.2-3.4-4.2-6.3-3.2c-2.3,0.8,1.2-0.1,1.7-0.8c0.4-0.6,0.5-1.3,0.1-1.9c-1.3-2-5.1,0.3-6.3,1.3c-1.7,1.3-2.2,3.1-5.1,2.4
	c-1-0.2-2-1.3-2.9-1.8c-2.6-1.6-5.2-3.2-7.8-4.8C39.2,689.6,38.5,690.9,39.3,691.4"/>
<path class="st1" d="M52,698.6c0.5,3.5-0.2,5.8-2.9,8.2c-1.7,1.5-2.7,3-3.7,5.1c-1.3,2.9-2.7,4.4-5.1,6.3c-1.2,1-2.1,1.9-2.7,3.4
	c-0.2,0.5,0.3,0.9,0.7,1c5.2,0.1,8.2,5.3,5.7,9.9c-0.5,0.8,0.8,1.6,1.3,0.8c3.1-5.6-0.6-12-7-12.1c0.2,0.3,0.5,0.6,0.7,1
	c1-2.5,3.9-3.5,5.6-5.6c1.5-1.9,2-4.3,3.3-6.3c1.2-1.9,3.4-2.9,4.6-4.7c1.4-2,1.2-4.5,0.9-6.8C53.4,697.7,51.9,697.7,52,698.6"/>
<path class="st1" d="M55.5,728c-0.1-4.1-1.4-7.9-3.8-11.2c-0.6-0.8-1.9,0-1.3,0.8c2.3,3.1,3.6,6.6,3.6,10.4
	C54,729,55.5,729,55.5,728"/>
<path class="st1" d="M33.6,684.6c-1.6,2.7-2.8,5.6-3.3,8.8c-0.6,3.6-0.1,7.3-2.1,10.6c-1.1,1.8-2.5,3.4-1.5,5.6
	c0.2,0.4,0.7,0.8,0.8,1.1c0.1,0.7,0.2,1.3,0.3,2c-0.2,0.1-0.5,0.2-0.7,0.4c-0.6,1-0.7,0.5-0.8,1.7c0,1,1.5,1,1.5,0
	c0-0.6,1.2-1,1.5-1.5c0.4-0.7,0.4-1.2,0.2-2c-0.5-1.8-2.4-1.7-1.4-4.6c0.4-1.2,1.5-2.2,2-3.3c1-2.3,1.1-4.9,1.3-7.4
	c0.3-3.9,1.4-7.3,3.4-10.7C35.4,684.6,34.1,683.8,33.6,684.6"/>
<path class="st1" d="M39.1,691.2c-1.3,3.3-2.3,6.7-2.8,10.2c-0.2,1.4,0,3-0.5,4.3c-0.5,1.6-2,1.7-2.9,2.9c-1.1,1.6,0.7,3.4,0.6,5.1
	c-0.1,1.8-1,3.5-1.5,5.2c-0.2,0.6-0.5,4.1-1,4.3c-0.9,0.3-0.5,1.8,0.4,1.5c2.2-0.8,1.6-3.9,2.2-5.8c0.5-1.4,1.1-2.8,1.3-4.3
	s-0.5-2.6-0.5-4c0-1.8,1.3-1.8,2.2-2.9c0.5-0.7,0.7-1.7,0.8-2.6c0.6-4.7,1.3-9,3.1-13.5C40.9,690.7,39.4,690.3,39.1,691.2"/>
<path class="st1" d="M0.6,728.7c3.5,0.3,7,0.9,10.4,2c0.9,0.3,1.3-1.2,0.4-1.5c-3.5-1.1-7.1-1.8-10.8-2.1
	C-0.4,727.1-0.4,728.6,0.6,728.7"/>
<path class="st1" d="M36.9,721.4c-3.2,3.8-9.5,2.1-13.8,3.9c-1.4,0.5-2.5,1.1-4,1.2c-1.2,0.1-2.4-0.3-3.6-0.1
	c-1.7,0.4-3.1,1.6-4.4,2.7c-1.1,0.9-5.4,3-3.3,4.8c1,0.8,2.8,0.6,3.9,0.3c2.8-0.7,4.9-3,8-2.7c-0.1-0.5-0.1-1-0.2-1.5
	c-5.3,2.2-9.3,6.2-11.4,11.5c-0.4,0.9,1.1,1.3,1.4,0.4c1.9-4.8,5.6-8.5,10.4-10.5c0.8-0.3,0.7-1.4-0.2-1.5c-1.6-0.2-2.8,0.1-4.3,0.8
	c-0.8,0.4-1.5,0.8-2.2,1.2c-0.7,0.3-3.2,1.5-4,0.9c-0.8,0.2-0.7,0,0.4-0.6c0.3-0.2,0.6-0.5,0.9-0.7c0.9-0.7,1.7-1.4,2.6-2.1
	c2.4-1.9,4.4-1.1,7.1-1.6c1.6-0.3,2.9-1.1,4.4-1.6c2.2-0.8,4.4-0.7,6.6-0.9c2.6-0.2,5.1-0.9,6.8-2.9
	C38.6,721.7,37.5,720.6,36.9,721.4"/>
<path class="st1" d="M8.8,743c6.8-0.3,8.9-8.2,15.1-9.6c0.9-0.2,0.5-1.7-0.4-1.5c-6,1.4-8.4,9.3-14.7,9.6C7.8,741.5,7.8,743,8.8,743
	"/>
<path class="st1" d="M16.4,737c-0.1,3.1-2.6,5.4-2.7,8.4c0,1.1,0.4,2.3,1.7,2.3c1.9,0,3.5-3.3,4.5-4.6c2.2-3,4.4-5.9,8.1-7.1
	c0.9-0.3,0.5-1.7-0.4-1.5c-3.9,1.2-6.4,4.2-8.7,7.4c-0.6,0.9-1.6,2.9-2.6,3.4c-1.7,0.8-0.3-2.1,0-2.9c0.8-1.8,1.6-3.5,1.6-5.5
	C17.9,736.1,16.4,736.1,16.4,737"/>
<path class="st1" d="M25.4,735.7c-0.8,1.8-1.3,3.6-1.5,5.6c-0.1,0.9-0.5,3.3,0.3,4.2c1.7,1.8,3.5-2.3,4.1-3.2
	c1.4-2.1,2.8-4.2,4.3-6.2c2-2.4,4.2-2.6,7.1-3c3.2-0.5,5.4-2.6,6.1-5.8c0.2-0.9-1.2-1.3-1.5-0.4c-0.4,1.6-1.2,3.2-2.8,4
	c-1.6,0.9-3.5,0.6-5.2,0.9c-2,0.3-3.4,1.4-4.7,2.9c-1.7,2-3,4.2-4.5,6.3c-0.4,0.5-0.8,1.6-1.3,1.9c-0.8,0.5-0.3,0.8-0.7,0
	c-0.7-1.5,0.8-5.1,1.4-6.4C27.1,735.6,25.8,734.8,25.4,735.7"/>
<path class="st1" d="M30.4,737.9c0,9.1,0,18.3,0,27.4c0,1,1.5,1,1.5,0c0-9.1,0-18.3,0-27.4C31.9,737,30.4,737,30.4,737.9"/>
<path class="st1" d="M-25.7,735.9c4-1.2,8.5-3.3,12.8-2.8c1,0.1,1-1.4,0-1.5c-4.4-0.5-9,1.6-13.2,2.9
	C-27.1,734.7-26.7,736.2-25.7,735.9"/>
<path class="st1" d="M-7.3,732.8c4.8-0.2,9.5,0.3,14.2,1.4c0.9,0.2,1.3-1.2,0.4-1.5c-4.8-1.2-9.7-1.6-14.6-1.5
	C-8.2,731.3-8.2,732.8-7.3,732.8"/>
<path class="st1" d="M-9.5,734c0.5,7.2,1,14.4,1.5,21.6c0.2,2.7-0.1,6.1,0.7,8.8c0.7,2,3.1,1.5,3.8,3.2c0.4,0.9,1.7,0.1,1.3-0.8
	c-0.8-1.7-2.9-1.6-3.8-3.6c-0.5-1.2-0.2-3.4-0.3-4.7c-0.1-1.7-0.3-3.5-0.4-5.2c-0.5-6.4-0.9-12.8-1.4-19.2
	C-8,733.1-9.5,733.1-9.5,734"/>
<path class="st1" d="M-100.2,598.1c-5.2,1.1-8,7.5-9,12.1c-0.2,0.9,1.2,1.3,1.5,0.4c0.9-4.1,3.3-10,7.9-11
	C-98.9,599.3-99.3,597.9-100.2,598.1"/>
<path class="st1" d="M-109.1,613.1c2.1,4,0.3,8.2,0.2,12.4c-0.1,2.1,0.4,4.1,0.2,6.2c-0.1,1.5-0.5,3,0.1,4.5
	c2.1,5.2,11,3.6,15.1,2.8c1-0.2,0.5-1.6-0.4-1.5c-3.1,0.6-6.9,1.1-10,0.3c-4.8-1.2-3-6.2-3.3-9.9c-0.5-5.3,2.2-10.7-0.5-15.7
	C-108.2,611.4-109.5,612.2-109.1,613.1"/>
<path class="st1" d="M-102.1,616.7C-102.1,616.7-102,616.6-102.1,616.7c0.2-0.4,0.2-0.8-0.1-1l-0.1-0.1c-0.2-0.2-0.6-0.3-0.9-0.1
	c-0.8,0.5-0.7,2.1-0.9,2.9c-0.4,1.4-1.5,2.6-1.8,4.1c-0.1,0.7,0.1,1.4,0.6,1.9c0.7,0.6,2.3,0.4,2.7,1.2c0.4,0.9,1.7,0.1,1.3-0.8
	c-0.6-1.3-2.6-0.9-3-1.9c-0.3-0.6,0.9-2.3,1.2-3c0.2-0.6,0.4-1.1,0.6-1.7c0-0.2,0.3-1.5,0.1-1.4c-0.3,0-0.6-0.1-0.9-0.1l0.1,0.1
	c0-0.3-0.1-0.6-0.1-0.9v0.1C-103.8,616.8-102.5,617.6-102.1,616.7"/>
<path class="st1" d="M-97.1,629c-1.1,0.9-3.4-1.3-4.7-1.5c-1.4-0.2-2.6,0.3-3.7,1.2c-0.7,0.6,0.3,1.7,1.1,1.1c3-2.5,5.5,2.5,8.4,0.3
	C-95.3,629.4-96.3,628.4-97.1,629"/>
<path class="st1" d="M-104.9,628.2c-0.1-0.1-0.2-0.2-0.3-0.3c-0.7-0.7-1.7,0.4-1.1,1.1c0.1,0.1,0.2,0.2,0.3,0.3
	C-105.3,630-104.2,628.9-104.9,628.2"/>
<path class="st1" d="M-85.7,615.5c0.2,3.2,0.5,6.4,0.7,9.6c0.1,1,1.6,1,1.5,0c-0.2-3.2-0.5-6.4-0.7-9.6
	C-84.3,614.5-85.8,614.5-85.7,615.5"/>
<path class="st1" d="M-80.9,625.7c0.4-0.1,0.7-0.1,1.1-0.2c0.2,0.2,0.3,0.3,0.5,0.5c0.2,0.4,0.3,0.7,0.4,1.1c0.1,0.8,0,1.5-0.4,2.2
	c-1,1.6-3,2.4-4.6,3c-0.9,0.4-0.5,1.8,0.4,1.5c3-1.2,6.9-3.2,6.1-7.2c-0.3-1.3-1.1-2.5-2.4-2.8c-1.2-0.3-2.7,0.5-2.5,1.8
	C-82.3,626.7-80.8,626.7-80.9,625.7"/>
<path class="st1" d="M-77.8,619.5c-0.4,1.8-0.8,3.6-1.2,5.4c-0.2,0.9,1.2,1.3,1.4,0.4c0.4-1.8,0.8-3.6,1.2-5.4
	C-76.2,619-77.6,618.6-77.8,619.5"/>
<path class="st1" d="M-79.8,618.3c-0.5,1.9-0.8,3.9-0.9,5.9c0,1,1.5,1,1.5,0c0.1-1.9,0.4-3.7,0.9-5.5
	C-78,617.8-79.5,617.4-79.8,618.3"/>
<path class="st1" d="M-82.2,617.6c-0.1,2.2-0.3,4.4-0.4,6.6c-0.1,1,1.4,1,1.5,0c0.1-2.2,0.3-4.4,0.4-6.6
	C-80.6,616.6-82.1,616.6-82.2,617.6"/>
<path class="st1" d="M-81.9,631.8c-1.9,5.3-2.3,10.7-1,16.2c0.2,0.9,1.7,0.5,1.5-0.4c-1.2-5.2-0.9-10.3,1-15.4
	C-80.1,631.3-81.6,630.9-81.9,631.8"/>
<path class="st1" d="M-105.2,638.8c-0.3,1.3-0.6,2.6-0.9,3.9c-0.2,0.9,1.2,1.3,1.5,0.4c0.3-1.3,0.6-2.6,0.9-3.9
	C-103.5,638.2-105,637.8-105.2,638.8"/>
<path class="st1" d="M-75,656.6c2.2,2.3,5,3.5,7.6,5.3c3.8,2.6,4.9,6.5,6.1,10.7c2.4,8.4,4.8,16.8,6.5,25.3c0.9,4.5,1.7,9,2.1,13.5
	c0.1,0.8,0.4,1.8,0.2,2.6c-0.7,2.6-1.7,1.8-3,2.6c-0.9,0.6-1.7,1.1-2.4,2c-1.6,1.8-3,5.2-5.6,5.6c-4.4,0.6-5.2-6.6-5.8-9.6
	c-0.2-0.9-1.7-0.5-1.5,0.4c0.9,4.1,3.7,14.8,10,9.5c1.1-0.9,1.8-2,2.6-3.1c0.6-0.8,1.2-1.7,2-2.5c0.9-0.8,2-1,3-1.6
	c3.4-2.1,1.8-6.6,1.4-9.9c-1.5-10.8-4.3-21.4-7.2-31.9c-1.1-3.9-1.9-8.4-4.3-11.7c-2.8-3.8-7.6-5-10.7-8.3
	C-74.6,654.9-75.7,655.9-75,656.6"/>
<path class="st1" d="M-69,715.5c4.3,0.5,8.4-2.9,8.3-7.3c-0.1-5.8-2.6-11.9-7.6-14.9c-0.8-0.5-1.6,0.8-0.8,1.3
	c4.1,2.4,5.5,6.2,6.5,10.7c0.5,2.4,0.8,4.5-0.8,6.5c-1.4,1.8-3.4,2.5-5.6,2.2C-70,713.9-69.9,715.4-69,715.5"/>
<path class="st1" d="M-62.7,699.2c0.7-1,1.4-2,2.1-3c0.6-0.8-0.7-1.5-1.3-0.8c-0.7,1-1.4,2-2.1,3C-64.6,699.2-63.3,700-62.7,699.2"
	/>
<path class="st1" d="M-60.6,705.1c1.2-0.7,2.5-1.2,3.8-1.6c0.9-0.3,0.5-1.7-0.4-1.5c-1.4,0.4-2.8,1-4.2,1.7
	C-62.2,704.2-61.5,705.5-60.6,705.1"/>
<path class="st1" d="M-65.3,724.2c-0.2-0.6,0.2-1.5,0.6-1.9c0.3-0.3,0.6-0.5,1-0.7c0.6-0.4,1.2-0.6,1.8-1c0.6-0.4,1.3-1.1,1.1-1.9
	c-0.2-0.6-0.9-1-1.6-1c-0.5,0-0.9,0.4-1.3,0.6c-0.9,0.6-1.9,0.9-3,0.7l0.5,0.9c0.2-1.1,0.6-2,1.4-2.8c0.7-0.7-0.4-1.8-1.1-1.1
	c-1,1-1.6,2.1-1.8,3.5c-0.1,0.4,0.1,0.8,0.5,0.9c1.1,0.2,2.1,0.2,3.1-0.2c0.2-0.1,1.3-0.8,1.2-0.8c-0.3,0-1.3,0.7-1.6,0.9
	c-1.7,1-3,2.6-2.1,4.6C-66.2,725.9-64.9,725.1-65.3,724.2"/>
<path class="st1" d="M-68.9,693c-3.6-0.7-8.5-1.1-12,0.5c-1.9,0.9-2.1,3.9,0.4,3.8c1,0,1-1.5,0-1.5c-0.2-0.7,0-1,0.6-1.1
	c0.4-0.2,0.9-0.3,1.4-0.4c1.1-0.2,2.2-0.4,3.3-0.4c2-0.1,4,0.1,6,0.4C-68.3,694.7-67.9,693.2-68.9,693"/>
<path class="st1" d="M-70.3,697.3c-3.7-0.5-7.3-0.8-11-0.9c-1.5,0-4.2-0.4-4.7,1.5c-0.6,2.2,3,3.6,4.4,4.2c1.5,0.6,8.1,3.3,9.3,1.5
	c0.3-0.1,0.7-0.2,1-0.3c-0.1,0-0.1-0.1-0.2-0.1c-0.8-0.5-1.6,0.8-0.8,1.3c0.1,0,0.1,0.1,0.2,0.1c0.4,0.2,0.8,0.1,1-0.3
	c0.1-0.1,0.1-0.2,0.2-0.3c0.2-0.3,0.1-0.7-0.1-0.9c-0.9-0.8-2.2-0.5-3.3-0.7c-2.8-0.3-5.6-1.1-8.1-2.4c-0.5-0.2-0.9-0.5-1.4-0.7
	c-0.3-1.3,0.1-1.8,1.3-1.5c0.9-0.3,2.4,0,3.3,0.1c2.8,0.1,5.6,0.4,8.4,0.8C-69.8,698.8-69.4,697.4-70.3,697.3"/>
<path class="st1" d="M-84.6,700.6c-0.9,2.6,2.1,4.3,4,5.4c2.9,1.7,6.1,2.6,9.5,3c1,0.1,1-1.4,0-1.5c-2.4-0.3-4.7-0.9-6.8-1.9
	c-1.5-0.7-5.9-2.6-5.2-4.7C-82.9,700.1-84.3,699.7-84.6,700.6"/>
<path class="st1" d="M-83.1,703.9c-2.4,1.5-0.5,3.7,1.2,4.8c2.2,1.3,4.5,2.4,6.8,3.6c2.2,1.2,4.3,2.6,6.8,3c0.9,0.2,1.4-1.3,0.4-1.5
	c-2.8-0.5-5.4-2.3-7.8-3.6c-1.1-0.6-2.3-1.2-3.4-1.8c-0.2-0.1-4.7-2.2-3.1-3.2C-81.5,704.6-82.2,703.3-83.1,703.9"/>
<path class="st1" d="M-65.2,681.1c-1.4,4-2.8,7.9-4.2,11.9c-0.3,0.9,1.1,1.3,1.5,0.4c1.4-4,2.8-7.9,4.2-11.9
	C-63.5,680.6-64.9,680.2-65.2,681.1"/>
<path class="st1" d="M-103,664.7c-4.1,9.5-8.2,19-12.2,28.5c-2,4.7-4.1,9.5-6.1,14.2c-0.9,2.1-1.8,4.3-2.8,6.4
	c-0.4,1-0.9,1.6-0.4,2.6c0.1,0.3,0.6,0.5,0.8,0.3l0.2-0.1c0.3-0.1,0.5-0.4,0.6-0.7v-0.2c0-0.4-0.4-0.7-0.8-0.8h-0.1
	c-1-0.1-1,1.4,0,1.5h0.1c-0.3-0.3-0.5-0.5-0.8-0.8c1-0.3,1.6-0.9,1.8-1.7l0.7-1.6c0.5-1.1,0.9-2.1,1.4-3.2c0.9-2,1.7-4,2.6-6
	c1.8-4.2,3.6-8.4,5.4-12.6c3.6-8.4,7.2-16.8,10.8-25.2C-101.3,664.6-102.6,663.8-103,664.7"/>
<path class="st1" d="M-77.5,711.4c-2.1,7.8-5.5,15.1-10.1,21.8c0.3-0.1,0.7-0.2,1-0.3c-5.2-4-11.4-6.3-17.3-8.9
	c-6.7-3-13.5-5.9-20.2-8.9c-0.9-0.4-1.6,0.9-0.8,1.3c6.7,3,13.5,5.9,20.2,8.9c5.9,2.6,12.2,4.9,17.3,8.9c0.3,0.3,0.8,0,1-0.3
	c4.6-6.8,8-14.3,10.2-22.2C-75.8,710.9-77.2,710.5-77.5,711.4"/>
<path class="st1" d="M-67.4,725.1c-0.1,2.4-0.8,3.2-2.7,4.5c-0.4,0.3-2.9,2.1-3.3,2c0,0-1.1-1.7-1.3-1.8c-0.5-0.5-1.2-0.9-1.8-1.2
	c-1.6-0.7-8.2-2.1-8.5,0.7c-0.1,1,1.4,1,1.5,0c0,0,4.8,0.2,4.9,0.2c2.2,0.5,2.6,1.9,4.2,3c0.8,0.6,0.9,0.5,1.8,0.3
	c1.5-0.4,4.3-2.2,5.3-3.4c1.1-1.2,1.3-2.8,1.4-4.4C-65.8,724.1-67.3,724.1-67.4,725.1"/>
<path class="st1" d="M-72.1,732.5c-0.6,6.1-0.7,12.3-0.3,18.5c0.2,2.8,0.5,5.5,0.9,8.2c0.3,2,0.3,4.6,1.2,6.5c0.2,0.4,0.7,0.5,1,0.3
	c0.1,0,0.1-0.1,0.2-0.1c0.3-0.2,0.5-0.7,0.3-1l-0.1-0.1c-0.6-0.8-1.9,0-1.3,0.8c0,0,0,0.1,0.1,0.1c0.1-0.3,0.2-0.7,0.3-1
	c-0.1,0-0.1,0.1-0.2,0.1c0.3,0.1,0.7,0.2,1,0.3c-0.8-1.6-0.8-4.3-1-6.1c-0.4-3.2-0.7-6.4-0.9-9.6c-0.3-5.6-0.1-11.2,0.4-16.7
	C-70.5,731.6-72,731.6-72.1,732.5"/>
<path class="st1" d="M-111.6,647.1c-8.3,1.1-16.2,3.8-23.3,8.2c-8,5-14.3,12.2-20.9,18.9c-6,6.1-13.2,13.1-16.3,21.3
	c-2.9,7.8,2.5,16.1,6.9,22.2c2.5,3.5,5.4,6.7,8.8,9.2c1.6,1.2,3.4,2.2,5.3,3c2.6,1.1,5.4,1.7,7.6,3.6c0.7,0.6,1.8-0.4,1.1-1.1
	c-3.3-2.8-7.7-3.4-11.3-5.6c-4.3-2.7-7.8-6.5-10.7-10.7c-2.8-4.1-5.9-8.9-6.8-13.8c-1.2-6.5,3.6-12.6,7.5-17.3
	c3.4-4.2,7.2-8,11-11.8c4-4,7.8-8.3,12.1-11.9c8.2-7,18.5-11.4,29.1-12.8C-110.7,648.5-110.6,647-111.6,647.1"/>
<path class="st1" d="M-128.9,654.3c1.3,4.7,2.6,9.8,1.3,14.6c-0.5,1.7-1.4,3.2-1.5,5c-0.1,1.7,0.5,3.4,1,4.9c0.2-0.3,0.5-0.6,0.7-1
	c-2.9,0-5.6,0.6-6,3.8c-0.2,1.7-0.2,2.7-1.4,4c-0.6,0.6-1.3,1.2-1.9,1.8c-0.9,1-1.3,1.9-1.4,3.2c-0.1,1,1.4,1,1.5,0
	c0.1-2.6,3.3-3.7,4.3-5.9c0.4-0.9,0.3-1.7,0.4-2.6c0.4-2.7,2.3-2.8,4.5-2.8c0.5,0,0.9-0.5,0.7-1c-0.9-2.5-1.1-4.6-0.3-7.2
	c0.6-1.8,1.1-3.4,1.3-5.3c0.3-4.1-0.8-8.2-1.9-12.1C-127.7,652.9-129.1,653.3-128.9,654.3"/>
<path class="st1" d="M-137.7,690.1c-2.4,1.5-4.8,3-7.3,4.5c-1,0.6-2.3,1.8-3.4,2.1c-2.9,0.7-3.4-1.1-5.1-2.4c-1.2-1-4.9-3.3-6.3-1.3
	c-0.4,0.6-0.3,1.3,0.1,1.9c0.5,0.7,3.9,1.5,1.7,0.8c-2.8-1-5.9,0-6.3,3.2c0,0.3,0.2,0.5,0.4,0.6c0.1,0.1,0.2,0.1,0.3,0.2
	c0.3,0.2,0.7,0.1,0.9-0.1c0.1-0.1,0.2-0.1,0.2-0.2c0.7-0.6-0.3-1.7-1.1-1.1c2.6-2.2,3.6-1.4,6.1-0.8c0.5,0.1,0.9,0.4,1.4,0.3
	c0.6-0.1,1.1-0.5,1.2-1.1c0.2-0.7-0.1-1.1-0.6-1.5c-0.3-0.3-1.3-0.5-1.6-0.6c-2.2-1,1-0.1,1.8,0.3c2.3,1.3,3.6,4.7,6.7,3.5
	c1.7-0.6,3.2-1.9,4.7-2.8c2.3-1.4,4.5-2.8,6.8-4.2C-136.2,690.9-136.9,689.6-137.7,690.1"/>
<path class="st1" d="M-151.2,698.6c-0.3,2.2-0.5,4.5,0.7,6.4c1.2,2.1,3.5,3.1,4.8,5.1c1.2,1.9,1.7,4.1,3,5.9c1.6,2.3,4.8,3.3,5.9,6
	c0.2-0.3,0.5-0.6,0.7-1c-6.4,0.1-10.1,6.5-7,12.1c0.5,0.8,1.8,0.1,1.3-0.8c-2.5-4.6,0.5-9.8,5.7-9.9c0.4,0,0.9-0.5,0.7-1
	c-0.6-1.5-1.5-2.4-2.7-3.4c-2.4-2-3.8-3.5-5.1-6.3c-1-2.1-2-3.6-3.7-5.1c-2.7-2.4-3.3-4.6-2.9-8.2
	C-149.5,697.7-151,697.7-151.2,698.6"/>
<path class="st1" d="M-151.7,728c0.1-3.9,1.3-7.3,3.6-10.4c0.6-0.8-0.7-1.5-1.3-0.8c-2.5,3.3-3.8,7.1-3.8,11.2
	C-153.2,729-151.7,729-151.7,728"/>
<path class="st1" d="M-132.6,685.4c1.9,3.1,3,6.5,3.4,10.2c0.2,2.6,0.2,5.4,1.3,7.8c0.5,1.1,1.8,2.2,2,3.3c0.4,2-0.9,2.9-1.4,4.5
	c-0.2,0.7-0.2,1.3,0.1,2c0.3,0.5,1.6,1.1,1.6,1.6c0,1,1.5,1,1.5,0s-0.2-0.8-0.7-1.6c-0.7-1.2-1.9,1.3-0.4-2.4
	c0.1-0.3,0.5-0.5,0.6-0.8c0.9-2.6,0.1-3.5-1.3-5.9c-1.8-3.1-1.5-6.6-2-10.1c-0.5-3.3-1.7-6.4-3.4-9.3
	C-131.8,683.8-133.1,684.6-132.6,685.4"/>
<path class="st1" d="M-138.2,691.6c1.7,4.3,2.6,8.5,3.1,13.1c0.1,1,0.2,2,0.8,2.9c0.9,1.3,2.2,1,2.2,3c0,1.3-0.7,2.2-0.6,3.5
	c0.2,1.5,0.7,2.9,1.2,4.3c0.7,1.9,0.1,5.4,2.3,6.2c0.9,0.3,1.3-1.1,0.4-1.5c-0.4-0.2-0.8-3.7-1-4.3c-0.4-1.5-1.2-2.9-1.4-4.4
	c-0.2-1.6,0.1-2.3,0.6-3.8c0.1-0.3,0.2-0.6,0.2-0.9c0-0.5-0.1-0.9-0.4-1.3c-0.6-0.9-1.6-1-2.3-2c-0.9-1.4-0.8-3-1-4.6
	c-0.5-3.7-1.5-7.3-2.9-10.7C-137.1,690.3-138.6,690.7-138.2,691.6"/>
<path class="st1" d="M-98.2,727.2c-3.7,0.3-7.3,1-10.8,2.1c-0.9,0.3-0.5,1.7,0.4,1.5c3.4-1.1,6.8-1.7,10.4-2
	C-97.3,728.6-97.3,727.1-98.2,727.2"/>
<path class="st1" d="M-135.6,722.4c1.6,1.9,3.8,2.6,6.3,2.9c2.4,0.3,4.8,0.1,7.2,0.9c1.5,0.5,2.8,1.3,4.4,1.6
	c2.7,0.4,4.7-0.2,7.1,1.6c0.9,0.7,1.7,1.4,2.6,2.1c0.3,0.2,0.6,0.5,0.9,0.7c1,0.6,1.2,0.8,0.6,0.6c-0.3,1.2-5.8-1.8-6.5-2.1
	c-1.4-0.7-2.7-1-4.3-0.8c-0.9,0.1-1,1.1-0.2,1.5c4.8,2,8.5,5.7,10.4,10.5c0.4,0.9,1.8,0.5,1.4-0.4c-2.1-5.4-6.1-9.4-11.4-11.5
	c-0.1,0.5-0.1,1-0.2,1.5c2.9-0.4,5,1.7,7.6,2.5c1.2,0.4,3.2,0.8,4.3-0.2c2.1-1.8-2.2-3.9-3.3-4.8c-1.3-1.1-2.7-2.3-4.4-2.7
	c-1.2-0.2-2.4,0.1-3.6,0.1c-1.4-0.1-2.7-0.7-4-1.2c-4.3-1.7-10.7-0.1-13.8-3.9C-135.2,720.6-136.2,721.7-135.6,722.4"/>
<path class="st1" d="M-106.5,741.5c-6.3-0.3-8.7-8.2-14.7-9.6c-0.9-0.2-1.3,1.2-0.4,1.5c6.2,1.5,8.3,9.3,15.1,9.6
	C-105.5,743-105.5,741.5-106.5,741.5"/>
<path class="st1" d="M-115.5,737c0,1.9,0.7,3.4,1.4,5.1c0.3,0.6,2,3.5,0.5,3.6c-0.6,0-2.5-3.2-2.8-3.7c-2.3-3.2-4.8-6.2-8.7-7.4
	c-0.9-0.3-1.3,1.2-0.4,1.5c3.7,1.1,5.9,4.1,8.1,7.1c0.9,1.3,2.6,4.6,4.5,4.6c1.2,0,1.7-1.2,1.7-2.3c-0.1-3-2.6-5.3-2.7-8.4
	C-114.1,736.1-115.6,736.1-115.5,737"/>
<path class="st1" d="M-124.4,736.5c0.7,1.8,1.5,3.9,1.4,5.9c-0.1,2.2-1,0.2-1.7-0.9c-1.6-2.3-3-4.7-4.8-6.8
	c-1.2-1.5-2.7-2.5-4.6-2.9c-1.5-0.3-3.2-0.1-4.6-0.7c-1.9-0.8-3-2.3-3.4-4.3c-0.2-0.9-1.7-0.5-1.4,0.4c0.7,3.1,2.9,5.3,6.1,5.8
	c2.5,0.4,4.7,0.4,6.6,2.4s3.3,4.6,4.9,6.8c0.8,1.1,2.4,4.9,4.1,3.2c0.9-0.8,0.4-3.3,0.3-4.2c-0.2-1.9-0.8-3.8-1.5-5.6
	C-123.5,734.8-124.8,735.6-124.4,736.5"/>
<path class="st1" d="M-129.6,737.9c0,9.1,0,18.3,0,27.4c0,1,1.5,1,1.5,0c0-9.1,0-18.3,0-27.4C-128,737-129.5,737-129.6,737.9"/>
<path class="st1" d="M-71.5,734.5c-4.2-1.3-8.8-3.4-13.2-2.9c-1,0.1-1,1.6,0,1.5c4.3-0.5,8.8,1.6,12.8,2.8
	C-71,736.2-70.6,734.7-71.5,734.5"/>
<path class="st1" d="M-90.4,731.3c-5-0.2-9.8,0.3-14.6,1.5c-0.9,0.2-0.5,1.7,0.4,1.5c4.7-1.1,9.4-1.6,14.2-1.4
	C-89.4,732.8-89.4,731.3-90.4,731.3"/>
<path class="st1" d="M-89.7,732.4c-0.5,6.7-0.9,13.3-1.4,20c-0.2,3.1-0.1,6.4-0.6,9.4c-0.2,1.3-0.6,2.4-1.7,3.3
	c-0.3,0.2-0.7,0.2-1,0.4c-0.5,0.4-0.8,0.6-1.1,1.3c-0.4,0.9,0.9,1.6,1.3,0.8c0.7-1.7,3.2-1.2,3.8-3.3c0.8-2.9,0.5-6.5,0.7-9.5
	c0.5-7.4,1-14.9,1.5-22.3C-88.2,731.4-89.7,731.4-89.7,732.4"/>
<path class="st1" d="M-98.1,598.8c2.5,0.7,4.7,0.4,7.2,0.4c3,0,6,1.3,8.6,2.6c2.9,1.4,4.7,3.4,5.4,6.6c0.6,3,0.6,6.1,0.4,9.2
	c-0.1,1,1.4,1,1.5,0c0.3-5.2,0.6-12.3-4.1-15.7c-2.3-1.7-5.4-2.9-8.1-3.7c-3.5-1-7,0.1-10.5-0.9C-98.7,597.1-99.1,598.5-98.1,598.8"
	/>
<path class="st1" d="M-77,617.4c-0.3,1.3-0.8,2.5-1.5,3.7c-0.5,0.8,0.8,1.6,1.3,0.8c0.7-1.3,1.3-2.6,1.7-4.1
	C-75.3,616.9-76.7,616.5-77,617.4"/>
<path class="st1" d="M-97.2,598.6c-2.2-1.3-5,2.2-6.1,3.7c-2,2.7-3,5.9-3.1,9.3c0,1,1.5,1,1.5,0c0-2.5,0.6-4.8,1.8-6.9
	c0.5-0.9,3.7-5.6,5.1-4.8C-97.1,600.4-96.4,599.1-97.2,598.6"/>
<path class="st1" d="M-105.1,611.6c5.2-1.2,12.2,1.7,17.1,3.4c0.9,0.3,1.3-1.1,0.4-1.4c-5.3-1.8-12.2-4.8-17.9-3.4
	C-106.4,610.3-106,611.8-105.1,611.6"/>
<path class="st1" d="M-87.5,614.7c0.5,1.1,0.9,2.2,1.4,3.2c0.4,0.9,1.7,0.1,1.3-0.8c-0.5-1.1-0.9-2.2-1.4-3.2
	C-86.6,613-87.9,613.8-87.5,614.7"/>
<path class="st1" d="M-106.6,641.8c-2,0.9-1,3,0.4,3.9c3.4,2.3,8.4,3.4,12.4,4.4c3.3,0.8,7.2,1.9,10.4,0c1.6-0.9,3.7-3.4,1.7-4.9
	c-0.8-0.6-1.8,0.5-1.1,1.1c2.1,1.7-3.1,3.2-3.7,3.3c-1.3,0.2-2.5,0-3.7-0.2c-1.8-0.3-3.6-0.8-5.3-1.3c-1.6-0.5-3.2-1-4.8-1.5
	c-0.9-0.3-1.7-0.6-2.6-1c0,0-4.3-1.8-2.9-2.4C-104.9,642.7-105.7,641.4-106.6,641.8"/>
<path class="st1" d="M-107.8,641.1c-1.9,1.9-3.3,4.1-4.2,6.7c-0.1,0.3,0.1,0.7,0.3,0.8c1.2,0.5,1.5,1.6,2.2,2.5
	c0.8,1.1,1.9,1.7,2.9,2.6c2.1,1.8,3.6,4,5.1,6.3c0.5,0.8,1.8,0.1,1.3-0.8c-2-3.2-4.2-5.4-6.9-7.9c-0.7-0.7-2.7-2.6-3.1-3.7
	c-0.5-1.5,2.6-4.7,3.4-5.5C-106.1,641.5-107.1,640.4-107.8,641.1"/>
<path class="st1" d="M-99.8,660.3c2-2.9,7.9-11.6,11.8-7.2c2.1,2.4,1.5,6.2,4,8.6c0.7,0.7,1.7-0.4,1.1-1.1c-2.8-2.8-2-10.2-7.3-10.5
	c-4.5-0.2-8.6,6.2-10.8,9.4C-101.6,660.4-100.3,661.1-99.8,660.3"/>
<path class="st1" d="M-83,662.9c2.6-1.9,5.3-3.8,8-5.5c0.8-0.5,0.1-1.8-0.8-1.3c-2.7,1.7-5.4,3.6-8,5.5
	C-84.5,662.2-83.7,663.5-83,662.9"/>
<path class="st1" d="M-81.5,646.1c1.7,3.8,3.7,7.4,6.3,10.7c0.6,0.8,1.9,0,1.3-0.8c-2.5-3.3-4.6-6.9-6.3-10.7
	C-80.6,644.5-81.9,645.3-81.5,646.1"/>
<path class="st1" d="M-96.9,655.4c0.8,3,3,5.3,5.9,6.4c0.9,0.3,1.3-1.1,0.4-1.5c-2.4-0.8-4.2-2.8-4.9-5.3
	C-95.7,654-97.1,654.4-96.9,655.4"/>
<path class="st1" d="M-90.7,661.7c2.7,0,5-1.7,5.9-4.2c0.3-0.9-1.1-1.3-1.5-0.4c-0.7,1.9-2.5,3.1-4.4,3.1
	C-91.7,660.2-91.7,661.7-90.7,661.7"/>
<path class="st1" d="M-94.1,660.3c0,2.1-0.5,4.1-1.3,6.1c-0.4,0.9,1.1,1.3,1.5,0.4c0.9-2.1,1.3-4.2,1.4-6.5
	C-92.6,659.3-94.1,659.3-94.1,660.3"/>
<path class="st1" d="M-92,661.6l-0.4,2.7c-0.1,0.4,0.1,0.8,0.5,0.9c0.4,0.1,0.9-0.1,0.9-0.5c0.1-0.9,0.3-1.8,0.4-2.7
	c0.1-0.4-0.1-0.8-0.5-0.9C-91.5,661-92,661.2-92,661.6"/>
<path class="st1" d="M-94.9,654c0.1,1.9,0.7,3.6,1.8,5.1c0.5,0.8,1.9,0,1.3-0.8c-0.9-1.3-1.4-2.8-1.5-4.4
	C-93.4,653-94.9,653-94.9,654"/>
<path class="st1" d="M-88.2,654.7c-0.5,1.8-1.3,3.4-2.3,4.9c-0.5,0.8,0.8,1.6,1.3,0.8c1.1-1.7,1.9-3.4,2.5-5.3
	C-86.4,654.1-87.9,653.8-88.2,654.7"/>
<path class="st1" d="M0,630.6c1.6,0.7,3.2,1.9,5,1.7c1.3-0.2,2.5-1,2.8-2.3c0.2-0.9-1.3-1.4-1.5-0.4c-0.5,2.8-4.3,0.3-5.6-0.3
	C-0.1,628.9-0.8,630.2,0,630.6"/>
<path class="st1" d="M-104,631.2c0.7,0,1.4,0.2,2,0.6c0.8,0.5,1.6-0.8,0.8-1.3c-0.8-0.5-1.8-0.8-2.7-0.8
	C-104.9,629.7-104.9,631.2-104,631.2"/>
<path class="st1" d="M-31.1,662.1c-0.5,5.8,0.3,11.5,2.4,16.9c0.4,0.9,1.8,0.5,1.5-0.4c-2.1-5.3-2.9-10.8-2.4-16.5
	C-29.5,661.1-31,661.1-31.1,662.1"/>
<path class="st1" d="M-66.6,664.5c0.2,3.2-0.1,6.1-0.8,9.2c-0.5,2.3-1,4.3-0.5,6.6c0.2,0.9,1.7,0.5,1.5-0.4
	c-0.7-3.1,0.7-5.9,1.1-8.9c0.3-2.2,0.4-4.3,0.2-6.5C-65.1,663.6-66.6,663.5-66.6,664.5"/>
<path class="st1" d="M-109.1,615.9c1.8,0,3.6,0.4,5.3,1c0.9,0.4,1.3-1.1,0.4-1.5c-1.8-0.7-3.7-1.1-5.7-1.1
	C-110.1,614.4-110.1,615.9-109.1,615.9"/>
<path class="st1" d="M-110.5,615.5c-0.2,1.4-0.3,2.9-0.2,4.3c0,0.3,0.2,0.7,0.6,0.7c1.6,0.3,3.2,0.5,4.8,0.8
	c0.9,0.2,1.4-1.3,0.4-1.4c-1.6-0.3-3.2-0.5-4.8-0.8c0.2,0.2,0.4,0.5,0.6,0.7c-0.1-1.3-0.1-2.6,0.1-3.9
	C-109,615-110.4,614.6-110.5,615.5"/>
<path class="st1" d="M-102.3,617.2c0.6-0.2,1.3,0,1.5,0.6c0.3,0.9,1.8,0.5,1.5-0.4c-0.5-1.3-2-2.1-3.3-1.7
	C-103.6,616-103.2,617.5-102.3,617.2"/>
<path class="st1" d="M-100.1,617.9c-0.6,1.6-0.1,3.5,1.3,4.5c1.8,1.3,4.7,1.2,6.8,1c1-0.1,1-1.6,0-1.5c-2.3,0.2-8.1,0.2-6.7-3.6
	C-98.3,617.4-99.8,617-100.1,617.9"/>
<path class="st1" d="M-98.4,617.8c0-0.3,4.4,0.3,4.7,0.4c0.9,0.1,1.8-0.1,1.8,1c0,0.8-0.5,1.7-0.7,2.4c-0.3,0.9,1.2,1.3,1.5,0.4
	c0.3-1.1,1.3-3.1,0.7-4.2c-0.5-1-1.8-0.9-2.7-1.1c-1.4-0.2-6.9-1.8-6.8,1C-99.8,618.8-98.3,618.8-98.4,617.8"/>
<path class="st1" d="M-91,620.5c2.6,0.9,5,2,7.4,3.4c0.8,0.5,1.6-0.8,0.8-1.3c-2.5-1.4-5.1-2.6-7.8-3.5
	C-91.5,618.8-91.9,620.2-91,620.5"/>
<path class="st1" d="M-97.1,618.7c-0.5,0.5-0.4,1.3,0.1,1.8c0.6,0.6,1.4,0.3,2.1,0.1c0.4-0.2,0.5-0.7,0.3-1c-0.2-0.4-0.7-0.4-1-0.3
	c0,0-0.4,0.2-0.4,0.1c0.2,0.1,0.2,0.1,0.1,0.1l0,0c0,0.1,0,0.3-0.1,0.4C-95.3,619.1-96.4,618.1-97.1,618.7"/>
<path class="st1" d="M-106.7,618.5c0.5,0.3,1.2,0.3,1.7,0c0.8-0.5,0.1-1.8-0.8-1.3c-0.1,0.1-0.1,0,0,0c0,0-0.1,0-0.1-0.1
	c-0.3-0.2-0.8-0.1-1,0.3C-107.2,617.9-107.1,618.3-106.7,618.5"/>
<path class="st1" d="M-102.4,665.5c6.1,2.7,12.3,5.4,18.4,8.1c2.9,1.3,5.8,2.6,8.7,3.8c1.6,0.7,3.2,1.4,4.9,2.2
	c1.5,0.7,3.8,1.3,4.7,2.7c0.5,0.8,1.8,0.1,1.3-0.8c-1.3-2.1-4.2-2.8-6.3-3.7c-3.4-1.5-6.9-3-10.3-4.6c-6.9-3-13.8-6-20.6-9
	C-102.5,663.8-103.3,665.1-102.4,665.5"/>
<path class="st1" d="M-106.4,666.5c0.8,0,1.4,0.3,1.9,0.9c0.6,0.7,1.7-0.3,1.1-1.1c-0.7-0.9-1.9-1.4-3-1.3
	C-107.3,665-107.3,666.5-106.4,666.5"/>
<path class="st1" d="M-107.2,665.9c-3.8,13.5-8.5,26.7-14.1,39.5c-0.4,0.9,0.9,1.6,1.3,0.8c5.7-13,10.4-26.3,14.3-39.9
	C-105.5,665.3-106.9,664.9-107.2,665.9"/>
<path class="st1" d="M-121.4,705.5c-1.4,3.6-3.2,7.1-5.2,10.4c-0.5,0.8,0.8,1.6,1.3,0.8c2.1-3.4,3.9-7,5.4-10.7
	C-119.6,705-121,704.6-121.4,705.5"/>
<path class="st1" d="M-126,717.4c2.5-0.3,4.8,0.3,6.8,1.6c0.8,0.5,1.6-0.8,0.8-1.3c-2.3-1.5-4.9-2.1-7.6-1.8
	C-126.9,716-126.9,717.5-126,717.4"/>
<path class="st1" d="M-125.4,717.2c7.6,2.9,15.1,5.5,21.8,10.2c0.8,0.6,1.5-0.7,0.8-1.3c-6.8-4.8-14.4-7.5-22.1-10.4
	C-125.9,715.4-126.3,716.9-125.4,717.2"/>
<path class="st1" d="M-103,727.5c4.1,1.1,7.5,3.4,10.3,6.7c0.4,0.5,1.1,0.1,1.3-0.3c0.4-0.4,0.8-0.9,1.1-1.3
	c0.8-0.5,0.1-1.8-0.8-1.3c-1,0.6-1.4,1.2-1.8,2.2l1.3-0.3c-2.9-3.5-6.6-5.9-10.9-7.1C-103.6,725.8-104,727.2-103,727.5"/>
<path class="st1" d="M-101.4,666c-7.4,17-14.7,34-21.8,51.2c-0.4,0.9,1.1,1.3,1.5,0.4c7.1-17,14.3-33.9,21.7-50.8
	C-99.7,665.9-101,665.1-101.4,666"/>
<path class="st1" d="M-89.6,661c-0.5,3.1-0.7,6.1-0.4,9.3c0.1,1,1.6,1,1.5,0c-0.3-3-0.2-5.9,0.3-8.9C-87.9,660.4-89.4,660-89.6,661"
	/>
</svg>
