<?xml version="1.0" encoding="utf-8"?>
<!-- Generator: Adobe Illustrator 19.1.1, SVG Export Plug-In . SVG Version: 6.00 Build 0)  -->
<svg version="1.1" id="Слой_1" xmlns="http://www.w3.org/2000/svg" xmlns:xlink="http://www.w3.org/1999/xlink" x="0px" y="0px"
	 viewBox="-368.5 475.9 165.8 108.5" style="enable-background:new -368.5 475.9 165.8 108.5;" xml:space="preserve">
<style type="text/css">
	.st0{fill:#F49E00;}
	.st1{fill:#00040B;}
</style>
<polygon class="st0" points="-248.8,498 -263.1,506.8 -254.5,551.8 -246.1,547.1 -238,541.9 -240.2,525.4 -242.6,513.8 "/>
<path class="st1" d="M-326.1,539.7c-2.9-1.8-4.9,1.8-6,3.9c-0.9,1.9-2.7,5.7,0.6,6.2c5.3,0.8,10.8-6.3,5.6-10
	c-0.7-0.5-1.4,0.7-0.7,1.2c3.5,2.5,0.1,6.7-2.9,7.3c-0.9,0.2-2.3,0.6-2.5-1c-0.1-0.7,0.8-2.2,1-2.7c0.6-1.3,2.2-5,4.2-3.7
	C-326,541.3-325.3,540.1-326.1,539.7z"/>
<path class="st1" d="M-328.3,540.4c2.3-3.3,1.6-7.4,3.4-10.9c2-3.8,6.1-6.8,9.1-9.7c1.6-1.6,3.1-3.4,4.9-4.6
	c2.5-1.8,5.3-1.3,8.1-0.3c4,1.5,7.7,3.9,11.9,4.9c8,1.9,15.9-1.9,22.7-5.8c4.5-2.5,8.9-5.3,13.2-8.1v-1.6c-4.8,3.2-9.7,6.3-14.7,9.1
	c-4.5,2.5-9.4,4.9-14.6,5.5c-5.1,0.5-9.4-1.3-13.9-3.4c-3-1.4-6.5-3.3-10-2.8c-3.9,0.5-6.6,4.4-9.2,7c-2.9,2.8-6.6,5.6-8.6,9.2
	c-1.9,3.4-1.1,7.6-3.4,10.9C-330,540.4-328.8,541.1-328.3,540.4z"/>
<path class="st1" d="M-333.1,549.9c2.4,5.5,9.1,3.8,12.8,0.9c4.4-3.4,8.4-8.5,7.5-14.4c-0.2,0.3-0.4,0.6-0.7,0.9
	c3-0.1,6.4-0.5,8.4-2.9c1.5-1.8,1.8-4,0.9-6.1c-0.4-0.8-1.6-0.1-1.2,0.7c2.4,5.1-4.5,6.9-8.1,7c-0.5,0-0.7,0.4-0.7,0.9
	c0.7,4.7-2.3,8.8-5.6,11.8c-3.1,2.8-9.7,6.3-12.1,0.6C-332.3,548.4-333.5,549.1-333.1,549.9z"/>
<path class="st1" d="M-305.8,535.1c3.7,0.5,6.7,3.5,9.6,5.7c2.7,2,5.4,4.1,8,6.1c2.7,2,5.4,4.1,8,6.1c2.2,1.7,4.4,3.6,7.1,4.6
	c3.7,1.3,8,0.2,9.3-3.9c1-3.3,0.3-7.5-3.2-8.9c-0.8-0.3-1.2,1-0.4,1.3c2.5,1,2.9,4.1,2.4,6.5c-0.7,3.4-3.8,4.7-6.9,3.9
	c-4.4-1.1-8.3-5.3-11.9-7.9c-3.9-3-7.9-6-11.8-9c-3.1-2.5-6.1-5.4-10.2-5.9C-306.7,533.6-306.7,534.9-305.8,535.1z"/>
<path class="st1" d="M-284.5,549.3c5.1,0.8,10.9-5.3,11.8-9.9c1.2-6-2.7-11.2-7.4-14.4c-0.7-0.5-1.4,0.7-0.7,1.2
	c3.8,2.6,7.1,6.5,6.9,11.3c-0.1,2.5-1.2,4.6-2.9,6.4c-1.8,1.9-4.6,4.5-7.4,4.1C-285,547.8-285.4,549.1-284.5,549.3z"/>
<path class="st1" d="M-263.9,553.1c2.7-3.8,6.5-5.6,10.6-7.2v-1.5l-0.8,0.3c-4.4,1.7-8.1,3.6-10.9,7.6
	C-265.6,553.2-264.5,553.8-263.9,553.1z"/>
<path class="st1" d="M-341.8,521.1c5-2.7,10-5.8,15.2-7.9c5.4-2.1,11.2-1.5,16.8-2.2c8.8-1.1,24.2-3.8,27,8.2
	c0.2,0.9,1.5,0.5,1.3-0.4c-2.5-10.9-15.6-11-24.3-9.8c-3.6,0.5-7.1,0.9-10.7,1.1c-3,0.1-5.9,0.2-8.8,1.1c-6.1,1.9-11.7,5.6-17.3,8.6
	C-343.2,520.3-342.5,521.5-341.8,521.1z"/>
<path class="st1" d="M-355.4,513.8l1.8,0.7c4,1.6,8.3,2.9,11.5,5.9c0.6,0.6,1.6-0.4,1-1c-2.9-2.7-6.5-4.1-10.1-5.5l-2.4-0.9
	L-355.4,513.8z"/>
<path class="st1" d="M-294.4,559.1c1.7,2.8,4.2,4.7,7.1,6.3c2.9,1.6,6.3,3.3,9.6,3.7c3,0.3,5.3-0.9,7-3.4c1.6-2.4,3.2-5.4,2.6-8.3
	c-0.2-0.9-1.5-0.5-1.3,0.4c0.6,2.7-1.5,6.5-3.3,8.4c-2.4,2.4-5.6,1.7-8.5,0.6c-4.5-1.7-9.3-4-11.9-8.2
	C-293.7,557.6-294.9,558.3-294.4,559.1z"/>
<path class="st1" d="M-299.9,569.6c3.1,0.7,5.5,1.8,8.1,3.6c1.8,1.2,3.8,2,6,1.9c4,0,7.3-2.5,8.9-6.1c0.4-0.8-0.8-1.5-1.2-0.7
	c-1.9,4.4-6.7,6.6-11.2,4.7c-1.8-0.8-3.2-2.2-4.9-3.1c-1.7-0.9-3.5-1.3-5.3-1.7C-300.4,568-300.8,569.4-299.9,569.6z"/>
<path class="st1" d="M-305.8,575.2c3.6,1.1,6.2,3.7,10.2,3.3c3-0.3,5.6-1.7,7.6-4c0.6-0.7-0.4-1.7-1-1c-2,2.4-4.9,3.8-8.1,3.6
	c-3.1-0.2-5.5-2.4-8.4-3.3C-306.2,573.6-306.6,574.9-305.8,575.2z"/>
<path class="st1" d="M-307.1,581.7c3.6,0.4,7-0.8,9.6-3.4c0.6-0.6-0.3-1.6-1-1c-2.3,2.3-5.4,3.3-8.6,3
	C-308,580.2-308,581.6-307.1,581.7z"/>
<path class="st1" d="M-319.9,582.1c4.8,3,11.3,3.9,13.8-2.4c1.6-4-1.9-8.3-6.1-6c-0.8,0.4-0.1,1.6,0.7,1.2c2.1-1.2,4.3,0.2,4.4,2.5
	c0.1,1.9-1.3,4.2-2.9,5.1c-3,1.8-6.5,0.1-9.2-1.6C-319.9,580.4-320.6,581.6-319.9,582.1z"/>
<path class="st1" d="M-329.9,576.7c-0.1,3.6,3.1,6,6.5,6c3.7,0,9.1-2.5,11.6-5.4c2.3-2.7,0.3-6-2.5-7.3c-1.7-0.8-4.2-1.5-6.1-1.6
	c-1.1-0.1-1.8,0-2.3,1.1c-0.3,0.8,1,1.2,1.3,0.4c0.2-0.4,16.2,2,5.9,8.4c-1.8,1.1-3.8,2.3-5.9,2.7c-3.1,0.7-7.3-0.4-7.2-4.3
	C-328.5,575.8-329.9,575.8-329.9,576.7z"/>
<path class="st1" d="M-340.3,564.4c-0.8,4.4-1.3,9.8,3.8,11.5c5.2,1.7,9.6,0.7,13-3.6c2.5-3,3.2-6.4-0.3-9c-1.8-1.3-4.2-2-6.4-1.9
	c-2.5,0.1-6.9,4-8.8,1.7c-0.6-0.7-1.5,0.3-1,1c1.4,1.6,3.4,1.5,5.2,0.6c2.2-1.1,3.9-2.3,6.5-1.8c1.8,0.3,4.5,1.3,5.2,3.1
	c1.9,4.5-4.9,9.3-8.8,9.3c-2.3,0-5-0.6-6.5-2.3c-1.8-2.2-1.2-5.6-0.8-8.2C-338.8,563.9-340.1,563.6-340.3,564.4z"/>
<path class="st1" d="M-368.1,549.1c5.4,1.8,10.7,3.9,15.9,6.4c4.4,2.1,8.5,4.5,11.6,8.3c0.6,0.7,1.5-0.3,1-1
	c-3.2-3.9-7.4-6.4-11.9-8.5c-5.3-2.5-10.7-4.6-16.2-6.5C-368.6,547.5-368.9,548.8-368.1,549.1z"/>
<path class="st1" d="M-350.9,555.4c-1.2,3.8-0.1,7.9,3.2,10.2c2.5,1.7,6.4,2.4,8.4-0.3c0.5-0.7-0.7-1.4-1.2-0.7
	c-1.8,2.4-5.7,0.8-7.4-0.9c-2.1-2.1-2.7-5.1-1.8-7.9C-349.3,554.9-350.6,554.6-350.9,555.4z"/>
<path class="st1" d="M-333,567.8c2.8-0.8,5.7,0,7.8,2.1c0.6,0.6,1.6-0.3,1-1c-2.4-2.4-5.8-3.4-9.1-2.5
	C-334.2,566.7-333.8,568.1-333,567.8z"/>
<path class="st1" d="M-333.6,567.4c-1.5,2.4-0.7,5.7,2.1,6.6c3.4,1.2,6.1-1.9,7.6-4.5c0.4-0.8-0.8-1.5-1.2-0.7
	c-0.9,1.7-2.1,3.5-4.1,4c-2.9,0.7-4.6-2.4-3.1-4.7C-331.9,567.4-333.1,566.7-333.6,567.4z"/>
<path class="st1" d="M-320.6,572.6c-1.3,0.5-2.7,1.2-3.4,2.5c-0.6,1.3-0.2,2.9,0.9,3.8c2.8,2.5,7.2,0.3,9.6-1.6
	c0.4-0.4,0.1-1-0.3-1.2c-2.4-0.8-4.3-2.4-5.7-4.5c-0.5-0.7-1.7-0.1-1.2,0.7c1.6,2.4,3.8,4.1,6.5,5.1c-0.1-0.4-0.2-0.8-0.3-1.2
	c-1.5,1.3-3.6,2.4-5.6,2.3c-1.4,0-3.3-1-2.8-2.7c0.3-1.1,1.7-1.6,2.6-2C-319.4,573.6-319.8,572.3-320.6,572.6z"/>
<path class="st1" d="M-312.8,577.9c0.8,1.4,1.7,2.7,2.9,3.9l0.7-1.2c-1.1-0.4-2.1,0.2-3.3,0.1c-0.8-0.1-0.9-0.9-0.6-1.5
	c0.3-0.6,0.9-1.1,1.4-1.5c0.7-0.6-0.3-1.5-1-1c-1.3,1-2.7,2.8-1.5,4.5c1.2,1.7,3.1,0.2,4.6,0.8c0.7,0.2,1.1-0.7,0.7-1.2
	c-1.1-1.1-2-2.3-2.7-3.6C-312.1,576.4-313.3,577.1-312.8,577.9z"/>
<path class="st1" d="M-248.9,499.1c-4.4,3.2-9.1,5.8-14,7.9l0.5-0.9c1.4,9.7,3,19.2,4.9,28.7c0.9,4.7,1.9,9.5,3,14.2
	c0.3,1.3,0,2.4,1.7,1.7c1.2-0.5,2.6-1.7,3.7-2.5c2.2-1.5,8-5,10.1-6.5c0.8-0.5,1.5,0.5,0.7,1.1c-2.5,1.7-8.6,5.4-11,7.1
	c-1.2,0.8-3.6,3.2-5,2.9c-1.3-0.2-1.3-2.7-1.6-3.7c-0.6-2.9-1.3-5.7-1.8-8.6c-2.3-11.2-4.3-22.4-5.9-33.8c-0.1-0.3,0.1-0.8,0.5-0.9
	c4.8-2,9.3-4.6,13.7-7.7C-248.8,497.5-248.1,498.6-248.9,499.1z"/>
<path class="st1" d="M-249.3,499.1c7.6,16.4,11.3,34.6,10.7,52.7c-0.1,4.6-0.6,9.1-1.3,13.6c-0.3,2.1-0.7,4.1-1.1,6.1
	c-0.3,1.4-0.3,4.2-2.9,3.3c-0.6-0.2-1.8-1.5-2.4-2.1c-5.6-5.6-8.6-13.3-14.6-18.5c-0.7-0.6-1.6,0.4-1,1c5.4,4.8,8.5,11.5,13.1,17
	c1.3,1.5,3.7,4.6,6,4.5c2.7-0.2,2.9-4.2,3.2-6.1c3-15.3,2.9-31.2-0.3-46.5c-1.8-8.8-4.7-17.4-8.5-25.6
	C-248.5,497.6-249.7,498.3-249.3,499.1z"/>
<path class="st1" d="M-247.8,497.9c12.6-8.3,27.8-11.6,39.9-20.7c0.7-0.5,0-1.7-0.7-1.2c-12.1,9.1-27.3,12.4-39.9,20.7
	C-249.2,497.2-248.5,498.4-247.8,497.9z"/>
<path class="st1" d="M-242.1,576.6c2.7-2.7,6-4.5,9.2-6.4c3.1-1.9,5.8-4.1,8.6-6.5c6.3-5.6,13.3-10,21.1-13.2
	c0.8-0.3,0.5-1.6-0.4-1.3c-7.4,3-14.2,7.1-20.3,12.3c-3.3,2.8-6.4,5.5-10.1,7.7c-3.2,1.9-6.4,3.8-9.1,6.4
	C-243.7,576.3-242.7,577.3-242.1,576.6z"/>
</svg>
