<?xml version="1.0" encoding="utf-8"?>
<!-- Generator: Adobe Illustrator 19.1.1, SVG Export Plug-In . SVG Version: 6.00 Build 0)  -->
<svg version="1.1" id="Kadastr" xmlns="http://www.w3.org/2000/svg" xmlns:xlink="http://www.w3.org/1999/xlink" x="0px" y="0px"
	 viewBox="-172 347.7 250.7 146.2" style="enable-background:new -172 347.7 250.7 146.2;" xml:space="preserve">
<style type="text/css">
	.st0{fill:#131F22;}
	.st1{fill:#FFFFFF;}
	.st2{fill:#F49E00;}
</style>
<g id="land">
	<path class="st0" d="M-90.7,460.6c18.6-12.2,40.3-18.6,62.3-20.4c10.8-0.9,21.6-0.7,32.4,0.3c11.9,1.2,24.2,3.1,35.4,7.4
		c11.9,4.6,22.4,12.2,34.8,15.6c1,0.3,1.4-1.2,0.4-1.5C63,458.8,53,452,41.9,447.3c-10.7-4.5-22.4-6.6-33.8-7.9
		c-22.1-2.6-44.9-1.6-66.3,4.6c-11.8,3.4-23,8.5-33.3,15.2C-92.3,459.8-91.5,461.1-90.7,460.6"/>
	<path class="st0" d="M19.9,441.7c3.7-8.2,15.2-8.4,18.7,0.1c0.2,0.5,0.9,0.8,1.3,0.3c6.5-7.9,19.4-2.6,17.9,7.7
		c-0.1,1,1.2,1.4,1.5,0.4c1.5-5.8,10.5-3.9,13.3-0.5c3.2,3.7,1.6,9.9-3.3,10.9c-1,0.2-0.6,1.7,0.4,1.5c6-1.3,8-9.1,4-13.5
		c-3.7-4.2-14.2-5.7-15.9,1.2c0.5,0.1,1,0.3,1.5,0.4c1.7-11.7-12.8-18.5-20.5-9.2l1.3,0.3c-3.9-9.6-17.2-10.1-21.5-0.5
		C18.1,441.8,19.4,442.6,19.9,441.7"/>
	<path class="st0" d="M-153.2,434.2c30.5-15.8,66.1-20.6,99.6-13.3c1,0.2,1.4-1.3,0.4-1.5c-34-7.4-70-2.6-100.8,13.5
		C-154.9,433.3-154.1,434.6-153.2,434.2"/>
	<path class="st0" d="M-38.3,423c-2.3-4.6-7.8-7-12.7-4.9c-4.9,2.1-7.5,7.4-9.1,12.2c0.5-0.1,0.9-0.1,1.4-0.2
		c-2.3-3.9-6.1-7.2-10.1-3.4c-3.7,3.5-7.1,9.1-5.1,14.3c0.4-0.3,0.8-0.6,1.1-0.9c-5-3.3-12.3-2.2-15.3,3.3c-1.4,2.5-1.8,5.6-1.1,8.3
		c0.6,2.2,2.1,5,4.7,4.1c0.9-0.3,0.5-1.8-0.4-1.5c-2.7,0.8-3.2-4.8-3.1-6.2c0.2-2.2,1.1-4.3,2.6-5.9c3.2-3.2,8.2-3.2,11.8-0.9
		c0.5,0.3,1.4-0.2,1.1-0.9c-1.4-3.6,0.1-7,2.3-9.9c1.1-1.4,3.2-4.3,5.2-4.2c2.3,0,3.9,2.7,5,4.5c0.4,0.6,1.2,0.4,1.4-0.2
		c1.3-3.9,3.2-8.2,6.8-10.5c4.4-2.8,9.8-1,12.1,3.5C-39.1,424.7-37.8,423.9-38.3,423"/>
	<path class="st0" d="M-61.6,444.8c-0.6-0.5-1.3-1.1-1.9-1.6c-0.2-1.4,0.2-2.5,1.1-3.3c0.8-1,2-1.9,3.2-2.2c2.7-0.8,5.3,0.1,6.7,2.5
		c0.5,0.9,1.7,0.1,1.3-0.8c-1.5-3.4,1.9-6.1,5.1-5.2c2.2,0.6,3.6,2.6,4.3,4.7c0.4,1.2,0.3,2.3,1.7,2.5c0.3,0,0.6,0,0.8-0.2
		c0.1-0.1,0.2-0.2,0.3-0.4c0.6-0.8-0.5-1.9-1.1-1.1c1-1.2-1.9-4.9-2.7-5.5c-1.6-1.4-3.7-2-5.7-1.6c-3.6,0.7-5.3,4.4-3.9,7.6
		c0.4-0.3,0.9-0.5,1.3-0.8c-2.5-4.2-7.9-4.6-11.5-1.5c-2.9,2.5-3.7,7.9,1.1,8.5C-60.7,446.5-60.7,444.9-61.6,444.8"/>
	<path class="st0" d="M-166.3,483.8c-4.5-1.3-5.5-7-2.4-10.3c2.6-2.6,8.8-4.4,11.1-0.5c0.5,0.9,1.8,0.1,1.3-0.8
		c-0.8-1.6-1.3-3.2-1.3-5.1c0-0.7,0.1-1.5,0.3-2.2c0.8-3.1,2.8-3.1,5.9,0.1c0.1,1,1.7,1,1.5,0c-0.3-1.9-0.9-8.1,3-7.6
		c3.6,0.5,4,4.3,4,7.2h1.5c-0.6-4.5,7.9-9.6,9.6-3.5c0.9,3.2,0.1,6.6-1.4,9.5c-0.5,0.9,0.9,1.7,1.3,0.8c2-3.7,3.8-11.6-0.8-14.3
		c-4.2-2.4-10.8,3.1-10.2,7.5c0.1,1,1.6,1,1.5,0c0-3.5-1.1-8.7-5.6-8.7c-4.7,0-4.9,5.8-4.5,9.1h1.5c-0.4-3.3-3.7-5.7-6.8-3.7
		c-3.7,2.4-2.6,8.4-0.9,11.6c0.4-0.3,0.9-0.5,1.3-0.8c-2.9-5.1-10.9-3.1-14,0.8c-3.3,4.2-1.7,10.7,3.6,12.2
		C-165.7,485.6-165.3,484.1-166.3,483.8"/>
	<path class="st0" d="M-138.6,457.7c-5.5-6.6,7-9.1,7.6-3c0.1,0.7,1,1.1,1.4,0.4c0.9-1.6,2.5-3.3,4.4-3.7c5.2-1,4,3.4,3,5.6
		c-0.3,0.7,0.8,1.4,1.3,0.8c0.8-1,1.6-2.2,2.8-2.9c2.5-1.5,5,0.7,5,3.3c0,2.7-1.4,5.1-3.4,6.9c0.4,0.3,0.9,0.5,1.3,0.8
		c0.1-0.3,0.2-0.6,0.3-0.8c0.3-1-1.2-1.4-1.5-0.4c-0.1,0.3-0.2,0.6-0.3,0.8c-0.2,0.8,0.7,1.3,1.3,0.8c2.9-2.7,5.3-7.7,2.9-11.5
		c-2.7-4.3-7.4-0.8-9.5,2c0.4,0.3,0.9,0.5,1.3,0.8c1-2.5,1.6-6.4-1.6-7.6c-3.4-1.3-7.1,1.8-8.7,4.5c0.5,0.1,1,0.3,1.4,0.4
		c-0.4-4.5-5-5.7-8.8-4.5c-4.7,1.5-4,5.5-1.4,8.6C-139.1,459.6-138,458.5-138.6,457.7"/>
	<path class="st0" d="M-160.1,434.1c-1.2-6.8,5.3-11.6,11.5-9c0.7,0.3,1.3-0.8,0.8-1.3c-1.8-1.6-1.7-4.8,0.5-6.1
		c2.8-1.7,5.8,1,6.5,3.6c0.2,0.9,1.5,0.6,1.5-0.2c0.2-4.1,1.1-8,3-11.6c1.6-3.2,6.1-9.2,9.9-4.8c0.5,0.5,1.3,0.1,1.3-0.5
		c0-8,10.7-10.1,13.6-2.6c0.2,0.6,1.4,0.8,1.5,0c1-6.3,4.9-11.8,10.7-14.6c4.2-2,8.8-1.8,11.3,2.6c2.3,4,1.1,9-0.1,13.2
		c0.5,0.1,1,0.1,1.5,0.2c0.5-4,6-3.2,7.5-0.6c0.9,1.5,1.9,8.7-0.9,9c0.2,0.4,0.4,0.8,0.7,1.2c2.8-4.6,6.2,2.1,6.7,4.3
		c0.3,1,1.7,0.6,1.5-0.4c-0.7-2.5-1.7-5.4-4.3-6.4c-2-0.7-4.2-0.1-5.3,1.7c-0.3,0.5,0.1,1.2,0.7,1.2c5.1-0.5,3.8-10.3,1.1-12.8
		c-3-2.8-8.7-1.5-9.2,2.8c-0.1,0.9,1.3,1,1.5,0.2c1.4-4.6,2.5-9.9-0.1-14.4c-1.7-3.1-4.8-5-8.4-4.7c-8.5,0.8-15.2,9-16.5,17h1.6
		c-3.5-9.1-16.6-6.8-16.6,3c0.4-0.2,0.9-0.4,1.3-0.5c-3.1-3.5-7.7-1.5-10.2,1.6c-3.5,4.5-5.1,10.3-5.4,15.9c0.5-0.1,1-0.1,1.5-0.2
		c-0.9-3.6-5.1-6.7-8.7-4.5c-3,1.8-3.4,6.3-0.8,8.6c0.3-0.4,0.5-0.9,0.8-1.3c-7.5-3.2-14.8,3-13.5,10.8
		C-161.4,435.5-159.9,435.1-160.1,434.1"/>
	<path class="st0" d="M-39.3,423.9c0.2-0.1,0.4-0.2,0.6-0.3c0.2,0.3,0.4,0.6,0.5,1c0.4-1.8,4.5,0,5.3,0.7c1.4,1.3,1.6,3,1.1,4.8
		c-0.2,0.7,0.6,1.2,1.1,0.9c5.3-2.7,7.8,3.7,6.4,7.8c-0.3,0.9,1.2,1.4,1.5,0.4c1.9-5.6-2.3-12.7-8.7-9.5c0.4,0.3,0.8,0.6,1.1,0.9
		c0.9-3-0.2-6.4-3.2-7.6c-1.5-0.6-5.6-0.9-6.1,1.3c-0.1,0.4,0.1,0.8,0.5,1l0.2,0.1c0.3,0.1,0.7-0.1,0.9-0.4c0,0,0-0.1,0.1-0.1
		C-37.6,423.8-38.9,423-39.3,423.9"/>
	<path class="st0" d="M-32.4,425c8.7,3.3,18.5,6.3,24.5,13.9c0.6,0.8,1.7-0.3,1.1-1.1C-13,430-23,426.8-32,423.5
		C-32.9,423.2-33.3,424.7-32.4,425"/>
	<path class="st0" d="M-18.8,429.2c5.8-4.2,12.2-7.1,18.8-9.6c6.4-2.3,13.6-5.5,20.5-5.6c1,0,1-1.6,0-1.5c-7,0.1-14.3,3.3-20.9,5.6
		c-6.8,2.5-13.3,5.5-19.2,9.7C-20.3,428.4-19.6,429.8-18.8,429.2"/>
	<path class="st0" d="M-168.7,441.7c4.9-3.1,10.1-5.7,15.5-7.8c0.9-0.3,0.5-1.8-0.4-1.5c-5.6,2.1-10.9,4.7-15.9,7.9
		C-170.3,440.9-169.5,442.3-168.7,441.7"/>
	<path class="st0" d="M-116.9,461.1c1,0,1-1.5,0-1.5S-117.9,461.1-116.9,461.1"/>
	<path class="st0" d="M-143,475.5c43.7-16.8,95.9-23.7,136.7,4.4c0.8,0.6,1.6-0.8,0.8-1.3c-30.8-21.2-70-23-105.4-14.8
		c-11.1,2.6-21.9,6.1-32.5,10.2C-144.3,474.4-143.9,475.9-143,475.5"/>
	<path d="M69.3,419.8c3,0.8,5.7,2.1,8.2,4c0.7,0.5,1.6-0.4,0.9-0.9c-2.6-2.1-5.5-3.5-8.8-4.4C68.9,418.3,68.5,419.6,69.3,419.8"/>
</g>
<g id="house1">
	<path id="w1" class="st1" d="M-92.8,396c0.7,0.3,1.4,0.3,2.3,0.2c0.7-0.1,0.7-1.1,0.2-1.4c-1.7-1.1-2.4-2.4-3.7-3.9
		c-0.6-0.7-0.8-0.9-1.7-1.1c-1.3-0.3-2.9,0.2-4.2,0.3c-2,0.2-4,0.3-6,0.4c-7.8,0.4-15.6,0.2-23.4-0.4c-0.9-0.1-1,1.3-0.1,1.5
		l-3.8,3.7c-0.3,0.3-0.3,0.7-0.1,1c-0.4,0.6,0.3,1.6,1,1.1c0.7-0.5,1.4-0.5,2.1-0.1c-0.5,15.3-0.4,30.7,0.2,46c0.5,0,1-0.1,1.5-0.1
		l-0.2-0.7h-0.6v-0.6c-0.5,0-1.1,0.2-1,0.6c0.1,0.3,0.1,0.6,0.2,0.9c0.1,0.6,1.5,0.4,1.5-0.1v-0.9l11-0.9l0.1-0.5
		c0.4,0.4,1.2,0.4,1.3-0.3c0.6-3,0.8-6.1,0.5-9.1h3.9c1.1,0,3.3-0.4,4.1,0.4c0.8,0.8,0.6,3.1,0.6,4.3c0,1.6,0,3.1,0,4.7
		c0,1,1.5,1,1.5,0l0,0l10.8,0.5l-0.1,0.5c-0.1,1,1.4,1,1.5,0c2.1-16,0.3-21-0.2-30.4v-0.4v-0.5C-93.4,406.7-93.4,402.2-92.8,396"/>
	<path d="M-84.4,370c0.7,0,1,0.8,1,2.1c0,1.3-0.3,2.1-1,2.1c-0.6,0-1-0.8-1-2.1C-85.5,370.7-85,370-84.4,370 M-84.4,369.4
		c-1,0-1.8,0.9-1.8,2.6s0.7,2.6,1.7,2.6c1.1,0,1.8-1,1.8-2.7C-82.7,370.4-83.3,369.4-84.4,369.4z M-88.4,370c0.7,0,1,0.8,1,2.1
		c0,1.3-0.3,2.1-1,2.1c-0.6,0-1-0.8-1-2.1C-89.5,370.7-89,370-88.4,370z M-88.4,369.4c-1,0-1.8,0.9-1.8,2.6s0.7,2.6,1.7,2.6
		c1.1,0,1.8-1,1.8-2.7C-86.7,370.4-87.3,369.4-88.4,369.4z M-94.1,374.3c0.3,0.2,0.8,0.3,1.3,0.3c1.2,0,1.9-0.7,1.9-1.5
		c0-0.7-0.5-1.2-1.1-1.3l0,0c0.6-0.2,0.9-0.7,0.9-1.2c0-0.6-0.5-1.2-1.5-1.2c-0.5,0-1.1,0.2-1.3,0.4l0.2,0.5c0.2-0.2,0.6-0.3,1-0.3
		c0.6,0,0.9,0.4,0.9,0.8c0,0.6-0.6,0.9-1.1,0.9h-0.4v0.5h0.3c0.7,0,1.3,0.3,1.3,1c0,0.4-0.3,1-1.1,1c-0.5,0-0.9-0.2-1.1-0.3
		L-94.1,374.3z M-99.3,372.7L-99.3,372.7l1.2-1.7c0.1-0.2,0.3-0.5,0.4-0.8l0,0c0,0.3,0,0.5,0,0.8v1.7H-99.3z M-97,374.6v-1.4h0.7
		v-0.5H-97v-3.2h-0.7l-2.3,3.3v0.5h2.4v1.4h0.6V374.6z M-102.1,373.5V373h-4v0.5H-102.1z M-102.1,372v-0.5h-4v0.5H-102.1z
		 M-110.3,374.6h0.7v-5.1h-0.6l-1.1,0.6l0.1,0.5l0.9-0.5l0,0C-110.3,370.1-110.3,374.6-110.3,374.6z M-112.5,374.6V374h-2.3l0,0
		l0.4-0.4c1.1-1,1.8-1.8,1.8-2.7c0-0.7-0.5-1.5-1.6-1.5c-0.6,0-1.1,0.2-1.4,0.5l0.2,0.5c0.2-0.2,0.6-0.4,1.1-0.4c0.8,0,1,0.5,1,1
		c0,0.8-0.6,1.4-1.9,2.7l-0.5,0.5v0.4H-112.5z M-116.9,374.7c0.3,0,0.5-0.2,0.5-0.5c0-0.3-0.2-0.5-0.5-0.5s-0.5,0.2-0.5,0.5
		C-117.3,374.5-117.1,374.7-116.9,374.7z M-116.9,371.9c0.3,0,0.5-0.2,0.5-0.5c0-0.3-0.2-0.5-0.5-0.5s-0.5,0.2-0.5,0.5
		C-117.3,371.7-117.1,371.9-116.9,371.9z M-122.6,372.7L-122.6,372.7l1.2-1.7c0.1-0.2,0.3-0.5,0.4-0.8l0,0c0,0.3,0,0.5,0,0.8v1.7
		H-122.6z M-120.3,374.6v-1.4h0.7v-0.5h-0.7v-3.2h-0.7l-2.3,3.2v0.5h2.4v1.4H-120.3z M-126.6,372.7L-126.6,372.7l1.2-1.7
		c0.1-0.2,0.3-0.5,0.4-0.8l0,0c0,0.3,0,0.5,0,0.8v1.7H-126.6z M-124.3,374.6v-1.4h0.7v-0.5h-0.7v-3.2h-0.7l-2.3,3.2v0.5h2.4v1.4
		H-124.3z M-131,369.5v0.6h2.5l0,0l-2.2,4.5h0.7l2.2-4.6v-0.5H-131z M-133.4,370c0.7,0,1,0.8,1,2.1c0,1.3-0.3,2.1-1,2.1
		c-0.6,0-1-0.8-1-2.1C-134.5,370.7-134,370-133.4,370z M-133.4,369.4c-1,0-1.8,0.9-1.8,2.6s0.7,2.6,1.7,2.6c1.1,0,1.8-1,1.8-2.7
		C-131.7,370.4-132.3,369.4-133.4,369.4z M-138.6,372.7L-138.6,372.7l1.2-1.7c0.1-0.2,0.3-0.5,0.4-0.8l0,0c0,0.3,0,0.5,0,0.8v1.7
		H-138.6z M-136.3,374.6v-1.4h0.7v-0.5h-0.7v-3.2h-0.7l-2.3,3.2v0.5h2.3v1.4H-136.3z M-141.4,370c0.7,0,1,0.8,1,2.1
		c0,1.3-0.3,2.1-1,2.1c-0.6,0-1-0.8-1-2.1C-142.5,370.7-142.1,370-141.4,370z M-141.4,369.4c-1,0-1.8,0.9-1.8,2.6s0.7,2.6,1.7,2.6
		c1.1,0,1.8-1,1.8-2.7C-139.7,370.4-140.3,369.4-141.4,369.4z M-147,369.5v0.6h2.5l0,0l-2.2,4.5h0.7l2.2-4.6v-0.5H-147z M-149.5,370
		c0.7,0,1,0.8,1,2.1c0,1.3-0.3,2.1-1,2.1c-0.6,0-1-0.8-1-2.1C-150.5,370.7-150.1,370-149.5,370z M-149.4,369.4c-1,0-1.8,0.9-1.8,2.6
		s0.7,2.6,1.7,2.6c1.1,0,1.8-1,1.8-2.7C-147.8,370.4-148.4,369.4-149.4,369.4z M-152.2,374.7c0.3,0,0.5-0.2,0.5-0.5
		c0-0.3-0.2-0.5-0.5-0.5s-0.5,0.2-0.5,0.5C-152.7,374.5-152.5,374.7-152.2,374.7z M-152.2,371.9c0.3,0,0.5-0.2,0.5-0.5
		c0-0.3-0.2-0.5-0.5-0.5s-0.5,0.2-0.5,0.5C-152.7,371.7-152.5,371.9-152.2,371.9z M-159.1,370c0.7,0,1,0.8,1,2.1
		c0,1.3-0.3,2.1-1,2.1c-0.6,0-1-0.8-1-2.1C-160.2,370.7-159.7,370-159.1,370z M-159.1,369.4c-1,0-1.8,0.9-1.8,2.6s0.7,2.6,1.7,2.6
		c1.1,0,1.8-1,1.8-2.7C-157.4,370.4-158,369.4-159.1,369.4z M-161.9,374.7c0.3,0,0.5-0.2,0.5-0.5c0-0.3-0.2-0.5-0.5-0.5
		c-0.3,0-0.5,0.2-0.5,0.5C-162.3,374.5-162.1,374.7-161.9,374.7z M-161.9,371.9c0.3,0,0.5-0.2,0.5-0.5c0-0.3-0.2-0.5-0.5-0.5
		c-0.3,0-0.5,0.2-0.5,0.5C-162.3,371.7-162.1,371.9-161.9,371.9z M-80.4,374.6h0.6l0.1-1.8c0-0.4,0-0.9,0.1-1.4l0,0
		c0.1,0.4,0.3,0.9,0.4,1.3l0.7,1.9h0.5l0.7-1.9c0.2-0.6,0.3-0.9,0.4-1.2l0,0c0,0.5,0,0.9,0.1,1.4l0.1,1.8h0.7l-0.3-3.8h-0.9
		l-0.6,1.6c-0.1,0.4-0.4,1-0.4,1.3l0,0c-0.1-0.3-0.3-0.8-0.3-1l-0.7-1.9H-80L-80.4,374.6z M-155.3,374.6h0.7v-5.1h-0.6l-1.1,0.6
		l0.1,0.5l0.9-0.5l0,0V374.6z M-166.4,374.3c0.2,0.2,0.7,0.4,1.3,0.4c1.2,0,1.9-0.7,1.9-1.5c0-0.7-0.5-1.2-1.1-1.3l0,0
		c0.6-0.2,0.9-0.7,0.9-1.2c0-0.6-0.5-1.2-1.5-1.2c-0.5,0-1.1,0.2-1.3,0.4l0.2,0.4c0.2-0.2,0.6-0.3,1-0.3c0.6,0,0.9,0.4,0.9,0.8
		c0,0.6-0.6,0.9-1.1,0.9h-0.5v0.5h0.4c0.7,0,1.3,0.3,1.3,1c0,0.4-0.3,1-1.1,1c-0.5,0-0.9-0.2-1.1-0.3L-166.4,374.3z M-168.7,374.2
		c-0.7,0-1.1-0.6-1.1-1.5c0-0.1,0-0.2,0.1-0.3c0.2-0.4,0.6-0.6,1-0.6c0.6,0,1,0.4,1,1.2S-168.1,374.2-168.7,374.2z M-167.5,369.4
		c-0.1,0-0.3,0-0.5,0c-0.6,0.1-1.2,0.3-1.6,0.8c-0.5,0.5-0.9,1.3-0.9,2.3c0,1.3,0.7,2.2,1.8,2.2c1.1,0,1.7-0.9,1.7-1.8
		c0-1-0.6-1.6-1.5-1.6c-0.6,0-1,0.3-1.2,0.6l0,0c0.1-0.8,0.7-1.6,1.8-1.8c0.2,0,0.4,0,0.5,0v-0.7H-167.5z M-96.1,365.2h0.6l0.1-1.8
		c0-0.4,0-0.9,0.1-1.4l0,0c0.1,0.4,0.3,0.9,0.4,1.3l0.7,1.9h0.5l0.7-1.9c0.2-0.6,0.3-0.9,0.4-1.2l0,0c0,0.5,0,0.9,0.1,1.4l0.1,1.8
		h0.7l-0.3-3.9h-0.9l-0.6,1.6c-0.1,0.4-0.4,1-0.4,1.3l0,0c-0.1-0.3-0.3-0.8-0.3-1l-0.7-1.9h-0.8L-96.1,365.2z M-98.5,361.9
		c0.8,0,1.1,0.8,1.1,1.5c0,0.9-0.5,1.5-1.1,1.5c-0.7,0-1.1-0.6-1.1-1.5C-99.7,362.6-99.3,361.9-98.5,361.9z M-98.5,361.3
		c-1,0-1.9,0.7-1.9,2c0,1.2,0.8,1.9,1.8,1.9c0.9,0,1.9-0.6,1.9-2C-96.7,362.1-97.4,361.3-98.5,361.3z M-103.9,363c0-0.1,0-0.2,0-0.3
		c0.1-0.5,0.6-0.9,1-0.9c0.7,0,1.1,0.6,1.1,1.4c0,0.9-0.4,1.5-1.1,1.5c-0.5,0-0.9-0.3-1-0.8c0-0.1,0-0.2,0-0.3V363z M-104.6,366.8
		h0.7v-2.1l0,0c0.2,0.4,0.7,0.6,1.2,0.6c0.9,0,1.7-0.7,1.7-2c0-1.1-0.7-1.9-1.6-1.9c-0.6,0-1.1,0.3-1.3,0.7l0,0v-0.6h-0.6
		c0,0.4,0,0.8,0,1.2L-104.6,366.8L-104.6,366.8z M-108.1,363c0.1-0.5,0.4-1.1,1.1-1.1c0.8,0,1,0.7,1,1.1H-108.1z M-105.4,363.4
		c0-0.1,0-0.2,0-0.3c0-0.7-0.3-1.8-1.6-1.8c-1.1,0-1.8,0.9-1.8,2s0.7,1.9,1.9,1.9c0.6,0,1-0.1,1.3-0.2l-0.1-0.5
		c-0.3,0.1-0.6,0.2-1,0.2c-0.7,0-1.3-0.4-1.3-1.3H-105.4z M-113.7,365.2h0.6l0.1-1.8c0-0.4,0-0.9,0.1-1.4l0,0
		c0.1,0.4,0.3,0.9,0.4,1.3l0.7,1.9h0.5l0.7-1.9c0.2-0.6,0.3-0.9,0.4-1.2l0,0c0,0.5,0,0.9,0.1,1.4l0.1,1.8h0.7l-0.3-3.8h-0.9
		l-0.6,1.6c-0.1,0.4-0.4,1-0.4,1.3l0,0c-0.1-0.3-0.3-0.8-0.3-1l-0.7-1.9h-0.8L-113.7,365.2z M-116.2,361.9c0.8,0,1.1,0.8,1.1,1.5
		c0,0.9-0.5,1.5-1.1,1.5c-0.7,0-1.1-0.6-1.1-1.5C-117.3,362.6-117,361.9-116.2,361.9z M-116.2,361.3c-1,0-1.9,0.7-1.9,2
		c0,1.2,0.8,1.9,1.8,1.9c0.9,0,1.9-0.6,1.9-2C-114.3,362.1-115.1,361.3-116.2,361.3z M-122.1,361.4v3.8h0.7v-1.7h1.8v1.7h0.7v-3.8
		h-0.7v1.5h-1.8v-1.5H-122.1z M-125,365.3c0.3,0,0.5-0.2,0.5-0.5c0-0.3-0.2-0.5-0.5-0.5s-0.5,0.2-0.5,0.5
		C-125.5,365.1-125.3,365.3-125,365.3z M-128.4,361.9h1.2v2.8h-1.7c0.1-0.2,0.2-0.4,0.3-0.7c0.1-0.4,0.2-0.9,0.2-1.4V361.9z
		 M-129,361.4v1c0,0.5-0.1,1-0.2,1.5c-0.1,0.3-0.2,0.5-0.4,0.8h-0.4v1.7h0.5v-1.2h2.6v1.2h0.5v-1.7h-0.4v-3.3H-129z M-131.2,363.9
		c0,0.1,0,0.1,0,0.2c-0.1,0.3-0.4,0.6-0.9,0.6c-0.4,0-0.6-0.2-0.6-0.7c0-0.7,0.9-0.9,1.6-0.9L-131.2,363.9L-131.2,363.9z
		 M-130.5,365.2c0-0.3-0.1-0.6-0.1-0.9v-1.4c0-0.8-0.3-1.5-1.4-1.5c-0.5,0-0.9,0.1-1.2,0.3l0.2,0.5c0.3-0.2,0.6-0.3,1-0.3
		c0.8,0,0.9,0.6,0.9,0.9v0.1c-1.5,0-2.3,0.5-2.3,1.4c0,0.5,0.4,1.1,1.2,1.1c0.5,0,0.9-0.3,1.2-0.6l0,0l0.1,0.5L-130.5,365.2
		L-130.5,365.2z M-137,361.4v3.8h0.7v-1.7h0.1c0.6,0,1,0.3,1.3,0.9c0.1,0.3,0.3,0.6,0.4,0.8h0.7c-0.2-0.3-0.3-0.7-0.4-0.9
		c-0.3-0.7-0.7-1.1-1.3-1.1l1.6-1.7h-0.8l-1.4,1.6h-0.2v-1.6h-0.7V361.4z M-139.6,364.6c-0.2,0.1-0.5,0.2-0.8,0.2
		c-0.8,0-1.3-0.5-1.3-1.4c0-0.8,0.5-1.4,1.3-1.4c0.4,0,0.6,0.1,0.8,0.2l0.2-0.5c-0.2-0.1-0.5-0.2-1-0.2c-1.2,0-2,0.8-2,2
		s0.7,1.9,1.9,1.9c0.5,0,0.9-0.1,1.1-0.2L-139.6,364.6z M-147.6,361.4v3.8h0.7v-1.7h0.1c0.6,0,1,0.3,1.3,0.9
		c0.1,0.3,0.3,0.6,0.4,0.8h0.7c-0.2-0.3-0.3-0.7-0.4-0.9c-0.3-0.7-0.7-1.1-1.3-1.1l1.6-1.7h-0.8l-1.4,1.6h-0.2v-1.6h-0.7V361.4z
		 M-150.3,361.9c0.8,0,1.1,0.8,1.1,1.5c0,0.9-0.5,1.5-1.1,1.5c-0.7,0-1.1-0.6-1.1-1.5C-151.5,362.6-151.1,361.9-150.3,361.9z
		 M-150.3,361.3c-1,0-1.9,0.7-1.9,2c0,1.2,0.8,1.9,1.8,1.9c0.9,0,1.9-0.6,1.9-2C-148.5,362.1-149.2,361.3-150.3,361.3z
		 M-155.4,361.4v0.5h1.2v3.2h0.7v-3.2h1.2v-0.5H-155.4z M-156,364.6c-0.2,0.1-0.5,0.2-0.8,0.2c-0.8,0-1.3-0.5-1.3-1.4
		c0-0.8,0.5-1.4,1.3-1.4c0.4,0,0.6,0.1,0.8,0.2l0.2-0.5c-0.2-0.1-0.5-0.2-1-0.2c-1.2,0-2,0.8-2,2s0.7,1.9,1.9,1.9
		c0.5,0,0.9-0.1,1.1-0.2L-156,364.6z M-160.4,363.9c0,0.1,0,0.1,0,0.2c-0.1,0.3-0.4,0.6-0.9,0.6c-0.4,0-0.6-0.2-0.6-0.7
		c0-0.7,0.9-0.9,1.6-0.9L-160.4,363.9L-160.4,363.9z M-159.6,365.2c0-0.3-0.1-0.6-0.1-0.9v-1.4c0-0.8-0.3-1.5-1.4-1.5
		c-0.5,0-0.9,0.1-1.2,0.3l0.2,0.5c0.3-0.2,0.6-0.3,1-0.3c0.8,0,0.9,0.6,0.9,0.9v0.1c-1.5,0-2.3,0.5-2.3,1.4c0,0.5,0.4,1.1,1.2,1.1
		c0.5,0,0.9-0.3,1.2-0.6l0,0l0.1,0.5L-159.6,365.2L-159.6,365.2z M-166.4,361.4v1.3c0,0.9,0.5,1.2,1.2,1.2c0.4,0,0.8-0.1,1-0.3l0,0
		v1.5h0.7v-3.8h-0.7v1.8c-0.2,0.2-0.5,0.3-0.8,0.3c-0.6,0-0.8-0.3-0.8-0.8v-1.2C-165.8,361.4-166.4,361.4-166.4,361.4z
		 M-170.7,359.9l1.7,3.6c0.1,0.1,0.1,0.2,0,0.3c-0.1,0.4-0.5,0.9-1,0.9c-0.1,0-0.2,0-0.3,0l-0.1,0.6c0.1,0,0.2,0,0.4,0
		c0.5,0,0.9-0.2,1.2-0.6c0.4-0.5,0.7-1.3,1-2l1.1-2.7h-0.7l-0.8,2.2c-0.1,0.4-0.2,0.7-0.3,1l0,0c-0.1-0.3-0.3-0.6-0.4-0.9l-1-2.2
		h-0.8V359.9z"/>
	<g>
		<polygon class="st2" points="-139.4,431.5 -134.1,429.1 -129.6,428.8 -129.7,435.6 -136.9,436.5 		"/>
		<polygon class="st2" points="-132.2,450.6 -126,448.5 -115.6,447.5 -103.8,446.3 -90.7,446 -88.4,446.2 -87.9,450.2 -88.1,453.8 
			-94.6,453.3 -109.6,454.6 -113.3,454.2 -117.6,453.9 -120.1,455.9 -119.9,453.2 -122.2,451.7 -123.7,450.6 -126.3,451.8 
			-129.7,453.7 		"/>
		<path class="st2" d="M-93.9,403.9l-0.1-7.6l-9.5,0.8l-13.6,0.3l-12.1-0.5l-0.2,29l0.3,16.6l11.8-1l0.3-2.6l0.3-5.6l0.5-2.6
			l7.6,0.3l2.4,0.8l-0.2,7.7l0.1,1.3l12.3,0.6l0.8-3.5V411L-93.9,403.9z M-114.3,426h-7l-0.8-2.3l-0.3-5.1l4.8,0.5l3,0.3l0.3,4.8
			V426z M-122.6,408.3l0.2-2.1l5.4-0.5l2.3,1.2l-0.2,6.4l-0.5,1.2l-6.6-0.9L-122.6,408.3z M-100.5,424.3l-1.7,1.8l-6.2,0.3v-7.9
			l4.2,0.2l3.8-0.5L-100.5,424.3z M-99.9,411.7l-0.6,2h-6.7l-1.1-3.8v-4.1l8.3,0.9L-99.9,411.7L-99.9,411.7z"/>
		<polygon class="st2" points="-92.1,425.5 -86,426 -81.8,426.2 -84.4,431.7 -93,432.4 		"/>
		<path d="M-112,454.9c7.7-1,15.5-1.2,23.3-0.5c0.9,0.1,0.9-1.3,0-1.3c-7.8-0.7-15.5-0.5-23.3,0.5C-112.8,453.7-112.8,455-112,454.9
			"/>
		<path d="M-131.4,451.1c13.9-3.4,28.1-4.8,42.4-4.3c0.9,0,0.9-1.3,0-1.3c-14.4-0.6-28.7,0.9-42.7,4.3
			C-132.6,450-132.2,451.3-131.4,451.1"/>
		<path d="M-120.8,447.2c0.4,2.3,0.8,4.5,1.3,6.8c0.2,1,1.5,0.6,1.3-0.4c-0.4-2.3-0.8-4.5-1.3-6.8
			C-119.7,445.8-121,446.2-120.8,447.2"/>
		<path d="M-118.1,448.3c0.3,1.7,0.5,3.4,0.8,5.2c0.1,0.8,1.4,0.5,1.3-0.4c-0.3-1.7-0.5-3.4-0.8-5.2
			C-116.9,447.1-118.2,447.5-118.1,448.3"/>
		<path d="M-115.6,446.1c0.2,2.6,0.7,5.1,1.4,7.6c0.3,1,1.6,0.6,1.3-0.4c-0.7-2.3-1.2-4.7-1.4-7.2C-114.3,445-115.7,445-115.6,446.1
			"/>
		<path d="M-113,447.3c0.1,2.2,0.2,4.4,0.5,6.5c0.1,1,1.4,0.6,1.3-0.4c-0.2-2-0.4-4.1-0.4-6.1C-111.7,446.3-113,446.3-113,447.3"/>
		<path d="M-110.2,445.1c0.3,2.6,0.6,5.2,0.9,7.8c0.1,1,1.4,1,1.3,0c-0.3-2.6-0.6-5.2-0.9-7.8C-108.9,444.1-110.3,444.1-110.2,445.1
			"/>
		<path d="M-106.9,446.9c0.2,2,0.3,4,0.5,6c0.1,0.9,1.4,0.9,1.3,0c-0.2-2-0.3-4-0.5-6C-105.7,446.1-107,446.1-106.9,446.9"/>
		<path d="M-104.5,445.3c0,2.4,0.2,4.7,0.5,7.1c0.1,1.1,1.4,0.6,1.3-0.4c-0.3-2.2-0.4-4.4-0.5-6.6
			C-103.2,444.3-104.5,444.3-104.5,445.3"/>
		<path d="M-101.1,446.3c0.1,2,0.3,4,0.4,6.1c0.1,0.9,1.4,0.9,1.3,0c-0.1-2-0.3-4-0.4-6.1C-99.9,445.5-101.2,445.5-101.1,446.3"/>
		<path d="M-98.5,445c0.1,2.4,0.2,4.8,0.4,7.2c0.1,1.1,1.4,1.1,1.3,0c-0.1-2.4-0.2-4.8-0.4-7.2C-97.2,443.8-98.6,443.8-98.5,445"/>
		<path d="M-95.8,446.9c0.2,1.9,0.3,3.8,0.5,5.7c0.1,0.9,1.4,0.9,1.3,0c-0.2-1.9-0.3-3.8-0.5-5.7C-94.5,446.1-95.8,446.1-95.8,446.9
			"/>
		<path d="M-93,445.2c-0.1,2.4,0,4.8,0.3,7.2c0.2,1.1,1.4,0.7,1.3-0.5c-0.3-2.2-0.4-4.4-0.3-6.7C-91.6,444-92.9,444-93,445.2"/>
		<path d="M-91.2,446.8c0.5,2.3,0.9,4.6,1.4,6.9c0.2,0.8,1.5,0.5,1.3-0.4c-0.5-2.3-0.9-4.6-1.4-6.9C-90.1,445.6-91.4,446-91.2,446.8
			"/>
		<path d="M-139.1,431.5c3-1.3,6.2-2.2,9.5-2.7c0.8-0.1,0.5-1.4-0.4-1.3c-3.4,0.5-6.7,1.4-9.8,2.8
			C-140.6,430.7-139.9,431.8-139.1,431.5"/>
		<path d="M-140.5,432c0.4,1.8,0.9,3.6,1.3,5.4c0.2,0.8,1.5,0.5,1.3-0.4c-0.4-1.8-0.9-3.6-1.3-5.4
			C-139.4,430.8-140.7,431.2-140.5,432"/>
		<path d="M-138.2,438c2.5-1.1,5.1-1.7,7.9-1.8c0.9,0,0.9-1.4,0-1.3c-3,0.1-5.8,0.8-8.5,1.9C-139.7,437.2-139,438.4-138.2,438"/>
		<path d="M-139.5,431.4c0.4,1.8,0.8,3.6,1.2,5.4c0.2,0.8,1.5,0.5,1.3-0.4c-0.4-1.8-0.8-3.6-1.2-5.4
			C-138.4,430.2-139.6,430.6-139.5,431.4"/>
		<path d="M-137.4,429.1c0.4,2.3,0.8,4.5,1.1,6.8c0.2,1,1.5,0.6,1.3-0.4c-0.4-2.3-0.8-4.5-1.1-6.8
			C-136.3,427.6-137.6,428-137.4,429.1"/>
		<path d="M-134.7,429.7c0.2,2.1,0.5,4.2,1.1,6.2c0.2,0.8,1.5,0.5,1.3-0.4c-0.5-1.9-0.9-3.9-1-5.8
			C-133.5,428.9-134.8,428.9-134.7,429.7"/>
		<path d="M-132.5,427.9l0.6,7.4c0.1,1,1.4,1.1,1.3,0l-0.6-7.4C-131.2,426.8-132.5,426.8-132.5,427.9"/>
		<path d="M-91.7,425.7c2.9-0.2,5.8,0.1,8.6,0.9c0.8,0.2,1.2-1.1,0.4-1.3c-3-0.8-5.9-1.1-9-0.9C-92.6,424.4-92.6,425.7-91.7,425.7"
			/>
		<path d="M-92.2,432.9c2.8-0.6,5.7-1,8.6-1.1c0.9,0,0.9-1.4,0-1.3c-3,0.1-6,0.5-9,1.1C-93.4,431.8-93,433.1-92.2,432.9"/>
		<path d="M-92.1,425.5c0.2,1.8,0.5,3.6,0.7,5.4c0.1,0.8,1.4,0.9,1.3,0c-0.2-1.8-0.5-3.6-0.7-5.4C-90.9,424.6-92.2,424.6-92.1,425.5
			"/>
		<path d="M-89.3,423.6c-0.5,2.5-0.5,4.9-0.2,7.4c0.1,1,1.4,0.6,1.3-0.4c-0.3-2.2-0.2-4.4,0.2-6.6C-87.8,423-89.1,422.5-89.3,423.6"
			/>
		<path d="M-87.3,426.1c0.1,1.7,0,3.3-0.3,4.9c-0.2,0.8,1.1,1.2,1.3,0.4c0.3-1.8,0.5-3.5,0.3-5.3C-86,425.2-87.3,425.2-87.3,426.1"
			/>
		<path d="M-85.5,424.9c0.1,1.9,0.1,3.8-0.2,5.6c-0.2,1.1,1.1,1.6,1.3,0.5c0.3-2,0.4-4,0.3-6.1C-84.2,423.8-85.5,423.8-85.5,424.9"
			/>
		<path d="M-83.1,425.9l-1.1,4.8c-0.2,0.8,1.1,1.2,1.3,0.4l1.1-4.9C-81.6,425.4-82.9,425-83.1,425.9"/>
		<path d="M-84.5,432c0.3,2.4,0.7,4.8,1,7.2c0.1,0.8,1.4,0.5,1.3-0.4c-0.3-2.4-0.7-4.8-1-7.2C-83.4,430.8-84.7,431.2-84.5,432"/>
		<path d="M-83.2,426.8c0.7,4.2,1.3,8.3,1.6,12.5c0.1,0.9,1.4,0.9,1.3,0c-0.4-4.3-0.9-8.6-1.7-12.9C-82,425.6-83.3,426-83.2,426.8"
			/>
		<path d="M-140.1,438.4c0.4,2,0.8,4.1,1.1,6.1c0.2,0.9,1.6,5.5,1,6.2c0.3-0.1,0.6-0.2,0.9-0.2c0.1,0.1,0.1,0.2,0.2,0.3
			c-0.2,0.2-0.4,0.4-0.7,0.7h0.1c0.9,0,0.9-1.4,0-1.3h-0.1c-0.4,0-0.7,0.3-0.7,0.7c0,0.1,0,0.1,0,0.2c0,0.2,0.1,0.5,0.3,0.6
			c0,0,0.1,0,0.1,0.1c0.3,0.2,0.7,0.1,0.9-0.2c0.8-1.1-0.2-3.7-0.5-4.8c-0.5-2.8-1.1-5.6-1.6-8.5
			C-139,437.2-140.3,437.6-140.1,438.4"/>
		<path d="M-141.5,431.4c1.3,6.3,2.3,12.6,3.1,19c0.4-0.1,0.9-0.1,1.3-0.2l-0.2-1.1c-0.1-0.8-1.4-0.5-1.3,0.4
			c0.1,0.4,0.1,0.7,0.2,1.1c0.1,0.7,1.4,0.6,1.3-0.2c-0.8-6.5-1.9-12.9-3.1-19.3C-140.4,430.2-141.7,430.6-141.5,431.4"/>
		<path d="M-139.1,437.5c0.6,4.4,1.1,8.9,1.7,13.3c0.1,0.8,1.4,0.9,1.3,0c-0.6-4.4-1.1-8.9-1.7-13.3
			C-137.8,436.7-139.2,436.7-139.1,437.5"/>
		<path d="M-83.2,429.7c0.3,3,0.6,5.9,0.9,8.9c0.4-0.1,0.9-0.1,1.3-0.2c-0.5-2.7-1-5.5-1.5-8.2c-0.2-0.8-1.4-0.5-1.3,0.4
			c0.5,2.7,1,5.5,1.5,8.2c0.1,0.7,1.4,0.6,1.3-0.2c-0.3-3-0.6-5.9-0.9-8.9C-82,428.9-83.3,428.8-83.2,429.7"/>
	</g>
	<g>
		<path class="st0" d="M-130.1,397.3c-0.5,15.4-0.4,30.7,0.2,46.1c0.5,0,1-0.1,1.5-0.1c-0.1-0.3-0.1-0.6-0.2-0.9
			c-0.2-0.7-1.6-0.4-1.5,0.3c0.1,0.3,0.1,0.6,0.2,0.9c0.1,0.6,1.5,0.4,1.5-0.1c-0.6-15.4-0.6-30.8-0.1-46.2
			C-128.5,396.7-130.1,396.7-130.1,397.3"/>
		<path class="st0" d="M-129.9,397.3c12.2,1.2,24.5,0.9,36.6-0.8c-0.3-0.2-0.7-0.5-1-0.7c-2.3,22.9,2.6,23.3-0.3,46.2
			c-0.1,1,1.4,1,1.5,0c3-22.8-2-23.3,0.3-46.2c0.1-0.6-0.5-0.8-1-0.7c-12,1.7-24.1,2-36.2,0.8C-130.9,395.6-130.9,397.2-129.9,397.3
			"/>
		<path class="st0" d="M-132.2,397.5c0.7-0.5,1.5-0.5,2.2-0.1c0.9,0.5,1.6-0.8,0.8-1.3c-1.1-0.7-2.6-0.7-3.7,0.1
			C-133.8,396.7-133,398.1-132.2,397.5"/>
		<path class="st0" d="M-132.1,396.5l4.6-4.5c0.7-0.7-0.4-1.8-1.1-1.1l-4.6,4.5C-133.9,396.1-132.8,397.2-132.1,396.5"/>
		<path class="st0" d="M-129.2,391.7c7.2,0.6,14.4,0.7,21.6,0.4c3.3-0.1,6.9-0.9,10.2-0.7c2.7,0.2,4.2,3.2,6.4,4.7
			c0.1-0.5,0.1-0.9,0.2-1.4c-0.8,0.2-1.4,0-2-0.5c-0.8-0.6-1.9,0.5-1.1,1.1c1.1,0.9,2.1,1.1,3.5,0.9c0.7-0.1,0.7-1.1,0.2-1.4
			c-1.8-1.1-2.5-2.4-3.8-3.9c-0.6-0.7-0.8-0.9-1.7-1.1c-1.3-0.3-2.9,0.2-4.2,0.3c-2,0.2-4,0.3-6,0.4c-7.8,0.4-15.6,0.2-23.4-0.4
			C-130.2,390.1-130.2,391.7-129.2,391.7"/>
		<path class="st0" d="M-128.2,397.7l2.9-4.9c0.5-0.9-0.8-1.6-1.3-0.8l-2.9,4.9C-130,397.7-128.7,398.5-128.2,397.7"/>
		<path class="st0" d="M-124.3,393.7c-0.3,0.8-0.6,1.6-0.8,2.5c-0.3,0.9,1.2,1.4,1.5,0.4c0.3-0.8,0.6-1.6,0.8-2.5
			C-122.5,393.2-124,392.8-124.3,393.7"/>
		<path class="st0" d="M-117.7,393.3c-0.1,1-0.3,1.9-0.4,2.9c-0.1,0.4,0.1,0.8,0.5,1c0.4,0.1,0.9-0.1,1-0.5c0.1-1,0.3-1.9,0.4-2.9
			c0.1-0.4-0.1-0.8-0.5-1C-117.1,392.7-117.7,392.9-117.7,393.3"/>
		<path class="st0" d="M-113.6,395.1c1,0,1-1.5,0-1.5S-114.6,395.1-113.6,395.1"/>
		<path class="st0" d="M-110.2,394.1c0.3,1,0.6,1.9,0.8,2.9c0.3,1,1.8,0.5,1.5-0.4c-0.3-1-0.6-1.9-0.8-2.9
			C-109,392.8-110.5,393.2-110.2,394.1"/>
		<path class="st0" d="M-121.9,406.9c2.3-0.3,4.6-0.2,6.9,0.2c-0.2-0.2-0.4-0.5-0.6-0.7c0,2.6,0,5.1,0,7.7c0,1,1.5,1,1.5,0
			c0-2.6,0-5.1,0-7.7c0-0.3-0.2-0.7-0.6-0.7c-2.4-0.4-4.9-0.5-7.3-0.2C-122.9,405.4-122.9,407-121.9,406.9"/>
		<path class="st0" d="M-123,408.1c0.1,1.9,0.3,3.8,0.4,5.7c0,0.4,0.3,0.8,0.8,0.8c2.2-0.1,4.4,0.1,6.5,0.6c1,0.2,1.4-1.3,0.4-1.5
			c-2.3-0.5-4.6-0.7-6.9-0.6c0.3,0.3,0.5,0.5,0.8,0.8c-0.1-1.9-0.3-3.8-0.4-5.7C-121.5,407.1-123.1,407.1-123,408.1"/>
		<path class="st0" d="M-121,419.1c2.1,0.2,4.3,0.3,6.4,0.5c-0.3-0.3-0.5-0.5-0.8-0.8c0.1,2.5,0.1,5,0.1,7.5c0,1,1.5,1,1.5,0
			c0-2.5,0-5-0.1-7.5c0-0.4-0.3-0.7-0.8-0.8c-2.1-0.2-4.3-0.3-6.4-0.5C-122,417.5-122,419.1-121,419.1"/>
		<path class="st0" d="M-122.7,420.2c0,2,0,4,0,6c0,0.4,0.4,0.8,0.8,0.8c2.4-0.1,4.7-0.2,7.1-0.4c1-0.1,1-1.6,0-1.5
			c-2.4,0.1-4.7,0.2-7.1,0.4c0.3,0.3,0.5,0.5,0.8,0.8c0-2,0-4,0-6C-121.1,419.2-122.7,419.2-122.7,420.2"/>
		<path class="st0" d="M-108.8,407.2c0,1.7,0,3.5,0.1,5.2c0,0.8,0.1,1.5,0.8,2c0.8,0.6,2,0.4,2.9,0.4c1.8,0,3.6,0,5.4,0
			c1,0,1-1.6,0-1.5h-3c-1,0-2.4,0.3-3.4,0c-1.4-0.4-1.2-1.6-1.2-2.8c0-1.1-0.1-2.2-0.1-3.3C-107.3,406.2-108.9,406.2-108.8,407.2"/>
		<path class="st0" d="M-108.3,407.2c2.9-0.4,5.6,1.2,8.5,0.3c-0.3-0.2-0.7-0.5-1-0.7c0.1,2,0.1,4,0.1,6c0,1,1.5,1,1.5,0
			c0.1-2,0-4-0.1-6c0-0.5-0.5-0.9-1-0.7c-2.7,0.8-5.4-0.7-8.1-0.3C-109.3,405.8-109.3,407.3-108.3,407.2"/>
		<path class="st0" d="M-109.3,419.2c0,1.2,0,2.4,0,3.6c0,0.6,0,1.2,0,1.8c0,0.3,0.2,1.5,0.1,1.6h1.1l-0.1-0.1v1.1
			c0,0,0-0.1,0.1-0.1c0.6-0.8-0.4-1.9-1.1-1.1c0,0,0,0.1-0.1,0.1c-0.3,0.3-0.3,0.8,0,1.1l0.1,0.1c0.3,0.3,0.8,0.3,1.1,0
			c0.7-0.7,0.4-2.1,0.4-3c0-1.7,0-3.4,0-5.1C-107.7,418.2-109.3,418.2-109.3,419.2"/>
		<path class="st0" d="M-108.2,419.2c2.7,0.6,5.4,0.6,8.1-0.1c-0.3-0.2-0.7-0.5-1-0.7c-0.1,1.2-0.1,2.5-0.2,3.7c0,0.6,0.2,2.7-0.1,3
			c-0.2,0.3-3,0.2-3.4,0.2c-1.4,0.1-2.7,0.2-4.1,0.3c-1,0.1-1,1.6,0,1.5l5.5-0.4c0.9-0.1,2.3,0.2,3.1-0.5c0.7-0.6,0.5-1.8,0.5-2.5
			c0.1-1.8,0.2-3.6,0.3-5.4c0-0.5-0.5-0.9-1-0.7c-2.4,0.6-4.9,0.6-7.3,0.1C-108.8,417.5-109.2,419-108.2,419.2"/>
		<path class="st0" d="M-117,431.3c0.3,3,0.2,6-0.4,9c-0.2,1,1.3,1.4,1.5,0.4c0.6-3.1,0.8-6.3,0.5-9.4
			C-115.6,430.4-117.1,430.3-117,431.3"/>
		<path class="st0" d="M-116,431.6h4.5c1.1,0,3.3-0.4,4.1,0.4c0.8,0.8,0.6,3.1,0.6,4.3c0,1.6,0,3.1,0,4.7c0,1,1.5,1,1.5,0
			c0.1-2.1,0.1-4.1,0-6.2c-0.1-1.1,0.2-3.4-0.7-4.2c-0.8-0.8-2.6-0.4-3.6-0.4c-2.1,0-4.2,0-6.3,0C-117,430.1-117,431.6-116,431.6"/>
		<path class="st0" d="M-121.4,394.5c-0.3,1-0.6,1.9-0.8,2.9c-0.3,1,1.2,1.4,1.5,0.4c0.3-1,0.6-1.9,0.8-2.9
			C-119.7,394-121.2,393.6-121.4,394.5"/>
		<path class="st0" d="M-106.5,393.9c0.4,0.7,0.8,1.4,1.2,2.1c0.5,0.9,1.8,0.1,1.3-0.8c-0.4-0.7-0.8-1.4-1.2-2.1
			C-105.6,392.3-107,393-106.5,393.9"/>
		<path class="st0" d="M-101.4,393.3c0.8,1,1.6,1.9,2.5,2.9c0.6,0.8,1.7-0.3,1.1-1.1l-2.5-2.9C-101,391.4-102.1,392.5-101.4,393.3"
			/>
	</g>
</g>
<g id="house2">
	<path class="st2" d="M12.6,428.3c-0.3-1.2,9.6-0.9,9.6-0.9l18.4,0.8l11.8,1.2l6.5,0.9l6.3,4v3.5l-9.3-2.4l-16.8-3.2H29l-9.5,1
		L12.6,428.3z"/>
	<polygon class="st2" points="57.8,406.4 65.7,408.6 70.9,412.5 68.7,418.4 58.5,413.4 	"/>
	<polygon class="st2" points="7,408.1 15.7,407.4 21.7,406.5 21.3,413.3 8.5,415.8 	"/>
	<path class="st2" d="M57.2,388.7l-0.2-7.6l-9.5,0.8l-13.6,0.3l-12.1-0.5l-0.2,29l0.3,16.6l11.8-1l0.3-2.6l0.3-5.6l0.5-2.6l7.6,0.3
		l2.4,0.8l-0.2,7.7l0.1,1.3l12.3,0.5l0.8-3.5v-26.8L57.2,388.7z M36.8,410.8h-7l-0.9-2.3l-0.3-5.1l4.8,0.5l3,0.3l0.3,4.8L36.8,410.8
		L36.8,410.8z M28.5,393.1l0.2-2.1l5.4-0.5l2.3,1.2l-0.2,6.4l-0.5,1.2l-6.7-0.9L28.5,393.1z M50.6,409.1l-1.7,1.8l-6.2,0.3v-7.9
		l4.2,0.2l3.8-0.5L50.6,409.1z M51.2,396.6l-0.6,2h-6.7l-1.1-3.8v-4.1l8.3,0.9v5H51.2z"/>
	<path d="M58.1,414.7c2.1,0.4,4.2,1.7,6.1,2.6c1.8,0.9,3.7,1.7,5.5,2.6c0.8,0.4,1.5-0.8,0.7-1.2c-2.1-1-4.2-2-6.3-3
		c-1.8-0.9-3.7-2-5.7-2.4C57.7,413.2,57.3,414.5,58.1,414.7"/>
	<path d="M6.6,408.2c0.7,2.3,1.1,4.7,1.3,7.1c0.1,0.9,1.4,0.9,1.3,0c-0.2-2.5-0.6-5-1.3-7.4C7.7,407,6.4,407.3,6.6,408.2"/>
	<path d="M7.8,408.4c4-0.9,8.1-1.2,12.2-1c0.9,0,0.9-1.3,0-1.3c-4.2-0.2-8.4,0.1-12.5,1C6.6,407.3,7,408.6,7.8,408.4"/>
	<path d="M8.7,406.4c0,2.6,0.2,5.1,0.7,7.6c0.2,1.1,1.5,0.6,1.3-0.5c-0.5-2.3-0.7-4.7-0.7-7.1C10.1,405.3,8.8,405.3,8.7,406.4"/>
	<path d="M10.8,407.4c0.2,2.1,0.5,4.2,0.7,6.3c0.1,0.8,1.4,0.9,1.3,0c-0.2-2.1-0.5-4.2-0.7-6.3C12.1,406.5,10.7,406.5,10.8,407.4"/>
	<path d="M13,406.1c0.2,2.3,0.3,4.7,0.4,7c0.1,1.2,1.4,1.2,1.3,0c-0.1-2.3-0.3-4.7-0.5-7C14.2,404.9,12.9,404.8,13,406.1"/>
	<path d="M15.7,407.7c0,1.9,0.2,3.8,0.5,5.6c0.1,0.8,1.4,0.5,1.3-0.4c-0.3-1.8-0.4-3.5-0.5-5.3C17,406.8,15.7,406.8,15.7,407.7"/>
	<path d="M17.8,406.2c0.1,2.3,0.3,4.5,0.4,6.8c0.1,1.1,1.4,1.1,1.3,0c-0.1-2.3-0.3-4.5-0.4-6.8C19.1,405.1,17.8,405.1,17.8,406.2"/>
	<path d="M58.2,407.2c1.8,0.6,3.6,1.3,5.4,2c1.3,0.5,5.7,1.6,6.1,3.1c0.2,0.8,1.5,0.5,1.3-0.4c-0.5-1.8-2.6-2.2-4.1-2.9
		c-2.7-1.2-5.5-2.2-8.3-3.2C57.8,405.6,57.4,406.9,58.2,407.2"/>
	<path d="M59.5,406c-0.4,2.3-0.9,4.6-1.3,6.9c-0.2,1.1,1.1,1.5,1.3,0.5c0.4-2.3,0.9-4.6,1.3-6.9C61,405.4,59.7,405,59.5,406"/>
	<path d="M61.4,408.7c-0.4,1.6-0.7,3.2-1.1,4.8c-0.2,0.8,1.1,1.2,1.3,0.4l1.1-4.8C62.9,408.2,61.6,407.9,61.4,408.7"/>
	<path d="M63.5,407.8l-1.4,6.9c-0.2,1.1,1.1,1.6,1.3,0.5c0.5-2.3,0.9-4.6,1.4-6.9C65,407.1,63.7,406.7,63.5,407.8"/>
	<path d="M65.5,409.5c-0.7,2-1.3,4.1-1.6,6.3c-0.2,1,1.1,1.4,1.3,0.4c0.4-2.2,0.9-4.3,1.6-6.3C67.1,409,65.9,408.6,65.5,409.5"/>
	<path d="M68.3,409c-0.8,2.3-1.4,4.8-1.7,7.4c-0.2,1.3,1.1,1.9,1.3,0.6c0.3-2.4,0.9-4.7,1.6-6.9C69.8,408.9,68.7,407.8,68.3,409"/>
	<path d="M70.1,411.9c-0.8,1.9-1.7,3.8-2.5,5.7c-0.3,0.8,0.8,1.5,1.2,0.7c0.8-1.9,1.7-3.8,2.5-5.7C71.6,411.8,70.5,411.1,70.1,411.9
		"/>
	<path d="M19.1,433.6c15.8-1.3,31.6,0.6,46.7,5.5c0.8,0.3,1.2-1,0.4-1.3C51,432.9,35,431,19.1,432.2
		C18.3,432.3,18.2,433.6,19.1,433.6"/>
	<path d="M7.8,415.2c0.1,4.5,0.7,8.8,1.8,13.2c0.2,0.8,1.5,0.5,1.3-0.4c-1-4.2-1.6-8.5-1.7-12.8C9.1,414.4,7.8,414.4,7.8,415.2"/>
	<path d="M5.7,408.5c1.5,6.7,2.5,13.4,2.8,20.3c0,0.7,1.1,0.9,1.3,0.2c0.1-0.3,0.1-0.5,0.2-0.8c0.2-0.8-1.1-1.2-1.3-0.4
		c-0.1,0.3-0.1,0.5-0.2,0.8c0.4,0.1,0.9,0.1,1.3,0.2c-0.4-6.9-1.3-13.8-2.9-20.6C6.8,407.3,5.5,407.6,5.7,408.5"/>
	<path d="M70.6,412.5c-2.9,8.2-4.7,16.7-5.4,25.4h1.3c0-0.3,0-0.6-0.1-0.9c-0.1-0.9-1.4-0.9-1.3,0c0,0.3,0,0.6,0.1,0.9
		c0.1,0.9,1.3,0.9,1.3,0c0.7-8.6,2.5-16.9,5.4-25C72.2,412,70.9,411.7,70.6,412.5"/>
	<path d="M68.3,417.5c-2,6.4-3.5,13-4.7,19.6c-0.2,0.8,1,1.2,1.3,0.4c0.1-0.2,0.2-0.4,0.2-0.6c0.3-0.8-1-1.2-1.3-0.4
		c-0.1,0.2-0.2,0.4-0.2,0.6c0.4,0.1,0.9,0.2,1.3,0.4c1.2-6.6,2.7-13.2,4.7-19.6C69.8,417.1,68.5,416.7,68.3,417.5"/>
	<path d="M65.3,432.6c-0.3,1.4-0.6,2.8-1,4.2c-0.2,0.8,1.1,1.2,1.3,0.4c0.3-1.4,0.6-2.8,1-4.2C66.8,432.1,65.5,431.7,65.3,432.6"/>
	<path d="M11.1,428.7c4.7-1.4,9.8-0.9,14.6-0.8c4.6,0.1,9.2,0.1,13.8,0.3c8.4,0.4,17.8,1.6,25,6.3c0.7,0.5,1.4-0.7,0.7-1.2
		c-7.2-4.7-16.4-6-24.7-6.5c-4.9-0.3-9.8-0.3-14.7-0.4c-5-0.1-10.2-0.6-15,0.9C9.9,427.7,10.2,429,11.1,428.7"/>
	<path d="M16.3,426.3c0,1.9,0.2,3.7,0.5,5.5c0.2,1.1,1.5,0.6,1.3-0.5c-0.3-1.7-0.5-3.3-0.5-5.1C17.6,425.2,16.3,425.2,16.3,426.3"/>
	<path d="M18.4,427.6v4.2c0,0.9,1.3,0.9,1.3,0v-4.2C19.8,426.7,18.4,426.7,18.4,427.6"/>
	<path d="M21.3,427.2v5.5c0,1,1.5,1,1.5,0v-5.5C22.8,426.2,21.3,426.2,21.3,427.2"/>
	<path d="M23.3,426.4v5.5c0,1.1,1.3,1.1,1.3,0v-5.5C24.6,425.2,23.3,425.2,23.3,426.4"/>
	<path d="M26,427.9c-0.1,1.5-0.2,3-0.2,4.5c0,0.9,1.3,0.9,1.3,0c0.1-1.5,0.2-3,0.2-4.5C27.4,427,26,427,26,427.9"/>
	<path d="M28.4,426.5v4.7c0,1.3,1.3,1.3,1.3,0v-4.7C29.7,425.2,28.4,425.2,28.4,426.5"/>
	<path d="M30.3,428c-0.3,1.2-0.4,2.5-0.3,3.8c0.1,0.9,1.4,0.9,1.3,0c-0.1-1.2,0-2.3,0.3-3.4C31.8,427.6,30.5,427.2,30.3,428"/>
	<path d="M32.6,426.2c-0.2,1.8-0.1,3.6,0.2,5.3c0.2,1.3,1.5,0.7,1.3-0.5c-0.2-1.6-0.3-3.2-0.1-4.8C34.1,424.9,32.8,424.9,32.6,426.2
		"/>
	<path d="M35.8,427.7c-0.4,1.3-0.5,2.7-0.3,4.1c0.1,0.8,1.4,0.9,1.3,0c-0.2-1.3-0.1-2.5,0.2-3.7C37.3,427.3,36,426.9,35.8,427.7"/>
	<path d="M43.2,426.9c-0.5,1.7-0.6,3.5-0.5,5.3c0.1,1.2,1.4,1.2,1.3,0c-0.1-1.7,0-3.2,0.5-4.8C44.8,426.3,43.5,425.8,43.2,426.9"/>
	<path d="M48.3,427.6c-0.1,1.9-0.3,3.8-0.4,5.6c-0.1,1.3,1.2,1.3,1.3,0c0.1-1.9,0.3-3.8,0.4-5.6C49.8,426.3,48.4,426.3,48.3,427.6"
		/>
	<path d="M53.8,428.7c-0.5,1.9-0.7,3.8-0.9,5.8c-0.1,1.2,1.3,1.2,1.3,0c0.1-1.8,0.4-3.6,0.8-5.3C55.4,428.1,54.1,427.6,53.8,428.7"
		/>
	<path d="M55.9,431.1c-0.4,1.2-0.6,2.4-0.6,3.7c0,1,1.3,1,1.3,0c0-1.1,0.2-2.2,0.5-3.3C57.5,430.6,56.2,430.2,55.9,431.1"/>
	<path d="M62.9,431.7c-0.7,1.5-1.1,3.3-1.1,5.2c0,1.3,1.3,1.3,1.3,0c0-1.5,0.3-2.9,0.9-4.1C64.6,431.7,63.4,430.7,62.9,431.7"/>
	<path d="M38.3,426.9c-0.1,1.6-0.3,3.2-0.4,4.8c-0.1,1.2,1.2,1.2,1.3,0c0.1-1.6,0.3-3.2,0.4-4.8C39.7,425.6,38.4,425.7,38.3,426.9"
		/>
	<path d="M51,429.6c-0.1,1.3-0.3,2.7-0.4,4c-0.1,1,1.2,1,1.3,0c0.1-1.3,0.3-2.7,0.4-4C52.4,428.5,51.1,428.6,51,429.6"/>
	<path d="M40.7,428c-0.1,1.3-0.3,2.7-0.4,4c-0.1,1,1.2,1,1.3,0c0.1-1.3,0.3-2.7,0.4-4C42.2,426.9,40.8,426.9,40.7,428"/>
	<path d="M45.7,428.8c-0.1,1.3-0.3,2.7-0.4,4c-0.1,1,1.2,1,1.3,0c0.1-1.3,0.3-2.7,0.4-4C47.1,427.7,45.8,427.7,45.7,428.8"/>
	<path d="M57.9,430c-0.1,1.8-0.3,3.5-0.4,5.3c-0.1,1.3,1.2,1.2,1.3,0c0.1-1.8,0.3-3.5,0.4-5.3C59.4,428.8,58,428.8,57.9,430"/>
	<path d="M60.2,432.4c-0.1,1.3-0.3,2.7-0.4,4c-0.1,1,1.2,1,1.3,0c0.1-1.3,0.3-2.7,0.4-4C61.7,431.4,60.3,431.4,60.2,432.4"/>
	<path d="M12.4,361.3v-0.5h-4v0.5H12.4z M12.4,359.7v-0.5h-4v0.5H12.4z M2,362.4v-0.6h-2.3l0,0l0.4-0.4c1.1-1,1.8-1.8,1.8-2.7
		c0-0.7-0.5-1.5-1.6-1.5c-0.6,0-1.1,0.2-1.4,0.5l0.2,0.5c0.2-0.2,0.6-0.4,1.1-0.4c0.8,0,1,0.5,1,1c0,0.8-0.6,1.4-1.9,2.7l-0.5,0.5
		v0.4H2z M-2.4,362.5c0.3,0,0.5-0.2,0.5-0.5s-0.2-0.5-0.5-0.5s-0.5,0.2-0.5,0.5C-2.8,362.2-2.7,362.5-2.4,362.5z M-2.4,359.7
		c0.3,0,0.5-0.2,0.5-0.5c0-0.3-0.2-0.5-0.5-0.5s-0.5,0.2-0.5,0.5C-2.8,359.5-2.7,359.7-2.4,359.7z M-31,357.7c0.7,0,1,0.8,1,2.1
		c0,1.3-0.3,2.1-1,2.1c-0.6,0-1-0.8-1-2.1C-32,358.5-31.6,357.7-31,357.7z M-30.9,357.2c-1,0-1.8,0.9-1.8,2.6c0,1.7,0.7,2.6,1.7,2.6
		c1.1,0,1.8-1,1.8-2.7C-29.3,358.2-29.9,357.2-30.9,357.2z M-33.7,362.5c0.3,0,0.5-0.2,0.5-0.5s-0.2-0.5-0.5-0.5s-0.5,0.2-0.5,0.5
		C-34.2,362.2-34,362.5-33.7,362.5z M-33.7,359.7c0.3,0,0.5-0.2,0.5-0.5c0-0.3-0.2-0.5-0.5-0.5s-0.5,0.2-0.5,0.5
		C-34.2,359.5-34,359.7-33.7,359.7z M-40.6,357.7c0.7,0,1,0.8,1,2.1c0,1.3-0.3,2.1-1,2.1c-0.6,0-1-0.8-1-2.1
		C-41.7,358.5-41.2,357.7-40.6,357.7z M-40.6,357.2c-1,0-1.8,0.9-1.8,2.6c0,1.7,0.7,2.6,1.7,2.6c1.1,0,1.8-1,1.8-2.7
		C-38.9,358.2-39.5,357.2-40.6,357.2z M-43.4,362.5c0.3,0,0.5-0.2,0.5-0.5s-0.2-0.5-0.5-0.5s-0.5,0.2-0.5,0.5
		C-43.8,362.2-43.6,362.5-43.4,362.5z M-43.4,359.7c0.3,0,0.5-0.2,0.5-0.5c0-0.3-0.2-0.5-0.5-0.5s-0.5,0.2-0.5,0.5
		C-43.8,359.5-43.6,359.7-43.4,359.7z M34.1,362.4h0.6l0.1-1.8c0-0.4,0-0.9,0.1-1.4l0,0c0.1,0.4,0.3,0.9,0.4,1.3l0.7,1.9h0.5
		l0.7-1.9c0.2-0.6,0.3-0.9,0.4-1.2l0,0c0,0.5,0,0.9,0.1,1.4l0.1,1.8h0.7l-0.3-3.8h-0.9l-0.6,1.6c-0.1,0.4-0.4,1-0.4,1.3l0,0
		c-0.1-0.3-0.3-0.8-0.3-1l-0.7-1.9h-0.8L34.1,362.4z M30.1,357.7c0.7,0,1,0.8,1,2.1c0,1.3-0.3,2.1-1,2.1c-0.6,0-1-0.8-1-2.1
		C29,358.5,29.5,357.7,30.1,357.7z M30.1,357.2c-1,0-1.8,0.9-1.8,2.6c0,1.7,0.7,2.6,1.7,2.6c1.1,0,1.8-1,1.8-2.7
		C31.8,358.2,31.2,357.2,30.1,357.2z M26.1,357.7c0.7,0,1,0.8,1,2.1c0,1.3-0.3,2.1-1,2.1c-0.6,0-1-0.8-1-2.1
		C25,358.5,25.5,357.7,26.1,357.7z M26.1,357.2c-1,0-1.8,0.9-1.8,2.6c0,1.7,0.7,2.6,1.7,2.6c1.1,0,1.8-1,1.8-2.7
		C27.8,358.2,27.2,357.2,26.1,357.2z M20.5,357.3v0.6H23l0,0l-2.2,4.5h0.7l2.2-4.6v-0.5H20.5z M14.7,362.1c0.3,0.2,0.8,0.3,1.3,0.3
		c1.2,0,1.9-0.7,1.9-1.5c0-0.7-0.5-1.2-1.1-1.3l0,0c0.6-0.2,0.9-0.7,0.9-1.2c0-0.6-0.5-1.2-1.5-1.2c-0.5,0-1.1,0.2-1.3,0.4l0.2,0.5
		c0.2-0.2,0.6-0.3,1-0.3c0.6,0,0.9,0.4,0.9,0.8c0,0.6-0.6,0.9-1.1,0.9h-0.4v0.5h0.4c0.7,0,1.3,0.3,1.3,1c0,0.4-0.3,1-1.1,1
		c-0.5,0-0.9-0.2-1.1-0.3L14.7,362.1z M2.7,362.1c0.3,0.2,0.8,0.3,1.3,0.3c1.2,0,1.9-0.7,1.9-1.5c0-0.7-0.5-1.2-1.1-1.3l0,0
		c0.6-0.2,0.9-0.7,0.9-1.2c0-0.6-0.5-1.2-1.5-1.2c-0.5,0-1.1,0.2-1.3,0.4l0.2,0.5c0.2-0.2,0.6-0.3,1-0.3c0.6,0,0.9,0.4,0.9,0.8
		c0,0.6-0.6,0.9-1.1,0.9H3.5v0.5h0.4c0.7,0,1.3,0.3,1.3,1c0,0.4-0.3,1-1.1,1c-0.5,0-0.9-0.2-1.1-0.3L2.7,362.1z M-6.9,357.7
		c0.7,0,1,0.8,1,2.1c0,1.3-0.3,2.1-1,2.1c-0.6,0-1-0.8-1-2.1C-7.9,358.5-7.5,357.7-6.9,357.7z M-6.9,357.2c-1,0-1.8,0.9-1.8,2.6
		c0,1.7,0.7,2.6,1.7,2.6c1.1,0,1.8-1,1.8-2.7C-5.2,358.2-5.8,357.2-6.9,357.2z M-10.9,357.7c0.7,0,1,0.7,1,1.5c0,0.1,0,0.2-0.1,0.3
		c-0.2,0.3-0.5,0.5-1,0.5c-0.6,0-1-0.4-1-1.1C-11.9,358.2-11.5,357.7-10.9,357.7z M-12.2,362.4c0.2,0,0.4,0,0.6,0
		c0.5-0.1,1.1-0.3,1.5-0.7c0.5-0.5,0.9-1.3,0.9-2.4c0-1.3-0.6-2.1-1.7-2.1c-1,0-1.7,0.8-1.7,1.8c0,0.9,0.6,1.6,1.5,1.6
		c0.5,0,0.9-0.2,1.2-0.5l0,0c-0.1,0.6-0.3,1-0.7,1.4c-0.3,0.3-0.7,0.4-1.1,0.5c-0.2,0-0.4,0-0.6,0v0.4H-12.2z M-16.5,357.3v0.6h2.5
		l0,0l-2.2,4.5h0.7l2.2-4.6v-0.5H-16.5z M-17.6,357.3H-20l-0.3,2.4c0.2,0,0.4-0.1,0.7-0.1c1,0,1.5,0.5,1.5,1.1
		c0,0.7-0.6,1.1-1.2,1.1c-0.5,0-0.9-0.2-1.1-0.3l-0.2,0.5c0.2,0.2,0.7,0.3,1.3,0.3c1.1,0,1.9-0.7,1.9-1.7c0-0.6-0.3-1.1-0.7-1.3
		c-0.3-0.2-0.7-0.3-1.1-0.3c-0.2,0-0.3,0-0.4,0l0.2-1.3h1.9L-17.6,357.3L-17.6,357.3z M-21.6,357.3H-24l-0.3,2.4
		c0.2,0,0.4-0.1,0.7-0.1c1,0,1.5,0.5,1.5,1.1c0,0.7-0.6,1.1-1.2,1.1c-0.5,0-0.9-0.2-1.1-0.3l-0.2,0.5c0.2,0.2,0.7,0.3,1.3,0.3
		c1.1,0,1.9-0.7,1.9-1.7c0-0.6-0.3-1.1-0.7-1.3c-0.3-0.2-0.7-0.3-1.1-0.3c-0.2,0-0.3,0-0.4,0l0.2-1.3h1.9L-21.6,357.3L-21.6,357.3z
		 M-27,357.7c0.6,0,0.9,0.4,0.9,0.8c0,0.5-0.3,0.8-0.8,0.9c-0.6-0.2-1-0.4-1-0.9C-27.8,358.1-27.5,357.7-27,357.7z M-27,362
		c-0.6,0-1-0.5-1-1s0.3-0.9,0.9-1c0.7,0.2,1.1,0.5,1.1,1.1C-25.9,361.6-26.3,362-27,362z M-27,362.5c1,0,1.7-0.6,1.7-1.5
		c0-0.6-0.4-1.1-1-1.3l0,0c0.6-0.3,0.8-0.8,0.8-1.2c0-0.6-0.5-1.3-1.5-1.3c-0.9,0-1.6,0.5-1.6,1.4c0,0.4,0.2,0.9,0.8,1.1l0,0
		c-0.6,0.3-1,0.7-1,1.4C-28.7,361.8-28,362.5-27,362.5z M-36.8,362.4h0.7v-5.1h-0.6l-1.1,0.6l0.1,0.5l0.9-0.5l0,0L-36.8,362.4
		L-36.8,362.4z M-47.9,362.1c0.3,0.2,0.8,0.3,1.3,0.3c1.2,0,1.9-0.7,1.9-1.5c0-0.7-0.5-1.2-1.1-1.3l0,0c0.6-0.2,0.9-0.7,0.9-1.2
		c0-0.6-0.5-1.2-1.5-1.2c-0.5,0-1.1,0.2-1.3,0.4l0.2,0.5c0.2-0.2,0.6-0.3,1-0.3c0.6,0,0.9,0.4,0.9,0.8c0,0.6-0.6,0.9-1.1,0.9h-0.4
		v0.5h0.4c0.7,0,1.3,0.3,1.3,1c0,0.4-0.3,1-1.1,1c-0.5,0-0.9-0.2-1.1-0.3L-47.9,362.1z M-50.2,361.9c-0.7,0-1.1-0.6-1.1-1.5
		c0-0.1,0-0.2,0.1-0.3c0.2-0.4,0.6-0.6,1-0.6c0.6,0,1,0.4,1,1.2C-49.2,361.5-49.6,361.9-50.2,361.9z M-49,357.2c-0.1,0-0.3,0-0.5,0
		c-0.6,0.1-1.2,0.3-1.6,0.8c-0.5,0.5-0.9,1.3-0.9,2.3c0,1.3,0.7,2.2,1.8,2.2c1.1,0,1.7-0.9,1.7-1.8c0-1-0.6-1.6-1.5-1.6
		c-0.6,0-1,0.3-1.2,0.6l0,0c0.1-0.8,0.7-1.6,1.8-1.8c0.2,0,0.4,0,0.5,0v-0.7H-49z M22.4,353H23l0.1-1.8c0-0.4,0-0.9,0.1-1.4l0,0
		c0.1,0.4,0.3,0.9,0.4,1.3l0.7,1.9h0.5l0.7-1.9c0.2-0.6,0.3-0.9,0.4-1.2l0,0c0,0.5,0,0.9,0.1,1.4l0.1,1.8h0.7l-0.3-3.8h-0.9
		l-0.6,1.6c-0.1,0.4-0.4,1-0.4,1.3l0,0c-0.1-0.3-0.3-0.8-0.3-1l-0.7-1.9h-0.8L22.4,353z M20,349.6c0.8,0,1.1,0.8,1.1,1.5
		c0,0.9-0.5,1.5-1.1,1.5c-0.7,0-1.1-0.6-1.1-1.5C18.8,350.4,19.2,349.6,20,349.6z M20,349.1c-1,0-1.9,0.7-1.9,2
		c0,1.2,0.8,1.9,1.8,1.9c0.9,0,1.9-0.6,1.9-2C21.8,349.9,21.1,349.1,20,349.1z M14.6,350.8c0-0.1,0-0.2,0-0.3c0.1-0.5,0.6-0.9,1-0.9
		c0.7,0,1.1,0.6,1.1,1.4c0,0.9-0.4,1.5-1.1,1.5c-0.5,0-0.9-0.3-1-0.8c0-0.1,0-0.2,0-0.3V350.8z M13.9,354.5h0.7v-2l0,0
		c0.2,0.4,0.7,0.6,1.2,0.6c0.9,0,1.7-0.7,1.7-2c0-1.1-0.7-1.9-1.6-1.9c-0.6,0-1.1,0.3-1.3,0.7l0,0v-0.6H14c0,0.4,0,0.8,0,1.2
		L13.9,354.5L13.9,354.5z M10.4,350.7c0.1-0.5,0.4-1.1,1.1-1.1c0.8,0,1,0.7,1,1.1H10.4z M13.1,351.2c0-0.1,0-0.2,0-0.3
		c0-0.7-0.3-1.8-1.6-1.8c-1.1,0-1.8,0.9-1.8,2s0.7,1.9,1.9,1.9c0.6,0,1-0.1,1.3-0.2l-0.1-0.5c-0.3,0.1-0.6,0.2-1,0.2
		c-0.7,0-1.3-0.4-1.3-1.3C10.5,351.2,13.1,351.2,13.1,351.2z M4.8,353h0.6l0.1-1.8c0-0.4,0-0.9,0.1-1.4l0,0c0.1,0.4,0.3,0.9,0.4,1.3
		l0.7,1.9h0.5l0.7-1.9c0.2-0.6,0.3-0.9,0.4-1.2l0,0c0,0.5,0,0.9,0.1,1.4l0.1,1.8h0.7l-0.3-3.8H8l-0.6,1.6c-0.1,0.4-0.4,1-0.4,1.3
		l0,0c-0.1-0.3-0.3-0.8-0.3-1L6,349.3H5.2L4.8,353z M2.3,349.6c0.8,0,1.1,0.8,1.1,1.5c0,0.9-0.5,1.5-1.1,1.5c-0.7,0-1.1-0.6-1.1-1.5
		C1.2,350.4,1.5,349.6,2.3,349.6z M2.3,349.1c-1,0-1.9,0.7-1.9,2c0,1.2,0.8,1.9,1.8,1.9c0.9,0,1.9-0.6,1.9-2
		C4.2,349.9,3.4,349.1,2.3,349.1z M-3.6,349.2v3.8h0.7v-1.7h1.8v1.7h0.7v-3.8h-0.7v1.5h-1.8v-1.5H-3.6z M-6.5,353.1
		c0.3,0,0.5-0.2,0.5-0.5c0-0.3-0.2-0.5-0.5-0.5s-0.5,0.2-0.5,0.5C-7,352.8-6.8,353.1-6.5,353.1z M-9.9,349.7h1.2v2.7h-1.7
		c0.1-0.2,0.2-0.4,0.3-0.7c0.1-0.4,0.2-0.9,0.2-1.4V349.7z M-10.6,349.2v1c0,0.5-0.1,1-0.2,1.5c-0.1,0.3-0.2,0.5-0.4,0.8h-0.3v1.7
		h0.5V353h2.6v1.2h0.5v-1.7h-0.4v-3.3H-10.6z M-12.7,351.7c0,0.1,0,0.1,0,0.2c-0.1,0.3-0.4,0.6-0.9,0.6c-0.4,0-0.6-0.2-0.6-0.7
		c0-0.7,0.9-0.9,1.6-0.9v0.8H-12.7z M-12,353c0-0.3-0.1-0.6-0.1-0.9v-1.5c0-0.8-0.3-1.5-1.4-1.5c-0.5,0-0.9,0.1-1.2,0.3l0.2,0.5
		c0.3-0.2,0.6-0.3,1-0.3c0.8,0,0.9,0.6,0.9,0.9v0.1c-1.5,0-2.3,0.5-2.3,1.4c0,0.5,0.4,1.1,1.2,1.1c0.5,0,0.9-0.3,1.2-0.6l0,0
		l0.1,0.5H-12z M-18.6,349.2v3.8h0.7v-1.7h0.1c0.6,0,1,0.3,1.3,0.9c0.1,0.3,0.3,0.6,0.4,0.8h0.7c-0.2-0.3-0.3-0.7-0.4-0.9
		c-0.3-0.7-0.7-1.1-1.3-1.1l1.6-1.7h-0.8l-1.4,1.6h-0.2v-1.7H-18.6z M-21.1,352.3c-0.2,0.1-0.5,0.2-0.8,0.2c-0.8,0-1.3-0.5-1.3-1.4
		c0-0.8,0.5-1.4,1.3-1.4c0.4,0,0.6,0.1,0.8,0.2l0.2-0.5c-0.2-0.1-0.5-0.2-1-0.2c-1.2,0-2,0.8-2,2c0,1.2,0.7,1.9,1.9,1.9
		c0.5,0,0.9-0.1,1.1-0.2L-21.1,352.3z M-29.1,349.2v3.8h0.7v-1.7h0.1c0.6,0,1,0.3,1.3,0.9c0.1,0.3,0.3,0.6,0.4,0.8h0.7
		c-0.2-0.3-0.3-0.7-0.4-0.9c-0.3-0.7-0.7-1.1-1.3-1.1l1.6-1.7h-0.8l-1.4,1.6h-0.2v-1.7H-29.1z M-31.8,349.6c0.8,0,1.1,0.8,1.1,1.5
		c0,0.9-0.5,1.5-1.1,1.5c-0.7,0-1.1-0.6-1.1-1.5C-33,350.4-32.6,349.6-31.8,349.6z M-31.8,349.1c-1,0-1.9,0.7-1.9,2
		c0,1.2,0.8,1.9,1.8,1.9c0.9,0,1.9-0.6,1.9-2C-30,349.9-30.7,349.1-31.8,349.1z M-36.9,349.2v0.5h1.2v3.2h0.7v-3.2h1.2v-0.5H-36.9z
		 M-37.5,352.3c-0.2,0.1-0.5,0.2-0.8,0.2c-0.8,0-1.3-0.5-1.3-1.4c0-0.8,0.5-1.4,1.3-1.4c0.4,0,0.6,0.1,0.8,0.2l0.2-0.5
		c-0.2-0.1-0.5-0.2-1-0.2c-1.2,0-2,0.8-2,2c0,1.2,0.7,1.9,1.9,1.9c0.5,0,0.9-0.1,1.1-0.2L-37.5,352.3z M-41.9,351.7
		c0,0.1,0,0.1,0,0.2c-0.1,0.3-0.4,0.6-0.9,0.6c-0.4,0-0.6-0.2-0.6-0.7c0-0.7,0.9-0.9,1.6-0.9v0.8H-41.9z M-41.1,353
		c0-0.3-0.1-0.6-0.1-0.9v-1.5c0-0.8-0.3-1.5-1.4-1.5c-0.5,0-0.9,0.1-1.2,0.3l0.2,0.5c0.3-0.2,0.6-0.3,1-0.3c0.8,0,0.9,0.6,0.9,0.9
		v0.1c-1.5,0-2.3,0.5-2.3,1.4c0,0.5,0.4,1.1,1.2,1.1c0.5,0,0.9-0.3,1.2-0.6l0,0l0.1,0.5H-41.1z M-47.9,349.2v1.3
		c0,0.9,0.5,1.2,1.2,1.2c0.4,0,0.8-0.1,1-0.3l0,0v1.5h0.7v-3.7h-0.7v1.8c-0.2,0.2-0.5,0.3-0.8,0.3c-0.6,0-0.8-0.3-0.8-0.8v-1.3
		H-47.9z M-52.2,347.7l1.8,3.5c0.1,0.1,0.1,0.2,0,0.3c-0.2,0.4-0.5,0.9-1,0.9c-0.1,0-0.2,0-0.3,0l-0.1,0.6c0.1,0,0.2,0,0.4,0
		c0.5,0,0.9-0.2,1.2-0.6c0.4-0.5,0.7-1.3,1-2l1.1-2.7h-0.7l-0.8,2.2c-0.1,0.4-0.2,0.7-0.3,1l0,0c-0.1-0.3-0.3-0.6-0.4-0.9l-1-2.2
		L-52.2,347.7L-52.2,347.7z"/>
	<g>
		<path class="st0" d="M21,382.2c-0.5,15.4-0.4,30.7,0.2,46.1c0.5,0,1-0.1,1.5-0.1c-0.1-0.3-0.1-0.6-0.2-0.9
			c-0.2-0.7-1.6-0.4-1.5,0.3c0.1,0.3,0.1,0.6,0.2,0.9c0.1,0.6,1.5,0.4,1.5-0.1c-0.6-15.4-0.7-30.7-0.2-46.1
			C22.6,381.5,21,381.5,21,382.2"/>
		<path class="st0" d="M21.2,382.1c12.2,1.2,24.5,0.9,36.6-0.8c-0.3-0.2-0.7-0.5-1-0.7c-2.3,22.9,2.6,23.3-0.3,46.2
			c-0.1,1,1.4,1,1.5,0c3-22.8-2-23.3,0.3-46.2c0.1-0.6-0.5-0.8-1-0.7c-12,1.7-24.1,2-36.2,0.8C20.2,380.5,20.2,382,21.2,382.1"/>
		<path class="st0" d="M29.2,391.7c2.3-0.3,4.6-0.2,6.9,0.2c-0.2-0.2-0.4-0.5-0.6-0.7c0,2.6,0,5.1,0,7.7c0,1,1.5,1,1.5,0
			c0-2.6,0-5.1,0-7.7c0-0.3-0.2-0.7-0.6-0.7c-2.4-0.4-4.9-0.5-7.3-0.2C28.2,390.3,28.2,391.8,29.2,391.7"/>
		<path class="st0" d="M28.1,392.9c0.1,1.9,0.3,3.8,0.4,5.7c0,0.4,0.3,0.8,0.8,0.8c2.2-0.1,4.4,0.1,6.5,0.6c1,0.2,1.4-1.3,0.4-1.5
			c-2.3-0.5-4.6-0.7-6.9-0.6c0.3,0.3,0.5,0.5,0.8,0.8c-0.1-1.9-0.3-3.8-0.4-5.7C29.6,391.9,28,391.9,28.1,392.9"/>
		<path class="st0" d="M30.1,404c2.1,0.2,4.3,0.3,6.4,0.5c-0.3-0.3-0.5-0.5-0.8-0.8c0.1,2.5,0.1,5,0.1,7.5c0,1,1.5,1,1.5,0
			c0-2.5,0-5-0.1-7.5c0-0.4-0.3-0.7-0.8-0.8c-2.1-0.2-4.3-0.3-6.4-0.5C29.1,402.3,29.1,403.9,30.1,404"/>
		<path class="st0" d="M28.4,405c0,2,0,4,0,6c0,0.4,0.4,0.8,0.8,0.8c2.4-0.1,4.7-0.2,7.1-0.4c1-0.1,1-1.6,0-1.5
			c-2.4,0.1-4.7,0.2-7.1,0.4c0.3,0.3,0.5,0.5,0.8,0.8c0-2,0-4,0-6C30,404,28.4,404,28.4,405"/>
		<path class="st0" d="M42.2,392c0,1.7,0,3.5,0.1,5.2c0,0.8,0.1,1.5,0.8,2c0.8,0.6,2,0.4,2.9,0.4c1.8,0,3.6,0,5.4,0c1,0,1-1.6,0-1.5
			h-3c-1,0-2.4,0.3-3.4,0c-1.4-0.4-1.2-1.6-1.2-2.8c0-1.1-0.1-2.2-0.1-3.3C43.8,391,42.2,391,42.2,392"/>
		<path class="st0" d="M42.8,392c2.9-0.4,5.6,1.2,8.5,0.3c-0.3-0.2-0.7-0.5-1-0.7c0.1,2,0.1,4,0.1,6c0,1,1.5,1,1.5,0
			c0.1-2,0-4-0.1-6c0-0.5-0.5-0.9-1-0.7c-2.7,0.8-5.4-0.7-8.1-0.3C41.8,390.6,41.8,392.1,42.8,392"/>
		<path class="st0" d="M41.8,404.1c0,1.2,0,2.4,0,3.6c0,0.6,0,1.2,0,1.8c0,0.3,0.2,1.5,0.1,1.6H43l-0.1-0.1v1.1c0,0,0-0.1,0.1-0.1
			c0.6-0.8-0.4-1.9-1.1-1.1c0,0,0,0.1-0.1,0.1c-0.3,0.3-0.3,0.8,0,1.1l0.1,0.1c0.3,0.3,0.8,0.3,1.1,0c0.7-0.7,0.4-2.1,0.4-3
			c0-1.7,0-3.4,0-5.1C43.4,403.1,41.8,403.1,41.8,404.1"/>
		<path class="st0" d="M42.9,404.1c2.7,0.6,5.4,0.6,8.1-0.1c-0.3-0.2-0.7-0.5-1-0.7c-0.1,1.2-0.1,2.5-0.2,3.7c0,0.6,0.2,2.7-0.1,3
			c-0.2,0.3-3,0.2-3.4,0.2c-1.4,0.1-2.7,0.2-4.1,0.3c-1,0.1-1,1.6,0,1.5l5.5-0.4c0.9-0.1,2.3,0.2,3.1-0.5c0.7-0.6,0.5-1.8,0.5-2.5
			c0.1-1.8,0.2-3.6,0.3-5.4c0-0.5-0.5-0.9-1-0.7c-2.4,0.6-4.9,0.6-7.3,0.1C42.3,402.4,41.9,403.8,42.9,404.1"/>
		<path class="st0" d="M34,416.2c0.3,3,0.2,6-0.4,9c-0.2,1,1.3,1.4,1.5,0.4c0.6-3.1,0.8-6.3,0.5-9.4C35.5,415.2,33.9,415.2,34,416.2
			"/>
		<path class="st0" d="M35.1,416.5h4.5c1.1,0,3.3-0.4,4.1,0.4c0.8,0.8,0.6,3.1,0.6,4.3c0,1.6,0,3.1,0,4.7c0,1,1.5,1,1.5,0
			c0.1-2.1,0.1-4.1,0-6.2c-0.1-1.1,0.2-3.4-0.7-4.2c-0.8-0.8-2.6-0.4-3.6-0.4c-2.1,0-4.2,0-6.3,0C34.1,414.9,34.1,416.5,35.1,416.5"
			/>
		<path class="st0" d="M18.9,382.3c0.7-0.5,1.5-0.5,2.2-0.1c0.9,0.5,1.6-0.8,0.8-1.3c-1.1-0.7-2.6-0.7-3.7,0.1
			C17.3,381.5,18,382.9,18.9,382.3"/>
		<path class="st0" d="M19,381.4l4.6-4.5c0.7-0.7-0.4-1.8-1.1-1.1l-4.6,4.5C17.2,381,18.3,382.1,19,381.4"/>
		<path class="st0" d="M21.9,376.6c7.2,0.6,14.4,0.7,21.6,0.4c3.3-0.1,6.9-0.9,10.2-0.7c2.7,0.2,4.2,3.2,6.4,4.7
			c0.1-0.5,0.1-0.9,0.2-1.4c-0.8,0.2-1.4,0-2-0.5c-0.8-0.6-1.9,0.5-1.1,1.1c1.1,0.9,2.1,1.1,3.5,0.9c0.7-0.1,0.7-1.1,0.2-1.4
			c-1.7-1.1-2.4-2.5-3.7-3.9c-0.6-0.7-0.8-0.9-1.7-1.1c-1.3-0.3-2.9,0.2-4.2,0.3c-2,0.2-4,0.3-6,0.4c-7.8,0.4-15.6,0.2-23.4-0.4
			C20.9,374.9,20.9,376.5,21.9,376.6"/>
		<path class="st0" d="M22.9,382.5l2.9-4.9c0.5-0.9-0.8-1.6-1.3-0.8l-2.9,4.9C21.1,382.6,22.4,383.3,22.9,382.5"/>
		<path class="st0" d="M26.8,378.5c-0.3,0.8-0.6,1.6-0.8,2.5c-0.3,0.9,1.2,1.4,1.5,0.4c0.3-0.8,0.6-1.6,0.8-2.5
			C28.6,378,27.1,377.6,26.8,378.5"/>
		<path class="st0" d="M29.6,379.4c-0.3,1-0.6,1.9-0.8,2.9c-0.3,1,1.2,1.4,1.5,0.4s0.6-1.9,0.8-2.9
			C31.4,378.8,29.9,378.4,29.6,379.4"/>
		<path class="st0" d="M33.4,378.1c-0.1,1-0.3,1.9-0.4,2.9c-0.1,0.4,0.1,0.8,0.5,1c0.4,0.1,0.9-0.1,1-0.5c0.1-1,0.3-1.9,0.4-2.9
			c0.1-0.4-0.1-0.8-0.5-1C34,377.5,33.4,377.7,33.4,378.1"/>
		<path class="st0" d="M37.4,379.9c1,0,1-1.5,0-1.5S36.4,379.9,37.4,379.9"/>
		<path class="st0" d="M40.9,378.9c0.3,1,0.6,1.9,0.8,2.9c0.3,1,1.8,0.5,1.5-0.4c-0.3-1-0.6-1.9-0.8-2.9
			C42.1,377.6,40.6,378,40.9,378.9"/>
		<path class="st0" d="M44.6,378.7c0.4,0.7,0.8,1.4,1.2,2.1c0.5,0.9,1.8,0.1,1.3-0.8c-0.4-0.7-0.8-1.4-1.2-2.1
			C45.4,377.1,44.1,377.9,44.6,378.7"/>
		<path class="st0" d="M49.7,378.1c0.8,1,1.6,1.9,2.5,2.9c0.6,0.8,1.7-0.3,1.1-1.1l-2.5-2.9C50.1,376.2,49,377.3,49.7,378.1"/>
	</g>
</g>
<g id="house3">
	<path id="w3" class="st1" d="M17.7,434.4c0.7,0.3,1.4,0.3,2.3,0.2c0.7-0.1,0.7-1.1,0.2-1.4c-1.7-1.1-2.4-2.5-3.7-3.9
		c-0.6-0.7-0.8-0.9-1.7-1.1c-1.3-0.3-2.9,0.2-4.2,0.3c-2,0.2-4,0.3-6,0.4c-7.8,0.4-15.6,0.2-23.4-0.4c-0.9-0.1-1,1.3-0.1,1.5
		l-3.8,3.7c-0.3,0.3-0.3,0.7-0.1,1c-0.4,0.6,0.3,1.6,1,1.1s1.4-0.5,2.1-0.1c-0.4,11.9-0.4,21.8-0.1,33.8l4.5,1.4l8.2,5.8l0.8,1
		c0.3,0,0.6-0.2,0.7-0.6c0.6-3,0.8-4.1,0.5-7.1h3.9c1.1,0,3.3-0.4,4.1,0.4c0.8,0.8,0.6,3.1,0.6,4.3c0,1.6,0,3.1,0,4.7
		c0,1,1.5,1,1.5,0l0,0l10.8,0.5l-0.1,0.5c-0.1,1,1.4,1,1.5,0c2.1-16,0.3-21-0.2-30.4v-0.4v-0.5C17,445.1,17.1,440.6,17.7,434.4"/>
	<path d="M-47,492.7v-0.5h-4v0.5H-47z M-47,491.2v-0.5h-4v0.5H-47z M-55.8,493.8v-0.6h-2.3l0,0l0.4-0.4c1.1-1,1.8-1.8,1.8-2.7
		c0-0.7-0.5-1.5-1.6-1.5c-0.6,0-1.1,0.2-1.4,0.5l0.2,0.5c0.2-0.2,0.6-0.4,1.1-0.4c0.8,0,1,0.5,1,1c0,0.8-0.6,1.4-1.9,2.7l-0.5,0.5
		v0.4H-55.8z M-60.1,493.9c0.3,0,0.5-0.2,0.5-0.5c0-0.3-0.2-0.5-0.5-0.5s-0.5,0.2-0.5,0.5C-60.6,493.7-60.4,493.9-60.1,493.9z
		 M-60.1,491.1c0.3,0,0.5-0.2,0.5-0.5c0-0.3-0.2-0.5-0.5-0.5s-0.5,0.2-0.5,0.5C-60.6,490.9-60.4,491.1-60.1,491.1z M-93.8,493.9
		c0.3,0,0.5-0.2,0.5-0.5c0-0.3-0.2-0.5-0.5-0.5s-0.5,0.2-0.5,0.5C-94.3,493.7-94.1,493.9-93.8,493.9z M-93.8,491.1
		c0.3,0,0.5-0.2,0.5-0.5c0-0.3-0.2-0.5-0.5-0.5s-0.5,0.2-0.5,0.5C-94.3,490.9-94.1,491.1-93.8,491.1z M-100.7,489.2
		c0.7,0,1,0.8,1,2.1c0,1.3-0.3,2.1-1,2.1c-0.6,0-1-0.8-1-2.1C-101.8,489.9-101.3,489.2-100.7,489.2z M-100.7,488.6
		c-1,0-1.8,0.9-1.8,2.6c0,1.7,0.7,2.6,1.7,2.6c1.1,0,1.8-1,1.8-2.7C-99,489.6-99.6,488.6-100.7,488.6z M-103.5,493.9
		c0.3,0,0.5-0.2,0.5-0.5c0-0.3-0.2-0.5-0.5-0.5s-0.5,0.2-0.5,0.5C-103.9,493.7-103.8,493.9-103.5,493.9z M-103.5,491.1
		c0.3,0,0.5-0.2,0.5-0.5c0-0.3-0.2-0.5-0.5-0.5s-0.5,0.2-0.5,0.5C-103.9,490.9-103.8,491.1-103.5,491.1z M-25.4,493.8h0.6l0.1-1.8
		c0-0.4,0-0.9,0.1-1.4l0,0c0.1,0.4,0.3,0.9,0.4,1.3l0.7,1.9h0.5l0.7-1.9c0.2-0.6,0.3-0.9,0.4-1.2l0,0c0,0.5,0,0.9,0.1,1.4l0.1,1.8
		h0.7l-0.3-3.8h-0.9l-0.6,1.6c-0.1,0.4-0.4,1-0.4,1.3l0,0c-0.1-0.3-0.3-0.8-0.3-1l-0.7-1.9H-25L-25.4,493.8z M-29.4,489.2
		c0.7,0,1,0.8,1,2.1c0,1.3-0.3,2.1-1,2.1c-0.6,0-1-0.8-1-2.1C-30.4,489.9-30,489.2-29.4,489.2z M-29.3,488.6c-1,0-1.8,0.9-1.8,2.6
		c0,1.7,0.7,2.6,1.7,2.6c1.1,0,1.8-1,1.8-2.7C-27.6,489.6-28.2,488.6-29.3,488.6z M-31.8,493.8v-0.6h-2.3l0,0l0.4-0.4
		c1.1-1,1.8-1.8,1.8-2.7c0-0.7-0.5-1.5-1.6-1.5c-0.6,0-1.1,0.2-1.4,0.5l0.2,0.5c0.2-0.2,0.6-0.4,1.1-0.4c0.8,0,1,0.5,1,1
		c0,0.8-0.6,1.4-1.9,2.7l-0.5,0.5v0.4H-31.8z M-37.4,489.1c0.6,0,0.9,0.4,0.9,0.8c0,0.5-0.3,0.8-0.8,0.9c-0.6-0.2-1-0.4-1-0.9
		C-38.2,489.5-37.9,489.1-37.4,489.1z M-37.4,493.4c-0.6,0-1-0.5-1-1s0.3-0.9,0.9-1c0.7,0.2,1.1,0.5,1.1,1.1
		C-36.4,493-36.8,493.4-37.4,493.4z M-37.4,493.9c1,0,1.7-0.6,1.7-1.5c0-0.6-0.4-1.1-1-1.3l0,0c0.6-0.3,0.8-0.8,0.8-1.2
		c0-0.6-0.5-1.3-1.5-1.3c-0.9,0-1.6,0.5-1.6,1.4c0,0.4,0.2,0.9,0.8,1.1l0,0c-0.6,0.3-1,0.7-1,1.4C-39.1,493.3-38.5,493.9-37.4,493.9
		z M-44.7,493.5c0.3,0.2,0.8,0.3,1.3,0.3c1.2,0,1.9-0.7,1.9-1.5c0-0.7-0.5-1.2-1.1-1.3l0,0c0.6-0.2,0.9-0.7,0.9-1.2
		c0-0.6-0.5-1.2-1.5-1.2c-0.5,0-1.1,0.2-1.3,0.4l0.2,0.5c0.2-0.2,0.6-0.3,1-0.3c0.6,0,0.9,0.4,0.9,0.8c0,0.6-0.6,0.9-1.1,0.9H-44
		v0.5h0.4c0.7,0,1.3,0.3,1.3,1c0,0.4-0.3,1-1.1,1c-0.5,0-0.9-0.2-1.1-0.3L-44.7,493.5z M-51.8,493.8v-0.6h-2.3l0,0l0.4-0.4
		c1.1-1,1.8-1.8,1.8-2.7c0-0.7-0.5-1.5-1.6-1.5c-0.6,0-1.1,0.2-1.4,0.5l0.2,0.5c0.2-0.2,0.6-0.4,1.1-0.4c0.8,0,1,0.5,1,1
		c0,0.8-0.6,1.4-1.9,2.7l-0.5,0.5v0.4H-51.8z M-61.4,493.8v-0.6h-2.3l0,0l0.4-0.4c1.1-1,1.8-1.8,1.8-2.7c0-0.7-0.5-1.5-1.6-1.5
		c-0.6,0-1.1,0.2-1.4,0.5l0.2,0.5c0.2-0.2,0.6-0.4,1.1-0.4c0.8,0,1,0.5,1,1c0,0.8-0.6,1.4-1.9,2.7l-0.5,0.5v0.4H-61.4z M-67,493.4
		c-0.7,0-1.1-0.6-1.1-1.5c0-0.1,0-0.2,0.1-0.3c0.2-0.4,0.6-0.6,1-0.6c0.6,0,1,0.4,1,1.2C-66,492.9-66.4,493.4-67,493.4z
		 M-65.8,488.6c-0.1,0-0.3,0-0.5,0c-0.6,0.1-1.2,0.3-1.6,0.8c-0.5,0.5-0.9,1.3-0.9,2.3c0,1.3,0.7,2.2,1.8,2.2c1.1,0,1.7-0.9,1.7-1.8
		c0-1-0.6-1.6-1.5-1.6c-0.6,0-1,0.3-1.2,0.6l0,0c0.1-0.8,0.7-1.6,1.8-1.8c0.2,0,0.4,0,0.5,0v-0.7H-65.8z M-69.7,488.7h-2.4l-0.3,2.4
		c0.2,0,0.4-0.1,0.7-0.1c1,0,1.5,0.5,1.5,1.1c0,0.7-0.6,1.1-1.2,1.1c-0.5,0-0.9-0.2-1.1-0.3l-0.2,0.5c0.2,0.2,0.7,0.3,1.3,0.3
		c1.1,0,1.9-0.7,1.9-1.7c0-0.6-0.3-1.1-0.7-1.3c-0.3-0.2-0.7-0.3-1.1-0.3c-0.2,0-0.3,0-0.4,0l0.2-1.3h1.9v-0.4H-69.7z M-76.2,491.9
		L-76.2,491.9l1.2-1.7c0.1-0.2,0.3-0.5,0.4-0.8l0,0c0,0.3,0,0.5,0,0.8v1.7H-76.2z M-73.9,493.8v-1.4h0.7v-0.5h-0.7v-3.2h-0.7
		l-2.3,3.2v0.5h2.4v1.4L-73.9,493.8L-73.9,493.8z M-77.7,488.7h-2.4l-0.3,2.4c0.2,0,0.4-0.1,0.7-0.1c1,0,1.5,0.5,1.5,1.1
		c0,0.7-0.6,1.1-1.2,1.1c-0.5,0-0.9-0.2-1.1-0.3l-0.2,0.5c0.2,0.2,0.7,0.3,1.3,0.3c1.1,0,1.9-0.7,1.9-1.7c0-0.6-0.3-1.1-0.7-1.3
		c-0.3-0.2-0.7-0.3-1.1-0.3c-0.2,0-0.3,0-0.4,0l0.2-1.3h1.9v-0.4H-77.7z M-83.1,489.2c0.7,0,1,0.8,1,2.1c0,1.3-0.3,2.1-1,2.1
		c-0.6,0-1-0.8-1-2.1C-84.1,489.9-83.7,489.2-83.1,489.2z M-83,488.6c-1,0-1.8,0.9-1.8,2.6c0,1.7,0.7,2.6,1.7,2.6
		c1.1,0,1.8-1,1.8-2.7C-81.3,489.6-82,488.6-83,488.6z M-88.6,488.7v0.6h2.5l0,0l-2.2,4.5h0.7l2.2-4.6v-0.5H-88.6z M-91.1,489.2
		c0.7,0,1,0.8,1,2.1c0,1.3-0.3,2.1-1,2.1c-0.6,0-1-0.8-1-2.1C-92.1,489.9-91.7,489.2-91.1,489.2z M-91,488.6c-1,0-1.8,0.9-1.8,2.6
		c0,1.7,0.7,2.6,1.7,2.6c1.1,0,1.8-1,1.8-2.7C-89.4,489.6-90,488.6-91,488.6z M-96.7,493.4c-0.7,0-1.1-0.6-1.1-1.5
		c0-0.1,0-0.2,0.1-0.3c0.2-0.4,0.6-0.6,1-0.6c0.6,0,1,0.4,1,1.2C-95.7,492.9-96.1,493.4-96.7,493.4z M-95.5,488.6
		c-0.1,0-0.3,0-0.5,0c-0.6,0.1-1.2,0.3-1.6,0.8c-0.5,0.5-0.9,1.3-0.9,2.3c0,1.3,0.7,2.2,1.8,2.2c1.1,0,1.7-0.9,1.7-1.8
		c0-1-0.6-1.6-1.5-1.6c-0.6,0-1,0.3-1.2,0.6l0,0c0.1-0.8,0.7-1.6,1.8-1.8c0.2,0,0.4,0,0.5,0v-0.7H-95.5z M-108,493.5
		c0.3,0.2,0.8,0.3,1.3,0.3c1.2,0,1.9-0.7,1.9-1.5c0-0.7-0.5-1.2-1.1-1.3l0,0c0.6-0.2,0.9-0.7,0.9-1.2c0-0.6-0.5-1.2-1.5-1.2
		c-0.5,0-1.1,0.2-1.3,0.4l0.2,0.5c0.2-0.2,0.6-0.3,1-0.3c0.6,0,0.9,0.4,0.9,0.8c0,0.6-0.6,0.9-1.1,0.9h-0.4v0.5h0.4
		c0.7,0,1.3,0.3,1.3,1c0,0.4-0.3,1-1.1,1c-0.5,0-0.9-0.2-1.1-0.3L-108,493.5z M-110.3,493.4c-0.7,0-1.1-0.6-1.1-1.5
		c0-0.1,0-0.2,0.1-0.3c0.2-0.4,0.6-0.6,1-0.6c0.6,0,1,0.4,1,1.2C-109.3,492.9-109.7,493.4-110.3,493.4z M-109.1,488.6
		c-0.1,0-0.3,0-0.5,0c-0.6,0.1-1.2,0.3-1.6,0.8c-0.5,0.5-0.9,1.3-0.9,2.3c0,1.3,0.7,2.2,1.8,2.2c1.1,0,1.7-0.9,1.7-1.8
		c0-1-0.6-1.6-1.5-1.6c-0.6,0-1,0.3-1.2,0.6l0,0c0.1-0.8,0.7-1.6,1.8-1.8c0.2,0,0.4,0,0.5,0L-109.1,488.6L-109.1,488.6z
		 M-37.7,484.4h0.6l0.1-1.8c0-0.4,0-0.9,0.1-1.4l0,0c0.1,0.4,0.3,0.9,0.4,1.3l0.7,1.9h0.5l0.7-1.9c0.2-0.6,0.3-0.9,0.4-1.2l0,0
		c0,0.5,0,0.9,0.1,1.4l0.1,1.8h0.7l-0.3-3.8h-0.9l-0.6,1.6c-0.1,0.4-0.4,1-0.4,1.3l0,0c-0.1-0.3-0.3-0.8-0.3-1l-0.7-1.9h-0.8
		L-37.7,484.4z M-40.1,481c0.8,0,1.1,0.8,1.1,1.5c0,0.9-0.5,1.5-1.1,1.5c-0.7,0-1.1-0.6-1.1-1.5C-41.3,481.8-41,481-40.1,481z
		 M-40.1,480.5c-1,0-1.9,0.7-1.9,2c0,1.2,0.8,1.9,1.8,1.9c0.9,0,1.9-0.6,1.9-2C-38.3,481.3-39,480.5-40.1,480.5z M-45.5,482.2
		c0-0.1,0-0.2,0-0.3c0.1-0.5,0.6-0.9,1-0.9c0.7,0,1.1,0.6,1.1,1.4c0,0.9-0.4,1.5-1.1,1.5c-0.5,0-0.9-0.3-1-0.8c0-0.1,0-0.2,0-0.3
		C-45.5,482.8-45.5,482.2-45.5,482.2z M-46.2,486h0.7v-2.1l0,0c0.2,0.4,0.7,0.6,1.2,0.6c0.9,0,1.7-0.7,1.7-2c0-1.1-0.7-1.9-1.6-1.9
		c-0.6,0-1.1,0.3-1.3,0.7l0,0v-0.6h-0.6c0,0.4,0,0.8,0,1.2L-46.2,486L-46.2,486z M-49.7,482.1c0.1-0.5,0.4-1.1,1.1-1.1
		c0.8,0,1,0.7,1,1.1H-49.7z M-47.1,482.6c0-0.1,0-0.2,0-0.3c0-0.7-0.3-1.8-1.6-1.8c-1.1,0-1.8,0.9-1.8,2s0.7,1.9,1.9,1.9
		c0.6,0,1-0.1,1.3-0.2l-0.1-0.5c-0.3,0.1-0.6,0.2-1,0.2c-0.7,0-1.3-0.4-1.3-1.3L-47.1,482.6L-47.1,482.6z M-55.3,484.4h0.6l0.1-1.8
		c0-0.4,0-0.9,0.1-1.4l0,0c0.1,0.4,0.3,0.9,0.4,1.3l0.7,1.9h0.5l0.7-1.9c0.2-0.6,0.3-0.9,0.4-1.2l0,0c0,0.5,0,0.9,0.1,1.4l0.1,1.8
		h0.7l-0.3-3.8h-0.9l-0.6,1.6c-0.1,0.4-0.4,1-0.4,1.3l0,0c-0.1-0.3-0.3-0.8-0.3-1l-0.7-1.9h-0.8L-55.3,484.4z M-57.8,481
		c0.8,0,1.1,0.8,1.1,1.5c0,0.9-0.5,1.5-1.1,1.5c-0.7,0-1.1-0.6-1.1-1.5C-59,481.8-58.6,481-57.8,481z M-57.8,480.5
		c-1,0-1.9,0.7-1.9,2c0,1.2,0.8,1.9,1.8,1.9c0.9,0,1.9-0.6,1.9-2C-56,481.3-56.7,480.5-57.8,480.5z M-63.7,480.6v3.8h0.7v-1.7h1.8
		v1.7h0.7v-3.8h-0.7v1.5H-63v-1.5H-63.7z M-66.6,484.5c0.3,0,0.5-0.2,0.5-0.5c0-0.3-0.2-0.5-0.5-0.5s-0.5,0.2-0.5,0.5
		C-67.1,484.3-66.9,484.5-66.6,484.5z M-70.1,481.1h1.2v2.7h-1.7c0.1-0.2,0.2-0.4,0.3-0.7c0.1-0.4,0.2-0.9,0.2-1.4V481.1z
		 M-70.7,480.6v1c0,0.5-0.1,1-0.2,1.5c-0.1,0.3-0.2,0.5-0.4,0.8h-0.3v1.7h0.5v-1.2h2.6v1.2h0.5v-1.7h-0.4v-3.3H-70.7z M-72.8,483.1
		c0,0.1,0,0.1,0,0.2c-0.1,0.3-0.4,0.6-0.9,0.6c-0.4,0-0.6-0.2-0.6-0.7c0-0.7,0.9-0.9,1.6-0.9L-72.8,483.1L-72.8,483.1z M-72.1,484.4
		c0-0.3-0.1-0.6-0.1-0.9v-1.4c0-0.8-0.3-1.5-1.4-1.5c-0.5,0-0.9,0.1-1.2,0.3l0.2,0.5c0.3-0.2,0.6-0.3,1-0.3c0.8,0,0.9,0.6,0.9,0.9
		v0.1c-1.5,0-2.3,0.5-2.3,1.4c0,0.5,0.4,1.1,1.2,1.1c0.5,0,0.9-0.3,1.2-0.6l0,0l0.1,0.5h0.4V484.4z M-78.7,480.6v3.8h0.7v-1.7h0.1
		c0.6,0,1,0.3,1.3,0.9c0.1,0.3,0.3,0.6,0.4,0.8h0.7c-0.2-0.3-0.3-0.7-0.4-0.9c-0.3-0.7-0.7-1.1-1.3-1.1l1.6-1.7h-0.8l-1.4,1.6H-78
		v-1.6h-0.7V480.6z M-81.2,483.7c-0.2,0.1-0.5,0.2-0.8,0.2c-0.8,0-1.3-0.5-1.3-1.4c0-0.8,0.5-1.4,1.3-1.4c0.4,0,0.6,0.1,0.8,0.2
		l0.2-0.5c-0.2-0.1-0.5-0.2-1-0.2c-1.2,0-2,0.8-2,2c0,1.2,0.7,1.9,1.9,1.9c0.5,0,0.9-0.1,1.1-0.2L-81.2,483.7z M-89.2,480.6v3.8h0.7
		v-1.7h0.1c0.6,0,1,0.3,1.3,0.9c0.1,0.3,0.3,0.6,0.4,0.8h0.7c-0.2-0.3-0.3-0.7-0.4-0.9c-0.3-0.7-0.7-1.1-1.3-1.1l1.6-1.7H-87
		l-1.4,1.6h-0.2v-1.6h-0.6V480.6z M-91.9,481c0.8,0,1.1,0.8,1.1,1.5c0,0.9-0.5,1.5-1.1,1.5c-0.7,0-1.1-0.6-1.1-1.5
		C-93.1,481.8-92.7,481-91.9,481z M-91.9,480.5c-1,0-1.9,0.7-1.9,2c0,1.2,0.8,1.9,1.8,1.9c0.9,0,1.9-0.6,1.9-2
		C-90.1,481.3-90.8,480.5-91.9,480.5z M-97.1,480.6v0.5h1.2v3.2h0.7v-3.2h1.2v-0.5H-97.1z M-97.6,483.7c-0.2,0.1-0.5,0.2-0.8,0.2
		c-0.8,0-1.3-0.5-1.3-1.4c0-0.8,0.5-1.4,1.3-1.4c0.4,0,0.6,0.1,0.8,0.2l0.2-0.5c-0.2-0.1-0.5-0.2-1-0.2c-1.2,0-2,0.8-2,2
		c0,1.2,0.7,1.9,1.9,1.9c0.5,0,0.9-0.1,1.1-0.2L-97.6,483.7z M-102,483.1c0,0.1,0,0.1,0,0.2c-0.1,0.3-0.4,0.6-0.9,0.6
		c-0.4,0-0.6-0.2-0.6-0.7c0-0.7,0.9-0.9,1.6-0.9L-102,483.1L-102,483.1z M-101.3,484.4c0-0.3-0.1-0.6-0.1-0.9v-1.4
		c0-0.8-0.3-1.5-1.4-1.5c-0.5,0-0.9,0.1-1.2,0.3l0.2,0.5c0.3-0.2,0.6-0.3,1-0.3c0.8,0,0.9,0.6,0.9,0.9v0.1c-1.5,0-2.3,0.5-2.3,1.4
		c0,0.5,0.4,1.1,1.2,1.1c0.5,0,0.9-0.3,1.2-0.6l0,0l0.1,0.5h0.4V484.4z M-108.1,480.6v1.3c0,0.9,0.5,1.2,1.2,1.2
		c0.4,0,0.8-0.1,1-0.3l0,0v1.5h0.7v-3.8h-0.7v1.8c-0.2,0.2-0.5,0.3-0.8,0.3c-0.6,0-0.8-0.3-0.8-0.8v-1.2H-108.1z M-112.4,479.1
		l1.8,3.5c0.1,0.1,0.1,0.2,0,0.3c-0.2,0.4-0.5,0.9-1,0.9c-0.1,0-0.2,0-0.3,0l-0.1,0.6c0.1,0,0.2,0,0.4,0c0.5,0,0.9-0.2,1.2-0.6
		c0.4-0.5,0.7-1.3,1-2l1.1-2.7h-0.7l-0.8,2.2c-0.1,0.4-0.2,0.7-0.3,1l0,0c-0.1-0.3-0.3-0.6-0.4-0.9l-1-2.2h-0.9V479.1z"/>
	<g>
		<polygon class="st2" points="-1.1,484 30,485.3 30,487.7 29.9,490 24.1,490.8 6.3,489.3 -0.1,489.7 		"/>
		<polygon class="st2" points="16.4,452.8 30.3,454.5 30.9,463.1 31.5,485.4 29.9,485.5 28.9,481.1 30,470.4 28.4,461.2 22.4,460.6 
			17.3,461.3 		"/>
		<polygon class="st2" points="-32.4,453.5 -18.4,453.6 -19.8,460.1 -22.7,460.8 -30.3,459.9 -31.8,464.1 		"/>
		<path d="M-31.9,454c3.9-0.4,7.8-0.4,11.8,0c0.9,0.1,0.9-1.3,0-1.3c-3.9-0.4-7.8-0.4-11.8,0C-32.8,452.7-32.8,454.1-31.9,454"/>
		<path d="M-32.7,453.5l1.3,6.6c0.2,0.8,1.5,0.5,1.3-0.4c-0.4-2.2-0.9-4.4-1.3-6.6C-31.6,452.3-32.9,452.6-32.7,453.5"/>
		<path d="M-31.6,459.9c-0.2,2-0.4,4-0.6,6c-0.1,0.9,1.2,0.8,1.3,0c0.2-2,0.4-4,0.6-6C-30.2,459.1-31.5,459.1-31.6,459.9"/>
		<path d="M-33.1,454.2c0,3.6,0,7.2,0,10.9c0,0.9,1.3,0.9,1.3,0c0-3.6,0-7.2,0-10.9C-31.7,453.3-33.1,453.3-33.1,454.2"/>
		<path d="M-30.1,460.5c2.6,0.2,5.3,0.5,8,0.6c1,0.1,2.3,0.1,2.4-1.3c0-0.9-1.3-0.9-1.3,0c0-0.1-8.2-0.6-9-0.7
			C-30.9,459.1-30.9,460.4-30.1,460.5"/>
		<path d="M-30.9,452.6l0.7,6.4c0.1,1.1,1.4,0.6,1.3-0.5l-0.7-6.4C-29.7,451-31,451.5-30.9,452.6"/>
		<path d="M-28.7,453.9c0.2,1.8,0.3,3.6,0.5,5.4c0.1,0.9,1.4,0.9,1.3,0c-0.2-1.8-0.3-3.6-0.5-5.4C-27.4,453-28.8,453-28.7,453.9"/>
		<path d="M-26.6,451.9c0.1,2.6,0.3,5.2,0.4,7.8c0.1,1.2,1.4,1.2,1.3,0c-0.1-2.6-0.3-5.2-0.4-7.8C-25.4,450.8-26.7,450.8-26.6,451.9
			"/>
		<path d="M-23.8,453.9c-0.1,1.9-0.1,3.8,0.2,5.8c0.1,0.8,1.4,0.9,1.3,0c-0.2-1.9-0.3-3.8-0.2-5.8C-22.4,453-23.8,453-23.8,453.9"/>
		<path d="M17,453.5c4,0.4,8,0.8,12,1.2c0.9,0.1,0.8-1.3,0-1.3c-4-0.4-8-0.8-12-1.2C16.1,452.1,16.1,453.4,17,453.5"/>
		<path d="M17.3,461.3c3.4-0.2,6.8-0.3,10.3-0.1c0.9,0,0.9-1.3,0-1.3c-3.4-0.1-6.9-0.1-10.3,0.1C16.4,460.1,16.4,461.4,17.3,461.3"
			/>
		<path d="M28.3,454.2c-0.2,2.1-0.3,4.2-0.5,6.3c-0.1,0.9,1.3,0.9,1.3,0c0.2-2.1,0.3-4.2,0.5-6.3C29.7,453.3,28.4,453.3,28.3,454.2"
			/>
		<path d="M18.2,451.5c-0.1,2.6-0.2,5.3-0.4,7.9c-0.1,1.1,1.3,1.1,1.3,0c0.1-2.6,0.2-5.3,0.4-7.9C19.6,450.4,18.2,450.4,18.2,451.5"
			/>
		<path d="M20.2,454v5.6c0,0.9,1.3,0.9,1.3,0V454C21.6,453.1,20.2,453.1,20.2,454"/>
		<path d="M22.7,452.6c0.1,2.3,0,4.7-0.3,7c-0.2,1.3,1.1,1.9,1.3,0.6c0.3-2.5,0.4-5,0.4-7.5C24,451.2,22.6,451.2,22.7,452.6"/>
		<path d="M24.5,454.5c-0.1,1.8-0.1,3.6-0.2,5.4c0,0.9,1.3,0.9,1.3,0c0.1-1.8,0.1-3.6,0.2-5.4C25.9,453.6,24.5,453.6,24.5,454.5"/>
		<path d="M27,452.9c-0.3,2.1-0.5,4.1-0.8,6.2c-0.1,1.1,1.2,1.6,1.3,0.5c0.3-2.1,0.5-4.1,0.8-6.2C28.4,452.3,27.1,451.8,27,452.9"/>
		<path d="M29,454.5c0.8,10.6,1.3,21.3,1.4,31.9c0.4-0.1,0.9-0.1,1.3-0.2c-0.1-0.3-0.2-0.5-0.2-0.8c-0.2-0.8-1.5-0.5-1.3,0.4
			c0.1,0.3,0.2,0.5,0.2,0.8c0.2,0.7,1.3,0.6,1.3-0.2c-0.1-10.7-0.6-21.3-1.4-31.9C30.3,453.6,28.9,453.6,29,454.5"/>
		<path d="M27.7,461c1.3,8.9,1.6,17.8,1,26.7c-0.1,0.9,1.3,0.9,1.3,0c0.7-9.1,0.3-18.1-1-27.1C28.8,459.8,27.5,460.1,27.7,461"/>
		<path d="M-2.3,484.8c5.4,0.1,10.7,0.2,16.1,0.3c2.6,0.1,5.2,0.1,7.8,0.2c1.4,0,2.8,0.1,4.1,0.1c0.7,0,1.4,0,2.1,0
			c1,0.3,1.3,0.2,0.9-0.3c0.3-0.2,0.5-0.3,0.8-0.5c-0.1,0-0.1,0-0.2,0c-0.8-0.1-1.2,1.2-0.4,1.3c0.1,0,0.1,0,0.2,0
			c0.4,0.1,0.7-0.1,0.8-0.5c0-0.1,0.1-0.2,0.1-0.3c0.1-0.3-0.1-0.6-0.3-0.8c-1.3-1-4-0.4-5.6-0.4c-2.9-0.1-5.9-0.1-8.8-0.2
			c-5.9-0.1-11.8-0.3-17.6-0.4C-3.2,483.5-3.2,484.8-2.3,484.8"/>
		<path d="M-2.7,490.9c10.9-0.5,21.8-0.5,32.6,0.1c0.9,0,0.9-1.3,0-1.3C19,489.1,8.2,489-2.7,489.6C-3.5,489.6-3.5,491-2.7,490.9"/>
		<path d="M30.2,484.5c-0.2,1.2-0.6,2.3-0.7,3.5c-0.1,0.4-0.1,0.8-0.1,1.2c0,0.2,0,0.3-0.1,0.5c0,0.1-0.1,0.5,0,0.2
			c0.4,0.1,0.9,0.1,1.3,0.2c0-0.1,0-0.2,0-0.2c0.1-0.9-1.3-0.8-1.3,0c0,0.1,0,0.2,0,0.2c-0.1,0.8,1.1,0.8,1.3,0.2
			c0.2-0.5,0.1-1.3,0.2-1.9c0.1-1.2,0.5-2.3,0.7-3.5C31.7,484,30.4,483.6,30.2,484.5"/>
		<path d="M-1.8,484.7c0,1.8,0.1,3.5,0.4,5.3c0.1,0.8,1.4,0.5,1.3-0.4c-0.3-1.6-0.4-3.3-0.3-4.9C-0.5,483.8-1.8,483.8-1.8,484.7"/>
		<path d="M0.2,485c0.1,1.6,0.3,3.2,0.4,4.8c0.1,0.9,1.4,0.9,1.3,0c-0.1-1.6-0.3-3.2-0.4-4.8C1.5,484.1,0.2,484.1,0.2,485"/>
		<path d="M3.6,483.6v6.1c0,1.1,1.3,1.1,1.3,0v-6.1C5,482.5,3.6,482.5,3.6,483.6"/>
		<path d="M6.3,485.3v3.9c0,0.9,1.3,0.9,1.3,0v-3.9C7.7,484.4,6.3,484.4,6.3,485.3"/>
		<path d="M9.1,483.4L8.9,489c0,1.1,1.3,1.1,1.3,0l0.2-5.6C10.5,482.4,9.1,482.4,9.1,483.4"/>
		<path d="M11.2,485.1c0.3,1.5,0.4,3.1,0.3,4.7c-0.1,0.9,1.3,0.9,1.3,0c0.1-1.7,0-3.3-0.3-5C12.3,484,11,484.3,11.2,485.1"/>
		<path d="M14.2,483.8c0,1.8-0.1,3.6-0.1,5.3c0,1.3,1.3,1.3,1.3,0c0-1.8,0.1-3.6,0.1-5.3C15.6,482.6,14.2,482.6,14.2,483.8"/>
		<path d="M17,485.1c-0.3,1.2-0.4,2.5-0.4,3.8c0,0.9,1.3,0.9,1.3,0c0-1.2,0.1-2.3,0.4-3.4C18.5,484.6,17.2,484.3,17,485.1"/>
		<path d="M20,484c-0.1,1.4-0.3,2.8-0.4,4.2c-0.1,0.6,0.1,1.1,0.5,1.3c0.3,0.1,0.8-0.2,0.8-0.7c0.1-1.4,0.3-2.8,0.4-4.2
			c0.1-0.6-0.1-1.1-0.5-1.3C20.5,483.1,20,483.5,20,484"/>
		<path d="M22.4,485.6c-0.1,1.1-0.1,2.2-0.2,3.3c-0.1,0.9,1.3,0.9,1.3,0c0.1-1.1,0.1-2.2,0.2-3.3C23.8,484.7,22.4,484.7,22.4,485.6"
			/>
		<path d="M25.5,483.1c-0.4,2.1-0.5,4.2-0.2,6.3c0.2,1.4,1.4,0.8,1.3-0.6c-0.2-1.8-0.1-3.5,0.2-5.2
			C27.1,482.3,25.8,481.8,25.5,483.1"/>
		<path d="M28,486c-0.2,1.3-0.4,2.6-0.5,3.9c-0.1,0.8,1.2,1.2,1.3,0.4c0.2-1.3,0.4-2.6,0.5-3.9C29.4,485.5,28.1,485.1,28,486"/>
		<path d="M-22,452.1c-0.1,2.4-0.1,4.7,0.2,7.1c0.1,1,1.4,1.1,1.3,0c-0.2-2.4-0.3-4.7-0.2-7.1C-20.6,451-22,451-22,452.1"/>
	</g>
	<g>
		<path class="st0" d="M-19.7,435.7c-0.4,11.9-0.4,23.9-0.1,35.8l1.6,0.5c-0.3-12.1-0.3-24.2,0.1-36.3
			C-18.1,435.1-19.6,435.1-19.7,435.7"/>
		<path class="st0" d="M-19.5,435.7c12.2,1.2,24.5,0.9,36.6-0.8c-0.3-0.2-0.7-0.5-1-0.7c-2.3,22.9,2.6,23.3-0.3,46.2
			c-0.1,1,1.4,1,1.5,0c3-22.8-2-23.3,0.3-46.2c0.1-0.6-0.5-0.8-1-0.7c-12,1.7-24.1,2-36.2,0.8C-20.5,434-20.5,435.6-19.5,435.7"/>
		<path class="st0" d="M-11.5,445.3c2.3-0.3,4.6-0.2,6.9,0.2c-0.2-0.2-0.4-0.5-0.6-0.7c0,2.6,0,5.1,0,7.7c0,1,1.5,1,1.5,0
			c0-2.6,0-5.1,0-7.7c0-0.3-0.2-0.7-0.6-0.7c-2.4-0.4-4.9-0.5-7.3-0.2C-12.5,443.8-12.5,445.4-11.5,445.3"/>
		<path class="st0" d="M-12.6,446.5c0.1,1.9,0.3,3.8,0.4,5.7c0,0.4,0.3,0.8,0.8,0.8c2.2-0.1,4.4,0.1,6.5,0.6c1,0.2,1.4-1.3,0.4-1.5
			c-2.3-0.5-4.6-0.7-6.9-0.6c0.3,0.3,0.5,0.5,0.8,0.8c-0.1-1.9-0.3-3.8-0.4-5.7C-11.1,445.5-12.7,445.5-12.6,446.5"/>
		<path class="st0" d="M-10.5,457.5c2.1,0.2,4.3,0.3,6.4,0.5c-0.3-0.3-0.5-0.5-0.8-0.8c0.1,2.5,0.1,5,0.1,7.5c0,1,1.5,1,1.5,0
			c0-2.5,0-5-0.1-7.5c0-0.4-0.3-0.7-0.8-0.8c-2.1-0.2-4.3-0.3-6.4-0.5C-11.5,455.9-11.5,457.5-10.5,457.5"/>
		<path class="st0" d="M-12.2,458.6c0,2,0,4,0,6c0,0.4,0.4,0.8,0.8,0.8c2.4-0.1,4.7-0.2,7.1-0.4c1-0.1,1-1.6,0-1.5
			c-2.4,0.1-4.7,0.2-7.1,0.4c0.3,0.3,0.5,0.5,0.8,0.8c0-2,0-4,0-6C-10.7,457.6-12.2,457.6-12.2,458.6"/>
		<path class="st0" d="M1.6,445.6c0,1.7,0,3.5,0.1,5.2c0,0.8,0.1,1.5,0.8,2c0.8,0.6,2,0.4,2.9,0.4c1.8,0,3.6,0,5.4,0
			c1,0,1-1.6,0-1.5h-3c-1,0-2.4,0.3-3.4,0c-1.4-0.4-1.2-1.6-1.2-2.8c0-1.1-0.1-2.2-0.1-3.3C3.1,444.6,1.6,444.6,1.6,445.6"/>
		<path class="st0" d="M2.1,445.6c2.9-0.4,5.6,1.2,8.5,0.3c-0.3-0.2-0.7-0.5-1-0.7c0.1,2,0.1,4,0.1,6c0,1,1.5,1,1.5,0c0-2,0-4-0.1-6
			c0-0.5-0.5-0.9-1-0.7c-2.7,0.8-5.4-0.7-8.1-0.3C1.1,444.2,1.1,445.7,2.1,445.6"/>
		<path class="st0" d="M1.1,457.6c0,1.2,0,2.4,0,3.6c0,0.6,0,1.2,0,1.8c0,0.3,0.2,1.5,0.1,1.6h1.1l-0.1-0.1v1.1c0,0,0-0.1,0.1-0.1
			c0.6-0.8-0.4-1.9-1.1-1.1c0,0,0,0.1-0.1,0.1c-0.3,0.3-0.3,0.8,0,1.1l0.1,0.1c0.3,0.3,0.8,0.3,1.1,0c0.7-0.7,0.4-2.1,0.4-3
			c0-1.7,0-3.4,0-5.1C2.7,456.6,1.2,456.6,1.1,457.6"/>
		<path class="st0" d="M2.2,457.6c2.7,0.6,5.4,0.6,8.1-0.1c-0.3-0.2-0.7-0.5-1-0.7c-0.1,1.2-0.1,2.5-0.2,3.7c0,0.6,0.2,2.7-0.1,3
			c-0.2,0.3-3,0.2-3.4,0.2c-1.4,0.1-2.7,0.2-4.1,0.3c-1,0.1-1,1.6,0,1.5l5.5-0.4c0.9-0.1,2.3,0.2,3.1-0.5c0.7-0.6,0.5-1.8,0.5-2.5
			c0.1-1.8,0.2-3.6,0.3-5.4c0-0.5-0.5-0.9-1-0.7c-2.4,0.6-4.9,0.6-7.3,0.1C1.7,455.9,1.2,457.4,2.2,457.6"/>
		<path class="st0" d="M-6.6,469.7c0.3,3,0.2,6-0.4,9l0.8,1c0.3,0,0.6-0.2,0.7-0.6c0.6-3.1,0.8-6.3,0.5-9.4
			C-5.2,468.8-6.7,468.7-6.6,469.7"/>
		<path class="st0" d="M-5.6,470h4.5c1.1,0,3.3-0.4,4.1,0.4c0.8,0.8,0.6,3.1,0.6,4.3c0,1.6,0,3.1,0,4.7c0,1,1.5,1,1.5,0
			c0.1-2.1,0.1-4.1,0-6.2c-0.1-1.1,0.2-3.4-0.7-4.2c-0.8-0.8-2.6-0.4-3.6-0.4c-2.1,0-4.2,0-6.3,0C-6.6,468.5-6.6,470-5.6,470"/>
		<path class="st0" d="M-21.8,435.9c0.7-0.5,1.5-0.5,2.2-0.1c0.9,0.5,1.6-0.8,0.8-1.3c-1.1-0.7-2.6-0.7-3.7,0.1
			C-23.4,435.1-22.6,436.5-21.8,435.9"/>
		<path class="st0" d="M-21.6,434.9l4.6-4.5c0.7-0.7-0.4-1.8-1.1-1.1l-4.6,4.5C-23.4,434.5-22.4,435.6-21.6,434.9"/>
		<path class="st0" d="M-18.8,430.1c7.2,0.6,14.4,0.7,21.6,0.4c3.3-0.1,6.9-0.9,10.2-0.7c2.7,0.2,4.2,3.2,6.4,4.7
			c0.1-0.5,0.1-0.9,0.2-1.4c-0.8,0.2-1.4,0-2-0.5c-0.8-0.6-1.9,0.5-1.1,1.1c1.1,0.9,2.1,1.1,3.5,0.9c0.7-0.1,0.7-1.1,0.2-1.4
			c-1.7-1.1-2.4-2.5-3.7-3.9c-0.6-0.7-0.8-0.9-1.7-1.1c-1.3-0.3-2.9,0.2-4.2,0.3c-2,0.2-4,0.3-6,0.4c-7.8,0.4-15.6,0.2-23.4-0.4
			C-19.8,428.5-19.8,430.1-18.8,430.1"/>
		<path class="st0" d="M-17.7,436.1l2.9-4.9c0.5-0.9-0.8-1.6-1.3-0.8l-2.9,4.9C-19.6,436.1-18.2,436.9-17.7,436.1"/>
		<path class="st0" d="M-13.9,432.1c-0.3,0.8-0.6,1.6-0.8,2.5c-0.3,0.9,1.2,1.4,1.5,0.4c0.3-0.8,0.6-1.6,0.8-2.5
			C-12.1,431.6-13.6,431.2-13.9,432.1"/>
		<path class="st0" d="M-11,432.9c-0.3,1-0.6,1.9-0.8,2.9c-0.3,1,1.2,1.4,1.5,0.4s0.6-1.9,0.8-2.9C-9.2,432.4-10.7,432-11,432.9"/>
		<path class="st0" d="M-7.3,431.7c-0.1,1-0.3,1.9-0.4,2.9c-0.1,0.4,0.1,0.8,0.5,1c0.4,0.1,0.9-0.1,1-0.5c0.1-1,0.3-1.9,0.4-2.9
			c0.1-0.4-0.1-0.8-0.5-1C-6.7,431.1-7.2,431.3-7.3,431.7"/>
		<path class="st0" d="M-3.2,433.5c1,0,1-1.5,0-1.5S-4.2,433.5-3.2,433.5"/>
		<path class="st0" d="M0.2,432.5c0.3,1,0.6,1.9,0.8,2.9c0.3,1,1.8,0.5,1.5-0.4c-0.3-1-0.6-1.9-0.8-2.9
			C1.4,431.2-0.1,431.6,0.2,432.5"/>
		<path class="st0" d="M4,432.3c0.4,0.7,0.8,1.4,1.2,2.1c0.5,0.9,1.8,0.1,1.3-0.8c-0.4-0.7-0.8-1.4-1.2-2.1
			C4.8,430.7,3.4,431.4,4,432.3"/>
		<path class="st0" d="M9,431.7c0.8,1,1.6,1.9,2.5,2.9c0.6,0.8,1.7-0.3,1.1-1.1l-2.5-2.9C9.5,429.8,8.4,430.9,9,431.7"/>
	</g>
</g>
</svg>
