<?xml version="1.0" encoding="utf-8"?>
<!-- Generator: Adobe Illustrator 19.1.1, SVG Export Plug-In . SVG Version: 6.00 Build 0)  -->
<svg version="1.1" id="tri" xmlns="http://www.w3.org/2000/svg" xmlns:xlink="http://www.w3.org/1999/xlink" x="0px" y="0px"
	 viewBox="-215 341.6 163.9 159.3" style="enable-background:new -215 341.6 163.9 159.3;" xml:space="preserve">
<style type="text/css">
	.st0{fill:#FFFFFF;}
	.st1{fill:none;stroke:#000000;stroke-width:2.126;stroke-miterlimit:22.9256;}
	.st2{fill:#F49E00;}
</style>
<g id="list3">
	<path class="st0" d="M-173.5,494.3c31.1-6.5,61.7-15.1,95.9-8.5c-14.3-39.8-20-83.4-19.9-126.9c-33.1-2-101.2,3-115.9,29
		C-190.9,393.3-176.5,425.2-173.5,494.3z"/>
	<path class="st1" d="M-173.5,494.3c31.1-6.5,61.7-15.1,95.9-8.5c-14.3-39.8-20-83.4-19.9-126.9c-33.1-2-101.2,3-115.9,29
		C-190.9,393.3-176.5,425.2-173.5,494.3z"/>
	<path class="st1" d="M-183.1,389.6c25.8-10.5,45.1-8.3,67.7-12.4"/>
	<path class="st1" d="M-179.7,399.4c25.8-10.5,45.1-8.3,67.7-12.4"/>
	<path class="st1" d="M-174.5,409c25.8-10.5,45.1-8.3,67.7-12.4"/>
	<path class="st1" d="M-168.5,431.5c25.8-10.5,45.1-8.3,67.7-12.4"/>
	<path class="st1" d="M-166.5,440.7c27.8-5.3,45.1-8.3,67.7-12.4"/>
	<path class="st1" d="M-165.2,450.8c27.8-5.3,46.7-3.9,67.7-12.4"/>
	<path class="st1" d="M-164.1,462.7c27.8-5.3,46.7-3.9,67.7-12.4"/>
</g>
<g id="list2">
	<path class="st0" d="M-71.7,497.6c-31.1-14.8-82.3-10.3-108.2-7.5c18.8-51.8,4.2-96.3-11.6-132c37.9,0.2,73.2-3.8,103.9-15
		C-94.9,398.9-87,449.6-71.7,497.6z"/>
	<path class="st1" d="M-71.7,497.6c-31.1-14.8-82.3-10.3-108.2-7.5c18.8-51.8,4.2-96.3-11.6-132c37.9,0.2,73.2-3.8,103.9-15
		C-94.9,398.9-87,449.6-71.7,497.6z"/>
	<path class="st1" d="M-166.9,374.8c23.4,0.5,44.2-2.4,61.3-10.4"/>
	<path class="st1" d="M-165.9,384.8c23.4,0.5,44.2-2.4,61.3-10.4"/>
	<path class="st1" d="M-162.3,395.5c23.4,0.5,44.2-1.1,61.3-9.1"/>
	<path class="st1" d="M-158.5,418.1c21.4,0.5,40.4-2.4,55.9-10.4"/>
	<path class="st1" d="M-155.2,428.8c21.4,0.5,40.4-1.1,55.9-9.1"/>
	<path class="st1" d="M-156.8,450.1c21.4,0.5,40.4-0.4,55.9-6.5"/>
	<path class="st1" d="M-156.8,459.2c21.4,0.5,40.4-0.4,55.9-6.5"/>
	<path class="st1" d="M-156,469.2c21.4,0.5,40.4-0.4,55.9-6.5"/>
</g>
<g id="list1">
	<path class="st0" d="M-171,499.1c10.3-58.1,6.4-100-3.5-134.9c41.5,5.8,78.6-1.3,112.1-18.8c-6.1,51-7.7,101.4,9.5,149.6
		C-97.2,480.7-136.2,483.5-171,499.1z"/>
	<path class="st1" d="M-171,499.1c10.3-58.1,6.4-100-3.5-134.9c41.5,5.8,78.6-1.3,112.1-18.8c-6.1,51-7.7,101.4,9.5,149.6
		C-97.2,480.7-136.2,483.5-171,499.1z"/>
	<path class="st1" d="M-157.8,381.1c28.4,3.5,54.2,0.9,78-6.9"/>
	<path class="st1" d="M-157.6,389.8c28.4,4.6,53.1,3.7,76.9-4.7"/>
	<path class="st1" d="M-156,398.8c23.8,2.8,48.8,1.7,75.2-3.2"/>
	<path class="st1" d="M-154.7,416.2c23.4,1.3,45.9,0.5,72-2.7"/>
	<path class="st1" d="M-154.2,426.3c10.5,0.6,21.7,2.2,32.3,2c12.9-0.3,25.4-2.9,39.7-4.6"/>
	<path class="st1" d="M-150.8,435.2c10.5,0.6,21.7,2.2,32.3,2c12.9-0.3,21.4-2.2,35.8-3.9"/>
	<path class="st1" d="M-151.1,452.9c9.8,1.5,18.1,1.6,25.9,0.1"/>
	<path class="st1" d="M-151.2,460.8c8.3,1.2,15.5,1.5,22.2,0.6"/>
	<path class="st2" d="M-144.6,461.4c0.7,4.6,1.5,9.2,2.4,13.8c0.1,0.8,1.4,0.6,1.2-0.1c-0.9-4.6-1.7-9.2-2.4-13.8
		C-143.5,460.5-144.7,460.6-144.6,461.4"/>
	<path class="st2" d="M-143.7,462.4c2.8-0.8,5.8-1.1,8.7-1.5c2.8-0.4,5.5-1,8.3-1.5c5.7-1.1,11.4-2.3,17.1-3.6
		c5.6-1.3,11.1-2.1,16.8-2.6c5.7-0.6,11.4-2,17.1-2.5c0.7-0.1,0.7-1.1,0-1.2c-0.1,0-0.3,0-0.4-0.1c-0.8-0.1-1,1.1-0.2,1.2
		c0.1,0,0.3,0,0.4,0.1c0-0.4,0-0.8,0-1.2c-5.7,0.5-11.4,1.9-17.1,2.5c-6,0.6-11.8,1.5-17.7,2.8c-5.7,1.3-11.4,2.4-17.1,3.6
		c-5.4,1.1-11.1,1.4-16.4,2.9C-144.9,461.5-144.4,462.6-143.7,462.4"/>
	<path class="st2" d="M-141.4,476.2c21-5.2,42.3-9.3,63.8-12.3c0.8-0.1,0.6-1.3-0.1-1.2c-21.5,2.9-42.8,7-63.8,12.3
		C-142.3,475.2-142.2,476.4-141.4,476.2"/>
	<path class="st2" d="M-76.3,449.9c0.6,4.2,1.6,8.4,2.7,12.5c0.2-0.3,0.3-0.6,0.5-0.8c-1.1,0-1.9,0.2-2.9,0.7
		c-0.7,0.3-0.3,1.5,0.5,1.1s1.6-0.6,2.6-0.6c0.4,0,0.6-0.5,0.5-0.8c-1.2-4-2-8.1-2.7-12.2C-75.2,449-76.4,449.1-76.3,449.9"/>
	<path class="st2" d="M-80.5,457.8c0.1,0.5,0.2,0.8,0.5,1c0.3,0.2,0.5,0.3,0.9,0.2c0.3-0.1,0.6-0.2,0.7-0.5c0.2-0.3,0.2-0.6,0.1-1.1
		c-0.1-0.5-0.2-0.8-0.5-1c-0.2-0.2-0.5-0.3-0.9-0.2c-0.3,0.1-0.6,0.2-0.8,0.5C-80.5,456.9-80.5,457.3-80.5,457.8 M-81.3,457.9
		c-0.1-0.4-0.1-0.8,0-1.1c0.1-0.2,0.2-0.4,0.3-0.6c0.1-0.2,0.3-0.3,0.5-0.5c0.2-0.1,0.5-0.2,0.8-0.3c0.6-0.1,1.1,0,1.5,0.3
		c0.4,0.3,0.7,0.8,0.8,1.5c0.1,0.7,0,1.2-0.3,1.6c-0.3,0.4-0.7,0.7-1.3,0.8s-1.1,0-1.5-0.3C-80.9,459.1-81.2,458.6-81.3,457.9z
		 M-84.9,460.6l-0.7-4l0.8-0.1l0.3,1.6l1.6-0.3l-0.3-1.6l0.8-0.1l0.7,4l-0.8,0.1l-0.3-1.8l-1.6,0.3l0.3,1.8L-84.9,460.6z
		 M-87.1,459.3l-0.8-1.4l-0.3,1.6L-87.1,459.3z M-85.3,460.6l-0.9,0.1l-0.5-0.9l-1.6,0.3l-0.2,1l-0.9,0.1l0.9-4.3l0.9-0.1
		L-85.3,460.6z M-92.2,460l0.2,1.1l0.8-0.1c0.3,0,0.5-0.1,0.6-0.1s0.2-0.1,0.3-0.2c0.1-0.1,0.1-0.2,0.1-0.4c0-0.1-0.1-0.2-0.1-0.3
		c-0.1-0.1-0.2-0.1-0.3-0.1c-0.1,0-0.4,0-0.7,0.1H-92.2z M-92.5,458.4l0.2,0.9l0.5-0.1c0.3-0.1,0.5-0.1,0.6-0.1s0.2-0.1,0.3-0.2
		c0.1-0.1,0.1-0.2,0.1-0.3s-0.1-0.2-0.2-0.3c-0.1-0.1-0.2-0.1-0.3-0.1c-0.1,0-0.3,0-0.7,0.1L-92.5,458.4z M-93.4,457.8l1.6-0.3
		c0.3-0.1,0.6-0.1,0.7-0.1c0.2,0,0.3,0,0.5,0.1c0.1,0.1,0.3,0.2,0.4,0.3s0.2,0.3,0.2,0.5c0,0.2,0,0.4-0.1,0.5
		c-0.1,0.2-0.2,0.3-0.4,0.4c0.3,0,0.5,0.1,0.6,0.3c0.2,0.2,0.3,0.3,0.3,0.6c0,0.2,0,0.4,0,0.6c-0.1,0.2-0.2,0.3-0.3,0.5
		c-0.1,0.1-0.3,0.2-0.5,0.3c-0.1,0-0.5,0.1-1,0.2l-1.4,0.2L-93.4,457.8z M-96.8,460.5c0.1,0.5,0.2,0.8,0.5,1
		c0.3,0.2,0.5,0.3,0.9,0.2c0.3-0.1,0.6-0.2,0.7-0.5c0.2-0.3,0.2-0.6,0.1-1.1s-0.2-0.8-0.5-1c-0.2-0.2-0.5-0.3-0.9-0.2
		c-0.3,0.1-0.6,0.2-0.8,0.5C-96.8,459.6-96.9,460-96.8,460.5z M-97.6,460.6c-0.1-0.4-0.1-0.8,0-1.1c0.1-0.2,0.2-0.4,0.3-0.6
		c0.1-0.2,0.3-0.3,0.5-0.5c0.2-0.1,0.5-0.2,0.8-0.3c0.6-0.1,1.1,0,1.5,0.3c0.4,0.3,0.7,0.8,0.8,1.5c0.1,0.7,0,1.2-0.3,1.6
		s-0.7,0.7-1.3,0.8c-0.6,0.1-1.1,0-1.5-0.3C-97.3,461.7-97.5,461.3-97.6,460.6z M-100.6,459.7l0.2,1.2l0.4-0.1
		c0.3-0.1,0.5-0.1,0.6-0.2c0.1-0.1,0.2-0.1,0.2-0.2s0.1-0.2,0-0.3c0-0.1-0.1-0.3-0.2-0.3c-0.1-0.1-0.2-0.1-0.4-0.1
		c-0.1,0-0.3,0-0.6,0.1L-100.6,459.7z M-100.8,463.2l-0.7-4l1.3-0.2c0.5-0.1,0.8-0.1,1-0.1s0.5,0.1,0.6,0.3c0.2,0.2,0.3,0.4,0.4,0.7
		c0,0.2,0,0.5,0,0.6c-0.1,0.2-0.2,0.3-0.3,0.5c-0.1,0.1-0.3,0.2-0.4,0.3c-0.2,0.1-0.5,0.1-0.8,0.2l-0.5,0.1l0.3,1.5L-100.8,463.2z
		 M-105.6,459.8l0.8-0.1l0.4,2.7l1.2-3l0.8-0.1l0.7,4l-0.8,0.1l-0.4-2.6l-1.2,2.9l-0.8,0.1L-105.6,459.8z M-108.4,461l0.2,1.2
		l0.4-0.1c0.3-0.1,0.5-0.1,0.6-0.2s0.2-0.1,0.2-0.2c0-0.1,0.1-0.2,0-0.3c0-0.1-0.1-0.3-0.2-0.3c-0.1-0.1-0.2-0.1-0.4-0.1
		c-0.1,0-0.3,0-0.6,0.1L-108.4,461z M-108.7,464.5l-0.7-4l1.3-0.2c0.5-0.1,0.8-0.1,1-0.1s0.5,0.1,0.6,0.3c0.2,0.2,0.3,0.4,0.4,0.7
		c0,0.2,0,0.5,0,0.6c-0.1,0.2-0.2,0.3-0.3,0.5c-0.1,0.1-0.3,0.2-0.4,0.3c-0.2,0.1-0.5,0.1-0.8,0.2l-0.5,0.1l0.3,1.5L-108.7,464.5z
		 M-111.2,464.9l-0.6-3.4l-1.2,0.2l-0.1-0.7l3.2-0.5l0.1,0.7l-1.2,0.2l0.6,3.4L-111.2,464.9z M-113.7,463.8l0.8,0.1
		c0,0.5-0.2,0.8-0.4,1.1c-0.2,0.3-0.6,0.4-1,0.5c-0.5,0.1-1,0-1.4-0.3c-0.4-0.3-0.7-0.8-0.8-1.4c-0.1-0.7,0-1.2,0.3-1.7
		c0.3-0.4,0.7-0.7,1.3-0.8c0.5-0.1,0.9,0,1.3,0.2c0.2,0.1,0.4,0.4,0.5,0.7l-0.8,0.3c-0.1-0.2-0.2-0.3-0.4-0.4
		c-0.2-0.1-0.4-0.1-0.6-0.1c-0.3,0-0.5,0.2-0.7,0.4c-0.2,0.2-0.2,0.6-0.1,1.1s0.2,0.9,0.5,1c0.2,0.2,0.5,0.3,0.8,0.2
		c0.2,0,0.4-0.1,0.5-0.3C-113.8,464.3-113.7,464.1-113.7,463.8z M-120.8,462.3l0.8-0.1l0.4,2.7l1.2-3l0.8-0.1l0.7,4l-0.8,0.1
		l-0.4-2.6l-1.2,2.9l-0.8,0.1L-120.8,462.3z M-123.9,462.8l2.7-0.5l0.1,0.7l-1.9,0.3l0.6,3.4l-0.8,0.1L-123.9,462.8z M-127.1,467.5
		l-0.7-4l3-0.5l0.1,0.7l-2.2,0.4l0.1,0.9l2-0.3l0.1,0.7l-2,0.3l0.2,1.1l2.3-0.4l0.1,0.7L-127.1,467.5z M-130.6,464.6l0.2,1.2
		l0.4-0.1c0.3-0.1,0.5-0.1,0.6-0.2c0.1-0.1,0.2-0.1,0.2-0.2c0-0.1,0.1-0.2,0-0.3c0-0.1-0.1-0.3-0.2-0.3c-0.1-0.1-0.2-0.1-0.4-0.1
		c-0.1,0-0.3,0-0.6,0.1L-130.6,464.6z M-130.9,468.1l-0.7-4l1.3-0.2c0.5-0.1,0.8-0.1,1-0.1c0.2,0,0.5,0.1,0.6,0.3
		c0.2,0.2,0.3,0.4,0.4,0.8c0,0.2,0,0.5,0,0.6c-0.1,0.2-0.2,0.3-0.3,0.5c-0.1,0.1-0.3,0.2-0.4,0.3c-0.2,0.1-0.5,0.1-0.8,0.2l-0.5,0.1
		l0.3,1.5H-130.9z M-133.1,466.9l-0.8-1.4l-0.3,1.6L-133.1,466.9z M-131.3,468.2l-0.9,0.1l-0.5-0.9l-1.6,0.3l-0.2,1l-0.9,0.1
		l0.9-4.3l0.9-0.1L-131.3,468.2z M-138.4,466.4l-0.8-0.1c0.1-0.7,0.5-1.1,1.3-1.2c0.5-0.1,0.9,0,1.1,0.1c0.3,0.2,0.4,0.4,0.5,0.7
		c0,0.2,0,0.4-0.1,0.6c-0.1,0.2-0.2,0.3-0.4,0.5c0.3,0,0.5,0.1,0.7,0.3c0.2,0.1,0.3,0.3,0.3,0.6c0.1,0.4,0,0.7-0.2,0.9
		c-0.2,0.3-0.6,0.4-1.1,0.5c-0.4,0.1-0.8,0.1-1,0c-0.3-0.1-0.5-0.3-0.7-0.7l0.7-0.4c0.1,0.2,0.2,0.4,0.4,0.4c0.1,0.1,0.3,0.1,0.5,0
		c0.3,0,0.4-0.1,0.5-0.3c0.1-0.1,0.1-0.3,0.1-0.4c0-0.2-0.1-0.3-0.3-0.4c-0.1-0.1-0.4-0.1-0.6-0.1h-0.2l-0.1-0.6h0.1
		c0.2,0,0.4-0.1,0.5-0.3c0.1-0.1,0.2-0.3,0.1-0.5c0-0.1-0.1-0.3-0.2-0.3c-0.1-0.1-0.3-0.1-0.5-0.1
		C-138.1,465.8-138.3,466-138.4,466.4z"/>
</g>
</svg>
