<?xml version="1.0" encoding="utf-8"?>
<!-- Generator: Adobe Illustrator 19.1.1, SVG Export Plug-In . SVG Version: 6.00 Build 0)  -->
<svg version="1.1" id="hand" xmlns="http://www.w3.org/2000/svg" xmlns:xlink="http://www.w3.org/1999/xlink" x="0px" y="0px"
	 viewBox="-344.1 848.8 249.4 162.3" style="enable-background:new -344.1 848.8 249.4 162.3;" xml:space="preserve">
<style type="text/css">
	.st0{fill:#131F22;}
	.st1{fill:none;stroke:#000000;stroke-width:0.5669;stroke-miterlimit:22.9256;}
	.st2{fill:#F49E00;}
	.st3{fill:#FFFFFF;}
</style>
<g id="l3">
	<path class="st0" d="M-326.5,874.6c-6.7,4.3-12.5,9.6-17.4,15.9c-0.4,0.5,0,1.2,0.5,1.3c12,3,19.6,13.6,24.7,24.2
		c6,12.4,9.1,26.1,9.5,39.8c0,1.2,1.9,1.2,1.8,0c-0.4-14.5-3.8-28.9-10.3-41.9c-5.2-10.5-13.1-20.8-25.1-23.8
		c0.2,0.4,0.4,0.9,0.5,1.3c4.7-6,10.3-11.1,16.7-15.2C-324.6,875.6-325.5,874-326.5,874.6"/>
</g>
<g id="l2">
	<path class="st0" d="M-327.4,865.9c35.5,2.4,71.2-2.8,104.5-15.2c-0.4-0.4-0.8-0.8-1.1-1.1c-1.8,4.4-2.9,8.9-3.4,13.6
		c-0.1,1.2,1.7,1.2,1.8,0c0.5-4.6,1.6-8.9,3.4-13.2c0.3-0.6-0.5-1.4-1.1-1.1c-33.2,12.4-68.7,17.6-104.1,15.2
		C-328.5,864-328.5,865.9-327.4,865.9"/>
	<path class="st0" d="M-328.5,865.7c16.4,41.4,29.7,88.2,12,131.5c-0.2,0.6,0.3,1.2,0.9,1.2c2.2,0,3.8,0.7,5.2,2.5
		c0.7,0.9,2.3,0,1.6-0.9c-1.7-2.3-3.9-3.4-6.7-3.5c0.3,0.4,0.6,0.8,0.9,1.2c17.7-43.5,4.5-90.8-12-132.4
		C-327.1,864.2-328.9,864.6-328.5,865.7"/>
</g>
<g id="l1">
	<path class="st0" d="M-314.7,873.7c8.6,43.9,9.5,89.1,2.5,133.3c-0.2,1.2,1.6,1.6,1.8,0.5c7-44.5,6.2-90-2.5-134.3
		C-313.1,872-314.9,872.5-314.7,873.7"/>
	<path class="st0" d="M-315.2,874c38.7,5,78.4-2,113.1-19.9c1-0.5,0.1-2.1-0.9-1.6c-34.5,17.7-73.8,24.6-112.2,19.6
		C-316.4,872-316.4,873.8-315.2,874"/>
	<path class="st0" d="M-313.2,1011c17.7-10.4,38.1-14.3,58.4-14.9c10.8-0.3,21.7,0.3,32.4,1.3c5.3,0.4,10.6,0.9,15.8,1.5
		c4.9,0.5,10.1,1.2,13.5,5.2c0.8,0.9,2.1-0.4,1.3-1.3c-5.7-6.7-16.9-6-24.8-6.7c-12.2-1.1-24.5-2-36.8-1.8
		c-21.1,0.4-42.4,4.3-60.7,15.1C-315.2,1010-314.3,1011.6-313.2,1011"/>
	<path class="st0" d="M-196.2,994.5c1.1,3.1,2.3,6.2,3.4,9.2c0.4,1.1,2.2,0.6,1.8-0.5c-1.1-3.1-2.3-6.2-3.4-9.2
		C-194.8,992.9-196.6,993.4-196.2,994.5"/>
	<path class="st0" d="M-208.7,932.2c1.6,21.3,5.6,42.3,11.9,62.6c0.3,1.1,2.1,0.6,1.8-0.5c-6.3-20.2-10.2-41-11.9-62.1
		C-206.9,931-208.8,931-208.7,932.2"/>
	<path class="st0" d="M-209.1,927.8c-0.2,1.8,0,3.6,0.4,5.4c0.2,1.2,2,0.7,1.8-0.5c-0.4-1.6-0.4-3.2-0.3-4.9
		C-207.1,926.6-208.9,926.7-209.1,927.8"/>
	<path class="st0" d="M-208.3,908.8c-0.2-18,1.5-35.9,4.9-53.6c0.2-1.2-1.5-1.6-1.8-0.5c-3.5,17.8-5.2,35.9-5,54.1
		C-210.1,910-208.2,910-208.3,908.8"/>
	<line class="st1" x1="-290.5" y1="966.1" x2="-252.4" y2="961.7"/>
	<line class="st1" x1="-290" y1="974" x2="-251.9" y2="969.7"/>
	<path class="st0" d="M-209,927.7c-0.2,1.8,0,3.6,0.4,5.4c0.2,1.2,2,0.7,1.8-0.5c-0.4-1.6-0.4-3.2-0.3-4.9
		C-207.1,926.5-208.9,926.5-209,927.7"/>
</g>
<g id="houses">
	<polygon class="st2" points="-288.6,907.2 -285.4,905.6 -282.6,905.5 -282.7,909.6 -287.1,910.2 	"/>
	<polygon class="st2" points="-284.2,918.8 -280.4,917.6 -274,917 -266.8,916.2 -258.8,916 -257.3,916.1 -257,918.6 -257.2,920.8 
		-261.2,920.5 -270.3,921.3 -272.6,921 -275.3,920.9 -276.8,922.1 -276.7,920.5 -278.1,919.5 -279,918.8 -280.6,919.6 -282.7,920.8 
			"/>
	<path class="st0" d="M-297.1,908.8c18.7-9.7,40.5-12.6,61.1-8.2c0.6,0.1,0.8-0.8,0.3-0.9c-20.8-4.5-42.9-1.6-61.8,8.3
		C-298.1,908.2-297.7,909.1-297.1,908.8"/>
	<path class="st0" d="M-226.6,901.9c-1.4-2.8-4.8-4.3-7.8-3c-3,1.3-4.6,4.6-5.6,7.5c0.3,0,0.6-0.1,0.9-0.1c-1.4-2.4-3.7-4.4-6.2-2.1
		c-2.3,2.2-4.4,5.6-3.1,8.7c0.2-0.2,0.5-0.4,0.7-0.5c-3.1-2-7.5-1.3-9.4,2c-0.9,1.5-1.1,3.4-0.7,5.1c0.4,1.3,1.3,3,2.9,2.5
		c0.6-0.2,0.3-1.1-0.3-0.9c-1.6,0.5-1.9-2.9-1.9-3.8c0.1-1.3,0.7-2.6,1.6-3.6c1.9-1.9,5-2,7.3-0.5c0.3,0.2,0.8-0.1,0.7-0.5
		c-0.9-2.2,0.1-4.3,1.4-6.1c0.7-0.9,2-2.6,3.2-2.6c1.4,0,2.4,1.7,3,2.7c0.2,0.4,0.7,0.3,0.9-0.1c0.8-2.4,2-5,4.2-6.4
		c2.7-1.7,6-0.6,7.4,2.2C-227.2,903-226.3,902.5-226.6,901.9"/>
	<path class="st0" d="M-301.4,931.4c0.7,0.2,1.3,0.6,1.6,1.3c0.3,0.5,1.1,0.1,0.8-0.5c-0.5-1-0.8-2-0.8-3.1c0-0.5,0-0.9,0.2-1.3
		c0.5-1.9,1.7-1.9,3.6,0.1c0.1,0.6,1,0.6,0.9,0c-0.2-1.2-0.5-5,1.8-4.6c2.2,0.3,2.5,2.6,2.5,4.4h0.9c-0.3-2.8,4.9-5.9,5.9-2.1
		c0.5,2,0.1,4.1-0.9,5.8c-0.3,0.5,0.5,1,0.8,0.5c1.2-2.2,2.3-7.1-0.5-8.8c-2.5-1.5-6.6,1.9-6.3,4.6c0.1,0.6,1,0.6,0.9,0
		c0-2.1-0.7-5.3-3.4-5.3c-2.9,0-3,3.5-2.8,5.6h1.2c-0.3-2-2.3-3.5-4.2-2.3c-2.3,1.5-1.6,5.1-0.6,7.1c0.3-0.2,0.5-0.3,0.8-0.5
		c-0.6-1-1.5-1.6-2.5-1.8L-301.4,931.4z"/>
	<path class="st0" d="M-288.1,923.2c-3.4-4,4.3-5.6,4.6-1.8c0,0.4,0.6,0.7,0.9,0.2c0.6-1,1.5-2,2.7-2.2c3.2-0.6,2.4,2.1,1.9,3.5
		c-0.2,0.4,0.5,0.8,0.8,0.5c0.5-0.6,1-1.3,1.7-1.8c1.5-0.9,3.1,0.5,3.1,2c0,1.7-0.9,3.1-2.1,4.2c0.3,0.2,0.5,0.3,0.8,0.5
		c0.1-0.2,0.1-0.3,0.2-0.5c0.2-0.6-0.7-0.8-0.9-0.3c-0.1,0.2-0.1,0.3-0.2,0.5c-0.1,0.5,0.5,0.8,0.8,0.5c1.8-1.6,3.2-4.7,1.8-7
		c-1.7-2.6-4.5-0.5-5.8,1.2c0.3,0.2,0.5,0.3,0.8,0.5c0.6-1.6,1-3.9-1-4.7c-2.1-0.8-4.4,1.1-5.3,2.7c0.3,0.1,0.6,0.2,0.9,0.2
		c-0.3-2.7-3.1-3.5-5.4-2.8c-2.9,0.9-2.5,3.4-0.8,5.3C-288.4,924.4-287.8,923.7-288.1,923.2"/>
	<path class="st0" d="M-301.3,908.7c-0.7-4.2,3.3-7.1,7.1-5.5c0.4,0.2,0.8-0.5,0.5-0.8c-1.1-1-1-3,0.3-3.8c1.7-1,3.6,0.6,4,2.2
		c0.1,0.5,0.9,0.4,0.9-0.1c0.1-2.5,0.7-4.9,1.8-7.1c1-2,3.7-5.6,6.1-2.9c0.3,0.3,0.8,0.1,0.8-0.3c0-4.9,6.6-6.2,8.3-1.6
		c0.1,0.4,0.8,0.5,0.9,0c0.6-3.8,3-7.2,6.6-8.9c2.6-1.2,5.4-1.1,6.9,1.6c1.4,2.5,0.7,5.5-0.1,8.1c0.3,0,0.6,0.1,0.9,0.1
		c0.3-2.4,3.7-1.9,4.6-0.4c0.5,0.9,1.2,5.4-0.6,5.5c0.1,0.2,0.3,0.5,0.4,0.7c1.7-2.8,3.8,1.3,4.1,2.6c0.2,0.6,1.1,0.3,0.9-0.3
		c-0.4-1.5-1-3.3-2.6-3.9c-1.2-0.5-2.5-0.1-3.2,1.1c-0.2,0.3,0,0.7,0.4,0.7c3.1-0.3,2.3-6.3,0.7-7.9c-1.9-1.7-5.3-0.9-5.7,1.7
		c-0.1,0.5,0.8,0.6,0.9,0.1c0.8-2.8,1.5-6.1,0-8.8c-1.1-1.9-2.9-3.1-5.1-2.9c-5.2,0.5-9.3,5.5-10.1,10.4h0.9
		c-2.1-5.6-10.2-4.2-10.2,1.8c0.3-0.1,0.5-0.2,0.8-0.3c-1.9-2.2-4.7-0.9-6.2,1c-2.1,2.7-3.1,6.3-3.3,9.7c0.3,0,0.6-0.1,0.9-0.1
		c-0.5-2.2-3.1-4.1-5.4-2.8c-1.8,1.1-2.1,3.9-0.5,5.3c0.2-0.3,0.3-0.5,0.5-0.8c-4.3-1.8-8.4,1.4-8.3,5.7l0.1,1.1
		C-302,909.5-301.2,909.3-301.3,908.7"/>
	<path class="st0" d="M-227.3,902.5c0.1-0.1,0.3-0.1,0.4-0.2c0.1,0.2,0.2,0.4,0.3,0.6c0.3-1.1,2.8,0,3.2,0.4c0.8,0.8,1,1.8,0.7,3
		c-0.1,0.4,0.3,0.7,0.7,0.5c2.6-1.3,4.2,1,4.2,3.3l1,0.3c0.2-3.1-2.2-6.1-5.6-4.4c0.2,0.2,0.5,0.4,0.7,0.5c0.6-1.8-0.1-3.9-2-4.7
		C-224.6,901.4-227.1,901.2-227.3,902.5c-0.2,0.4,0,0.6,0.2,0.7h0.1c0.2,0.1,0.5,0,0.5-0.2v-0.1C-226.2,902.4-227,901.9-227.3,902.5
		"/>
	<path class="st0" d="M-302,910.8c1.6-0.8,3.3-1.5,4.9-2.2c0.6-0.2,0.3-1.1-0.3-0.9c-1.6,0.6-3.2,1.3-4.8,2.1l0.1,0.8L-302,910.8z"
		/>
	<polygon class="st3" points="-282.3,901.3 -278,901.3 -278,908.1 -281.8,908.5 	"/>
	<path class="st0" d="M-274.8,925.3c0.6,0,0.6-0.9,0-0.9C-275.5,924.3-275.5,925.3-274.8,925.3"/>
	<path class="st0" d="M-290.8,934.1c23.2-8.9,50.3-13.3,73.3-3.1v-1c-16.7-7.2-36-7.2-53.7-3c-6.8,1.6-13.4,3.7-19.9,6.2
		C-291.6,933.4-291.4,934.3-290.8,934.1"/>
	<path class="st3" d="M-260,885.4c0.4,0.2,0.9,0.2,1.4,0.1c0.4-0.1,0.4-0.7,0.1-0.9c-1-0.7-1.4-1.5-2.2-2.4
		c-0.4-0.4-0.5-0.5-1.1-0.7c-0.8-0.2-1.8,0.1-2.6,0.2c-1.2,0.1-2.4,0.2-3.7,0.2c-4.8,0.2-9.6,0.2-14.3-0.2c-0.6,0-0.6,0.8-0.1,0.9
		l-2.3,2.3c-0.2,0.2-0.2,0.4,0,0.6c-0.2,0.4,0.2,1,0.6,0.7c0.4-0.3,0.9-0.3,1.3-0.1c-0.3,9.4-0.3,18.8,0.1,28.2
		c0.3,0,0.6-0.1,0.9-0.1l-0.1-0.3h-0.3v-0.3c-0.3,0-0.7,0.1-0.6,0.4c0,0.2,0.1,0.4,0.1,0.5c0.1,0.4,0.9,0.3,0.9-0.1v-0.5l6.8-0.6
		V913c0.2,0.3,0.7,0.3,0.8-0.2c0.4-1.9,0.5-3.7,0.3-5.6h2.4c0.7,0,2-0.2,2.5,0.2c0.5,0.5,0.3,1.9,0.4,2.6c0,1,0,1.9,0,2.9
		c0,0.6,0.9,0.6,0.9,0l0,0l6.6,0.3v0.3c-0.1,0.6,0.9,0.6,0.9,0c1.3-9.8,0.2-12.9-0.1-18.7v-0.3v-0.3
		C-260.5,891.9-260.4,889.2-260,885.4"/>
	<path class="st2" d="M-260.7,890.2l-0.1-4.6l-5.8,0.5l-8.4,0.1l-7.4-0.3l-0.1,17.8l0.2,10.2l7.2-0.6l0.2-1.6l0.2-3.4l0.3-1.6
		l4.6,0.2l1.5,0.5l-0.1,4.7v0.8l7.6,0.3l0.5-2.1v-16.5L-260.7,890.2z M-273.2,903.7h-4.3l-0.5-1.4l-0.2-3.2l3,0.3l1.9,0.2l0.2,3
		L-273.2,903.7L-273.2,903.7z M-278.3,892.9l0.1-1.3l3.3-0.3l1.4,0.7l-0.1,3.9l-0.3,0.7l-4.1-0.5L-278.3,892.9z M-264.8,902.7
		l-1,1.1l-3.8,0.2v-4.8l2.6,0.1l2.3-0.3L-264.8,902.7z M-264.4,895l-0.4,1.2h-4.1l-0.6-2.3v-2.5l5.1,0.6V895z"/>
	<path class="st0" d="M-282.9,886.2c-0.3,9.4-0.3,18.8,0.1,28.2c0.3,0,0.6-0.1,0.9-0.1c0-0.2-0.1-0.4-0.1-0.5
		c-0.1-0.4-1-0.2-0.9,0.2c0,0.2,0.1,0.4,0.1,0.5c0.1,0.4,0.9,0.3,0.9-0.1c-0.4-9.4-0.4-18.8-0.1-28.2
		C-282,885.8-282.9,885.8-282.9,886.2"/>
	<path class="st0" d="M-282.8,886.1c7.5,0.8,15,0.6,22.4-0.5c-0.2-0.2-0.4-0.3-0.6-0.5c-1.4,14,1.6,14.3-0.2,28.3
		c-0.1,0.6,0.9,0.6,0.9,0c1.8-14-1.2-14.3,0.2-28.3c0-0.3-0.3-0.5-0.6-0.5c-7.3,1.2-14.7,1.3-22.1,0.6
		C-283.4,885.1-283.4,886.1-282.8,886.1"/>
	<path class="st0" d="M-277.9,892c1.4-0.2,2.8-0.1,4.2,0.1c-0.1-0.2-0.2-0.3-0.3-0.5c0,1.6,0,3.1,0,4.7c0,0.6,0.9,0.6,0.9,0
		c0-1.6,0-3.1,0-4.7c0-0.2-0.1-0.4-0.3-0.5c-1.5-0.3-3-0.3-4.5-0.1C-278.5,891.1-278.5,892.1-277.9,892"/>
	<path class="st0" d="M-278.6,892.8c0.1,1.2,0.2,2.3,0.3,3.5c0,0.2,0.2,0.5,0.5,0.5c1.3-0.1,2.7,0.1,4,0.4c0.6,0.1,0.8-0.8,0.3-0.9
		c-1.4-0.3-2.8-0.5-4.2-0.4c0.2,0.2,0.3,0.3,0.5,0.5c-0.1-1.2-0.2-2.3-0.3-3.5C-277.7,892.2-278.6,892.2-278.6,892.8"/>
	<path class="st0" d="M-277.3,899.6c1.3,0.1,2.6,0.2,3.9,0.3c-0.2-0.2-0.3-0.3-0.5-0.5c0.1,1.5,0.1,3.1,0,4.6c0,0.6,0.9,0.6,0.9,0
		c0-1.5,0-3.1,0-4.6c0-0.3-0.2-0.5-0.5-0.5c-1.3-0.1-2.6-0.2-3.9-0.3C-277.9,898.6-277.9,899.5-277.3,899.6"/>
	<path class="st0" d="M-278.4,900.2c0,1.2,0,2.5,0,3.7c0,0.2,0.2,0.5,0.5,0.5c1.5-0.1,2.9-0.1,4.4-0.2c0.6,0,0.6-1,0-0.9
		c-1.5,0.1-2.9,0.1-4.4,0.2c0.2,0.2,0.3,0.3,0.5,0.5c0-1.2,0-2.5,0-3.7C-277.4,899.6-278.4,899.6-278.4,900.2"/>
	<path class="st0" d="M-269.9,892.2c0,1.1,0,2.1,0.1,3.2c0,0.5,0.1,0.9,0.5,1.2c0.5,0.4,1.2,0.2,1.8,0.2c1.1,0,2.2,0,3.3,0
		c0.6,0,0.6-1,0-0.9h-1.9c-0.6,0-1.5,0.2-2.1,0c-0.9-0.2-0.7-1-0.7-1.7s0-1.3,0-2C-269,891.6-269.9,891.6-269.9,892.2"/>
	<path class="st0" d="M-269.6,892.2c1.8-0.2,3.5,0.7,5.2,0.2c-0.2-0.2-0.4-0.3-0.6-0.5c0.1,1.2,0.1,2.5,0,3.7c0,0.6,0.9,0.6,0.9,0
		c0-1.2,0-2.5,0-3.7c0-0.3-0.3-0.6-0.6-0.5c-1.6,0.5-3.3-0.4-5-0.2C-270.2,891.3-270.2,892.3-269.6,892.2"/>
	<path class="st0" d="M-270.2,899.6c0,0.7,0,1.5,0,2.2c0,0.4,0,0.7,0,1.1c0,0.2,0.1,0.9,0,1h0.7c0,0,0,0-0.1-0.1v0.7c0,0,0,0,0-0.1
		c0.4-0.5-0.3-1.1-0.7-0.7c0,0,0,0,0,0.1c-0.2,0.2-0.2,0.5,0,0.7c0,0,0,0,0.1,0.1c0.2,0.2,0.5,0.2,0.7,0c0.4-0.4,0.2-1.3,0.2-1.8
		c0-1,0-2.1,0-3.1C-269.2,899-270.2,899-270.2,899.6"/>
	<path class="st0" d="M-269.5,899.6c1.7,0.4,3.3,0.3,5-0.1c-0.2-0.2-0.4-0.3-0.6-0.5c0,0.8-0.1,1.5-0.1,2.3c0,0.4,0.1,1.6-0.1,1.9
		c-0.1,0.2-1.8,0.1-2.1,0.1c-0.8,0.1-1.7,0.1-2.5,0.2c-0.6,0-0.6,1,0,0.9l3.4-0.2c0.5,0,1.4,0.1,1.9-0.3c0.4-0.4,0.3-1.1,0.3-1.6
		c0.1-1.1,0.1-2.2,0.2-3.3c0-0.3-0.3-0.5-0.6-0.5c-1.5,0.4-3,0.4-4.5,0.1C-269.9,898.6-270.1,899.5-269.5,899.6"/>
	<path class="st0" d="M-274.9,907c0.2,1.9,0.1,3.7-0.3,5.5c-0.1,0.6,0.8,0.9,0.9,0.3c0.4-1.9,0.5-3.8,0.3-5.8
		C-274,906.4-275,906.4-274.9,907"/>
	<path class="st0" d="M-274.3,907.2h2.7c0.7,0,2-0.2,2.5,0.2c0.5,0.5,0.3,1.9,0.4,2.6c0,1,0,1.9,0,2.9c0,0.6,0.9,0.6,0.9,0
		c0-1.3,0-2.5,0-3.8c0-0.7,0.1-2.1-0.4-2.6s-1.6-0.2-2.2-0.2c-1.3,0-2.6,0-3.9,0C-274.9,906.3-274.9,907.2-274.3,907.2"/>
	<path class="st0" d="M-284.2,886.3c0.4-0.3,0.9-0.3,1.3-0.1c0.5,0.3,1-0.5,0.5-0.8c-0.7-0.4-1.6-0.4-2.3,0.1
		C-285.2,885.8-284.7,886.6-284.2,886.3"/>
	<path class="st0" d="M-284.1,885.7l2.8-2.8c0.4-0.4-0.2-1.1-0.7-0.7l-2.8,2.8C-285.2,885.5-284.6,886.1-284.1,885.7"/>
	<path class="st0" d="M-282.4,882.7c4.4,0.3,8.8,0.4,13.2,0.3c2-0.1,4.2-0.5,6.2-0.4c1.6,0.1,2.6,2,3.9,2.9c0-0.3,0.1-0.6,0.1-0.9
		c-0.5,0.1-0.9,0-1.2-0.3c-0.5-0.4-1.1,0.3-0.7,0.7c0.7,0.5,1.3,0.7,2.1,0.6c0.4-0.1,0.4-0.7,0.1-0.9c-1-0.7-1.4-1.5-2.2-2.4
		c-0.4-0.4-0.5-0.5-1.1-0.7c-0.8-0.2-1.8,0.1-2.6,0.2c-1.2,0.1-2.4,0.2-3.7,0.2c-4.8,0.2-9.6,0.2-14.3-0.2
		C-283,881.8-283,882.7-282.4,882.7"/>
	<path class="st0" d="M-281.7,886.4l1.8-3c0.3-0.5-0.5-1-0.8-0.5l-1.8,3C-282.9,886.4-282.1,886.9-281.7,886.4"/>
	<path class="st0" d="M-279.4,884c-0.2,0.5-0.3,1-0.5,1.5c-0.2,0.6,0.7,0.8,0.9,0.3c0.2-0.5,0.3-1,0.5-1.5
		C-278.3,883.6-279.2,883.4-279.4,884"/>
	<path class="st0" d="M-277.6,884.5c-0.2,0.6-0.3,1.2-0.5,1.8c-0.2,0.6,0.7,0.8,0.9,0.3c0.2-0.6,0.3-1.2,0.5-1.8
		C-276.5,884.1-277.4,883.9-277.6,884.5"/>
	<path class="st0" d="M-275.3,883.7c-0.1,0.6-0.2,1.2-0.3,1.8c0,0.3,0.1,0.5,0.3,0.6c0.2,0.1,0.5-0.1,0.6-0.3
		c0.1-0.6,0.2-1.2,0.3-1.8c0-0.3-0.1-0.5-0.3-0.6C-275,883.3-275.3,883.5-275.3,883.7"/>
	<path class="st0" d="M-272.8,884.8c0.6,0,0.6-0.9,0-0.9C-273.4,883.9-273.4,884.8-272.8,884.8"/>
	<path class="st0" d="M-270.7,884.2c0.2,0.6,0.3,1.2,0.5,1.8c0.2,0.6,1.1,0.3,0.9-0.3c-0.2-0.6-0.3-1.2-0.5-1.8
		C-270,883.4-270.9,883.6-270.7,884.2"/>
	<path class="st0" d="M-268.4,884.1c0.3,0.4,0.5,0.8,0.8,1.3c0.3,0.5,1.1,0,0.8-0.5c-0.3-0.4-0.5-0.8-0.8-1.3
		C-267.9,883.1-268.8,883.6-268.4,884.1"/>
	<path class="st0" d="M-265.3,883.7c0.5,0.6,1,1.2,1.5,1.8c0.4,0.5,1.1-0.2,0.7-0.7l-1.5-1.8C-265.1,882.5-265.7,883.2-265.3,883.7"
		/>
	<polygon class="st2" points="-259.6,903.4 -255.9,903.7 -253.3,903.9 -254.9,907.3 -260.2,907.7 	"/>
	<path d="M-271.8,921.5c4.7-0.6,9.5-0.7,14.3-0.3c0.5,0,0.5-0.8,0-0.8c-4.8-0.4-9.5-0.3-14.3,0.3
		C-272.3,920.7-272.3,921.5-271.8,921.5"/>
	<path d="M-283.7,919.1c8.5-2.1,17.2-3,26-2.6c0.5,0,0.5-0.8,0-0.8c-8.8-0.3-17.6,0.5-26.2,2.6
		C-284.4,918.5-284.2,919.3-283.7,919.1"/>
	<path d="M-276.9,917.4c0.3,1.2,0.5,2.3,0.8,3.5c0.1,0.5,0.9,0.3,0.8-0.2c-0.3-1.2-0.5-2.3-0.8-3.5
		C-276.2,916.7-277,916.9-276.9,917.4"/>
	<path d="M-275.6,917.4c0.2,1.1,0.3,2.1,0.5,3.2c0.1,0.5,0.9,0.3,0.8-0.2c-0.2-1.1-0.3-2.1-0.5-3.2
		C-274.8,916.7-275.6,916.9-275.6,917.4"/>
	<path d="M-274,917c0.1,1.3,0.4,2.6,0.9,3.8c0.2,0.5,1,0.3,0.8-0.2c-0.4-1.2-0.7-2.4-0.8-3.6C-273.3,916.4-274.1,916.4-274,917"/>
	<path d="M-272.4,916.8c0,1.2,0.1,2.3,0.3,3.5c0.1,0.5,0.9,0.3,0.8-0.2c-0.1-1.1-0.2-2.2-0.3-3.2
		C-271.6,916.2-272.4,916.2-272.4,916.8"/>
	<path d="M-270.7,916.2c0.2,1.4,0.4,2.7,0.5,4.1c0.1,0.5,0.9,0.5,0.8,0c-0.2-1.4-0.4-2.7-0.5-4.1
		C-269.9,915.7-270.8,915.7-270.7,916.2"/>
	<path d="M-268.7,916.6c0.1,1.2,0.2,2.5,0.3,3.7c0,0.5,0.9,0.5,0.8,0c-0.1-1.2-0.2-2.5-0.3-3.7C-268,916.1-268.8,916.1-268.7,916.6"
		/>
	<path d="M-267.2,916.6c0,1.2,0.1,2.3,0.3,3.5c0.1,0.5,0.9,0.3,0.8-0.2c-0.2-1.1-0.3-2.2-0.3-3.2
		C-266.4,916.1-267.2,916.1-267.2,916.6"/>
	<path d="M-265.2,916.2c0.1,1.2,0.2,2.5,0.2,3.7c0,0.5,0.9,0.5,0.8,0c-0.1-1.2-0.2-2.5-0.2-3.7
		C-264.4,915.7-265.2,915.7-265.2,916.2"/>
	<path d="M-263.6,916.6c0.1,1.1,0.2,2.2,0.2,3.3c0,0.5,0.9,0.5,0.8,0c-0.1-1.1-0.2-2.2-0.2-3.3
		C-262.8,916.1-263.6,916.1-263.6,916.6"/>
	<path d="M-261.9,916.6c0.1,1.2,0.2,2.3,0.3,3.5c0,0.5,0.9,0.5,0.8,0c-0.1-1.2-0.2-2.3-0.3-3.5
		C-261.1,916.1-261.9,916.1-261.9,916.6"/>
	<path d="M-260.2,916.8c-0.1,1.1,0,2.2,0.2,3.3c0.1,0.5,0.9,0.3,0.8-0.2c-0.2-1-0.2-2-0.2-3C-259.3,916.2-260.1,916.2-260.2,916.8"
		/>
	<path d="M-259.1,916.5c0.3,1.4,0.6,2.8,0.8,4.2c0.1,0.5,0.9,0.3,0.8-0.2c-0.3-1.4-0.6-2.8-0.8-4.2
		C-258.4,915.8-259.2,916-259.1,916.5"/>
	<path d="M-288.5,907.1c1.9-0.8,3.8-1.3,5.8-1.6c0.5-0.1,0.3-0.9-0.2-0.8c-2.1,0.3-4.1,0.9-6,1.7
		C-289.4,906.6-288.9,907.3-288.5,907.1"/>
	<path d="M-289.3,907.4c0.3,1.1,0.5,2.2,0.8,3.3c0.1,0.5,0.9,0.3,0.8-0.2c-0.3-1.1-0.5-2.2-0.8-3.3
		C-288.6,906.7-289.4,906.9-289.3,907.4"/>
	<path d="M-287.9,911.1c1.5-0.7,3.1-1,4.8-1.1c0.5,0,0.5-0.8,0-0.8c-1.8,0.1-3.6,0.5-5.2,1.2C-288.8,910.6-288.4,911.3-287.9,911.1"
		/>
	<path d="M-288.7,907.1c0.3,1.1,0.5,2.2,0.8,3.3c0.1,0.5,0.9,0.3,0.8-0.2c-0.3-1.1-0.5-2.2-0.8-3.3
		C-288,906.3-288.8,906.5-288.7,907.1"/>
	<path d="M-287.4,906.5c0.2,1.1,0.5,2.2,0.7,3.3c0.1,0.5,0.9,0.3,0.8-0.2c-0.2-1.1-0.5-2.2-0.7-3.3
		C-286.7,905.8-287.5,906-287.4,906.5"/>
	<path d="M-285.8,906c0.1,1.3,0.3,2.6,0.7,3.8c0.1,0.5,0.9,0.3,0.8-0.2c-0.3-1.2-0.5-2.4-0.6-3.6C-285,905.5-285.8,905.5-285.8,906"
		/>
	<path d="M-284.4,905.8l0.4,3.7c0.1,0.5,0.9,0.5,0.8,0l-0.4-3.7C-283.6,905.3-284.4,905.3-284.4,905.8"/>
	<path d="M-259.4,903.6c1.8-0.1,3.6,0.1,5.3,0.5c0.5,0.1,0.7-0.7,0.2-0.8c-1.8-0.5-3.6-0.7-5.5-0.6
		C-259.9,902.8-259.9,903.6-259.4,903.6"/>
	<path d="M-259.7,908c1.7-0.4,3.5-0.6,5.3-0.7c0.5,0,0.5-0.8,0-0.8c-1.9,0.1-3.7,0.3-5.5,0.7C-260.4,907.3-260.2,908.1-259.7,908"/>
	<path d="M-259.6,903.4c0.1,1.1,0.3,2.2,0.4,3.3c0.1,0.5,0.9,0.5,0.8,0c-0.1-1.1-0.3-2.2-0.4-3.3
		C-258.9,902.9-259.7,902.9-259.6,903.4"/>
	<path d="M-257.9,903.2c-0.3,1.2-0.3,2.5-0.1,3.7c0.1,0.5,0.9,0.3,0.8-0.2c-0.2-1.1-0.1-2.2,0.1-3.3
		C-257,902.9-257.8,902.6-257.9,903.2"/>
	<path d="M-256.7,903.8c0.1,1,0,2-0.2,3c-0.1,0.5,0.7,0.7,0.8,0.2c0.2-1.1,0.3-2.2,0.2-3.3C-255.9,903.3-256.7,903.3-256.7,903.8"/>
	<path d="M-255.6,904.4c0.1,0.9,0,1.8-0.1,2.7c-0.1,0.5,0.7,0.7,0.8,0.2c0.2-1,0.3-1.9,0.2-2.9
		C-254.8,903.8-255.6,903.8-255.6,904.4"/>
	<path d="M-254.1,903.7l-0.7,3c-0.1,0.5,0.7,0.7,0.8,0.2l0.7-3C-253.2,903.4-254,903.2-254.1,903.7"/>
	<path d="M-255,907.4c0.2,1.5,0.4,3,0.6,4.4c0.1,0.5,0.9,0.3,0.8-0.2c-0.2-1.5-0.4-3-0.6-4.4C-254.3,906.7-255.1,906.9-255,907.4"/>
	<path d="M-254.1,904.3c0.4,2.5,0.8,5.1,1,7.7c0,0.5,0.9,0.5,0.8,0c-0.2-2.7-0.6-5.3-1-7.9C-253.4,903.5-254.2,903.8-254.1,904.3"/>
	<path d="M-289.1,911.4c0.2,1.2,0.5,2.5,0.7,3.7c0.1,0.6,1,3.3,0.6,3.8c0.2,0,0.4-0.1,0.6-0.1c0,0.1,0.1,0.1,0.1,0.2
		c-0.1,0.1-0.3,0.3-0.4,0.4c0,0,0,0,0.1,0c0.5,0,0.5-0.8,0-0.8c0,0,0,0-0.1,0c-0.2,0-0.4,0.2-0.4,0.4v0.1c0,0.1,0.1,0.3,0.2,0.4h0.1
		c0.2,0.1,0.4,0,0.6-0.1c0.5-0.7-0.2-2.2-0.3-3c-0.3-1.7-0.6-3.5-1-5.2C-288.4,910.6-289.2,910.9-289.1,911.4"/>
	<path d="M-289.9,907.1c0.8,3.9,1.4,7.7,1.9,11.6c0.3,0,0.5-0.1,0.8-0.1l-0.1-0.7c-0.1-0.5-0.9-0.3-0.8,0.2c0,0.2,0.1,0.4,0.1,0.7
		c0.1,0.5,0.9,0.4,0.8-0.1c-0.5-4-1.1-7.9-1.9-11.9C-289.2,906.4-290,906.6-289.9,907.1"/>
	<path d="M-288.4,910.8c0.3,2.7,0.7,5.4,1,8.2c0.1,0.5,0.9,0.5,0.8,0c-0.3-2.7-0.7-5.4-1-8.2C-287.7,910.3-288.5,910.3-288.4,910.8"
		/>
	<path d="M-254.2,906c0.2,1.8,0.4,3.6,0.5,5.4c0.3,0,0.5-0.1,0.8-0.1c-0.3-1.7-0.6-3.4-0.9-5c-0.1-0.5-0.9-0.3-0.8,0.2
		c0.3,1.7,0.6,3.4,0.9,5c0.1,0.4,0.8,0.4,0.8-0.1c-0.2-1.8-0.3-3.6-0.5-5.4C-253.4,905.5-254.3,905.5-254.2,906"/>
	<polygon class="st2" points="-247.9,950.1 -228,950.9 -228.1,952.5 -228.1,953.9 -231.8,954.4 -243.1,953.5 -247.2,953.8 	"/>
	<polygon class="st2" points="-236.7,930.2 -227.8,931.3 -227.5,936.8 -227.1,951 -228.1,951.1 -228.7,948.3 -228.1,941.5 
		-229,935.6 -232.9,935.2 -236.1,935.7 	"/>
	<polygon class="st2" points="-267.8,930.7 -258.9,930.7 -259.8,934.9 -261.6,935.4 -266.5,934.8 -267.4,937.5 	"/>
	<path class="st3" d="M-235.9,918.5c0.4,0.2,0.9,0.2,1.4,0.1c0.5-0.1,0.4-0.7,0.1-0.9c-1.1-0.7-1.5-1.6-2.3-2.5
		c-0.4-0.4-0.5-0.6-1.1-0.7c-0.8-0.2-1.8,0.1-2.7,0.2c-1.3,0.1-2.5,0.2-3.8,0.3c-5,0.3-9.9,0.2-14.9-0.2c-0.6,0-0.6,0.8-0.1,1
		l-2.4,2.4c-0.2,0.2-0.2,0.4-0.1,0.6c-0.2,0.4,0.2,1,0.7,0.7c0.4-0.3,0.9-0.3,1.4-0.1c-0.2,7.6-0.3,15.2-0.1,22.8l2.9,0.9l5.3,3.7
		l0.5,0.6c0.2,0,0.4-0.1,0.4-0.4c0.4-1.9,0.5-3.9,0.3-5.8h2.5c0.7,0,2.1-0.3,2.6,0.2s0.4,2,0.4,2.7c0,1,0,2,0,3c0,0.6,1,0.6,1,0l0,0
		l6.9,0.3v0.3c-0.1,0.6,0.9,0.6,1,0c1.3-10.2,0.2-13.4-0.1-19.4V928v-0.3C-236.3,925.4-236.3,922.5-235.9,918.5"/>
	<path class="st3" d="M-236.6,923.5l-0.1-4.8l-6.1,0.5l-8.7,0.2l-7.7-0.3l-0.1,18.5l0.1,4.8l2.3,0.7l5.3,3.7l0.1,0.2l0.1-1.1
		l0.2-3.6l0.3-1.6l4.9,0.2l1.5,0.5l-0.1,4.9v0.8l7.9,0.3l0.5-2.2v-17.1L-236.6,923.5z M-249.6,937.6h-4.4l-0.6-1.4l-0.2-3.3l3.1,0.3
		l1.9,0.2l0.2,3.1C-249.6,936.5-249.6,937.6-249.6,937.6z M-254.9,926.3l0.1-1.3l3.5-0.3l1.4,0.8l-0.1,4l-0.3,0.8l-4.2-0.6
		L-254.9,926.3z M-240.8,936.5l-1.1,1.2l-3.9,0.2v-5l2.7,0.1l2.4-0.3L-240.8,936.5z M-240.5,928.6l-0.4,1.3h-4.2l-0.7-2.4v-2.6
		l5.3,0.6C-240.5,925.5-240.5,928.6-240.5,928.6z"/>
	<path class="st0" d="M-259.7,919.4c-0.2,7.6-0.3,15.2-0.1,22.8l1,0.3c-0.2-7.7-0.2-15.4,0.1-23.1C-258.7,919-259.7,919-259.7,919.4
		"/>
	<path class="st0" d="M-259.6,919.3c7.8,0.8,15.6,0.6,23.3-0.5c-0.2-0.2-0.4-0.3-0.6-0.5c-1.5,14.6,1.7,14.9-0.2,29.4
		c-0.1,0.6,0.9,0.6,1,0c1.9-14.5-1.3-14.8,0.2-29.4c0-0.4-0.3-0.5-0.6-0.5c-7.6,1.1-15.4,1.3-23.1,0.5
		C-260.2,918.3-260.2,919.3-259.6,919.3"/>
	<path class="st0" d="M-254.5,925.4c1.5-0.2,2.9-0.1,4.4,0.1c-0.1-0.2-0.2-0.3-0.4-0.5c0,1.6,0,3.3,0,4.9c0,0.6,1,0.6,1,0
		c0-1.6,0-3.3,0-4.9c0-0.2-0.2-0.4-0.4-0.5c-1.6-0.3-3.1-0.3-4.7-0.2C-255.1,924.5-255.1,925.5-254.5,925.4"/>
	<path class="st0" d="M-255.2,926.2c0.1,1.2,0.2,2.4,0.3,3.6c0,0.3,0.2,0.5,0.5,0.5c1.4-0.1,2.8,0.1,4.1,0.4c0.6,0.1,0.9-0.8,0.3-1
		c-1.5-0.3-2.9-0.5-4.4-0.4c0.2,0.2,0.3,0.3,0.5,0.5c-0.1-1.2-0.2-2.4-0.3-3.6C-254.2,925.6-255.2,925.6-255.2,926.2"/>
	<path class="st0" d="M-253.9,933.3c1.4,0.1,2.7,0.2,4.1,0.3c-0.2-0.2-0.3-0.3-0.5-0.5c0.1,1.6,0.1,3.2,0,4.8c0,0.6,1,0.6,1,0
		c0-1.6,0-3.2,0-4.8c0-0.3-0.2-0.5-0.5-0.5c-1.4-0.1-2.7-0.2-4.1-0.3C-254.5,932.2-254.5,933.2-253.9,933.3"/>
	<path class="st0" d="M-255,933.9c0,1.3,0,2.6,0,3.8c0,0.3,0.2,0.5,0.5,0.5c1.5-0.1,3-0.2,4.5-0.2c0.6,0,0.6-1,0-1
		c-1.5,0.1-3,0.2-4.5,0.2c0.2,0.2,0.3,0.3,0.5,0.5c0-1.3,0-2.6,0-3.8C-254,933.3-255,933.3-255,933.9"/>
	<path class="st0" d="M-246.1,925.6c0,1.1,0,2.2,0.1,3.3c0,0.5,0.1,1,0.5,1.3c0.5,0.4,1.3,0.2,1.9,0.2c1.1,0,2.3,0,3.4,0
		c0.6,0,0.6-1,0-1h-1.9c-0.6,0-1.6,0.2-2.1,0c-0.9-0.2-0.7-1-0.8-1.8c0-0.7,0-1.4,0-2.1C-245.2,925-246.2,925-246.1,925.6"/>
	<path class="st0" d="M-245.8,925.6c1.8-0.2,3.6,0.7,5.4,0.2c-0.2-0.2-0.4-0.3-0.6-0.5c0.1,1.3,0.1,2.6,0,3.9c0,0.6,1,0.6,1,0
		c0-1.3,0-2.6,0-3.9c0-0.3-0.3-0.6-0.6-0.5c-1.7,0.5-3.4-0.4-5.2-0.2C-246.4,924.7-246.4,925.7-245.8,925.6"/>
	<path class="st0" d="M-246.4,933.3c0,0.8,0,1.5,0,2.3c0,0.4,0,0.8,0,1.2c0,0.2,0.1,0.9,0,1h0.7c0,0,0,0-0.1-0.1v0.7c0,0,0,0,0-0.1
		c0.4-0.5-0.3-1.2-0.7-0.7c0,0,0,0,0,0.1c-0.2,0.2-0.2,0.5,0,0.7c0,0,0,0,0.1,0.1c0.2,0.2,0.5,0.2,0.7,0c0.4-0.5,0.2-1.3,0.2-1.9
		c0-1.1,0-2.2,0-3.3C-245.4,932.7-246.4,932.7-246.4,933.3"/>
	<path class="st0" d="M-245.7,933.3c1.7,0.4,3.5,0.4,5.2-0.1c-0.2-0.2-0.4-0.3-0.6-0.5c0,0.8-0.1,1.6-0.1,2.4c0,0.4,0.1,1.7-0.1,1.9
		c-0.1,0.2-1.9,0.1-2.2,0.1c-0.9,0.1-1.7,0.1-2.6,0.2c-0.6,0-0.6,1,0,1l3.5-0.2c0.6,0,1.5,0.1,2-0.3c0.4-0.4,0.3-1.1,0.3-1.6
		c0.1-1.2,0.1-2.3,0.2-3.5c0-0.3-0.3-0.5-0.6-0.5c-1.6,0.4-3.1,0.4-4.7,0.1C-246.1,932.2-246.4,933.2-245.7,933.3"/>
	<path class="st0" d="M-251.4,941c0.2,1.9,0.1,3.8-0.3,5.8l0.5,0.6c0.2,0,0.4-0.1,0.4-0.4c0.4-2,0.5-4,0.3-6
		C-250.4,940.4-251.4,940.4-251.4,941"/>
	<path class="st0" d="M-250.7,941.2h2.8c0.7,0,2.1-0.3,2.6,0.2s0.4,2,0.4,2.7c0,1,0,2,0,3c0,0.6,1,0.6,1,0c0-1.3,0-2.6,0-4
		c0-0.7,0.2-2.1-0.4-2.7c-0.5-0.5-1.7-0.2-2.3-0.2c-1.3,0-2.7,0-4,0C-251.3,940.2-251.3,941.2-250.7,941.2"/>
	<path class="st0" d="M-261,919.5c0.4-0.3,0.9-0.3,1.4-0.1c0.5,0.3,1-0.5,0.5-0.9c-0.7-0.4-1.7-0.4-2.4,0.1
		C-262.1,919-261.6,919.8-261,919.5"/>
	<path class="st0" d="M-260.9,918.9l2.9-2.9c0.5-0.4-0.2-1.1-0.7-0.7l-2.9,2.9C-262.1,918.6-261.4,919.3-260.9,918.9"/>
	<path class="st0" d="M-259.1,915.8c4.6,0.4,9.2,0.5,13.8,0.3c2.1-0.1,4.4-0.6,6.5-0.4c1.7,0.1,2.7,2.1,4.1,3c0-0.3,0.1-0.6,0.1-0.9
		c-0.5,0.1-0.9,0-1.3-0.3c-0.5-0.4-1.2,0.3-0.7,0.7c0.7,0.6,1.3,0.7,2.2,0.6c0.5-0.1,0.4-0.7,0.1-0.9c-1.1-0.7-1.5-1.6-2.3-2.5
		c-0.4-0.4-0.5-0.6-1.1-0.7c-0.8-0.2-1.8,0.1-2.7,0.2c-1.3,0.1-2.5,0.2-3.8,0.3c-5,0.3-9.9,0.2-14.9-0.2
		C-259.8,914.8-259.8,915.8-259.1,915.8"/>
	<path class="st0" d="M-258.5,919.6l1.9-3.1c0.3-0.5-0.5-1-0.9-0.5l-1.9,3.1C-259.6,919.6-258.8,920.1-258.5,919.6"/>
	<path class="st0" d="M-256,917.1c-0.2,0.5-0.4,1.1-0.5,1.6c-0.2,0.6,0.8,0.9,1,0.3c0.2-0.5,0.4-1.1,0.5-1.6
		C-254.9,916.7-255.8,916.5-256,917.1"/>
	<path class="st0" d="M-254.2,917.6c-0.2,0.6-0.4,1.2-0.5,1.8c-0.2,0.6,0.8,0.9,1,0.3c0.2-0.6,0.4-1.2,0.5-1.8
		C-253,917.2-254,917-254.2,917.6"/>
	<path class="st0" d="M-251.8,916.8c-0.1,0.6-0.2,1.2-0.3,1.8c0,0.3,0.1,0.5,0.3,0.6c0.2,0.1,0.6-0.1,0.6-0.3
		c0.1-0.6,0.2-1.2,0.3-1.8c0-0.3-0.1-0.5-0.3-0.6C-251.4,916.4-251.8,916.5-251.8,916.8"/>
	<path class="st0" d="M-249.2,918c0.6,0,0.6-1,0-1C-249.8,917-249.8,918-249.2,918"/>
	<path class="st0" d="M-247,917.3c0.2,0.6,0.4,1.2,0.5,1.8c0.2,0.6,1.1,0.3,1-0.3c-0.2-0.6-0.4-1.2-0.5-1.8
		C-246.2,916.5-247.2,916.7-247,917.3"/>
	<path class="st0" d="M-244.6,917.2c0.3,0.4,0.5,0.9,0.8,1.3c0.3,0.5,1.2,0,0.9-0.5c-0.3-0.4-0.5-0.9-0.8-1.3
		C-244.1,916.1-245,916.6-244.6,917.2"/>
	<path class="st0" d="M-241.4,916.8c0.5,0.6,1,1.2,1.6,1.8c0.4,0.5,1.1-0.2,0.7-0.7l-1.6-1.8C-241.1,915.6-241.8,916.3-241.4,916.8"
		/>
	<path class="st0" d="M-301.3,935.8c17.5-1.5,35.1,1.4,50.2,11.8c0.5,0.4,1-0.5,0.5-0.9c-14.9-10.3-33-13.4-50.7-12V935.8z"/>
	<path d="M-267.5,931c2.5-0.2,5-0.2,7.5,0c0.5,0.1,0.5-0.8,0-0.9c-2.5-0.2-5-0.2-7.5,0C-268,930.2-268,931.1-267.5,931"/>
	<path d="M-268,930.7l0.8,4.2c0.1,0.5,0.9,0.3,0.8-0.2c-0.3-1.4-0.6-2.8-0.8-4.2C-267.3,929.9-268.1,930.1-268,930.7"/>
	<path d="M-267.3,934.8c-0.1,1.3-0.3,2.6-0.4,3.8c-0.1,0.5,0.8,0.5,0.9,0c0.1-1.3,0.3-2.6,0.4-3.8
		C-266.4,934.2-267.2,934.2-267.3,934.8"/>
	<path d="M-268.2,931.1c0,2.3,0,4.6,0,6.9c0,0.5,0.8,0.5,0.9,0c0-2.3,0-4.6,0-6.9C-267.4,930.6-268.2,930.6-268.2,931.1"/>
	<path d="M-266.3,935.1c1.7,0.1,3.4,0.3,5.1,0.4c0.7,0,1.5,0,1.5-0.8c0-0.5-0.8-0.5-0.9,0c0,0-5.2-0.4-5.7-0.4
		C-266.9,934.2-266.9,935.1-266.3,935.1"/>
	<path d="M-266.8,931.2l0.4,3.1c0.1,0.5,0.9,0.3,0.8-0.2l-0.4-3.1C-266.1,930.5-266.9,930.7-266.8,931.2"/>
	<path d="M-265.4,930.9c0.1,1.2,0.2,2.3,0.3,3.5c0,0.5,0.9,0.5,0.9,0c-0.1-1.2-0.2-2.3-0.3-3.5
		C-264.6,930.4-265.5,930.4-265.4,930.9"/>
	<path d="M-264.1,931.1c0.1,1.2,0.2,2.4,0.2,3.7c0,0.5,0.9,0.5,0.9,0c-0.1-1.2-0.2-2.4-0.2-3.7
		C-263.3,930.6-264.2,930.6-264.1,931.1"/>
	<path d="M-262.3,931.3c-0.1,1.2-0.1,2.4,0.1,3.7c0.1,0.5,0.9,0.5,0.9,0c-0.2-1.2-0.2-2.4-0.1-3.7
		C-261.4,930.8-262.3,930.8-262.3,931.3"/>
	<path d="M-236.3,930.7c2.6,0.3,5.1,0.5,7.7,0.8c0.5,0.1,0.5-0.8,0-0.9c-2.6-0.3-5.1-0.5-7.7-0.8
		C-236.9,929.8-236.9,930.6-236.3,930.7"/>
	<path d="M-236.1,935.7c2.2-0.1,4.4-0.2,6.5-0.1c0.5,0,0.5-0.8,0-0.9c-2.2-0.1-4.4-0.1-6.5,0.1
		C-236.7,934.9-236.7,935.7-236.1,935.7"/>
	<path d="M-229.1,931.1c-0.1,1.3-0.2,2.7-0.3,4c0,0.5,0.8,0.5,0.9,0c0.1-1.3,0.2-2.7,0.3-4C-228.2,930.6-229.1,930.6-229.1,931.1"/>
	<path d="M-235.6,930.5c-0.1,1.3-0.2,2.7-0.2,4c0,0.5,0.8,0.5,0.9,0c0.1-1.3,0.2-2.7,0.2-4C-234.7,930-235.5,930-235.6,930.5"/>
	<path d="M-234.6,931.3v3.3c0,0.5,0.9,0.5,0.9,0v-3.3C-233.8,930.8-234.6,930.8-234.6,931.3"/>
	<path d="M-233.1,931.3c0,0.9,0,1.9-0.2,2.8c-0.1,0.5,0.7,0.8,0.8,0.2c0.2-1,0.3-2,0.2-3C-232.3,930.8-233.1,930.8-233.1,931.3"/>
	<path d="M-231.6,931.3c0,1.2-0.1,2.3-0.1,3.5c0,0.5,0.8,0.5,0.9,0c0-1.2,0.1-2.3,0.1-3.5C-230.7,930.8-231.5,930.8-231.6,931.3"/>
	<path d="M-230,931.4c-0.2,1-0.3,2-0.5,3.1c-0.1,0.5,0.7,0.8,0.8,0.2c0.2-1,0.3-2,0.5-3.1C-229.1,931.1-229.9,930.9-230,931.4"/>
	<path d="M-228.7,931.3c0.5,6.8,0.8,13.5,0.9,20.3c0.3,0,0.6-0.1,0.8-0.1c0-0.2-0.1-0.3-0.1-0.5c-0.1-0.5-1-0.3-0.8,0.2
		c0,0.2,0.1,0.3,0.1,0.5c0.1,0.5,0.8,0.4,0.8-0.1c-0.1-6.8-0.4-13.6-0.9-20.3C-227.9,930.8-228.7,930.8-228.7,931.3"/>
	<path d="M-229.5,935.4c0.8,5.6,1,11.3,0.6,17c0,0.5,0.8,0.5,0.9,0c0.4-5.8,0.2-11.5-0.7-17.2C-228.8,934.7-229.6,934.9-229.5,935.4
		"/>
	<path d="M-248.6,950.7c3.4,0.1,6.8,0.1,10.2,0.2c1.7,0,3.3,0.1,5,0.1c0.9,0,1.8,0,2.6,0.1c0.4,0,0.9,0,1.3,0
		c0.6,0.2,0.8,0.1,0.5-0.2c0.2-0.1,0.3-0.2,0.5-0.3h-0.1c-0.5-0.1-0.8,0.7-0.2,0.8h0.1c0.2,0,0.4-0.1,0.5-0.3c0-0.1,0-0.1,0.1-0.2
		c0.1-0.2-0.1-0.4-0.2-0.5c-0.8-0.6-2.6-0.2-3.5-0.3c-1.9,0-3.7-0.1-5.6-0.1c-3.7-0.1-7.5-0.2-11.2-0.2
		C-249.2,949.8-249.2,950.7-248.6,950.7"/>
	<path d="M-248.8,954.5c6.9-0.3,13.9-0.3,20.8,0.1c0.5,0,0.5-0.8,0-0.9c-6.9-0.4-13.9-0.4-20.8-0.1
		C-249.4,953.7-249.4,954.6-248.8,954.5"/>
	<path d="M-227.9,950.4c-0.2,0.7-0.4,1.5-0.5,2.2c0,0.3-0.1,0.5-0.1,0.8c0,0.1,0,0.2,0,0.3s-0.1,0.3,0,0.1c0.3,0,0.6,0.1,0.8,0.1
		c0-0.1,0-0.1,0-0.2c0.1-0.5-0.8-0.5-0.9,0c0,0.1,0,0.1,0,0.2c0,0.5,0.7,0.5,0.8,0.1c0.1-0.4,0.1-0.8,0.1-1.2
		c0.1-0.8,0.3-1.5,0.5-2.2C-227,950.1-227.8,949.9-227.9,950.4"/>
	<path d="M-248.3,950.6c0,1.1,0.1,2.3,0.2,3.4c0.1,0.5,0.9,0.3,0.8-0.2c-0.2-1-0.2-2.1-0.2-3.2C-247.4,950-248.3,950-248.3,950.6"/>
	<path d="M-247,950.7c0.1,1,0.2,2.1,0.2,3.1c0,0.5,0.9,0.5,0.9,0c-0.1-1-0.2-2.1-0.2-3.1C-246.2,950.2-247,950.2-247,950.7"/>
	<path d="M-244.8,950.7v3.1c0,0.5,0.9,0.5,0.9,0v-3.1C-244,950.2-244.8,950.2-244.8,950.7"/>
	<path d="M-243.1,950.9v2.5c0,0.5,0.9,0.5,0.9,0v-2.5C-242.3,950.4-243.1,950.4-243.1,950.9"/>
	<path d="M-241.4,950.6l-0.1,2.9c0,0.5,0.8,0.5,0.9,0l0.1-2.9C-240.5,950-241.3,950-241.4,950.6"/>
	<path d="M-240,950.9c0.2,1,0.2,2,0.2,3c0,0.5,0.8,0.5,0.9,0c0.1-1.1,0-2.1-0.2-3.2C-239.3,950.1-240.1,950.3-240,950.9"/>
	<path d="M-238.1,951.3c0,0.8,0,1.5-0.1,2.3c0,0.5,0.8,0.5,0.9,0c0-0.8,0-1.5,0.1-2.3C-237.2,950.8-238.1,950.8-238.1,951.3"/>
	<path d="M-236.3,951.2c-0.2,0.8-0.3,1.6-0.3,2.4c0,0.5,0.9,0.5,0.9,0c0-0.7,0.1-1.5,0.2-2.2C-235.4,950.9-236.2,950.7-236.3,951.2"
		/>
	<path d="M-234.4,951.4c-0.1,0.6-0.2,1.1-0.2,1.7c0,0.2,0.1,0.5,0.3,0.5c0.2,0.1,0.5-0.1,0.5-0.3c0.1-0.6,0.2-1.1,0.2-1.7
		c0-0.2-0.1-0.5-0.3-0.5C-234.1,951-234.4,951.2-234.4,951.4"/>
	<path d="M-232.9,951.1c0,0.7-0.1,1.4-0.1,2.1c0,0.5,0.8,0.5,0.9,0c0-0.7,0.1-1.4,0.1-2.1C-232,950.6-232.9,950.6-232.9,951.1"/>
	<path d="M-230.9,950.8c-0.3,0.8-0.3,1.7-0.2,2.5c0.1,0.5,0.9,0.3,0.8-0.2c-0.1-0.7-0.1-1.4,0.2-2.1
		C-229.9,950.6-230.7,950.3-230.9,950.8"/>
	<path d="M-229.3,951.4c-0.1,0.8-0.2,1.7-0.3,2.5c-0.1,0.5,0.7,0.8,0.8,0.2c0.1-0.8,0.2-1.7,0.3-2.5
		C-228.4,951.1-229.2,950.8-229.3,951.4"/>
	<path d="M-251.5,947c1,0.9,1.8,2,2.4,3.2c0.3,0.5,1,0,0.7-0.4c-0.7-1.2-1.6-2.3-2.6-3.3C-251.3,946.1-251.9,946.7-251.5,947"/>
</g>
<g id="seal">
	<path class="st2" d="M-280.4,976.6c0.7,4.7,1.6,9.4,2.5,14.1c0.2,0.8,1.4,0.6,1.2-0.1c-0.9-4.7-1.7-9.4-2.5-14.1
		C-279.3,975.7-280.5,975.8-280.4,976.6"/>
	<path class="st2" d="M-279.5,977.6c2.9-0.8,5.9-1.1,8.9-1.5c2.8-0.4,5.6-1,8.5-1.6c5.8-1.1,11.6-2.3,17.4-3.7
		c5.7-1.3,11.4-2.1,17.1-2.7c5.9-0.6,11.6-2.1,17.5-2.6c0.7-0.1,0.7-1.1,0-1.2c-0.1,0-0.3,0-0.4-0.1c-0.8-0.1-1,1.1-0.2,1.2
		c0.1,0,0.3,0,0.4,0.1c0-0.4,0-0.8,0-1.2c-5.9,0.5-11.6,2-17.5,2.6c-6.1,0.6-12.1,1.5-18.1,2.9c-5.8,1.3-11.6,2.5-17.4,3.6
		c-5.5,1.1-11.3,1.4-16.7,3C-280.7,976.7-280.2,977.8-279.5,977.6"/>
	<path class="st2" d="M-277.1,991.7c21.5-5.4,43.2-9.5,65.2-12.5c0.8-0.1,0.6-1.3-0.1-1.2c-21.9,3-43.7,7.2-65.2,12.5
		C-278.1,990.7-277.9,991.9-277.1,991.7"/>
	<path class="st2" d="M-210.6,964.9c0.6,4.3,1.6,8.6,2.8,12.8c0.2-0.3,0.3-0.6,0.5-0.8c-1.1,0-2,0.2-3,0.7c-0.7,0.4-0.3,1.5,0.5,1.2
		c0.9-0.4,1.7-0.6,2.6-0.6c0.4,0,0.6-0.5,0.5-0.8c-1.2-4.1-2.1-8.3-2.7-12.5C-209.5,963.9-210.7,964.1-210.6,964.9"/>
	<path class="st2" d="M-214.9,972.9c0.1,0.5,0.2,0.8,0.5,1s0.6,0.3,0.9,0.2c0.3-0.1,0.6-0.2,0.8-0.5c0.2-0.3,0.2-0.7,0.1-1.1
		c-0.1-0.5-0.2-0.8-0.5-1c-0.2-0.2-0.5-0.3-0.9-0.2c-0.3,0.1-0.6,0.2-0.8,0.5C-214.9,972.1-214.9,972.4-214.9,972.9 M-215.7,973.1
		c-0.1-0.4-0.1-0.8,0-1.1c0.1-0.2,0.2-0.4,0.3-0.6c0.1-0.2,0.3-0.3,0.5-0.5s0.5-0.3,0.9-0.3c0.6-0.1,1.1,0,1.6,0.3
		c0.4,0.3,0.7,0.8,0.8,1.5c0.1,0.7,0,1.2-0.3,1.7c-0.3,0.4-0.8,0.7-1.4,0.8c-0.6,0.1-1.1,0-1.6-0.3
		C-215.3,974.2-215.6,973.7-215.7,973.1z M-219.4,975.8l-0.7-4.1l0.8-0.1l0.3,1.6l1.6-0.3l-0.3-1.6l0.8-0.1l0.7,4.1l-0.8,0.1
		l-0.3-1.8l-1.6,0.3l0.3,1.8L-219.4,975.8z M-221.6,974.5l-0.8-1.4l-0.3,1.6L-221.6,974.5z M-219.8,975.8l-0.9,0.1l-0.5-0.9
		l-1.7,0.3l-0.2,1l-0.9,0.1l0.9-4.4l0.9-0.1L-219.8,975.8z M-226.9,975.1l0.2,1.1l0.8-0.1c0.3,0,0.5-0.1,0.6-0.1
		c0.1,0,0.2-0.1,0.3-0.2c0.1-0.1,0.1-0.2,0.1-0.4c0-0.1-0.1-0.2-0.1-0.3c-0.1-0.1-0.2-0.1-0.3-0.1c-0.1,0-0.4,0-0.8,0.1H-226.9z
		 M-227.2,973.5l0.2,1l0.5-0.1c0.3-0.1,0.5-0.1,0.6-0.1c0.1,0,0.2-0.1,0.3-0.2c0.1-0.1,0.1-0.2,0.1-0.3s-0.1-0.2-0.2-0.3
		s-0.2-0.1-0.3-0.1c-0.1,0-0.3,0-0.7,0.1L-227.2,973.5L-227.2,973.5z M-228.1,973l1.7-0.3c0.3-0.1,0.6-0.1,0.7-0.1
		c0.2,0,0.3,0,0.5,0.1c0.1,0.1,0.3,0.2,0.4,0.3s0.2,0.3,0.2,0.5s0,0.4-0.1,0.6c-0.1,0.2-0.2,0.3-0.4,0.4c0.3,0,0.5,0.1,0.6,0.3
		c0.2,0.2,0.3,0.4,0.3,0.6c0,0.2,0,0.4,0,0.6c-0.1,0.2-0.2,0.4-0.3,0.5c-0.1,0.1-0.3,0.2-0.5,0.3c-0.1,0-0.5,0.1-1,0.2l-1.4,0.2
		L-228.1,973z M-231.6,975.6c0.1,0.5,0.2,0.8,0.5,1s0.6,0.3,0.9,0.2c0.3-0.1,0.6-0.2,0.8-0.5c0.2-0.3,0.2-0.7,0.1-1.1
		c-0.1-0.5-0.2-0.8-0.5-1c-0.2-0.2-0.5-0.3-0.9-0.2c-0.3,0.1-0.6,0.2-0.8,0.5C-231.6,974.8-231.6,975.2-231.6,975.6z M-232.4,975.8
		c-0.1-0.4-0.1-0.8,0-1.1c0.1-0.2,0.2-0.4,0.3-0.6c0.1-0.2,0.3-0.3,0.5-0.5s0.5-0.3,0.9-0.3c0.6-0.1,1.1,0,1.6,0.3
		c0.4,0.3,0.7,0.8,0.8,1.5c0.1,0.7,0,1.2-0.3,1.7c-0.3,0.4-0.8,0.7-1.4,0.8c-0.6,0.1-1.1,0-1.6-0.3
		C-232,977-232.3,976.5-232.4,975.8z M-235.4,974.9l0.2,1.2l0.5-0.1c0.3-0.1,0.5-0.1,0.6-0.2c0.1-0.1,0.2-0.1,0.2-0.2
		c0-0.1,0.1-0.2,0-0.3c0-0.2-0.1-0.3-0.2-0.4c-0.1-0.1-0.2-0.1-0.4-0.1c-0.1,0-0.3,0-0.6,0.1H-235.4z M-235.7,978.5l-0.7-4.1
		l1.3-0.2c0.5-0.1,0.8-0.1,1-0.1s0.5,0.1,0.7,0.3s0.3,0.4,0.4,0.8c0,0.3,0,0.5,0,0.7c-0.1,0.2-0.2,0.3-0.3,0.5
		c-0.1,0.1-0.3,0.2-0.4,0.3c-0.2,0.1-0.5,0.1-0.9,0.2l-0.5,0.1l0.3,1.6L-235.7,978.5z M-240.5,975l0.8-0.1l0.5,2.8l1.2-3l0.8-0.1
		l0.7,4.1l-0.8,0.1l-0.4-2.7l-1.2,3l-0.8,0.1L-240.5,975z M-243.4,976.2l0.2,1.2l0.5-0.1c0.3-0.1,0.5-0.1,0.6-0.2
		c0.1-0.1,0.2-0.1,0.2-0.2c0-0.1,0.1-0.2,0-0.3c0-0.2-0.1-0.3-0.2-0.4c-0.1-0.1-0.2-0.1-0.4-0.1c-0.1,0-0.3,0-0.6,0.1H-243.4z
		 M-243.7,979.8l-0.7-4.1l1.3-0.2c0.5-0.1,0.8-0.1,1-0.1s0.5,0.1,0.7,0.3s0.3,0.4,0.4,0.8c0,0.3,0,0.5,0,0.7
		c-0.1,0.2-0.2,0.3-0.3,0.5c-0.1,0.1-0.3,0.2-0.4,0.3c-0.2,0.1-0.5,0.1-0.9,0.2l-0.5,0.1l0.3,1.6L-243.7,979.8z M-246.3,980.2
		l-0.6-3.4l-1.2,0.2l-0.1-0.7l3.3-0.5l0.1,0.7l-1.2,0.2l0.6,3.4L-246.3,980.2z M-248.8,979.1l0.8,0.1c0,0.5-0.2,0.8-0.5,1.1
		s-0.6,0.4-1,0.5c-0.5,0.1-1,0-1.4-0.3c-0.4-0.3-0.7-0.8-0.8-1.5c-0.1-0.7,0-1.3,0.3-1.7s0.7-0.7,1.3-0.8c0.5-0.1,0.9,0,1.3,0.2
		c0.2,0.1,0.4,0.4,0.5,0.7l-0.8,0.3c-0.1-0.2-0.2-0.4-0.4-0.5s-0.4-0.1-0.6-0.1c-0.3,0.1-0.5,0.2-0.7,0.5s-0.2,0.6-0.1,1.1
		c0.1,0.5,0.2,0.9,0.5,1.1c0.2,0.2,0.5,0.3,0.8,0.2c0.2,0,0.4-0.1,0.5-0.3C-248.9,979.6-248.9,979.4-248.8,979.1z M-256,977.6
		l0.8-0.1l0.5,2.8l1.2-3l0.8-0.1l0.7,4.1l-0.8,0.1l-0.4-2.7l-1.2,3l-0.8,0.1L-256,977.6z M-259.3,978.1l2.8-0.5l0.1,0.7l-2,0.3
		l0.6,3.4l-0.8,0.1L-259.3,978.1z M-262.5,982.9l-0.7-4.1l3.1-0.5l0.1,0.6l-2.2,0.4l0.2,0.9l2-0.3l0.1,0.7l-2.1,0.3l0.2,1.1l2.3-0.4
		l0.1,0.7L-262.5,982.9z M-266.1,979.9l0.2,1.2l0.5-0.1c0.3-0.1,0.5-0.1,0.6-0.2c0.1-0.1,0.2-0.1,0.2-0.2c0-0.1,0.1-0.2,0-0.3
		c0-0.2-0.1-0.3-0.2-0.4c-0.1-0.1-0.2-0.1-0.4-0.1c-0.1,0-0.3,0-0.6,0.1H-266.1z M-266.3,983.5l-0.7-4.1l1.3-0.2
		c0.5-0.1,0.8-0.1,1-0.1c0.2,0,0.5,0.1,0.7,0.3c0.2,0.2,0.3,0.4,0.4,0.8c0,0.3,0,0.5,0,0.7c-0.1,0.2-0.2,0.3-0.3,0.5
		c-0.1,0.1-0.3,0.2-0.4,0.3c-0.2,0.1-0.5,0.1-0.9,0.2l-0.5,0.1l0.3,1.6L-266.3,983.5z M-268.6,982.2l-0.8-1.4l-0.3,1.6L-268.6,982.2
		z M-266.8,983.6l-0.9,0.1l-0.5-0.9l-1.7,0.3l-0.2,1l-0.9,0.1l1-4.3l0.9-0.1L-266.8,983.6z M-274,981.7l-0.8-0.1
		c0.1-0.7,0.5-1.1,1.3-1.3c0.5-0.1,0.9,0,1.1,0.1c0.3,0.2,0.4,0.4,0.5,0.7c0,0.2,0,0.4-0.1,0.6s-0.2,0.3-0.4,0.5
		c0.3,0,0.5,0.1,0.7,0.3c0.2,0.1,0.3,0.4,0.3,0.6c0.1,0.4,0,0.7-0.3,0.9c-0.2,0.3-0.6,0.4-1.1,0.5c-0.4,0.1-0.8,0.1-1.1,0
		c-0.3-0.1-0.5-0.3-0.7-0.7l0.7-0.4c0.1,0.2,0.3,0.4,0.4,0.4c0.1,0.1,0.3,0.1,0.5,0c0.3,0,0.4-0.1,0.5-0.3c0.1-0.1,0.1-0.3,0.1-0.4
		c0-0.2-0.1-0.3-0.3-0.4c-0.2-0.1-0.4-0.1-0.6-0.1h-0.2l-0.1-0.6h0.1c0.3,0,0.4-0.1,0.6-0.3c0.1-0.1,0.2-0.3,0.1-0.5
		c0-0.2-0.1-0.3-0.2-0.4c-0.1-0.1-0.3-0.1-0.5-0.1C-273.8,981.1-274,981.3-274,981.7z"/>
</g>
<g id="hand_1_">
	<path class="st2" d="M-159.8,985.9c0.2-6.6,1.2-14,2.5-18.2c-0.8-1.5,5.4,2.3,5.8,1.8c5-8,9.2-23,4.3-34c3.2,1,8,0.9,13.6,0.2
		c-1.6,4.4,5.2,3.8,8.7,8.4c0.5,0.7,1,1.5,1.3,2.5c1.7,6,0.3,10.2-1.5,15.9c-2.8,9.1-10.8,20.5-5.7,29.5
		C-140.4,989.9-149.6,980.9-159.8,985.9"/>
	<path class="st0" d="M-150,936.4c1.5,0.3,2.4,1.2,2.6,2.8c0.1,0.4,0.3,0.7,0.4,1.1c0.5,1.4,0.7,2.8,0.8,4.2c0.2,2.6,0,5.3-0.5,7.9
		c-1,5.3-3.2,10.3-4.9,15.4c-0.9,2.5-1.6,5.1-2.1,7.7c-0.5,2.4-1,5.1-2.5,7.1c-2.9,3.5-2-4.1-1.8-5.5c0.4-3,0.9-6,1.5-9
		c0.2-1.2-1.6-1.5-1.8-0.4c-0.4,2.3-5.1,20.2,0.9,18.1c2.4-0.9,3.8-3.7,4.6-6c1.6-4.9,2.5-9.9,4.2-14.8c2.8-7.7,5.9-16,3.7-24.3
		c-0.5-1.9-1.8-6.4-4.4-6.6c-1.8-0.2-2.8,1.3-2.4,2.9C-151.5,938.1-149.7,937.5-150,936.4"/>
	<path class="st0" d="M-149.5,935.7c4.7,2.9,10.4,3.2,15.4,0.8c1-0.5,0.5-2.2-0.6-1.7c-4.6,2.2-9.6,2-14-0.7
		C-149.7,933.4-150.5,935.1-149.5,935.7"/>
	<path class="st0" d="M-158.6,986.6c6.4-1.5,12.6,0.3,18.5,2.6c2.3,0.9,5.5,2.9,7.9,3c0.8,0.1,1,0.3,1.8-0.2
		c0.4-0.2,0.5-0.9,0.3-1.3c-0.1-0.1-0.1-0.2-0.2-0.3c-0.3-0.4-0.9-0.6-1.3-0.3c-0.1,0-0.1,0.1-0.2,0.1c-0.9,0.7,0.1,2.2,1,1.5
		c0.1,0,0.1-0.1,0.2-0.1l-1.3-0.3c0.1,0.1,0.1,0.2,0.2,0.3l0.3-1.3c-1,0.6-6.6-2.5-7.9-3c-2.2-0.9-4.5-1.7-6.8-2.3
		c-4.4-1.2-8.7-1.5-13.2-0.4C-160.4,985.1-159.8,986.8-158.6,986.6"/>
	<path class="st0" d="M-133.2,937.1c0.2-6.7,8-5.6,11.6-2.6c2,1.7,3.4,3.2,6.3,3.1c3.1-0.1,5.9-1.7,9-2c3.9-0.3,7.6,0.7,10.2,3.7
		c0.8,0.9,2-0.5,1.2-1.4c-2.6-2.9-6.1-4.1-9.9-4.2c-1.9,0-3.7,0.3-5.5,0.8c-1.5,0.4-3,1.1-4.5,1.2c-3,0.2-3.9-1.3-5.9-2.9
		c-5-4.1-14-3.3-14.2,4.5C-135.1,938.4-133.2,938.3-133.2,937.1"/>
	<path class="st0" d="M-135.5,938c1.6,2.3,4,2.9,6.4,4.1c4.9,2.4,5.2,8,4.7,12.8c-0.9,8.5-5.4,16-7.7,24.1c-1.6,5.5-1.7,12,2.3,16.5
		c4.8,5.3,12.6,4.2,18.8,3c1.1-0.2,1-2.1-0.1-1.8c-7.6,1.5-17.4,2.2-19.8-7.2c-2-8,3.1-16.3,5.6-23.6c2-5.7,3.8-12.2,2.5-18.3
		c-0.5-2.2-1.4-4.3-3.1-5.7c-2.5-2.1-6.1-2.2-8.1-4.9C-134.7,936-136.2,937-135.5,938"/>
	<path class="st0" d="M-149.6,980.9c5.9,0.2,11.4,2.2,16.1,5.8c0.9,0.7,2.1-0.6,1.2-1.4c-5.1-4-11-6.1-17.4-6.3
		C-150.9,979-150.8,980.8-149.6,980.9"/>
	<path class="st0" d="M-143.1,976.9c3.8,0.3,7.2,1.6,10.2,4c0.9,0.7,2.1-0.6,1.2-1.4c-3.2-2.6-6.9-4.1-11.1-4.5
		C-144,975-144.3,976.8-143.1,976.9"/>
	<path class="st0" d="M-136.5,972.6c2.6,0,5,1.1,6.5,3.2c0.7,0.9,2.2-0.1,1.5-1c-2-2.6-4.9-4-8.2-4
		C-137.8,970.7-137.7,972.6-136.5,972.6"/>
	<path d="M-226.2,907.3h0.2c-0.2,0.7-0.3,1.6-0.7,2.3c-0.1,0.8-0.6,1.2-1.5,1.2c-0.2,0-0.4,0-0.6,0c-1.6,0.1-3.7-0.5-5.1-1.3
		c-1-0.6-1.4-1.7-0.5-2.6c0.7-0.7,1.8-0.8,2.7-0.7c1.6,0.2,3.1,0.8,4.7,1.2C-226.7,907.5-226.4,907.4-226.2,907.3 M-180.7,958.2
		c0.2,0.5,1,0.7,1.5,0.9c0.6,0.3,1.2,0.7,1.8,1c1.3,0.7,2.7,1.4,4,2.1c2.7,1.4,18.6,6,21.3,7.4c1,0.5,1.9-1,0.9-1.5
		c-2.4-1.3-11.8-4.1-18.2-6.3c-4.3-1.5-7.4-4-11.1-5.3c-0.6-0.2-1.4-0.3-1.7,0.4c-1.8,0.6-3.7,0.9-5.6,0.4c-2.3-0.6-4-2.6-5.7-4.2
		c-3.6-3.4-7.2-6.8-10.8-10.1c-0.8-0.8-2.1,0.5-1.3,1.3c4.3,4,8.5,8.1,12.8,12c1.6,1.4,3.2,2.6,5.4,3
		C-185.2,959.5-182.9,959-180.7,958.2z M-177.2,911.9c3.2,7.5,8.7,13.6,14.5,19.2c1.5,1.5,9.8,8.4,16.2,10.6c0.8,0.8,0.8-1.2,0-1.9
		c-7.7-4.1-13.3-8.3-14.7-9.8c-4.3-4.1-8.4-8.5-11.6-13.5c-1.7-2.8-2.7-5.6-4.4-8.5c-0.8-1.5-1.7-2.9-2.6-4.3
		c-1.7-2.5-3.5-4.9-5.4-7.3c0-0.2-0.2-0.4-0.4-0.5c-2.8-2-6.7-2.2-10-2.4c-4-0.3-8-0.2-12.1,0.2c-1.1,0.1-1.1,1.9,0,1.8
		c3.6-0.4,7.1-0.5,10.7-0.3c3.2,0.2,7.2,0.2,10,2l0.1,0.1c2.4,2.8,4.6,5.8,6.5,9c0.9,1.4,1.7,2.9,2.5,4.4
		C-177.6,910.9-177.4,911.4-177.2,911.9z M-195.4,908.5c-1,0.5-1.9,1-2.9,1.4c0.4-2.7,1.4-5.2,3-7.5c0.7-0.9-0.9-1.8-1.5-0.9
		c-1.9,2.7-3,5.7-3.3,9c-0.2,0.1-0.4,0.1-0.6,0.2c-0.6-3.8-0.4-7.6,0.5-11.3c0.3-1.1-1.4-1.6-1.7-0.5c-0.5,2.2-0.8,4.5-0.9,6.7h-4.6
		c-1.1,0-1.1,1.8,0,1.8h4.6c0,1.2,0.2,2.4,0.4,3.6c-3.4,0.6-6.9,0.3-10.3-0.8c-5.2-1.7-9.9-4.6-15.5-5.1c-2.1-0.7-4.5-1.3-6.4-0.2
		c-1,0.5-1.7,1.5-2,2.5c-0.1,0.1-0.2,0.2-0.2,0.4c-1,5,2.6,8.9,6.9,11c5.5,2.6,11.5,4.3,17.2,6.3c0.1,0.1,0.3,0.1,0.4,0
		c3.3,1.6,6.8,3.2,9.4,5.8c2.7,2.6,4.3,6.1,6.8,8.9c4.5,5,10.5,8.6,17,10.3c1.1,0.3,1.6-1.4,0.5-1.7c-6.8-1.8-12.9-5.7-17.3-11.1
		c-2.3-2.8-3.8-6.1-6.6-8.4c-2.7-2.3-5.9-3.9-9.1-5.4c-0.2-0.1-0.4-0.1-0.5-0.1c0,0-0.1,0-0.1-0.1c-4.8-1.7-9.6-3.3-14.3-5.1
		c-3.5-1.3-7.8-3.7-8.6-7.5c1.8,1.3,4.5,1.7,6.4,1.7c1,0,2.3,0.1,3-0.8c0.9-1,1.1-2.8,1.5-4.1c4.5,1.3,8.7,3.8,13.4,4.9
		c5.6,1.3,11.5,0.3,16.4-2.5C-193.5,909.5-194.4,908-195.4,908.5z"/>
</g>
</svg>
