<?xml version="1.0" encoding="utf-8"?>
<!-- Generator: Adobe Illustrator 19.1.1, SVG Export Plug-In . SVG Version: 6.00 Build 0)  -->
<svg version="1.1" id="people" xmlns="http://www.w3.org/2000/svg" xmlns:xlink="http://www.w3.org/1999/xlink" x="0px" y="0px"
	 viewBox="-518.9 1263.7 248.3 172.7" style="enable-background:new -518.9 1263.7 248.3 172.7;" xml:space="preserve">
<style type="text/css">
	.st0{fill:#F39600;}
	.st1{fill:#00040B;}
</style>
<g id="man2">
	<polygon class="st0" points="-367.1,1296 -365.3,1294.8 -367.1,1287.7 -361.3,1283.9 -350.5,1280 -342.9,1278.7 -336.8,1279.1 
		-334.9,1279.6 -336.8,1274.1 -341.9,1267.8 -344.3,1267.2 -349.5,1264.4 -353.8,1264.6 -355.8,1266.4 -360.6,1268.3 -365.3,1273 
		-367.4,1280 -368.6,1286.6 -369.4,1290.5 -369.4,1293 -368.1,1295.6 	"/>
	<polygon class="st0" points="-335.1,1289.4 -332.7,1287.3 -330.1,1284.5 -330.6,1282.6 -334.9,1279.6 -336.2,1283.6 -336.3,1287.9 
			"/>
	<polygon class="st0" points="-379.2,1349.7 -369.8,1345.6 -368.6,1347.6 -358.3,1341.8 -349.9,1338.7 -350.4,1336.6 -341.4,1333.5 
		-319.9,1384.2 -347.1,1396.3 -356.8,1402.1 -364.7,1387 -366.9,1378.9 -362.5,1376 -360.6,1374.2 -360.7,1372.8 -359.9,1370.9 
		-359.9,1368.9 -358.7,1367 -359.9,1365.5 -363.2,1365 -362,1363.7 -364.2,1362.3 -371.8,1361.5 -375,1362.3 	"/>
	<path class="st1" d="M-366.9,1295.3c-3.6-1.1-1.8-5.3,0.1-6.9c1.6-1.4,3.7-2.4,5.5-3.4c4.1-2.1,8.4-3.8,12.8-4.8
		c4.2-0.9,9.3-1.5,13.4,0.1c1.7,0.7,5.3,2.5,3.5,5.2c-0.3,0.5-1.2,0.9-1.7,1.2c-1,0.7-1.8,1.2-2.5,2.2c-0.6,0.8,0.7,1.5,1.3,0.8
		c1.3-1.7,4.1-2.2,4.9-4.4c0.7-2.1-0.8-3.9-2.4-5c-5-3.6-12.4-2.6-17.9-1.3c-6,1.4-13.3,4.1-18,8.3c-2.9,2.5-4,8,0.6,9.4
		C-366.3,1297-365.9,1295.5-366.9,1295.3"/>
	<path class="st1" d="M-368,1289c0.2-4.8,1-9.9,3-14.3c2.1-4.7,5.8-6.5,10.5-7.9c-0.3-0.3-0.6-0.6-0.9-0.9c0,0.1-0.1,0.1-0.1,0.2
		c-0.8,0.5-0.1,1.8,0.8,1.3c0.5-0.3,0.6-0.5,0.8-1.1c0.2-0.5-0.4-1.1-0.9-0.9c-4.7,1.4-8.7,3.2-11,7.7c-2.5,4.8-3.4,10.5-3.7,15.9
		C-369.5,1290-368,1290-368,1289"/>
	<path class="st1" d="M-357.9,1266.5c1-1.5,3.8,0.5,4.7,1.3c1.2,1,2,2.3,2.5,3.7c0.3,0.9,1.8,0.5,1.4-0.4c-0.8-2.4-2.4-4.4-4.6-5.6
		c-1.7-0.9-4-1.6-5.3,0.3C-359.8,1266.5-358.5,1267.3-357.9,1266.5"/>
	<path class="st1" d="M-356.8,1265.7c2.4-0.3,4.9-0.8,7.3-0.5c4,0.4,5.4,3.4,6.4,6.9c0.3,0.9,1.7,0.5,1.5-0.4c-0.8-3-2-6-5-7.3
		c-3.1-1.3-6.9-0.5-10.2-0.1C-357.8,1264.3-357.8,1265.8-356.8,1265.7"/>
	<path class="st1" d="M-343.8,1268c4.6,1,7,7,7.9,11c0.2,0.9,1.7,0.5,1.5-0.4c-1-4.6-3.8-11-8.9-12.1
		C-344.4,1266.3-344.8,1267.7-343.8,1268"/>
	<path class="st1" d="M-335.9,1280.7c-2.6,5,0,10.4-0.5,15.7c-0.3,3.4,1.4,8.6-2.9,9.8c-3.3,0.9-7.1,0.3-10.4-0.2
		c-0.9-0.2-1.4,1.3-0.4,1.5c4.1,0.7,12.9,2.4,15.1-2.8c0.6-1.5,0.2-3,0.1-4.5c-0.2-1.9,0.2-3.8,0.2-5.7c0-4.4-2.1-8.7,0.2-12.9
		C-334.2,1280.6-335.5,1279.8-335.9,1280.7"/>
	<path class="st1" d="M-340.3,1284.3L-340.3,1284.3c-0.1,0.2-0.1,0.5-0.2,0.8l0.1-0.1c-0.3,0-0.6,0.1-0.9,0.1
		c-0.3-0.2,0.1,1.5,0.1,1.4c0.2,0.6,0.4,1.2,0.6,1.7c0.3,0.7,1.5,2.3,1.2,3c-0.4,1-2.4,0.6-3,1.9c-0.4,0.9,0.9,1.6,1.3,0.8
		c0.4-0.8,2-0.7,2.7-1.2c0.6-0.5,0.8-1.2,0.6-1.9c-0.2-1.4-1.3-2.7-1.8-4.1c-0.3-0.8-0.1-2.4-0.9-2.9c-0.3-0.2-0.7-0.1-0.9,0.1
		l-0.1,0.1c-0.3,0.2-0.3,0.6-0.1,0.9v0.1C-341.2,1286-339.9,1285.2-340.3,1284.3"/>
	<path class="st1" d="M-347.7,1285.4c0,0.5,0,1.1,0,1.6c0.5-0.1,1-0.1,1.5-0.2c-0.1-0.4-0.2-0.8-0.4-1.2c-0.1-0.3-0.4-0.6-0.7-0.6
		c-1.9,0.2-3.5,1-5,2.2c-0.7,0.6,0.3,1.7,1.1,1.1c1.1-0.9,2.5-1.6,3.9-1.7c-0.2-0.2-0.5-0.4-0.7-0.6c0.1,0.4,0.2,0.8,0.4,1.2
		c0.2,0.8,1.5,0.7,1.5-0.2c0-0.5,0-1.1,0-1.6C-346.2,1284.4-347.7,1284.4-347.7,1285.4"/>
	<path class="st1" d="M-340,1286.3c0.4-0.3,0.8-0.5,1.3-0.7c0.2-0.1,0.4-0.1,0.7-0.1c0.1,0,0.2,0,0.4,0c0.4,0.1,0.4-0.2,0.1-0.7
		c0.2-0.1,0.4-0.1,0.5-0.2h-0.1c-1,0-1,1.5,0,1.5c0.5,0,0.9-0.4,1-0.9c0.1-0.6-0.4-1.1-1-1.2c-1.2-0.2-2.7,0.3-3.7,1
		C-341.5,1285.6-340.7,1286.9-340,1286.3"/>
	<path class="st1" d="M-338.6,1285.6C-338.8,1285.7-338.6,1285.6-338.6,1285.6C-338.7,1285.6-338.4,1285.6-338.6,1285.6h0.1
		C-338.5,1285.6-338.5,1285.6-338.6,1285.6c0.1,0,0.2,0,0.1,0H-338.6C-338.5,1285.6-338.6,1285.5-338.6,1285.6
		C-338.5,1285.6-338.6,1285.6-338.6,1285.6C-338.6,1285.4-338.6,1285.6-338.6,1285.6L-338.6,1285.6
		C-338.6,1285.6-338.6,1285.7-338.6,1285.6C-338.8,1285.7-338.8,1285.7-338.6,1285.6c-0.1,0.1-0.1,0.1-0.2,0.1c0.2,0-0.1,0,0,0
		C-338.8,1285.7-338.8,1285.7-338.6,1285.6C-338.8,1285.7-338.8,1285.7-338.6,1285.6C-338.7,1285.7-338.7,1285.7-338.6,1285.6
		C-338.7,1285.7-338.7,1285.6-338.6,1285.6C-338.5,1285.8-338.6,1285.8-338.6,1285.6C-338.5,1285.9-338.6,1285.5-338.6,1285.6
		C-338.7,1285.7-338.7,1285.7-338.6,1285.6c-0.2,0.3-0.1,0.8,0.3,1c0.3,0.2,0.9,0.1,1-0.3c0.3-0.7,0.1-1.4-0.6-1.9
		c-0.6-0.4-1.4-0.4-1.8,0.1c-1.1,1.2,0.5,3.1,1.9,2.3C-337,1286.4-337.8,1285.1-338.6,1285.6"/>
	<path class="st1" d="M-348.4,1287.4c0.1,0.1,0.2,0.2,0.3,0.3c0.7,0.7,1.7-0.4,1.1-1.1l-0.3-0.3
		C-348,1285.7-349.1,1286.8-348.4,1287.4"/>
	<path class="st1" d="M-347.6,1298.4c2.9,2.3,5.4-2.8,8.4-0.3c0.7,0.6,1.8-0.4,1.1-1.1c-1.1-0.9-2.3-1.4-3.7-1.2
		c-1.3,0.2-3.6,2.4-4.7,1.5C-347.3,1296.8-348.4,1297.8-347.6,1298.4"/>
	<path class="st1" d="M-337.7,1297.7l0.3-0.3c0.7-0.7-0.4-1.7-1.1-1.1c-0.1,0.1-0.2,0.2-0.3,0.3
		C-339.4,1297.3-338.4,1298.4-337.7,1297.7"/>
	<path class="st1" d="M-359.5,1283.9c-0.2,3.2-0.5,6.4-0.7,9.6c-0.1,1,1.4,1,1.5,0c0.2-3.2,0.5-6.4,0.7-9.6
		C-357.9,1282.9-359.4,1282.9-359.5,1283.9"/>
	<path class="st1" d="M-361.3,1294.1c0.2-1.3-1.3-2.1-2.5-1.8c-1.3,0.3-2.2,1.6-2.4,2.8c-0.8,3.9,3.1,5.9,6.1,7.2
		c0.9,0.4,1.3-1.1,0.4-1.5c-1.6-0.7-3.7-1.4-4.6-3c-0.3-0.6-0.5-1.2-0.5-1.9c0-0.4,0.1-0.8,0.3-1.2c0.1-0.2,0.2-0.4,0.4-0.5
		c0.3-0.4,0.7-0.5,1.3-0.1C-362.9,1295.1-361.4,1295.1-361.3,1294.1"/>
	<path class="st1" d="M-367.3,1288.3c0.4,1.8,0.8,3.6,1.2,5.4c0.2,0.9,1.7,0.5,1.5-0.4c-0.4-1.8-0.8-3.6-1.2-5.4
		C-366.1,1287-367.5,1287.4-367.3,1288.3"/>
	<path class="st1" d="M-365.4,1287.1c0.5,1.8,0.8,3.6,0.9,5.5c0,1,1.5,1,1.5,0c-0.1-2-0.4-4-0.9-5.9
		C-364.2,1285.8-365.6,1286.2-365.4,1287.1"/>
	<path class="st1" d="M-363,1286c0.1,2.2,0.3,4.4,0.4,6.6c0.1,1,1.6,1,1.5,0c-0.1-2.2-0.3-4.4-0.4-6.6
		C-361.6,1285-363.1,1285-363,1286"/>
	<path class="st1" d="M-363.2,1300.6c1.9,5.5,2.2,11.1,1,16.8c-0.2,0.9,1.2,1.3,1.5,0.4c1.3-5.9,1-11.8-1-17.6
		C-362.1,1299.3-363.5,1299.7-363.2,1300.6"/>
	<path class="st1" d="M-340,1307.6c0.3,1.3,0.6,2.6,0.9,3.9c0.2,0.9,1.7,0.5,1.5-0.4c-0.3-1.3-0.6-2.6-0.9-3.9
		C-338.7,1306.2-340.2,1306.6-340,1307.6"/>
	<path class="st1" d="M-362.7,1312.3c-4,3.1-5.3,7.2-6.1,12.1c0,0.2,0,0.6,0.2,0.7c1.7,1.4,3.2,2.9,4.4,4.8c0.4,0.6,1.5,0.4,1.4-0.4
		c-0.2-2.6,0-5.2,0.8-7.7c0.5-1.5,0.9-3.9,1.4-1.1c0.2,1.1,0.1,2.3,0.2,3.4c0.2,1.7,0.7,3.3,1.6,4.8c0.6,1,4,4.4,3.7,5.2
		c0.3-0.1,0.7-0.2,1-0.3c-0.1,0-0.1-0.1-0.2-0.1c0.1,0.3,0.2,0.7,0.3,1c0,0,0-0.1,0.1-0.1c0.5-0.9-0.8-1.6-1.3-0.8
		c0,0,0,0.1-0.1,0.1c-0.2,0.3-0.1,0.8,0.3,1c0.1,0,0.1,0.1,0.2,0.1c0.3,0.2,0.8,0.1,1-0.3c0.9-1.9-1.9-4.3-2.9-5.7
		c-1.7-2.4-2.1-4.7-2.3-7.5c-0.1-1,0.2-2.8-0.4-3.7c-0.9-1.3-2.1-0.7-2.8,0.5c-2,3-2.2,7.7-2,11.1c0.5-0.1,0.9-0.3,1.4-0.4
		c-0.7-1-1.3-1.9-2.1-2.8c-1.4-1.5-2.3-1.8-1.8-4c0.8-3.7,2.3-6.6,5.3-9C-360.8,1312.7-361.9,1311.7-362.7,1312.3"/>
	<path class="st1" d="M-362.7,1313.8c-0.3,1.8,0.2,3.5,1.6,4.7c0.7,0.7,1.8-0.4,1.1-1.1c-0.9-0.8-1.4-2-1.2-3.3
		C-361.1,1313.2-362.5,1312.8-362.7,1313.8"/>
	<path class="st1" d="M-339,1310.5c-0.9,3.1-3.8,4.6-6.6,5.8c-2.2,1-5.4,1.4-7.3,2.8c-1.3,1-1.3,2.5-1.5,4c-0.3,3.2-0.6,6.3-0.9,9.5
		c-0.1,1,1.4,1,1.5,0c0.3-3,0.1-6.5,0.9-9.5c0.6-2.4,1.8-3.2,4-4c1-0.4,2-0.7,3-1.2c3.5-1.5,7.2-3.2,8.3-7.1
		C-337.3,1309.9-338.7,1309.5-339,1310.5"/>
	<path class="st1" d="M-352.1,1321.7c0.4-1.4,0.8,0.3,1,0.9c0.2,0.6,0.5,1.1,0.7,1.7c0.5,1.3,1.1,2.6,1.6,3.9
		c0.4,0.9,1.8,0.5,1.5-0.4c-0.6-1.5-1.2-3-1.8-4.5c-0.4-1-0.7-2.5-1.4-3.3c-1.2-1.5-2.6,0-2.9,1.3
		C-353.8,1322.2-352.4,1322.6-352.1,1321.7"/>
	<path class="st1" d="M-347.5,1329.1c2.3-2.4,4.9-4.4,7.4-6.5c2.6-2.1,5.3-4.4,8.6-5.2c0.9-0.2,0.5-1.7-0.4-1.5
		c-2.9,0.7-5.4,2.5-7.7,4.3c-3.1,2.5-6.3,4.9-9,7.7C-349.3,1328.7-348.2,1329.8-347.5,1329.1"/>
	<path class="st1" d="M-338.6,1310.2c2.1,0,2.7,3,3.6,4.5c0.8,1.3,1.9,2.4,3.5,2.4c1,0,1-1.5,0-1.5c-2.1-0.1-2.7-3-3.6-4.5
		c-0.8-1.3-1.9-2.4-3.5-2.4C-339.5,1308.6-339.5,1310.1-338.6,1310.2"/>
	<path class="st1" d="M-369.7,1324c-3.2,3.3-8,4.5-10.7,8.3c-2.4,3.4-3.2,7.8-4.3,11.7c-3,10.5-5.8,21-7.2,31.9
		c-0.5,3.3-2,7.8,1.4,9.9c1,0.6,2.1,0.8,3,1.6c0.7,0.6,1.3,1.4,1.8,2.2c0.9,1.2,1.7,2.5,2.8,3.4c6.4,5.3,9.1-5.4,10-9.5
		c0.2-0.9-1.2-1.3-1.5-0.4c-0.6,2.9-1.3,9.6-5.3,9.7c-2.8,0-4.3-3.6-5.9-5.4c-0.8-0.9-1.6-1.6-2.6-2.2c-1.1-0.7-0.9-0.3-2-1.5
		c-1.2-1.3-1-1.6-0.8-3.1c0.4-4.7,1.2-9.4,2.2-14.1c1.7-8.3,4-16.6,6.3-24.7c1.1-4,2.1-8.1,5.6-10.8c2.7-2.1,5.8-3.3,8.2-5.8
		C-368,1324.3-369,1323.3-369.7,1324"/>
	<path class="st1" d="M-374.7,1382.4c-1.9,0.2-3.8-0.3-5.1-1.7c-2-2-1.8-4.5-1.2-7.1c0.9-4.4,2.4-8.3,6.5-10.7
		c0.8-0.5,0.1-1.8-0.8-1.3c-5.1,3-7.5,9.1-7.6,14.9c-0.1,4.4,4,7.8,8.3,7.3C-373.7,1383.8-373.7,1382.3-374.7,1382.4"/>
	<path class="st1" d="M-379.6,1366.8c-0.7-1-1.4-2-2.1-3c-0.6-0.8-1.9,0-1.3,0.8c0.7,1,1.4,2,2.1,3
		C-380.4,1368.4-379.1,1367.6-379.6,1366.8"/>
	<path class="st1" d="M-382.3,1372.2c-1.3-0.7-2.7-1.3-4.2-1.7c-0.9-0.3-1.3,1.2-0.4,1.5c1.3,0.4,2.6,0.9,3.8,1.6
		C-382.2,1373.9-381.5,1372.6-382.3,1372.2"/>
	<path class="st1" d="M-377.1,1393.4c0.9-2-0.4-3.6-2.1-4.6c-0.3-0.2-1.3-0.9-1.6-0.9c0,0,1,0.7,1.2,0.8c1,0.4,2,0.4,3.1,0.2
		c0.4-0.1,0.6-0.6,0.5-0.9c-0.3-1.4-0.9-2.5-1.8-3.5c-0.7-0.7-1.7,0.4-1.1,1.1c0.8,0.8,1.2,1.7,1.4,2.8l0.5-0.9
		c-1,0.2-1.9,0-2.8-0.6c-0.5-0.3-0.9-0.7-1.4-0.7c-0.7-0.1-1.4,0.3-1.7,1c-0.8,2.7,5.7,2.7,4.4,5.5
		C-378.8,1393.5-377.5,1394.3-377.1,1393.4"/>
	<path class="st1" d="M-374.4,1362.9c2-0.4,4-0.5,6-0.4c1.1,0.1,2.2,0.2,3.3,0.4c0.3,0.1,0.6,0.1,0.9,0.2c0.9,0,1.3,0.4,1.1,1.2
		c-1,0-1,1.5,0,1.5c2.5,0.1,2.3-2.9,0.4-3.8c-3.5-1.7-8.4-1.2-12-0.5C-375.8,1361.6-375.4,1363.1-374.4,1362.9"/>
	<path class="st1" d="M-373,1367.1c2.8-0.4,5.6-0.7,8.4-0.8c0.9,0,2.4-0.2,3.3-0.1c1.2-0.3,1.6,0.1,1.3,1.5
		c-0.4,0.3-0.9,0.5-1.4,0.7c-2.5,1.3-5.3,2.1-8.1,2.4c-1.1,0.1-2.4-0.1-3.3,0.7c-0.2,0.2-0.3,0.7-0.1,0.9c0.1,0.1,0.1,0.2,0.2,0.3
		c0.2,0.3,0.7,0.5,1,0.3c0.1,0,0.1-0.1,0.2-0.1c0.8-0.5,0.1-1.8-0.8-1.3c-0.1,0-0.1,0.1-0.2,0.1c0.3,0.1,0.7,0.2,1,0.3
		c1.3,1.8,7.9-0.9,9.3-1.5c1.5-0.6,5-1.9,4.4-4.2c-0.5-1.9-3.3-1.5-4.7-1.5c-3.7,0-7.4,0.4-11,0.9
		C-374.3,1365.8-373.9,1367.2-373,1367.1"/>
	<path class="st1" d="M-360.5,1369.4c0.7,2-3.7,4-5.2,4.7c-2.2,1-4.5,1.6-6.8,1.9c-1,0.1-1,1.6,0,1.5c3.3-0.4,6.5-1.3,9.5-3
		c1.9-1.1,4.9-2.8,4-5.4C-359.4,1368.1-360.8,1368.5-360.5,1369.4"/>
	<path class="st1" d="M-361.4,1373.6c1.6,1-2.9,3.1-3.1,3.2l-3.4,1.8c-2.5,1.3-5.1,3.1-7.8,3.6c-1,0.2-0.5,1.6,0.4,1.5
		c2.5-0.4,4.6-1.8,6.8-3c2.2-1.2,4.6-2.3,6.8-3.6c1.7-1,3.6-3.2,1.2-4.8C-361.4,1371.7-362.2,1373-361.4,1373.6"/>
	<path class="st1" d="M-379.9,1349.9c1.4,4,2.8,7.9,4.2,11.9c0.3,0.9,1.8,0.5,1.5-0.4c-1.4-4-2.8-7.9-4.2-11.9
		C-378.8,1348.6-380.2,1349-379.9,1349.9"/>
	<path class="st1" d="M-379.1,1350.4c3-1.6,6.2-3,9.5-4.1c0.9-0.3,0.5-1.8-0.4-1.5c-3.4,1.1-6.7,2.5-9.8,4.2
		C-380.7,1349.5-380,1350.8-379.1,1350.4"/>
	<path class="st1" d="M-368.2,1348.3c6-3.5,12.3-6.5,18.8-8.9c0.9-0.3,0.5-1.8-0.4-1.5c-6.6,2.5-13,5.5-19.1,9
		C-369.8,1347.5-369.1,1348.8-368.2,1348.3"/>
	<path class="st1" d="M-350,1337.3c2.7-1.2,5.5-2.3,8.3-3.2c0.9-0.3,0.5-1.7-0.4-1.4c-2.9,1-5.8,2.1-8.6,3.3
		C-351.6,1336.4-350.9,1337.7-350,1337.3"/>
	<path class="st1" d="M-348.9,1337.9c-1-2.3-2.9-3.3-5.3-3.4c-1.8-0.1-3.1-0.3-4.7-0.8c-1.2-0.4-2.3-0.6-3.6-0.3
		c-2.7,0.7-3.3,2.6-4.2,4.9c-0.8,2.1-2.3,2.1-3.2,3.7c-0.8,1.4-0.4,3.5-0.3,5c0,1,1.5,1,1.5,0c-0.1-1.5-0.5-3.5,0.6-4.7
		c0.6-0.6,1.4-0.7,1.9-1.4c1.1-1.5,0.8-3.6,2.1-5c1.9-2,3.8-1,5.7,0c0.4,0.2,0.7,0.5,1.2,0.6c0.9,0.2,1.5-0.3,2.4-0.4
		c2.1-0.4,3.7,0.6,4.6,2.5C-349.8,1339.6-348.5,1338.8-348.9,1337.9"/>
	<path class="st1" d="M-362.4,1339c0.3-0.8,1.3-1.3,2.1-0.8c0.9,0.4,1.6-0.8,0.8-1.3c-1.5-0.8-3.5-0.2-4.1,1.4
		C-364.1,1339.1-362.8,1339.9-362.4,1339"/>
	<path class="st1" d="M-342,1333.8c3.6,8.4,7.2,16.8,10.8,25.2c1.7,4,3.5,8,5.2,12c0.9,2.2,1.9,4.4,2.8,6.6c0.5,1.1,0.9,2.1,1.4,3.2
		c0.2,0.4,0.3,0.7,0.5,1.1c0.3,1.1,0.9,1.8,2.1,2.3c-0.3,0.3-0.5,0.5-0.8,0.8h0.1c1-0.1,1-1.6,0-1.5h-0.1c-0.4,0-0.8,0.3-0.8,0.8
		c0,0.1,0,0.1,0,0.2c0,0.4,0.2,0.6,0.6,0.7c0.1,0,0.1,0,0.2,0.1c0.3,0.1,0.7-0.1,0.8-0.3c0.5-1,0-1.6-0.4-2.6
		c-0.9-2.1-1.8-4.3-2.8-6.4c-2-4.7-4.1-9.5-6.1-14.2c-4.1-9.5-8.2-19-12.2-28.5C-341.1,1332.2-342.4,1333-342,1333.8"/>
	<path class="st1" d="M-367.6,1380.2c2.2,7.9,5.6,15.4,10.2,22.2c0.2,0.3,0.7,0.5,1,0.3c5.2-4,11.4-6.3,17.3-8.9l20.2-8.9
		c0.9-0.4,0.1-1.7-0.8-1.3c-6.7,3-13.5,5.9-20.2,8.9c-5.9,2.6-12.2,4.9-17.3,8.9c0.3,0.1,0.7,0.2,1,0.3c-4.5-6.7-7.9-14-10.1-21.8
		C-366.4,1378.9-367.9,1379.3-367.6,1380.2"/>
	<path class="st1" d="M-377.8,1393.5c0.1,1.6,0.2,3.2,1.4,4.4c1.1,1.2,3.9,3,5.3,3.4c0.9,0.2,1,0.2,1.8-0.3c1.6-1.1,2-2.6,4.2-3
		l4.9-0.2c0.1,1,1.6,1,1.5,0c-0.3-2.8-6.9-1.4-8.5-0.7c-0.7,0.3-1.3,0.7-1.8,1.2c-0.1,0.1-1.3,1.8-1.3,1.8c-0.4,0.1-2.9-1.7-3.3-2
		c-1.9-1.3-2.5-2.1-2.7-4.5C-376.4,1392.5-377.9,1392.5-377.8,1393.5"/>
	<path class="st1" d="M-373.1,1400.9c0.5,5.6,0.7,11.1,0.4,16.7c-0.1,2.9-0.4,5.7-0.8,8.5c-0.3,2.1-0.2,5.2-1.2,7.1
		c0.3-0.1,0.7-0.2,1-0.3c-0.1,0-0.1-0.1-0.2-0.1c0.1,0.3,0.2,0.7,0.3,1c0,0,0-0.1,0.1-0.1c0.6-0.8-0.7-1.5-1.3-0.8
		c0,0,0,0.1-0.1,0.1c-0.2,0.3,0,0.8,0.3,1c0.1,0,0.1,0.1,0.2,0.1c0.3,0.2,0.8,0.1,1-0.3c0.9-1.8,0.9-4.5,1.2-6.5
		c0.4-2.7,0.7-5.5,0.9-8.2c0.4-6.2,0.3-12.3-0.3-18.5C-371.7,1400-373.2,1400-373.1,1400.9"/>
	<path class="st1" d="M-332.1,1317c10.5,1.4,20.6,5.7,28.8,12.5c4.3,3.6,8.1,7.8,12.1,11.8c3.9,4,7.9,7.9,11.4,12.2
		c3.6,4.5,8.3,10.3,7.6,16.4c-0.6,5.1-3.8,10.1-6.7,14.3c-2.8,4.2-6.3,8.1-10.6,10.9c-3.7,2.4-8.4,3-11.7,5.8
		c-0.7,0.6,0.3,1.7,1.1,1.1c3.2-2.7,7.9-3.3,11.4-5.6c3.3-2.1,6.1-4.8,8.5-7.9c4.5-5.6,10.4-13.9,9.5-21.5c-0.5-4.1-3-7.8-5.4-11
		c-2.6-3.7-5.7-7.1-8.8-10.4c-6.5-6.8-13-14.2-20.7-19.8c-7.9-5.7-17-9.1-26.6-10.4C-333,1315.4-333,1316.9-332.1,1317"/>
	<path class="st1" d="M-316.3,1322.3c-1.1,3.9-2.1,8-1.9,12.1c0.1,1.9,0.7,3.5,1.3,5.3c0.9,2.7,0.6,4.5-0.3,7.2
		c-0.2,0.5,0.3,1,0.7,1c1.9,0,4.1,0.1,4.5,2.3c0.2,1.1-0.1,2,0.4,3.1c1,2.2,4.1,3.3,4.3,5.9c0.1,1,1.6,1,1.5,0
		c-0.1-1.3-0.6-2.2-1.4-3.2c-0.6-0.7-1.3-1.2-1.9-1.8c-1.2-1.3-1.2-2.3-1.4-4c-0.4-3.2-3.1-3.9-6-3.8c0.2,0.3,0.5,0.6,0.7,1
		c0.5-1.6,1.1-3.2,1-4.9c-0.1-1.8-1-3.3-1.5-5c-1.4-4.8,0-9.9,1.3-14.6C-314.6,1321.7-316,1321.3-316.3,1322.3"/>
	<path class="st1" d="M-306.7,1359.8l6.3,3.9c1.6,1,3.4,2.5,5.1,3.1c3.3,1.2,4.3-2.1,6.8-3.5c0.5-0.3,4.1-1.5,1.8-0.3
		c-0.2,0.1-1.4,0.4-1.6,0.6c-0.4,0.4-0.7,0.7-0.7,1.3c0,0.7,0.6,1.2,1.2,1.3c0.4,0.1,0.9-0.1,1.3-0.2c2.6-0.7,3.6-1.7,6.4,0.7
		c-0.7-0.6-1.8,0.4-1.1,1.1c0.1,0.1,0.2,0.1,0.2,0.2c0.2,0.2,0.6,0.3,0.9,0.1c0.1-0.1,0.2-0.1,0.3-0.2c0.2-0.1,0.4-0.4,0.4-0.6
		c-0.4-3.2-3.4-4.2-6.3-3.2c-2.3,0.8,1.2-0.1,1.7-0.8c0.4-0.6,0.5-1.3,0.1-1.9c-1.3-2-5.1,0.3-6.3,1.3c-1.7,1.3-2.2,3.1-5.1,2.4
		c-1-0.2-2-1.3-2.9-1.8c-2.6-1.6-5.2-3.2-7.8-4.8C-306.8,1358-307.5,1359.3-306.7,1359.8"/>
	<path class="st1" d="M-294,1367c0.5,3.5-0.2,5.8-2.9,8.2c-1.7,1.5-2.7,3-3.7,5.1c-1.3,2.9-2.7,4.4-5.1,6.3c-1.2,1-2.1,1.9-2.7,3.4
		c-0.2,0.5,0.3,0.9,0.7,1c5.2,0.1,8.2,5.3,5.7,9.9c-0.5,0.8,0.8,1.6,1.3,0.8c3.1-5.6-0.6-12-7-12.1c0.2,0.3,0.5,0.6,0.7,1
		c1-2.5,3.9-3.5,5.6-5.6c1.5-1.9,2-4.3,3.3-6.3c1.2-1.9,3.4-2.9,4.6-4.7c1.4-2,1.2-4.5,0.9-6.8C-292.6,1366.1-294.1,1366.1-294,1367
		"/>
	<path class="st1" d="M-290.5,1396.4c-0.1-4.1-1.4-7.9-3.8-11.2c-0.6-0.8-1.9,0-1.3,0.8c2.3,3.1,3.6,6.6,3.6,10.4
		C-292,1397.4-290.5,1397.4-290.5,1396.4"/>
	<path class="st1" d="M-312.4,1353c-1.6,2.7-2.8,5.6-3.3,8.8c-0.6,3.6-0.1,7.3-2.1,10.6c-1.1,1.8-2.5,3.4-1.5,5.6
		c0.2,0.4,0.7,0.8,0.8,1.1c0.1,0.7,0.2,1.3,0.3,2c-0.2,0.1-0.5,0.2-0.7,0.4c-0.6,1-0.7,0.5-0.8,1.7c0,1,1.5,1,1.5,0
		c0-0.6,1.2-1,1.5-1.5c0.4-0.7,0.4-1.2,0.2-2c-0.5-1.8-2.4-1.7-1.4-4.6c0.4-1.2,1.5-2.2,2-3.3c1-2.3,1.1-4.9,1.3-7.4
		c0.3-3.9,1.4-7.3,3.4-10.7C-310.6,1353-311.9,1352.2-312.4,1353"/>
	<path class="st1" d="M-306.9,1359.6c-1.3,3.3-2.3,6.7-2.8,10.2c-0.2,1.4,0,3-0.5,4.3c-0.5,1.6-2,1.7-2.9,2.9
		c-1.1,1.6,0.7,3.4,0.6,5.1c-0.1,1.8-1,3.5-1.5,5.2c-0.2,0.6-0.5,4.1-1,4.3c-0.9,0.3-0.5,1.8,0.4,1.5c2.2-0.8,1.6-3.9,2.2-5.8
		c0.5-1.4,1.1-2.8,1.3-4.3c0.2-1.5-0.5-2.6-0.5-4c0-1.8,1.3-1.8,2.2-2.9c0.5-0.7,0.7-1.7,0.8-2.6c0.6-4.7,1.3-9,3.1-13.5
		C-305.1,1359.1-306.6,1358.7-306.9,1359.6"/>
	<path class="st1" d="M-345.4,1397.1c3.5,0.3,7,0.9,10.4,2c0.9,0.3,1.3-1.2,0.4-1.5c-3.5-1.1-7.1-1.8-10.8-2.1
		C-346.4,1395.5-346.4,1397-345.4,1397.1"/>
	<path class="st1" d="M-309.1,1389.8c-3.2,3.8-9.5,2.1-13.8,3.9c-1.4,0.5-2.5,1.1-4,1.2c-1.2,0.1-2.4-0.3-3.6-0.1
		c-1.7,0.4-3.1,1.6-4.4,2.7c-1.1,0.9-5.4,3-3.3,4.8c1,0.8,2.8,0.6,3.9,0.3c2.8-0.7,4.9-3,8-2.7c-0.1-0.5-0.1-1-0.2-1.5
		c-5.3,2.2-9.3,6.2-11.4,11.5c-0.4,0.9,1.1,1.3,1.4,0.4c1.9-4.8,5.6-8.5,10.4-10.5c0.8-0.3,0.7-1.4-0.2-1.5
		c-1.6-0.2-2.8,0.1-4.3,0.8c-0.8,0.4-1.5,0.8-2.2,1.2c-0.7,0.3-3.2,1.5-4,0.9c-0.8,0.2-0.7,0,0.4-0.6c0.3-0.2,0.6-0.5,0.9-0.7
		c0.9-0.7,1.7-1.4,2.6-2.1c2.4-1.9,4.4-1.1,7.1-1.6c1.6-0.3,2.9-1.1,4.4-1.6c2.2-0.8,4.4-0.7,6.6-0.9c2.6-0.2,5.1-0.9,6.8-2.9
		C-307.4,1390.1-308.5,1389-309.1,1389.8"/>
	<path class="st1" d="M-337.2,1411.4c6.8-0.3,8.9-8.2,15.1-9.6c0.9-0.2,0.5-1.7-0.4-1.5c-6,1.4-8.4,9.3-14.7,9.6
		C-338.2,1409.9-338.2,1411.4-337.2,1411.4"/>
	<path class="st1" d="M-329.6,1405.4c-0.1,3.1-2.6,5.4-2.7,8.4c0,1.1,0.4,2.3,1.7,2.3c1.9,0,3.5-3.3,4.5-4.6c2.2-3,4.4-5.9,8.1-7.1
		c0.9-0.3,0.5-1.7-0.4-1.5c-3.9,1.2-6.4,4.2-8.7,7.4c-0.6,0.9-1.6,2.9-2.6,3.4c-1.7,0.8-0.3-2.1,0-2.9c0.8-1.8,1.6-3.5,1.6-5.5
		C-328.1,1404.5-329.6,1404.5-329.6,1405.4"/>
	<path class="st1" d="M-320.6,1404.1c-0.8,1.8-1.3,3.6-1.5,5.6c-0.1,0.9-0.5,3.3,0.3,4.2c1.7,1.8,3.5-2.3,4.1-3.2
		c1.4-2.1,2.8-4.2,4.3-6.2c2-2.4,4.2-2.6,7.1-3c3.2-0.5,5.4-2.6,6.1-5.8c0.2-0.9-1.2-1.3-1.5-0.4c-0.4,1.6-1.2,3.2-2.8,4
		c-1.6,0.9-3.5,0.6-5.2,0.9c-2,0.3-3.4,1.4-4.7,2.9c-1.7,2-3,4.2-4.5,6.3c-0.4,0.5-0.8,1.6-1.3,1.9c-0.8,0.5-0.3,0.8-0.7,0
		c-0.7-1.5,0.8-5.1,1.4-6.4C-318.9,1404-320.2,1403.2-320.6,1404.1"/>
	<path class="st1" d="M-315.6,1406.3c0,9.1,0,18.3,0,27.4c0,1,1.5,1,1.5,0c0-9.1,0-18.3,0-27.4
		C-314.1,1405.4-315.6,1405.4-315.6,1406.3"/>
	<path class="st1" d="M-371.7,1404.3c4-1.2,8.5-3.3,12.8-2.8c1,0.1,1-1.4,0-1.5c-4.4-0.5-9,1.6-13.2,2.9
		C-373.1,1403.1-372.7,1404.6-371.7,1404.3"/>
	<path class="st1" d="M-353.3,1401.2c4.8-0.2,9.5,0.3,14.2,1.4c0.9,0.2,1.3-1.2,0.4-1.5c-4.8-1.2-9.7-1.6-14.6-1.5
		C-354.2,1399.7-354.2,1401.2-353.3,1401.2"/>
	<path class="st1" d="M-355.5,1402.4c0.5,7.2,1,14.4,1.5,21.6c0.2,2.7-0.1,6.1,0.7,8.8c0.7,2,3.1,1.5,3.8,3.2
		c0.4,0.9,1.7,0.1,1.3-0.8c-0.8-1.7-2.9-1.6-3.8-3.6c-0.5-1.2-0.2-3.4-0.3-4.7c-0.1-1.7-0.3-3.5-0.4-5.2c-0.5-6.4-0.9-12.8-1.4-19.2
		C-354,1401.5-355.5,1401.5-355.5,1402.4"/>
	<path class="st1" d="M-346,1299c1.6,0.7,3.2,1.9,5,1.7c1.3-0.2,2.5-1,2.8-2.3c0.2-0.9-1.3-1.4-1.5-0.4c-0.5,2.8-4.3,0.3-5.6-0.3
		C-346.1,1297.3-346.8,1298.6-346,1299"/>
	<path class="st1" d="M-377.1,1330.5c-0.5,5.8,0.3,11.5,2.4,16.9c0.4,0.9,1.8,0.5,1.5-0.4c-2.1-5.3-2.9-10.8-2.4-16.5
		C-375.5,1329.5-377,1329.5-377.1,1330.5"/>
</g>
<g id="man1">
	<polygon class="st0" points="-442.2,1323.6 -440.8,1326.5 -439.4,1328.7 -439.7,1331.9 -441.3,1336.2 -435.2,1338.6 -434.8,1329.6 
		-431.6,1325.7 -433.4,1320.9 -435.8,1319.3 -439.7,1320.8 	"/>
	<polygon class="st0" points="-452.4,1334.1 -449.9,1335.3 -448,1333.2 -411.1,1350.4 -414.7,1361.5 -420.6,1361.6 -426.9,1362.8 
		-427.7,1365.1 -430.6,1365.7 -429.9,1369.2 -429.6,1371.2 -428.7,1372.9 -429.3,1374.9 -425.5,1377.4 -422.8,1380 -429,1396.3 
		-432.9,1402.1 -444.2,1395.8 -468.5,1385.8 -471.2,1384.9 -465.4,1371.2 -458.1,1354.3 -456,1345.6 	"/>
	<path class="st1" d="M-446.2,1266.5c-5.2,1.1-8,7.5-9,12.1c-0.2,0.9,1.2,1.3,1.5,0.4c0.9-4.1,3.3-10,7.9-11
		C-444.9,1267.7-445.3,1266.3-446.2,1266.5"/>
	<path class="st1" d="M-455.1,1281.5c2.1,4,0.3,8.2,0.2,12.4c-0.1,2.1,0.4,4.1,0.2,6.2c-0.1,1.5-0.5,3,0.1,4.5
		c2.1,5.2,11,3.6,15.1,2.8c1-0.2,0.5-1.6-0.4-1.5c-3.1,0.6-6.9,1.1-10,0.3c-4.8-1.2-3-6.2-3.3-9.9c-0.5-5.3,2.2-10.7-0.5-15.7
		C-454.2,1279.8-455.5,1280.6-455.1,1281.5"/>
	<path class="st1" d="M-448.1,1285.1C-448.1,1285.1-448,1285-448.1,1285.1c0.2-0.4,0.2-0.8-0.1-1l-0.1-0.1c-0.2-0.2-0.6-0.3-0.9-0.1
		c-0.8,0.5-0.7,2.1-0.9,2.9c-0.4,1.4-1.5,2.6-1.8,4.1c-0.1,0.7,0.1,1.4,0.6,1.9c0.7,0.6,2.3,0.4,2.7,1.2c0.4,0.9,1.7,0.1,1.3-0.8
		c-0.6-1.3-2.6-0.9-3-1.9c-0.3-0.6,0.9-2.3,1.2-3c0.2-0.6,0.4-1.1,0.6-1.7c0-0.2,0.3-1.5,0.1-1.4c-0.3,0-0.6-0.1-0.9-0.1l0.1,0.1
		c0-0.3-0.1-0.6-0.1-0.9v0.1C-449.8,1285.2-448.5,1286-448.1,1285.1"/>
	<path class="st1" d="M-443.1,1297.4c-1.1,0.9-3.4-1.3-4.7-1.5c-1.4-0.2-2.6,0.3-3.7,1.2c-0.7,0.6,0.3,1.7,1.1,1.1
		c3-2.5,5.5,2.5,8.4,0.3C-441.3,1297.8-442.3,1296.8-443.1,1297.4"/>
	<path class="st1" d="M-450.9,1296.6c-0.1-0.1-0.2-0.2-0.3-0.3c-0.7-0.7-1.7,0.4-1.1,1.1c0.1,0.1,0.2,0.2,0.3,0.3
		C-451.3,1298.4-450.2,1297.3-450.9,1296.6"/>
	<path class="st1" d="M-431.7,1283.9c0.2,3.2,0.5,6.4,0.7,9.6c0.1,1,1.6,1,1.5,0c-0.2-3.2-0.5-6.4-0.7-9.6
		C-430.3,1282.9-431.8,1282.9-431.7,1283.9"/>
	<path class="st1" d="M-426.9,1294.1c0.4-0.1,0.7-0.1,1.1-0.2c0.2,0.2,0.3,0.3,0.5,0.5c0.2,0.4,0.3,0.7,0.4,1.1
		c0.1,0.8,0,1.5-0.4,2.2c-1,1.6-3,2.4-4.6,3c-0.9,0.4-0.5,1.8,0.4,1.5c3-1.2,6.9-3.2,6.1-7.2c-0.3-1.3-1.1-2.5-2.4-2.8
		c-1.2-0.3-2.7,0.5-2.5,1.8C-428.3,1295.1-426.8,1295.1-426.9,1294.1"/>
	<path class="st1" d="M-423.8,1287.9c-0.4,1.8-0.8,3.6-1.2,5.4c-0.2,0.9,1.2,1.3,1.4,0.4c0.4-1.8,0.8-3.6,1.2-5.4
		C-422.2,1287.4-423.6,1287-423.8,1287.9"/>
	<path class="st1" d="M-425.8,1286.7c-0.5,1.9-0.8,3.9-0.9,5.9c0,1,1.5,1,1.5,0c0.1-1.9,0.4-3.7,0.9-5.5
		C-424,1286.2-425.5,1285.8-425.8,1286.7"/>
	<path class="st1" d="M-428.2,1286c-0.1,2.2-0.3,4.4-0.4,6.6c-0.1,1,1.4,1,1.5,0c0.1-2.2,0.3-4.4,0.4-6.6
		C-426.6,1285-428.1,1285-428.2,1286"/>
	<path class="st1" d="M-427.9,1300.2c-1.9,5.3-2.3,10.7-1,16.2c0.2,0.9,1.7,0.5,1.5-0.4c-1.2-5.2-0.9-10.3,1-15.4
		C-426.1,1299.7-427.6,1299.3-427.9,1300.2"/>
	<path class="st1" d="M-451.2,1307.2c-0.3,1.3-0.6,2.6-0.9,3.9c-0.2,0.9,1.2,1.3,1.5,0.4c0.3-1.3,0.6-2.6,0.9-3.9
		C-449.5,1306.6-451,1306.2-451.2,1307.2"/>
	<path class="st1" d="M-421,1325c2.2,2.3,5,3.5,7.6,5.3c3.8,2.6,4.9,6.5,6.1,10.7c2.4,8.4,4.8,16.8,6.5,25.3c0.9,4.5,1.7,9,2.1,13.5
		c0.1,0.8,0.4,1.8,0.2,2.6c-0.7,2.6-1.7,1.8-3,2.6c-0.9,0.6-1.7,1.1-2.4,2c-1.6,1.8-3,5.2-5.6,5.6c-4.4,0.6-5.2-6.6-5.8-9.6
		c-0.2-0.9-1.7-0.5-1.5,0.4c0.9,4.1,3.7,14.8,10,9.5c1.1-0.9,1.8-2,2.6-3.1c0.6-0.8,1.2-1.7,2-2.5c0.9-0.8,2-1,3-1.6
		c3.4-2.1,1.8-6.6,1.4-9.9c-1.5-10.8-4.3-21.4-7.2-31.9c-1.1-3.9-1.9-8.4-4.3-11.7c-2.8-3.8-7.6-5-10.7-8.3
		C-420.6,1323.3-421.7,1324.3-421,1325"/>
	<path class="st1" d="M-415,1383.9c4.3,0.5,8.4-2.9,8.3-7.3c-0.1-5.8-2.6-11.9-7.6-14.9c-0.8-0.5-1.6,0.8-0.8,1.3
		c4.1,2.4,5.5,6.2,6.5,10.7c0.5,2.4,0.8,4.5-0.8,6.5c-1.4,1.8-3.4,2.5-5.6,2.2C-416,1382.3-415.9,1383.8-415,1383.9"/>
	<path class="st1" d="M-408.7,1367.6c0.7-1,1.4-2,2.1-3c0.6-0.8-0.7-1.5-1.3-0.8c-0.7,1-1.4,2-2.1,3
		C-410.6,1367.6-409.3,1368.4-408.7,1367.6"/>
	<path class="st1" d="M-406.6,1373.5c1.2-0.7,2.5-1.2,3.8-1.6c0.9-0.3,0.5-1.7-0.4-1.5c-1.4,0.4-2.8,1-4.2,1.7
		C-408.2,1372.6-407.5,1373.9-406.6,1373.5"/>
	<path class="st1" d="M-411.3,1392.6c-0.2-0.6,0.2-1.5,0.6-1.9c0.3-0.3,0.6-0.5,1-0.7c0.6-0.4,1.2-0.6,1.8-1s1.3-1.1,1.1-1.9
		c-0.2-0.6-0.9-1-1.6-1c-0.5,0-0.9,0.4-1.3,0.6c-0.9,0.6-1.9,0.9-3,0.7l0.5,0.9c0.2-1.1,0.6-2,1.4-2.8c0.7-0.7-0.4-1.8-1.1-1.1
		c-1,1-1.6,2.1-1.8,3.5c-0.1,0.4,0.1,0.8,0.5,0.9c1.1,0.2,2.1,0.2,3.1-0.2c0.2-0.1,1.3-0.8,1.2-0.8c-0.3,0-1.3,0.7-1.6,0.9
		c-1.7,1-3,2.6-2.1,4.6C-412.2,1394.3-410.9,1393.5-411.3,1392.6"/>
	<path class="st1" d="M-414.9,1361.4c-3.6-0.7-8.5-1.1-12,0.5c-1.9,0.9-2.1,3.9,0.4,3.8c1,0,1-1.5,0-1.5c-0.2-0.7,0-1,0.6-1.1
		c0.4-0.2,0.9-0.3,1.4-0.4c1.1-0.2,2.2-0.4,3.3-0.4c2-0.1,4,0.1,6,0.4C-414.3,1363.1-413.9,1361.6-414.9,1361.4"/>
	<path class="st1" d="M-416.3,1365.7c-3.7-0.5-7.3-0.8-11-0.9c-1.5,0-4.2-0.4-4.7,1.5c-0.6,2.2,3,3.6,4.4,4.2
		c1.5,0.6,8.1,3.3,9.3,1.5c0.3-0.1,0.7-0.2,1-0.3c-0.1,0-0.1-0.1-0.2-0.1c-0.8-0.5-1.6,0.8-0.8,1.3c0.1,0,0.1,0.1,0.2,0.1
		c0.4,0.2,0.8,0.1,1-0.3c0.1-0.1,0.1-0.2,0.2-0.3c0.2-0.3,0.1-0.7-0.1-0.9c-0.9-0.8-2.2-0.5-3.3-0.7c-2.8-0.3-5.6-1.1-8.1-2.4
		c-0.5-0.2-0.9-0.5-1.4-0.7c-0.3-1.3,0.1-1.8,1.3-1.5c0.9-0.3,2.4,0,3.3,0.1c2.8,0.1,5.6,0.4,8.4,0.8
		C-415.8,1367.2-415.4,1365.8-416.3,1365.7"/>
	<path class="st1" d="M-430.6,1369c-0.9,2.6,2.1,4.3,4,5.4c2.9,1.7,6.1,2.6,9.5,3c1,0.1,1-1.4,0-1.5c-2.4-0.3-4.7-0.9-6.8-1.9
		c-1.5-0.7-5.9-2.6-5.2-4.7C-428.9,1368.5-430.3,1368.1-430.6,1369"/>
	<path class="st1" d="M-429.1,1372.3c-2.4,1.5-0.5,3.7,1.2,4.8c2.2,1.3,4.5,2.4,6.8,3.6c2.2,1.2,4.3,2.6,6.8,3
		c0.9,0.2,1.4-1.3,0.4-1.5c-2.8-0.5-5.4-2.3-7.8-3.6c-1.1-0.6-2.3-1.2-3.4-1.8c-0.2-0.1-4.7-2.2-3.1-3.2
		C-427.5,1373-428.2,1371.7-429.1,1372.3"/>
	<path class="st1" d="M-411.2,1349.5c-1.4,4-2.8,7.9-4.2,11.9c-0.3,0.9,1.1,1.3,1.5,0.4c1.4-4,2.8-7.9,4.2-11.9
		C-409.5,1349-410.9,1348.6-411.2,1349.5"/>
	<path class="st1" d="M-449,1333.1c-4.1,9.5-8.2,19-12.2,28.5c-2,4.7-4.1,9.5-6.1,14.2c-0.9,2.1-1.8,4.3-2.8,6.4
		c-0.4,1-0.9,1.6-0.4,2.6c0.1,0.3,0.6,0.5,0.8,0.3l0.2-0.1c0.3-0.1,0.5-0.4,0.6-0.7v-0.2c0-0.4-0.4-0.7-0.8-0.8h-0.1
		c-1-0.1-1,1.4,0,1.5h0.1c-0.3-0.3-0.5-0.5-0.8-0.8c1-0.3,1.6-0.9,1.8-1.7l0.7-1.6c0.5-1.1,0.9-2.1,1.4-3.2c0.9-2,1.7-4,2.6-6
		c1.8-4.2,3.6-8.4,5.4-12.6c3.6-8.4,7.2-16.8,10.8-25.2C-447.3,1333-448.6,1332.2-449,1333.1"/>
	<path class="st1" d="M-423.5,1379.8c-2.1,7.8-5.5,15.1-10.1,21.8c0.3-0.1,0.7-0.2,1-0.3c-5.2-4-11.4-6.3-17.3-8.9
		c-6.7-3-13.5-5.9-20.2-8.9c-0.9-0.4-1.6,0.9-0.8,1.3c6.7,3,13.5,5.9,20.2,8.9c5.9,2.6,12.2,4.9,17.3,8.9c0.3,0.3,0.8,0,1-0.3
		c4.6-6.8,8-14.3,10.2-22.2C-421.8,1379.3-423.2,1378.9-423.5,1379.8"/>
	<path class="st1" d="M-413.4,1393.5c-0.1,2.4-0.8,3.2-2.7,4.5c-0.4,0.3-2.9,2.1-3.3,2c0,0-1.1-1.7-1.3-1.8
		c-0.5-0.5-1.2-0.9-1.8-1.2c-1.6-0.7-8.2-2.1-8.5,0.7c-0.1,1,1.4,1,1.5,0c0,0,4.8,0.2,4.9,0.2c2.2,0.5,2.6,1.9,4.2,3
		c0.8,0.6,0.9,0.5,1.8,0.3c1.5-0.4,4.3-2.2,5.3-3.4c1.1-1.2,1.3-2.8,1.4-4.4C-411.8,1392.5-413.3,1392.5-413.4,1393.5"/>
	<path class="st1" d="M-418.1,1400.9c-0.6,6.1-0.7,12.3-0.3,18.5c0.2,2.8,0.5,5.5,0.9,8.2c0.3,2,0.3,4.6,1.2,6.5
		c0.2,0.4,0.7,0.5,1,0.3c0.1,0,0.1-0.1,0.2-0.1c0.3-0.2,0.5-0.7,0.3-1l-0.1-0.1c-0.6-0.8-1.9,0-1.3,0.8c0,0,0,0.1,0.1,0.1
		c0.1-0.3,0.2-0.7,0.3-1c-0.1,0-0.1,0.1-0.2,0.1c0.3,0.1,0.7,0.2,1,0.3c-0.8-1.6-0.8-4.3-1-6.1c-0.4-3.2-0.7-6.4-0.9-9.6
		c-0.3-5.6-0.1-11.2,0.4-16.7C-416.5,1400-418,1400-418.1,1400.9"/>
	<path class="st1" d="M-457.6,1315.5c-8.3,1.1-16.2,3.8-23.3,8.2c-8,5-14.3,12.2-20.9,18.9c-6,6.1-13.2,13.1-16.3,21.3
		c-2.9,7.8,2.5,16.1,6.9,22.2c2.5,3.5,5.4,6.7,8.8,9.2c1.6,1.2,3.4,2.2,5.3,3c2.6,1.1,5.4,1.7,7.6,3.6c0.7,0.6,1.8-0.4,1.1-1.1
		c-3.3-2.8-7.7-3.4-11.3-5.6c-4.3-2.7-7.8-6.5-10.7-10.7c-2.8-4.1-5.9-8.9-6.8-13.8c-1.2-6.5,3.6-12.6,7.5-17.3
		c3.4-4.2,7.2-8,11-11.8c4-4,7.8-8.3,12.1-11.9c8.2-7,18.5-11.4,29.1-12.8C-456.7,1316.9-456.6,1315.4-457.6,1315.5"/>
	<path class="st1" d="M-474.9,1322.7c1.3,4.7,2.6,9.8,1.3,14.6c-0.5,1.7-1.4,3.2-1.5,5c-0.1,1.7,0.5,3.4,1,4.9
		c0.2-0.3,0.5-0.6,0.7-1c-2.9,0-5.6,0.6-6,3.8c-0.2,1.7-0.2,2.7-1.4,4c-0.6,0.6-1.3,1.2-1.9,1.8c-0.9,1-1.3,1.9-1.4,3.2
		c-0.1,1,1.4,1,1.5,0c0.1-2.6,3.3-3.7,4.3-5.9c0.4-0.9,0.3-1.7,0.4-2.6c0.4-2.7,2.3-2.8,4.5-2.8c0.5,0,0.9-0.5,0.7-1
		c-0.9-2.5-1.1-4.6-0.3-7.2c0.6-1.8,1.1-3.4,1.3-5.3c0.3-4.1-0.8-8.2-1.9-12.1C-473.7,1321.3-475.1,1321.7-474.9,1322.7"/>
	<path class="st1" d="M-483.7,1358.5c-2.4,1.5-4.8,3-7.3,4.5c-1,0.6-2.3,1.8-3.4,2.1c-2.9,0.7-3.4-1.1-5.1-2.4
		c-1.2-1-4.9-3.3-6.3-1.3c-0.4,0.6-0.3,1.3,0.1,1.9c0.5,0.7,3.9,1.5,1.7,0.8c-2.8-1-5.9,0-6.3,3.2c0,0.3,0.2,0.5,0.4,0.6
		c0.1,0.1,0.2,0.1,0.3,0.2c0.3,0.2,0.7,0.1,0.9-0.1c0.1-0.1,0.2-0.1,0.2-0.2c0.7-0.6-0.3-1.7-1.1-1.1c2.6-2.2,3.6-1.4,6.1-0.8
		c0.5,0.1,0.9,0.4,1.4,0.3c0.6-0.1,1.1-0.5,1.2-1.1c0.2-0.7-0.1-1.1-0.6-1.5c-0.3-0.3-1.3-0.5-1.6-0.6c-2.2-1,1-0.1,1.8,0.3
		c2.3,1.3,3.6,4.7,6.7,3.5c1.7-0.6,3.2-1.9,4.7-2.8c2.3-1.4,4.5-2.8,6.8-4.2C-482.2,1359.3-482.9,1358-483.7,1358.5"/>
	<path class="st1" d="M-497.2,1367c-0.3,2.2-0.5,4.5,0.7,6.4c1.2,2.1,3.5,3.1,4.8,5.1c1.2,1.9,1.7,4.1,3,5.9c1.6,2.3,4.8,3.3,5.9,6
		c0.2-0.3,0.5-0.6,0.7-1c-6.4,0.1-10.1,6.5-7,12.1c0.5,0.8,1.8,0.1,1.3-0.8c-2.5-4.6,0.5-9.8,5.7-9.9c0.4,0,0.9-0.5,0.7-1
		c-0.6-1.5-1.5-2.4-2.7-3.4c-2.4-2-3.8-3.5-5.1-6.3c-1-2.1-2-3.6-3.7-5.1c-2.7-2.4-3.3-4.6-2.9-8.2
		C-495.5,1366.1-497,1366.1-497.2,1367"/>
	<path class="st1" d="M-497.7,1396.4c0.1-3.9,1.3-7.3,3.6-10.4c0.6-0.8-0.7-1.5-1.3-0.8c-2.5,3.3-3.8,7.1-3.8,11.2
		C-499.2,1397.4-497.7,1397.4-497.7,1396.4"/>
	<path class="st1" d="M-478.6,1353.8c1.9,3.1,3,6.5,3.4,10.2c0.2,2.6,0.2,5.4,1.3,7.8c0.5,1.1,1.8,2.2,2,3.3c0.4,2-0.9,2.9-1.4,4.5
		c-0.2,0.7-0.2,1.3,0.1,2c0.3,0.5,1.6,1.1,1.6,1.6c0,1,1.5,1,1.5,0s-0.2-0.8-0.7-1.6c-0.7-1.2-1.9,1.3-0.4-2.4
		c0.1-0.3,0.5-0.5,0.6-0.8c0.9-2.6,0.1-3.5-1.3-5.9c-1.8-3.1-1.5-6.6-2-10.1c-0.5-3.3-1.7-6.4-3.4-9.3
		C-477.8,1352.2-479.1,1353-478.6,1353.8"/>
	<path class="st1" d="M-484.2,1360c1.7,4.3,2.6,8.5,3.1,13.1c0.1,1,0.2,2,0.8,2.9c0.9,1.3,2.2,1,2.2,3c0,1.3-0.7,2.2-0.6,3.5
		c0.2,1.5,0.7,2.9,1.2,4.3c0.7,1.9,0.1,5.4,2.3,6.2c0.9,0.3,1.3-1.1,0.4-1.5c-0.4-0.2-0.8-3.7-1-4.3c-0.4-1.5-1.2-2.9-1.4-4.4
		c-0.2-1.6,0.1-2.3,0.6-3.8c0.1-0.3,0.2-0.6,0.2-0.9c0-0.5-0.1-0.9-0.4-1.3c-0.6-0.9-1.6-1-2.3-2c-0.9-1.4-0.8-3-1-4.6
		c-0.5-3.7-1.5-7.3-2.9-10.7C-483.1,1358.7-484.6,1359.1-484.2,1360"/>
	<path class="st1" d="M-444.2,1395.6c-3.7,0.3-7.3,1-10.8,2.1c-0.9,0.3-0.5,1.7,0.4,1.5c3.4-1.1,6.8-1.7,10.4-2
		C-443.3,1397-443.3,1395.5-444.2,1395.6"/>
	<path class="st1" d="M-481.6,1390.8c1.6,1.9,3.8,2.6,6.3,2.9c2.4,0.3,4.8,0.1,7.2,0.9c1.5,0.5,2.8,1.3,4.4,1.6
		c2.7,0.4,4.7-0.2,7.1,1.6c0.9,0.7,1.7,1.4,2.6,2.1c0.3,0.2,0.6,0.5,0.9,0.7c1,0.6,1.2,0.8,0.6,0.6c-0.3,1.2-5.8-1.8-6.5-2.1
		c-1.4-0.7-2.7-1-4.3-0.8c-0.9,0.1-1,1.1-0.2,1.5c4.8,2,8.5,5.7,10.4,10.5c0.4,0.9,1.8,0.5,1.4-0.4c-2.1-5.4-6.1-9.4-11.4-11.5
		c-0.1,0.5-0.1,1-0.2,1.5c2.9-0.4,5,1.7,7.6,2.5c1.2,0.4,3.2,0.8,4.3-0.2c2.1-1.8-2.2-3.9-3.3-4.8c-1.3-1.1-2.7-2.3-4.4-2.7
		c-1.2-0.2-2.4,0.1-3.6,0.1c-1.4-0.1-2.7-0.7-4-1.2c-4.3-1.7-10.7-0.1-13.8-3.9C-481.2,1389-482.2,1390.1-481.6,1390.8"/>
	<path class="st1" d="M-452.5,1409.9c-6.3-0.3-8.7-8.2-14.7-9.6c-0.9-0.2-1.3,1.2-0.4,1.5c6.2,1.5,8.3,9.3,15.1,9.6
		C-451.5,1411.4-451.5,1409.9-452.5,1409.9"/>
	<path class="st1" d="M-461.5,1405.4c0,1.9,0.7,3.4,1.4,5.1c0.3,0.6,2,3.5,0.5,3.6c-0.6,0-2.5-3.2-2.8-3.7c-2.3-3.2-4.8-6.2-8.7-7.4
		c-0.9-0.3-1.3,1.2-0.4,1.5c3.7,1.1,5.9,4.1,8.1,7.1c0.9,1.3,2.6,4.6,4.5,4.6c1.2,0,1.7-1.2,1.7-2.3c-0.1-3-2.6-5.3-2.7-8.4
		C-460.1,1404.5-461.6,1404.5-461.5,1405.4"/>
	<path class="st1" d="M-470.4,1404.9c0.7,1.8,1.5,3.9,1.4,5.9c-0.1,2.2-1,0.2-1.7-0.9c-1.6-2.3-3-4.7-4.8-6.8
		c-1.2-1.5-2.7-2.5-4.6-2.9c-1.5-0.3-3.2-0.1-4.6-0.7c-1.9-0.8-3-2.3-3.4-4.3c-0.2-0.9-1.7-0.5-1.4,0.4c0.7,3.1,2.9,5.3,6.1,5.8
		c2.5,0.4,4.7,0.4,6.6,2.4s3.3,4.6,4.9,6.8c0.8,1.1,2.4,4.9,4.1,3.2c0.9-0.8,0.4-3.3,0.3-4.2c-0.2-1.9-0.8-3.8-1.5-5.6
		C-469.5,1403.2-470.8,1404-470.4,1404.9"/>
	<path class="st1" d="M-475.6,1406.3c0,9.1,0,18.3,0,27.4c0,1,1.5,1,1.5,0c0-9.1,0-18.3,0-27.4
		C-474,1405.4-475.5,1405.4-475.6,1406.3"/>
	<path class="st1" d="M-417.5,1402.9c-4.2-1.3-8.8-3.4-13.2-2.9c-1,0.1-1,1.6,0,1.5c4.3-0.5,8.8,1.6,12.8,2.8
		C-417,1404.6-416.6,1403.1-417.5,1402.9"/>
	<path class="st1" d="M-436.4,1399.7c-5-0.2-9.8,0.3-14.6,1.5c-0.9,0.2-0.5,1.7,0.4,1.5c4.7-1.1,9.4-1.6,14.2-1.4
		C-435.4,1401.2-435.4,1399.7-436.4,1399.7"/>
	<path class="st1" d="M-435.7,1400.8c-0.5,6.7-0.9,13.3-1.4,20c-0.2,3.1-0.1,6.4-0.6,9.4c-0.2,1.3-0.6,2.4-1.7,3.3
		c-0.3,0.2-0.7,0.2-1,0.4c-0.5,0.4-0.8,0.6-1.1,1.3c-0.4,0.9,0.9,1.6,1.3,0.8c0.7-1.7,3.2-1.2,3.8-3.3c0.8-2.9,0.5-6.5,0.7-9.5
		c0.5-7.4,1-14.9,1.5-22.3C-434.2,1399.8-435.7,1399.8-435.7,1400.8"/>
	<path class="st1" d="M-444.1,1267.2c2.5,0.7,4.7,0.4,7.2,0.4c3,0,6,1.3,8.6,2.6c2.9,1.4,4.7,3.4,5.4,6.6c0.6,3,0.6,6.1,0.4,9.2
		c-0.1,1,1.4,1,1.5,0c0.3-5.2,0.6-12.3-4.1-15.7c-2.3-1.7-5.4-2.9-8.1-3.7c-3.5-1-7,0.1-10.5-0.9
		C-444.7,1265.5-445.1,1266.9-444.1,1267.2"/>
	<path class="st1" d="M-423,1285.8c-0.3,1.3-0.8,2.5-1.5,3.7c-0.5,0.8,0.8,1.6,1.3,0.8c0.7-1.3,1.3-2.6,1.7-4.1
		C-421.3,1285.3-422.7,1284.9-423,1285.8"/>
	<path class="st1" d="M-443.2,1267c-2.2-1.3-5,2.2-6.1,3.7c-2,2.7-3,5.9-3.1,9.3c0,1,1.5,1,1.5,0c0-2.5,0.6-4.8,1.8-6.9
		c0.5-0.9,3.7-5.6,5.1-4.8C-443.1,1268.8-442.4,1267.5-443.2,1267"/>
	<path class="st1" d="M-451.1,1280c5.2-1.2,12.2,1.7,17.1,3.4c0.9,0.3,1.3-1.1,0.4-1.4c-5.3-1.8-12.2-4.8-17.9-3.4
		C-452.4,1278.7-452,1280.2-451.1,1280"/>
	<path class="st1" d="M-433.5,1283.1c0.5,1.1,0.9,2.2,1.4,3.2c0.4,0.9,1.7,0.1,1.3-0.8c-0.5-1.1-0.9-2.2-1.4-3.2
		C-432.6,1281.4-433.9,1282.2-433.5,1283.1"/>
	<path class="st1" d="M-452.6,1310.2c-2,0.9-1,3,0.4,3.9c3.4,2.3,8.4,3.4,12.4,4.4c3.3,0.8,7.2,1.9,10.4,0c1.6-0.9,3.7-3.4,1.7-4.9
		c-0.8-0.6-1.8,0.5-1.1,1.1c2.1,1.7-3.1,3.2-3.7,3.3c-1.3,0.2-2.5,0-3.7-0.2c-1.8-0.3-3.6-0.8-5.3-1.3c-1.6-0.5-3.2-1-4.8-1.5
		c-0.9-0.3-1.7-0.6-2.6-1c0,0-4.3-1.8-2.9-2.4C-450.9,1311.1-451.7,1309.8-452.6,1310.2"/>
	<path class="st1" d="M-453.8,1309.5c-1.9,1.9-3.3,4.1-4.2,6.7c-0.1,0.3,0.1,0.7,0.3,0.8c1.2,0.5,1.5,1.6,2.2,2.5
		c0.8,1.1,1.9,1.7,2.9,2.6c2.1,1.8,3.6,4,5.1,6.3c0.5,0.8,1.8,0.1,1.3-0.8c-2-3.2-4.2-5.4-6.9-7.9c-0.7-0.7-2.7-2.6-3.1-3.7
		c-0.5-1.5,2.6-4.7,3.4-5.5C-452.1,1309.9-453.1,1308.8-453.8,1309.5"/>
	<path class="st1" d="M-445.8,1328.7c2-2.9,7.9-11.6,11.8-7.2c2.1,2.4,1.5,6.2,4,8.6c0.7,0.7,1.7-0.4,1.1-1.1
		c-2.8-2.8-2-10.2-7.3-10.5c-4.5-0.2-8.6,6.2-10.8,9.4C-447.6,1328.8-446.3,1329.5-445.8,1328.7"/>
	<path class="st1" d="M-429,1331.3c2.6-1.9,5.3-3.8,8-5.5c0.8-0.5,0.1-1.8-0.8-1.3c-2.7,1.7-5.4,3.6-8,5.5
		C-430.5,1330.6-429.7,1331.9-429,1331.3"/>
	<path class="st1" d="M-427.5,1314.5c1.7,3.8,3.7,7.4,6.3,10.7c0.6,0.8,1.9,0,1.3-0.8c-2.5-3.3-4.6-6.9-6.3-10.7
		C-426.6,1312.9-427.9,1313.7-427.5,1314.5"/>
	<path class="st1" d="M-442.9,1323.8c0.8,3,3,5.3,5.9,6.4c0.9,0.3,1.3-1.1,0.4-1.5c-2.4-0.8-4.2-2.8-4.9-5.3
		C-441.7,1322.4-443.1,1322.8-442.9,1323.8"/>
	<path class="st1" d="M-436.7,1330.1c2.7,0,5-1.7,5.9-4.2c0.3-0.9-1.1-1.3-1.5-0.4c-0.7,1.9-2.5,3.1-4.4,3.1
		C-437.7,1328.6-437.7,1330.1-436.7,1330.1"/>
	<path class="st1" d="M-440.1,1328.7c0,2.1-0.5,4.1-1.3,6.1c-0.4,0.9,1.1,1.3,1.5,0.4c0.9-2.1,1.3-4.2,1.4-6.5
		C-438.6,1327.7-440.1,1327.7-440.1,1328.7"/>
	<path class="st1" d="M-438,1330l-0.4,2.7c-0.1,0.4,0.1,0.8,0.5,0.9s0.9-0.1,0.9-0.5c0.1-0.9,0.3-1.8,0.4-2.7
		c0.1-0.4-0.1-0.8-0.5-0.9S-438,1329.6-438,1330"/>
	<path class="st1" d="M-440.9,1322.4c0.1,1.9,0.7,3.6,1.8,5.1c0.5,0.8,1.9,0,1.3-0.8c-0.9-1.3-1.4-2.8-1.5-4.4
		C-439.4,1321.4-440.9,1321.4-440.9,1322.4"/>
	<path class="st1" d="M-434.2,1323.1c-0.5,1.8-1.3,3.4-2.3,4.9c-0.5,0.8,0.8,1.6,1.3,0.8c1.1-1.7,1.9-3.4,2.5-5.3
		C-432.4,1322.5-433.9,1322.2-434.2,1323.1"/>
	<path class="st1" d="M-450,1299.6c0.7,0,1.4,0.2,2,0.6c0.8,0.5,1.6-0.8,0.8-1.3c-0.8-0.5-1.8-0.8-2.7-0.8
		C-450.9,1298.1-450.9,1299.6-450,1299.6"/>
	<path class="st1" d="M-412.6,1332.9c0.2,3.2-0.1,6.1-0.8,9.2c-0.5,2.3-1,4.3-0.5,6.6c0.2,0.9,1.7,0.5,1.5-0.4
		c-0.7-3.1,0.7-5.9,1.1-8.9c0.3-2.2,0.4-4.3,0.2-6.5C-411.1,1332-412.6,1331.9-412.6,1332.9"/>
	<path class="st1" d="M-455.1,1284.3c1.8,0,3.6,0.4,5.3,1c0.9,0.4,1.3-1.1,0.4-1.5c-1.8-0.7-3.7-1.1-5.7-1.1
		C-456.1,1282.8-456.1,1284.3-455.1,1284.3"/>
	<path class="st1" d="M-456.5,1283.9c-0.2,1.4-0.3,2.9-0.2,4.3c0,0.3,0.2,0.7,0.6,0.7c1.6,0.3,3.2,0.5,4.8,0.8
		c0.9,0.2,1.4-1.3,0.4-1.4c-1.6-0.3-3.2-0.5-4.8-0.8c0.2,0.2,0.4,0.5,0.6,0.7c-0.1-1.3-0.1-2.6,0.1-3.9
		C-455,1283.4-456.4,1283-456.5,1283.9"/>
	<path class="st1" d="M-448.3,1285.6c0.6-0.2,1.3,0,1.5,0.6c0.3,0.9,1.8,0.5,1.5-0.4c-0.5-1.3-2-2.1-3.3-1.7
		C-449.6,1284.4-449.2,1285.9-448.3,1285.6"/>
	<path class="st1" d="M-446.1,1286.3c-0.6,1.6-0.1,3.5,1.3,4.5c1.8,1.3,4.7,1.2,6.8,1c1-0.1,1-1.6,0-1.5c-2.3,0.2-8.1,0.2-6.7-3.6
		C-444.3,1285.8-445.8,1285.4-446.1,1286.3"/>
	<path class="st1" d="M-444.4,1286.2c0-0.3,4.4,0.3,4.7,0.4c0.9,0.1,1.8-0.1,1.8,1c0,0.8-0.5,1.7-0.7,2.4c-0.3,0.9,1.2,1.3,1.5,0.4
		c0.3-1.1,1.3-3.1,0.7-4.2c-0.5-1-1.8-0.9-2.7-1.1c-1.4-0.2-6.9-1.8-6.8,1C-445.8,1287.2-444.3,1287.2-444.4,1286.2"/>
	<path class="st1" d="M-437,1288.9c2.6,0.9,5,2,7.4,3.4c0.8,0.5,1.6-0.8,0.8-1.3c-2.5-1.4-5.1-2.6-7.8-3.5
		C-437.5,1287.2-437.9,1288.6-437,1288.9"/>
	<path class="st1" d="M-443.1,1287.1c-0.5,0.5-0.4,1.3,0.1,1.8c0.6,0.6,1.4,0.3,2.1,0.1c0.4-0.2,0.5-0.7,0.3-1
		c-0.2-0.4-0.7-0.4-1-0.3c0,0-0.4,0.2-0.4,0.1c0.2,0.1,0.2,0.1,0.1,0.1l0,0c0,0.1,0,0.3-0.1,0.4
		C-441.3,1287.5-442.4,1286.5-443.1,1287.1"/>
	<path class="st1" d="M-452.7,1286.9c0.5,0.3,1.2,0.3,1.7,0c0.8-0.5,0.1-1.8-0.8-1.3c-0.1,0.1-0.1,0,0,0c0,0-0.1,0-0.1-0.1
		c-0.3-0.2-0.8-0.1-1,0.3C-453.2,1286.3-453.1,1286.7-452.7,1286.9"/>
	<path class="st1" d="M-448.4,1333.9c6.1,2.7,12.3,5.4,18.4,8.1c2.9,1.3,5.8,2.6,8.7,3.8c1.6,0.7,3.2,1.4,4.9,2.2
		c1.5,0.7,3.8,1.3,4.7,2.7c0.5,0.8,1.8,0.1,1.3-0.8c-1.3-2.1-4.2-2.8-6.3-3.7c-3.4-1.5-6.9-3-10.3-4.6c-6.9-3-13.8-6-20.6-9
		C-448.5,1332.2-449.3,1333.5-448.4,1333.9"/>
	<path class="st1" d="M-452.4,1334.9c0.8,0,1.4,0.3,1.9,0.9c0.6,0.7,1.7-0.3,1.1-1.1c-0.7-0.9-1.9-1.4-3-1.3
		C-453.3,1333.4-453.3,1334.9-452.4,1334.9"/>
	<path class="st1" d="M-453.2,1334.3c-3.8,13.5-8.5,26.7-14.1,39.5c-0.4,0.9,0.9,1.6,1.3,0.8c5.7-13,10.4-26.3,14.3-39.9
		C-451.5,1333.7-452.9,1333.3-453.2,1334.3"/>
	<path class="st1" d="M-467.4,1373.9c-1.4,3.6-3.2,7.1-5.2,10.4c-0.5,0.8,0.8,1.6,1.3,0.8c2.1-3.4,3.9-7,5.4-10.7
		C-465.6,1373.4-467,1373-467.4,1373.9"/>
	<path class="st1" d="M-472,1385.8c2.5-0.3,4.8,0.3,6.8,1.6c0.8,0.5,1.6-0.8,0.8-1.3c-2.3-1.5-4.9-2.1-7.6-1.8
		C-472.9,1384.4-472.9,1385.9-472,1385.8"/>
	<path class="st1" d="M-471.4,1385.6c7.6,2.9,15.1,5.5,21.8,10.2c0.8,0.6,1.5-0.7,0.8-1.3c-6.8-4.8-14.4-7.5-22.1-10.4
		C-471.9,1383.8-472.3,1385.3-471.4,1385.6"/>
	<path class="st1" d="M-449,1395.9c4.1,1.1,7.5,3.4,10.3,6.7c0.4,0.5,1.1,0.1,1.3-0.3c0.4-0.4,0.8-0.9,1.1-1.3
		c0.8-0.5,0.1-1.8-0.8-1.3c-1,0.6-1.4,1.2-1.8,2.2l1.3-0.3c-2.9-3.5-6.6-5.9-10.9-7.1C-449.6,1394.2-450,1395.6-449,1395.9"/>
	<path class="st1" d="M-447.4,1334.4c-7.4,17-14.7,34-21.8,51.2c-0.4,0.9,1.1,1.3,1.5,0.4c7.1-17,14.3-33.9,21.7-50.8
		C-445.7,1334.3-447,1333.5-447.4,1334.4"/>
	<path class="st1" d="M-435.6,1329.4c-0.5,3.1-0.7,6.1-0.4,9.3c0.1,1,1.6,1,1.5,0c-0.3-3-0.2-5.9,0.3-8.9
		C-433.9,1328.8-435.4,1328.4-435.6,1329.4"/>
</g>
</svg>
